<svg width="692" height="444" viewBox="0 0 692 444" fill="none" xmlns="http://www.w3.org/2000/svg">
<g clip-path="url(#clip0_1934_373)">
<path d="M177.941 93.9109L250.181 51.9209C251.421 51.2009 252.951 51.2009 254.191 51.9209L326.591 93.7909C329.251 95.3309 329.251 99.1709 326.591 100.711L254.081 142.801C252.841 143.521 251.301 143.521 250.061 142.801L177.931 100.821C175.281 99.2809 175.281 95.4509 177.931 93.9009L177.941 93.9109Z" fill="#FFD313" fill-opacity="0.5"/>
<path d="M356.09 195.581L428.33 153.591C429.57 152.871 431.1 152.871 432.34 153.591L504.74 195.461C507.4 197.001 507.4 200.841 504.74 202.381L432.23 244.471C430.99 245.191 429.45 245.191 428.21 244.471L356.08 202.491C353.43 200.951 353.43 197.121 356.08 195.571L356.09 195.581Z" fill="#FFD313" fill-opacity="0.5"/>
<path d="M443.21 144.71L515.45 102.72C516.69 102 518.22 102 519.46 102.72L591.86 144.59C594.52 146.13 594.52 149.97 591.86 151.51L519.35 193.6C518.11 194.32 516.57 194.32 515.33 193.6L443.2 151.62C440.55 150.08 440.55 146.25 443.2 144.7L443.21 144.71Z" fill="#FFD313"/>
<path d="M531.951 294.809L604.191 252.819C605.431 252.099 606.961 252.099 608.201 252.819L680.601 294.689C683.261 296.229 683.261 300.069 680.601 301.609L608.091 343.699C606.851 344.419 605.311 344.419 604.071 343.699L531.941 301.719C529.291 300.179 529.291 296.349 531.941 294.799L531.951 294.809Z" fill="#FFD313"/>
<path d="M89.2104 245.889L161.45 203.899C162.69 203.179 164.22 203.179 165.46 203.899L237.86 245.769C240.52 247.309 240.52 251.149 237.86 252.689L165.35 294.779C164.11 295.499 162.57 295.499 161.33 294.779L89.2004 252.799C86.5504 251.259 86.5504 247.429 89.2004 245.879L89.2104 245.889Z" fill="#FFD313"/>
<path d="M1.99043 195.18L74.2304 153.19C75.4704 152.47 77.0004 152.47 78.2404 153.19L150.64 195.06C153.3 196.6 153.3 200.44 150.64 201.98L78.1304 244.07C76.8904 244.79 75.3504 244.79 74.1104 244.07L1.99043 202.09C-0.65957 200.55 -0.65957 196.72 1.99043 195.17V195.18Z" fill="#FFD313" fill-opacity="0.5"/>
<path d="M266.25 42.53L338.49 0.54C339.73 -0.18 341.26 -0.18 342.5 0.54L414.9 42.41C417.56 43.95 417.56 47.79 414.9 49.33L342.39 91.42C341.15 92.14 339.61 92.14 338.37 91.42L266.24 49.44C263.59 47.9 263.59 44.07 266.24 42.52L266.25 42.53Z" fill="#FFD313"/>
<path d="M176.09 108.06L248.1 150.01C249.33 150.73 250.08 152.04 250.09 153.46L250.26 236.62C250.26 239.7 246.93 241.63 244.26 240.09L172 198.37C170.76 197.65 170 196.33 170 194.9L170.07 111.51C170.07 108.43 173.42 106.5 176.08 108.06H176.09Z" fill="#FFDE55" fill-opacity="0.5"/>
<path d="M355.151 311.25L427.161 353.2C428.391 353.92 429.141 355.23 429.151 356.65L429.321 439.81C429.321 442.89 425.991 444.82 423.321 443.28L351.061 401.56C349.821 400.84 349.061 399.52 349.061 398.09L349.131 314.7C349.131 311.62 352.481 309.69 355.141 311.25H355.151Z" fill="#FFDE55" fill-opacity="0.5"/>
<path d="M354.25 209.541L426.26 251.491C427.49 252.211 428.24 253.521 428.25 254.941L428.42 338.101C428.42 341.181 425.09 343.111 422.42 341.571L350.16 299.851C348.92 299.131 348.16 297.811 348.16 296.381L348.23 212.991C348.23 209.911 351.58 207.981 354.24 209.541H354.25Z" fill="#FFDE55"/>
<path d="M442.13 259.439L514.14 301.389C515.37 302.109 516.12 303.419 516.13 304.839L516.3 387.999C516.3 391.079 512.97 393.009 510.3 391.469L438.04 349.749C436.8 349.029 436.04 347.709 436.04 346.279L436.11 262.889C436.11 259.809 439.46 257.879 442.12 259.439H442.13Z" fill="#FFDE55" fill-opacity="0.5"/>
<path d="M530.11 308.769L602.12 350.719C603.35 351.439 604.1 352.749 604.11 354.169L604.281 437.329C604.281 440.409 600.951 442.339 598.281 440.799L526.021 399.079C524.781 398.359 524.021 397.039 524.021 395.609L524.091 312.219C524.091 309.139 527.44 307.209 530.1 308.769H530.11Z" fill="#FFDE55"/>
<path d="M176.34 309.18L248.35 351.13C249.58 351.85 250.33 353.16 250.34 354.58L250.51 437.74C250.51 440.82 247.18 442.75 244.51 441.21L172.25 399.49C171.01 398.77 170.25 397.45 170.25 396.02L170.32 312.63C170.32 309.55 173.67 307.62 176.33 309.18H176.34Z" fill="#FFDE55"/>
<path d="M88.3605 261.109L160.371 303.059C161.601 303.779 162.351 305.089 162.361 306.509L162.531 389.669C162.531 392.749 159.201 394.679 156.531 393.139L84.2705 351.419C83.0305 350.699 82.2705 349.379 82.2705 347.949L82.3405 264.559C82.3405 261.479 85.6905 259.549 88.3505 261.109H88.3605Z" fill="#FFDE55" fill-opacity="0.5"/>
<path d="M88.9702 42.6101L161.21 0.620078C162.45 -0.0999219 163.98 -0.0999219 165.22 0.620078L237.62 42.4901C240.28 44.0301 240.28 47.8701 237.62 49.4101L165.11 91.5001C163.87 92.2201 162.33 92.2201 161.09 91.5001L88.9602 49.5201C86.3102 47.9801 86.3102 44.1501 88.9602 42.6001L88.9702 42.6101Z" fill="#FFD313"/>
<path d="M88.1105 57.5702L160.121 99.5201C161.351 100.24 162.101 101.55 162.111 102.97L162.281 186.13C162.281 189.21 158.951 191.14 156.281 189.6L84.0205 147.88C82.7805 147.16 82.0205 145.84 82.0205 144.41L82.0905 61.0202C82.0905 57.9402 85.4405 56.0102 88.1005 57.5702H88.1105Z" fill="#FFDE55"/>
<path d="M259.1 148.86L331.58 106.73C334.24 105.18 337.58 107.1 337.59 110.18L337.75 193.97C337.75 195.4 336.99 196.73 335.75 197.44L263.26 239.27C260.6 240.81 257.27 238.89 257.26 235.81L257.12 152.32C257.12 150.89 257.88 149.57 259.11 148.85L259.1 148.86Z" fill="#CEA705"/>
<path d="M261.241 249.899L333.721 207.769C336.381 206.219 339.721 208.139 339.731 211.219L339.891 295.009C339.891 296.439 339.131 297.769 337.891 298.479L265.401 340.309C262.741 341.849 259.411 339.929 259.401 336.849L259.261 253.359C259.261 251.929 260.021 250.609 261.251 249.889L261.241 249.899Z" fill="#CEA705" fill-opacity="0.5"/>
<path d="M262.34 351.12L334.82 308.99C337.48 307.44 340.82 309.36 340.83 312.44L340.99 396.23C340.99 397.66 340.23 398.99 338.99 399.7L266.5 441.53C263.84 443.07 260.51 441.15 260.5 438.07L260.36 354.58C260.36 353.15 261.12 351.83 262.35 351.11L262.34 351.12Z" fill="#CEA705"/>
<path d="M345.92 98.2995L418.4 56.1695C421.06 54.6195 424.4 56.5395 424.41 59.6195L424.57 143.409C424.57 144.839 423.81 146.169 422.57 146.879L350.08 188.71C347.42 190.25 344.09 188.329 344.08 185.249L343.94 101.759C343.94 100.329 344.7 99.0095 345.93 98.2895L345.92 98.2995Z" fill="#CEA705" fill-opacity="0.5"/>
<path d="M434.121 47.6901L506.591 5.56011C509.251 4.01011 512.591 5.93011 512.601 9.01011L512.761 92.8001C512.761 94.2301 512.001 95.5601 510.761 96.2701L438.271 138.1C435.611 139.64 432.281 137.72 432.271 134.64L432.131 51.1501C432.131 49.7201 432.891 48.4001 434.121 47.6801V47.6901Z" fill="#CEA705"/>
<path d="M525.361 197.6L597.841 155.47C600.501 153.92 603.841 155.84 603.851 158.92L604.011 242.71C604.011 244.14 603.251 245.47 602.011 246.18L529.521 288.01C526.861 289.55 523.531 287.63 523.521 284.55L523.381 201.06C523.381 199.63 524.141 198.31 525.371 197.59L525.361 197.6Z" fill="#CEA705" fill-opacity="0.5"/>
<path d="M613.34 349.319L685.82 307.189C688.48 305.639 691.82 307.559 691.83 310.639L691.99 394.429C691.99 395.859 691.23 397.189 689.99 397.899L617.5 439.729C614.84 441.269 611.51 439.349 611.5 436.269L611.36 352.779C611.36 351.349 612.12 350.029 613.35 349.309L613.34 349.319Z" fill="#CEA705"/>
</g>
<defs>
<clipPath id="clip0_1934_373">
<rect width="691.98" height="443.83" fill="white"/>
</clipPath>
</defs>
</svg>
