<?xml version="1.0" encoding="UTF-8" standalone="no"?>
<!-- Created with Inkscape (http://www.inkscape.org/) -->

<svg
   width="603.57001"
   height="353.98599"
   viewBox="0 0 201.19001 117.99534"
   version="1.1"
   id="svg1"
   xml:space="preserve"
   inkscape:version="1.3 (0e150ed6c4, 2023-07-21)"
   sodipodi:docname="WCA Lockup Positive Primary.svg"
   inkscape:export-filename="WCA Lockup Positive Primary.png"
   inkscape:export-xdpi="1110.8236"
   inkscape:export-ydpi="1110.8236"
   xmlns:inkscape="http://www.inkscape.org/namespaces/inkscape"
   xmlns:sodipodi="http://sodipodi.sourceforge.net/DTD/sodipodi-0.dtd"
   xmlns="http://www.w3.org/2000/svg"
   xmlns:svg="http://www.w3.org/2000/svg"><sodipodi:namedview
     id="namedview1"
     pagecolor="#ffffff"
     bordercolor="#000000"
     borderopacity="0.25"
     inkscape:showpageshadow="2"
     inkscape:pageopacity="0.0"
     inkscape:pagecheckerboard="0"
     inkscape:deskcolor="#d1d1d1"
     inkscape:document-units="px"
     inkscape:zoom="1.4142136"
     inkscape:cx="133.99673"
     inkscape:cy="356.73537"
     inkscape:window-width="2560"
     inkscape:window-height="1369"
     inkscape:window-x="-8"
     inkscape:window-y="1432"
     inkscape:window-maximized="1"
     inkscape:current-layer="layer1" /><defs
     id="defs1"><inkscape:perspective
       sodipodi:type="inkscape:persp3d"
       inkscape:vp_x="0 : 378.73208 : 1"
       inkscape:vp_y="0 : 1259.8425 : 0"
       inkscape:vp_z="937.44189 : 412.06548 : 1"
       inkscape:persp3d-origin="468.72094 : 191.09702 : 1"
       id="perspective10" /><inkscape:perspective
       id="perspective2708"
       inkscape:persp3d-origin="0.62992129 : -250.4199 : 1"
       inkscape:vp_z="1.2598426 : -283.54332 : 1"
       inkscape:vp_y="0 : 1259.8425 : 0"
       inkscape:vp_x="0 : -283.54332 : 1"
       sodipodi:type="inkscape:persp3d" /><inkscape:perspective
       sodipodi:type="inkscape:persp3d"
       inkscape:vp_x="0 : 493.65432 : 1"
       inkscape:vp_y="0 : 999.99996 : 0"
       inkscape:vp_z="744.0945 : 526.98772 : 1"
       inkscape:persp3d-origin="372.04725 : 351.59401 : 1"
       id="perspective10-6" /><inkscape:perspective
       id="perspective2708-4"
       inkscape:persp3d-origin="0.50000001 : 1.1399337 : 1"
       inkscape:vp_z="0.99999997 : 1.3066007 : 1"
       inkscape:vp_y="0 : 999.99996 : 0"
       inkscape:vp_x="0 : -32.026786 : 1"
       sodipodi:type="inkscape:persp3d" /></defs><g
     inkscape:label="Layer 1"
     inkscape:groupmode="layer"
     id="layer1"
     transform="translate(-7.7383646,-7.0000004)"><g
       id="g3312"
       transform="matrix(0.166663,0,0,0.166663,19.239788,96.484705)"><g
         id="g4"
         transform="matrix(1.0018562,0,0,1,-0.51713006,0)"><path
           style="fill:#ddda45;stroke-width:0.873144"
           d="m 536.25328,-428.58851 c -0.021,-19.97227 -0.0227,-27.82159 -5e-4,-58.32991 105.40638,-0.17805 182.31227,64.21817 218.15501,126.42486 -45.15016,26.27039 -50.10755,29.12785 -50.10755,29.12785 -33.11708,-56.63926 -96.17928,-96.54551 -168.04696,-97.2228 z"
           id="path8"
           sodipodi:nodetypes="ccccc" /><path
           style="fill:#ddda45;stroke-width:0.873144"
           d="m 366.2197,-133.72782 0.0151,-192.06002 166.02237,95.88619 -0.17907,191.155551 C 476.51709,-69.927771 366.2197,-133.72782 366.2197,-133.72782 Z"
           id="path2730-7" /><path
           sodipodi:nodetypes="ccccc"
           style="fill:#e7762a;stroke-width:0.873144"
           d="m 706.37054,-133.96383 c 36.2716,-65.47593 30.50843,-138.95072 -0.0298,-193.85497 0.39613,-1.03249 33.46343,-19.33855 50.10377,-29.13739 51.21862,93.81548 36.51984,189.21677 0.1421,252.07328 -20.3537,-11.42655 -31.0669,-17.78432 -50.21605,-29.08092 z"
           id="path2726-5" /><path
           style="fill:#e02826;stroke-width:0.873144"
           d="m 311.34759,-356.46181 50.35175,28.2771 c -35.18504,70.65751 -31.88557,124.21147 -0.28702,194.132 l -50.13488,28.72384 c -50.42479,-90.8489 -36.1234,-187.14573 0.0702,-251.13294 z"
           id="path4" /><path
           style="fill:#e02826;stroke-width:0.873144"
           d="m 536.2423,-229.90781 c 56.13671,-32.73903 165.61719,-95.11799 165.61719,-95.11799 -0.67575,128.21382 0.0532,8.15816 -0.21804,191.35217 -54.38973,32.37299 -105.23267,61.003461 -165.50176,94.927531 -0.31544,-40.223801 0.10261,-46.61912 0.10261,-191.161711 z"
           id="path2724-0"
           sodipodi:nodetypes="ccccc" /><path
           sodipodi:nodetypes="ccccc"
           style="fill:#3d9c46;stroke-width:0.873144"
           d="m 313.7727,-360.67732 c 38.71037,-70.10178 124.6252,-126.43919 218.12075,-126.24058 v 58.32974 c -79.9296,2.84524 -135.21709,43.39695 -168.14346,96.87297 -19.03513,-11.01192 -28.32282,-16.47474 -49.97729,-28.96213 z"
           id="path2722-4" /><path
           id="path2802-6"
           d="m 363.46745,-130.48995 c 36.87186,61.386523 101.90167,96.576564 168.55822,97.399755 l 0.0525,58.183687 C 444.56118,25.630318 359.24663,-22.728811 313.43202,-101.575 Z"
           style="fill:#eeeeec;stroke-width:0.873144"
           sodipodi:nodetypes="ccccc" /><path
           style="fill:#304a96;stroke-width:0.873144"
           d="m 368.78398,-329.03858 165.28088,-95.18971 165.54442,95.6062 -165.35954,95.09314 z"
           id="path5" /><path
           style="fill:#304a96;stroke-width:0.873144"
           d="m 536.25206,25.093492 c -0.14995,-22.2466531 -0.26346,-38.397197 -0.11279,-58.184006 78.82367,0.02164 144.07151,-53.088696 168.10562,-97.178966 21.6542,12.49748 29.7479,17.20359 50.23519,29.02341 C 683.82068,20.035204 554.37926,25.093492 536.25206,25.093492 Z"
           id="path2720-5"
           sodipodi:nodetypes="ccccc" /><path
           style="fill:#ffffff;fill-opacity:1;stroke-width:0.873144"
           d="m 494.47153,-109.23902 c 0,-11.24557 -0.16402,-13.10126 -1.27163,-14.3936 -0.69937,-0.81604 -15.49557,-9.23821 -32.88042,-18.71602 -34.42705,-18.76883 -37.64764,-20.6942 -42.21281,-25.23604 -5.5503,-5.52185 -5.57501,-5.66443 -5.85792,-33.80463 -0.24306,-24.17526 -0.20649,-24.97725 1.18835,-25.9983 2.91343,-2.13292 2.42236,-2.36343 44.5433,20.90507 36.85908,20.36163 34.92959,19.39131 35.80541,18.00702 0.36489,-0.57671 0.66848,-6.81646 0.67461,-13.86596 0.0107,-11.18148 -0.15111,-13.00198 -1.26052,-14.2642 -1.48226,-1.68665 -69.35219,-39.35146 -74.69152,-41.4505 -12.36338,-4.86053 -20.15829,-2.79877 -24.22969,6.40879 -2.51248,5.68199 -2.97922,11.7884 -2.97114,38.87079 0.0107,35.38896 1.46043,44.78242 8.86025,57.4045 3.60238,6.14475 13.57792,16.31539 20.27503,20.67168 2.64641,1.7214 19.97676,11.39689 38.51189,21.50099 24.61856,13.4204 33.94498,18.168905 34.60851,17.620833 0.66439,-0.548858 0.9083,-4.216849 0.9083,-13.660423 z"
           id="path7" /><path
           style="fill:#ffffff;fill-opacity:1;stroke-width:0.873144"
           d="m 505.09984,-276.94542 c 1.62571,-0.8294 3.4446,-2.26258 4.04199,-3.18479 0.59738,-0.92222 6.23639,-11.5682 12.53121,-23.65766 6.29474,-12.08947 11.67266,-21.98079 11.95089,-21.98079 0.2782,0 5.72494,10.1654 12.10386,22.58972 7.96677,15.51716 12.33445,23.24274 13.95007,24.67522 4.82285,4.27605 13.93275,4.70162 19.40752,0.90658 2.71831,-1.88433 4.51003,-5.1519 23.16429,-42.24514 11.11996,-22.11158 20.04063,-40.66537 19.82372,-41.23064 -0.31784,-0.82827 -2.69013,-1.0256 -12.22507,-1.0166 -6.5069,0.009 -12.20035,0.25138 -12.65217,0.54501 -0.45185,0.29355 -6.76874,12.43017 -14.03759,26.97002 -7.35167,14.70566 -13.48862,26.15206 -13.83028,25.79573 -0.33785,-0.35232 -5.59609,-10.28669 -11.68508,-22.0764 -6.089,-11.78971 -11.88326,-22.53418 -12.87619,-23.87655 -4.87781,-6.5946 -16.58774,-6.78809 -21.98661,-0.36323 -0.98258,1.16931 -7.01834,12.16665 -13.41277,24.43842 -6.39441,12.27186 -11.80174,22.31573 -12.01628,22.31983 -0.21457,0.009 -6.08797,-11.51895 -13.05211,-25.60669 -6.9641,-14.08774 -13.13378,-26.18628 -13.71036,-26.88567 -0.91743,-1.11282 -2.46328,-1.27016 -12.38026,-1.26047 -6.23258,0.009 -11.79127,0.30193 -12.35263,0.6573 -1.12002,0.70908 4.58354,13.16491 26.31245,57.46273 11.69014,23.83212 13.1777,26.0988 18.40631,28.04573 3.75182,1.39712 10.7486,0.90493 14.52509,-1.02166 z"
           id="path6" /><path
           id="path2"
           style="fill:#ffffff;fill-opacity:1;stroke-width:0.873144"
           d="m 631.01971,-246.39217 c -0.47323,0.0208 -0.97529,0.0984 -1.52122,0.21829 -2.82269,0.61994 -7.13602,4.93796 -9.07953,9.08636 -0.83468,1.78164 -8.7296,23.67679 -17.54171,48.65496 -8.81211,24.97818 -19.81733,56.13532 -24.45539,69.2391 -4.63806,13.10378 -8.22951,24.152572 -7.98126,24.554305 0.44123,0.713882 6.65438,-2.39945 15.95229,-7.994895 l 4.35899,-2.6229 6.53849,-18.88216 6.5419,-18.87874 23.23432,-12.89962 c 12.78056,-7.09376 23.46988,-12.89621 23.75277,-12.89621 0.28285,0 2.86467,4.26279 5.73695,9.47518 2.87232,5.21241 5.79232,10.17904 6.48733,11.03733 l 1.262,1.56215 8.26776,-4.69325 c 4.54677,-2.58163 8.36975,-5.23035 8.49629,-5.88704 0.12637,-0.65668 -7.09396,-15.03901 -16.04438,-31.95912 -8.95039,-16.92012 -19.15933,-36.26049 -22.68859,-42.97941 -6.07668,-11.5688 -8.00443,-14.27992 -11.31701,-14.13433 z m -3.31189,35.64962 c 1.02361,0.32811 12.91735,22.28651 12.46645,23.01602 -0.40514,0.65556 -22.03366,12.56041 -24.52019,13.49651 -0.98208,0.36969 0.12893,-3.59332 5.0855,-18.12154 3.48879,-10.22634 6.62422,-18.50118 6.96824,-18.39099 z" /></g><g
         id="g1"
         transform="matrix(1.7463262,0,0,1.7463262,829.98833,-617.45581)"><g
           id="g2"
           transform="matrix(0.12458447,0,0,0.12458447,-46.754768,344.21344)"><g
             id="g3"
             transform="translate(-93.696521,-2082.5864)"><circle
               cx="87.887909"
               cy="2073.0198"
               r="88.5"
               fill="none"
               stroke="#000000"
               stroke-width="20"
               id="circle1" /><path
               d="m 82.487909,2065.0198 c 5.500001,0 9.500001,-1.1 11.900001,-3.2 2.4,-2 3.7,-5.4 3.7,-10.2 0,-4.7 -1.3,-8 -3.7,-10.1 -2.4,-2 -6.4,-3 -11.900001,-3 h -11.2 v 26.5 h 11.2 m -11.2,18.3 v 39 H 44.687911 v -103.1 h 40.599998 c 13.600001,0 23.500001,2.3 29.800001,6.9 6.4,4.5 9.5,11.7 9.5,21.6 0,6.8 -1.6,12.4 -4.9,16.8 -3.3,4.3 -8.2,7.6 -14.9,9.6 3.7,0.9 6.9,2.8 9.8,5.7 2.9,2.9 5.8,7.3 8.7,13.3 l 14.5,29.2 h -28.3 l -12.6,-25.6 c -2.5,-5.1 -5.1,-8.7 -7.7,-10.5 -2.600001,-1.9 -6.100001,-2.9 -10.400001,-2.9 h -7.5"
               id="path1" /></g></g></g></g><path
       style="font-size:10.6667px;font-family:Neuropolitical;-inkscape-font-specification:Neuropolitical;text-align:center;text-anchor:middle;stroke-width:1.3;stroke-linejoin:round"
       d="m 25.245096,115.96865 c 0.192001,0.42667 0.512002,0.69333 1.024003,0.69333 0.469335,0 0.778669,-0.288 0.960003,-0.69333 0.469335,-1.09867 2.485341,-5.63202 2.97601,-6.74136 h -1.770673 l -2.208007,5.25869 -2.080006,-4.76802 c -0.202667,-0.48 -0.469335,-0.65067 -0.992003,-0.65067 -0.522669,0 -0.768003,0.17067 -0.981337,0.65067 l -2.16534,4.76802 -2.13334,-5.25869 h -1.802672 l 2.826675,6.74136 c 0.170667,0.416 0.448002,0.69333 0.97067,0.69333 0.512002,0 0.832003,-0.27733 1.03467,-0.69333 l 2.22934,-4.69335 z m 10.816028,0.53333 c 2.154674,0 2.784009,-0.66133 2.784009,-2.496 v -2.28268 c 0,-1.83467 -0.629335,-2.49601 -2.784009,-2.49601 h -2.762675 c -2.144007,0 -2.773342,0.66134 -2.773342,2.49601 v 2.28268 c 0,1.83467 0.629335,2.496 2.773342,2.496 z m 1.16267,-2.56 c 0,0.94933 -0.277334,1.17333 -1.22667,1.17333 h -2.624008 c -1.024004,0 -1.237338,-0.224 -1.237338,-1.17333 v -2.14401 c 0,-0.90667 0.213334,-1.17334 1.237338,-1.17334 h 2.624008 c 0.949336,0 1.22667,0.26667 1.22667,1.17334 z m 11.477377,2.56 -4.266681,-2.464 h 1.280004 c 1.984007,0 2.890676,-0.43734 2.890676,-2.12268 v -0.50133 c 0,-1.74934 -0.832002,-2.18668 -2.869342,-2.18668 H 40.03981 v 7.27469 h 1.610672 v -2.64534 l 4.256013,2.64534 z m -1.717339,-4.60801 c 0,0.78933 -0.309335,0.91734 -1.354671,0.91734 h -3.978679 v -2.21868 h 3.978679 c 1.06667,0 1.354671,0.128 1.354671,0.90667 z m 9.845372,4.60801 v -1.38667 H 52.50919 c -1.024003,0 -1.301337,-0.33067 -1.301337,-1.17333 v -4.71469 h -1.610672 v 4.77869 c 0,1.83467 0.629336,2.496 2.773342,2.496 z m 6.602686,0 c 2.16534,0 2.794675,-0.66133 2.794675,-2.496 v -2.28268 c 0,-1.83467 -0.629335,-2.49601 -2.794675,-2.49601 h -5.760018 v 7.27469 z m 1.173337,-2.54934 c 0,0.91734 -0.362668,1.16267 -1.237337,1.16267 h -4.07468 v -4.49068 h 4.07468 c 0.960003,0 1.237337,0.27734 1.237337,1.17334 z m 14.826715,2.54934 v -1.38667 h -4.960015 c -1.00267,0 -1.248004,-0.26666 -1.248004,-1.17333 v -2.13334 c 0,-0.89601 0.245334,-1.18401 1.237337,-1.18401 h 4.970682 v -1.39734 h -5.045349 c -2.144007,0 -2.773342,0.66134 -2.773342,2.49601 v 2.28268 c 0,1.83467 0.629335,2.496 2.773342,2.496 z m 6.517355,0 c 2.154674,0 2.784009,-0.66133 2.784009,-2.496 v -4.77869 h -1.610672 v 4.71469 c 0,0.90667 -0.330667,1.17333 -1.301337,1.17333 h -2.442674 c -0.97067,0 -1.301338,-0.26666 -1.301338,-1.16267 v -4.72535 H 80.44528 v 4.77869 c 0,1.83467 0.629335,2.496 2.773342,2.496 z m 3.989351,0 h 6.24002 c 1.653338,0 2.282673,-0.42666 2.282673,-1.57867 v -0.64 c 0,-1.07734 -0.362667,-1.408 -0.885336,-1.51467 0.458668,-0.128 0.789336,-0.43734 0.789336,-1.29067 v -0.59734 c 0,-1.216 -0.640002,-1.65334 -2.29334,-1.65334 h -6.133353 z m 6.208019,-3.10401 c 0.586669,0 0.800003,0.14934 0.800003,0.74667 v 0.448 c 0,0.44801 -0.245334,0.58667 -0.853336,0.58667 h -4.533348 v -1.78134 z M 95.944,110.54996 c 0.682669,0 0.90667,0.13867 0.90667,0.57601 v 0.45866 c 0,0.48001 -0.181334,0.64001 -0.746669,0.64001 h -4.544015 v -1.67468 z m 11.3707,5.95202 v -1.376 h -5.07735 c -0.94934,0 -1.16267,-0.23467 -1.16267,-1.10934 v -0.512 h 6.19735 v -1.29067 h -6.19735 v -0.49067 c 0,-0.84267 0.224,-1.12 1.16267,-1.12 h 1.792 v -1.37601 h -1.792 c -2.14401,0 -2.773345,0.66134 -2.773345,2.49601 v 2.28268 c 0,1.83467 0.629335,2.496 2.773345,2.496 z m 13.72803,0 h 1.87734 l -4.20268,-6.72002 c -0.256,-0.416 -0.56533,-0.71467 -1.216,-0.71467 -0.66134,0 -0.97067,0.29867 -1.22667,0.71467 l -4.22401,6.72002 h 1.86667 l 1.03467,-1.67467 h 5.03468 z m -3.57334,-5.79201 1.76001,2.86934 h -3.52002 z m 11.56271,5.79201 c 1.62134,0 2.21867,-0.53333 2.21867,-1.888 v -0.576 c 0,-1.31201 -0.59733,-1.84534 -2.21867,-1.84534 h -3.40268 c -0.52267,0 -0.71467,-0.17067 -0.71467,-0.62934 v -0.23467 c 0,-0.576 0.23467,-0.72533 0.72534,-0.72533 h 2.112 v -1.37601 h -2.26134 c -1.46134,0 -2.05867,0.55467 -2.05867,2.04801 v 0.36267 c 0,1.248 0.42667,1.84534 2.05867,1.84534 h 3.46668 c 0.56534,0 0.81067,0.17066 0.81067,0.62933 v 0.39467 c 0,0.49067 -0.24533,0.61867 -0.82134,0.61867 h -5.52535 v 1.376 z m 8.62935,0 c 1.62134,0 2.21868,-0.53333 2.21868,-1.888 v -0.576 c 0,-1.31201 -0.59734,-1.84534 -2.21868,-1.84534 h -3.40267 c -0.52267,0 -0.71467,-0.17067 -0.71467,-0.62934 v -0.23467 c 0,-0.576 0.23466,-0.72533 0.72533,-0.72533 h 2.11201 v -1.37601 h -2.26134 c -1.46134,0 -2.05867,0.55467 -2.05867,2.04801 v 0.36267 c 0,1.248 0.42666,1.84534 2.05867,1.84534 h 3.46668 c 0.56533,0 0.81067,0.17066 0.81067,0.62933 v 0.39467 c 0,0.49067 -0.24534,0.61867 -0.82134,0.61867 h -5.52535 v 1.376 z m 8.7147,0 c 2.15467,0 2.78401,-0.66133 2.78401,-2.496 v -2.28268 c 0,-1.83467 -0.62934,-2.49601 -2.78401,-2.49601 h -2.76267 c -2.14401,0 -2.77335,0.66134 -2.77335,2.49601 v 2.28268 c 0,1.83467 0.62934,2.496 2.77335,2.496 z m 1.16267,-2.56 c 0,0.94933 -0.27733,1.17333 -1.22667,1.17333 h -2.62401 c -1.024,0 -1.23733,-0.224 -1.23733,-1.17333 v -2.14401 c 0,-0.90667 0.21333,-1.17334 1.23733,-1.17334 h 2.62401 c 0.94934,0 1.22667,0.26667 1.22667,1.17334 z m 10.59204,2.56 v -1.38667 h -4.96001 c -1.00267,0 -1.24801,-0.26666 -1.24801,-1.17333 v -2.13334 c 0,-0.89601 0.24534,-1.18401 1.23734,-1.18401 h 4.97068 v -1.39734 h -5.04535 c -2.144,0 -2.77334,0.66134 -2.77334,2.49601 v 2.28268 c 0,1.83467 0.62934,2.496 2.77334,2.496 z m 2.67735,0 v -7.27469 h -1.62134 v 7.27469 z m 9.72804,0 h 1.87734 l -4.20268,-6.72002 c -0.256,-0.416 -0.56534,-0.71467 -1.216,-0.71467 -0.66134,0 -0.97067,0.29867 -1.22668,0.71467 l -4.22401,6.72002 h 1.86667 l 1.03467,-1.67467 h 5.03469 z m -3.57334,-5.79201 1.76,2.86934 h -3.52001 z m 8.86402,5.79201 v -5.87735 h 3.05068 v -1.39734 h -7.73336 v 1.39734 h 3.05068 v 5.87735 z m 5.52535,0 v -7.27469 h -1.62134 v 7.27469 z m 6.76269,0 c 2.15468,0 2.78401,-0.66133 2.78401,-2.496 v -2.28268 c 0,-1.83467 -0.62933,-2.49601 -2.78401,-2.49601 h -2.76267 c -2.14401,0 -2.77334,0.66134 -2.77334,2.49601 v 2.28268 c 0,1.83467 0.62933,2.496 2.77334,2.496 z m 1.16267,-2.56 c 0,0.94933 -0.27733,1.17333 -1.22667,1.17333 h -2.624 c -1.02401,0 -1.23734,-0.224 -1.23734,-1.17333 v -2.14401 c 0,-0.90667 0.21333,-1.17334 1.23734,-1.17334 h 2.624 c 0.94934,0 1.22667,0.26667 1.22667,1.17334 z m 10.50671,2.72 c 0.48,0 0.81066,-0.192 0.81066,-0.672 v -6.76269 h -1.536 v 5.25869 l -5.34402,-5.15202 c -0.16,-0.16 -0.39467,-0.26667 -0.75733,-0.26667 -0.512,0 -0.86401,0.21334 -0.86401,0.67201 v 6.76268 h 1.50401 v -5.17335 l 5.30135,4.99202 c 0.256,0.24533 0.544,0.34133 0.88534,0.34133 z"
       id="text1"
       aria-label="WORLD CUBE ASSOCIATION" /></g></svg>
