<?xml version="1.0" encoding="UTF-8" standalone="no"?>
<!-- Created with Inkscape (http://www.inkscape.org/) -->

<svg
   width="256"
   height="256"
   viewBox="0 0 85.333337 85.33334"
   version="1.1"
   id="svg1"
   xml:space="preserve"
   inkscape:version="1.3 (0e150ed6c4, 2023-07-21)"
   sodipodi:docname="WCA Logo Only Mono Black.svg"
   inkscape:export-filename="WCA Logo Only Mono Black.png"
   inkscape:export-xdpi="1536"
   inkscape:export-ydpi="1536"
   xmlns:inkscape="http://www.inkscape.org/namespaces/inkscape"
   xmlns:sodipodi="http://sodipodi.sourceforge.net/DTD/sodipodi-0.dtd"
   xmlns="http://www.w3.org/2000/svg"
   xmlns:svg="http://www.w3.org/2000/svg"><sodipodi:namedview
     id="namedview1"
     pagecolor="#ffffff"
     bordercolor="#000000"
     borderopacity="0.25"
     inkscape:showpageshadow="2"
     inkscape:pageopacity="0.0"
     inkscape:pagecheckerboard="true"
     inkscape:deskcolor="#d1d1d1"
     inkscape:document-units="px"
     inkscape:zoom="1.4142137"
     inkscape:cx="24.748736"
     inkscape:cy="284.61046"
     inkscape:window-width="2560"
     inkscape:window-height="1369"
     inkscape:window-x="-8"
     inkscape:window-y="1432"
     inkscape:window-maximized="1"
     inkscape:current-layer="layer1" /><defs
     id="defs1"><inkscape:perspective
       sodipodi:type="inkscape:persp3d"
       inkscape:vp_x="0 : 346.07008 : 1"
       inkscape:vp_y="0 : 1259.8425 : 0"
       inkscape:vp_z="937.44189 : 379.40348 : 1"
       inkscape:persp3d-origin="468.72094 : 158.43502 : 1"
       id="perspective10" /><inkscape:perspective
       id="perspective2708"
       inkscape:persp3d-origin="0.62992129 : -283.0819 : 1"
       inkscape:vp_z="1.2598426 : -316.20532 : 1"
       inkscape:vp_y="0 : 1259.8425 : 0"
       inkscape:vp_x="0 : -316.20532 : 1"
       sodipodi:type="inkscape:persp3d" /><inkscape:perspective
       sodipodi:type="inkscape:persp3d"
       inkscape:vp_x="0 : 460.99232 : 1"
       inkscape:vp_y="0 : 999.99996 : 0"
       inkscape:vp_z="744.0945 : 494.32572 : 1"
       inkscape:persp3d-origin="372.04725 : 318.93201 : 1"
       id="perspective10-6" /><inkscape:perspective
       id="perspective2708-4"
       inkscape:persp3d-origin="0.50000001 : -31.522066 : 1"
       inkscape:vp_z="0.99999997 : -31.355399 : 1"
       inkscape:vp_y="0 : 999.99996 : 0"
       inkscape:vp_x="0 : -64.688786 : 1"
       sodipodi:type="inkscape:persp3d" /></defs><g
     inkscape:label="Layer 1"
     inkscape:groupmode="layer"
     id="layer1"
     transform="translate(-65.673786,-15.333359)"><g
       id="g4"
       transform="matrix(0.29104798,0,0,0.29104798,157.57528,-6.4227992)"><g
         id="g2"
         transform="matrix(0.12458447,0,0,0.12458447,-46.754768,344.21344)"><g
           id="g3"
           transform="translate(-93.696521,-2082.5864)"><circle
             cx="87.887909"
             cy="2073.0198"
             r="88.5"
             fill="none"
             stroke="#000000"
             stroke-width="20"
             id="circle1" /><path
             d="m 82.487909,2065.0198 c 5.500001,0 9.500001,-1.1 11.900001,-3.2 2.4,-2 3.7,-5.4 3.7,-10.2 0,-4.7 -1.3,-8 -3.7,-10.1 -2.4,-2 -6.4,-3 -11.900001,-3 h -11.2 v 26.5 h 11.2 m -11.2,18.3 v 39 H 44.687911 v -103.1 h 40.599998 c 13.600001,0 23.500001,2.3 29.800001,6.9 6.4,4.5 9.5,11.7 9.5,21.6 0,6.8 -1.6,12.4 -4.9,16.8 -3.3,4.3 -8.2,7.6 -14.9,9.6 3.7,0.9 6.9,2.8 9.8,5.7 2.9,2.9 5.8,7.3 8.7,13.3 l 14.5,29.2 h -28.3 l -12.6,-25.6 c -2.5,-5.1 -5.1,-8.7 -7.7,-10.5 -2.600001,-1.9 -6.100001,-2.9 -10.400001,-2.9 h -7.5"
             id="path1" /></g></g></g><path
       style="fill:#000000;fill-opacity:1;stroke-width:0.145656"
       d="m 108.70018,25.054408 c -0.004,-3.328638 -0.004,-4.636829 -9e-5,-9.721438 17.59996,-0.02967 30.44111,10.702793 36.42586,21.070347 -7.53883,4.378302 -8.36657,4.854535 -8.36657,4.854535 -5.52964,-9.439669 -16.05929,-16.090565 -28.0592,-16.203444 z"
       id="path8"
       sodipodi:nodetypes="ccccc" /><path
       id="path2730-7"
       style="fill:#000000;fill-opacity:1;stroke-width:0.145656"
       d="m 80.31187,42.187703 -0.0026,32.009117 c 0,0 18.416886,10.633253 27.69401,15.830079 l 0.0299,-31.858726 z m 6.720053,10.865235 c 0.567028,-0.02266 1.233684,0.119401 2.007812,0.423178 0.891519,0.349831 12.224525,6.6271 12.472015,6.908203 0.18528,0.210365 0.21228,0.513416 0.21028,2.376953 -0.001,1.17489 -0.0517,2.215079 -0.11263,2.311198 -0.14623,0.23071 0.17593,0.392226 -5.978519,-3.001302 -7.033026,-3.877994 -6.951038,-3.839203 -7.4375,-3.483724 -0.232901,0.170171 -0.239148,0.303566 -0.198568,4.332683 0.04724,4.689926 0.05112,4.713827 0.977865,5.634114 0.762257,0.756957 1.300468,1.077663 7.048828,4.20573 2.902786,1.579598 5.373474,2.983137 5.490244,3.119141 0.18493,0.215384 0.21224,0.52487 0.21224,2.399088 0,1.573894 -0.0408,2.185223 -0.1517,2.276693 -0.11079,0.09134 -1.668033,-0.700166 -5.778648,-2.936849 -3.094852,-1.683977 -5.988463,-3.29644 -6.430339,-3.583333 -1.118232,-0.726032 -2.78392,-2.421212 -3.385417,-3.445313 -1.235564,-2.103632 -1.478018,-3.669034 -1.479818,-9.567058 -0.0013,-4.513629 0.07658,-5.531539 0.496094,-6.478516 0.424882,-0.959099 1.092714,-1.453114 2.037761,-1.490886 z" /><path
       sodipodi:nodetypes="ccccc"
       style="fill:#000000;fill-opacity:1;stroke-width:0.145656"
       d="m 137.10506,74.157441 c 6.05635,-10.912415 5.09406,-23.157944 -0.005,-32.308451 0.0661,-0.172078 5.58747,-3.22302 8.36595,-4.856124 8.55209,15.635569 6.0978,31.535434 0.0237,42.011289 -3.3985,-1.904384 -5.18731,-2.963989 -8.38469,-4.846714 z"
       id="path2726-5" /><path
       style="fill:#000000;fill-opacity:1;stroke-width:0.145656"
       d="m 71.147139,37.07526 8.40735,4.712747 C 73.67956,53.563999 74.230481,62.489463 79.506569,74.142628 L 71.13543,78.92983 C 62.715884,63.788679 65.10382,47.739561 71.14715,37.07526 Z"
       id="path4" /><path
       id="path2724-0"
       style="fill:#000000;fill-opacity:1;stroke-width:0.145656"
       d="m 136.35159,42.314657 c 0,0 -18.27972,10.395835 -27.65299,15.852214 0,24.089878 -0.0703,25.156216 -0.0176,31.860028 10.06326,-5.653881 18.55254,-10.425591 27.63411,-15.820965 0.0454,-30.531632 -0.0764,-10.522799 0.0365,-31.891277 z m -11.82812,13.104818 c 0.55311,-0.02426 0.87533,0.428031 1.88997,2.35612 0.58929,1.119794 2.29394,4.342806 3.78841,7.162761 1.49447,2.819953 2.69949,5.217379 2.67839,5.326823 -0.0211,0.109446 -0.65944,0.550857 -1.41862,0.98112 l -1.38021,0.781901 -0.21094,-0.260417 c -0.11604,-0.143045 -0.60373,-0.970478 -1.08333,-1.839193 -0.47959,-0.868712 -0.91048,-1.579427 -0.95768,-1.579427 -0.0472,0 -1.83215,0.967473 -3.96615,2.14974 l -3.87956,2.14974 -1.09179,3.146484 -1.0918,3.146485 -0.72787,0.4375 c -1.55249,0.932553 -2.59036,1.451008 -2.66406,1.332031 -0.0415,-0.06695 0.55825,-1.907883 1.33268,-4.091797 0.77442,-2.183913 2.61196,-7.376779 4.08334,-11.539714 1.47138,-4.162932 2.78966,-7.812443 2.92903,-8.109376 0.32451,-0.691384 1.04497,-1.411002 1.51628,-1.514323 0.0912,-0.01998 0.17491,-0.03296 0.25391,-0.03646 z m -0.55274,5.942058 c -0.0574,-0.01836 -0.58087,1.360753 -1.16341,3.065104 -0.82763,2.421315 -1.01359,3.081792 -0.84961,3.020183 0.41518,-0.156013 4.0267,-2.140092 4.0944,-2.24935 0.0753,-0.121581 -1.91047,-3.781257 -2.08138,-3.835937 z" /><path
       sodipodi:nodetypes="ccccc"
       style="fill:#000000;fill-opacity:1;stroke-width:0.145656"
       d="M 71.552065,36.372691 C 78.015627,24.689318 92.361029,15.299956 107.97221,15.333057 v 9.721409 c -13.346042,0.474197 -22.577525,7.232666 -28.075319,16.14514 -3.17834,-1.835279 -4.729128,-2.745729 -8.344826,-4.826915 z"
       id="path2722-4" /><path
       id="path2802-6"
       d="m 79.849715,74.736408 c 6.156581,10.230863 17.014762,16.09574 28.144565,16.232936 l 0.009,9.697066 C 93.390126,100.75588 79.144955,92.696203 71.495181,79.555461 Z"
       style="fill:#000000;fill-opacity:1;stroke-width:0.145656"
       sodipodi:nodetypes="ccccc" /><path
       id="path5"
       style="fill:#000000;fill-opacity:1;stroke-width:0.145656"
       d="M 108.33466,25.780801 80.737651,41.645386 108.36591,57.563355 135.97594,41.715047 Z M 95.668642,36.137573 c 1.655859,-0.0016 1.914522,0.02417 2.067708,0.209635 0.09627,0.116562 1.126251,2.133218 2.28907,4.48112 1.16282,2.347903 2.14323,4.269079 2.17903,4.267579 0.0358,-6.83e-4 0.93883,-1.67479 2.00651,-3.720053 1.06769,-2.045247 2.07553,-3.878036 2.23959,-4.072916 0.90146,-1.070782 2.85676,-1.038528 3.67122,0.06055 0.16579,0.223723 1.13305,2.014261 2.14974,3.979167 1.0167,1.964907 1.89477,3.620968 1.95117,3.679688 0.0571,0.05939 1.08173,-1.848593 2.30925,-4.299479 1.2137,-2.423253 2.26835,-4.445872 2.34375,-4.494792 0.0754,-0.04893 1.02615,-0.089 2.11263,-0.0905 1.59207,-0.0015 1.98857,0.03123 2.04167,0.169271 0.0362,0.09421 -1.45382,3.186567 -3.31055,6.871745 -3.11475,6.182065 -3.4133,6.726317 -3.86719,7.040365 -0.91413,0.632492 -2.4356,0.561617 -3.24088,-0.151042 -0.26977,-0.238742 -0.9992,-1.526496 -2.32943,-4.11263 -1.0651,-2.070672 -1.97443,-3.764323 -2.02083,-3.764323 -0.0465,0 -0.9444,1.648546 -1.99545,3.663411 -1.05106,2.014864 -1.99265,3.789009 -2.09245,3.942709 -0.0997,0.153698 -0.40302,0.392369 -0.67447,0.530599 -0.63057,0.321092 -1.79934,0.403422 -2.42579,0.170573 -0.87304,-0.324481 -1.12099,-0.702551 -3.072918,-4.67448 -3.628124,-7.3828 -4.580893,-9.458646 -4.39388,-9.576823 0.09373,-0.05923 1.021832,-0.107875 2.0625,-0.109375 z" /><path
       style="fill:#000000;fill-opacity:1;stroke-width:0.145656"
       d="m 108.69997,100.66641 c -0.025,-3.707692 -0.044,-6.39939 -0.0188,-9.697119 13.16138,0.0036 24.05596,-8.847922 28.06899,-16.196138 3.61566,2.082867 4.96708,2.867202 8.38789,4.837128 C 133.33988,99.823382 111.72675,100.66641 108.7,100.66641 Z"
       id="path2720-5"
       sodipodi:nodetypes="ccccc" /></g></svg>
