<?xml version="1.0" encoding="UTF-8" standalone="no"?>
<!-- Created with Inkscape (http://www.inkscape.org/) -->

<svg
   width="603.57001"
   height="353.98599"
   viewBox="0 0 201.19001 117.99534"
   version="1.1"
   id="svg1"
   xml:space="preserve"
   inkscape:version="1.3 (0e150ed6c4, 2023-07-21)"
   sodipodi:docname="WCA Lockup Mono Black.svg"
   inkscape:export-filename="WCA Lockup Mono Black.png"
   inkscape:export-xdpi="1110.8236"
   inkscape:export-ydpi="1110.8236"
   xmlns:inkscape="http://www.inkscape.org/namespaces/inkscape"
   xmlns:sodipodi="http://sodipodi.sourceforge.net/DTD/sodipodi-0.dtd"
   xmlns="http://www.w3.org/2000/svg"
   xmlns:svg="http://www.w3.org/2000/svg"><sodipodi:namedview
     id="namedview1"
     pagecolor="#ffffff"
     bordercolor="#000000"
     borderopacity="0.25"
     inkscape:showpageshadow="2"
     inkscape:pageopacity="0.0"
     inkscape:pagecheckerboard="true"
     inkscape:deskcolor="#d1d1d1"
     inkscape:document-units="px"
     inkscape:zoom="1.4142136"
     inkscape:cx="208.59649"
     inkscape:cy="318.55159"
     inkscape:window-width="2560"
     inkscape:window-height="1369"
     inkscape:window-x="-8"
     inkscape:window-y="1432"
     inkscape:window-maximized="1"
     inkscape:current-layer="layer1" /><defs
     id="defs1"><inkscape:perspective
       sodipodi:type="inkscape:persp3d"
       inkscape:vp_x="0 : 378.73208 : 1"
       inkscape:vp_y="0 : 1259.8425 : 0"
       inkscape:vp_z="937.44189 : 412.06548 : 1"
       inkscape:persp3d-origin="468.72094 : 191.09702 : 1"
       id="perspective10" /><inkscape:perspective
       id="perspective2708"
       inkscape:persp3d-origin="0.62992129 : -250.4199 : 1"
       inkscape:vp_z="1.2598426 : -283.54332 : 1"
       inkscape:vp_y="0 : 1259.8425 : 0"
       inkscape:vp_x="0 : -283.54332 : 1"
       sodipodi:type="inkscape:persp3d" /><inkscape:perspective
       sodipodi:type="inkscape:persp3d"
       inkscape:vp_x="0 : 493.65432 : 1"
       inkscape:vp_y="0 : 999.99996 : 0"
       inkscape:vp_z="744.0945 : 526.98772 : 1"
       inkscape:persp3d-origin="372.04725 : 351.59401 : 1"
       id="perspective10-6" /><inkscape:perspective
       id="perspective2708-4"
       inkscape:persp3d-origin="0.50000001 : 1.1399337 : 1"
       inkscape:vp_z="0.99999997 : 1.3066007 : 1"
       inkscape:vp_y="0 : 999.99996 : 0"
       inkscape:vp_x="0 : -32.026786 : 1"
       sodipodi:type="inkscape:persp3d" /></defs><g
     inkscape:label="Layer 1"
     inkscape:groupmode="layer"
     id="layer1"
     transform="translate(-7.7383646,-7.0000004)"><path
       style="fill:#000000;stroke-width:0.145656;fill-opacity:1"
       d="m 108.69308,25.054858 c -0.004,-3.328638 -0.004,-4.636829 -9e-5,-9.721438 17.59996,-0.02967 30.44111,10.702793 36.42586,21.070347 -7.53883,4.378302 -8.36657,4.854535 -8.36657,4.854535 -5.52964,-9.439669 -16.05929,-16.090565 -28.0592,-16.203444 z"
       id="path8"
       sodipodi:nodetypes="ccccc" /><path
       id="path2730-7"
       style="fill:#000000;stroke-width:0.145656;fill-opacity:1"
       d="M 80.304775 42.188153 L 80.302171 74.19727 C 80.302171 74.19727 98.719057 84.830523 107.99618 90.027349 L 108.02613 58.168623 L 80.304775 42.188153 z M 87.024828 53.053388 C 87.591856 53.030725 88.258512 53.172789 89.03264 53.476566 C 89.924159 53.826397 101.25716 60.103666 101.50465 60.384769 C 101.68993 60.595134 101.71693 60.898185 101.71493 62.761722 C 101.7139 63.936612 101.6632 64.976801 101.6023 65.07292 C 101.45607 65.30363 101.77823 65.465146 95.623786 62.071618 C 88.59076 58.193624 88.672748 58.232415 88.186286 58.587894 C 87.953385 58.758065 87.947138 58.89146 87.987718 62.920577 C 88.034956 67.610503 88.038838 67.634404 88.965583 68.554691 C 89.72784 69.311648 90.266051 69.632354 96.014411 72.760421 C 98.917197 74.340019 101.38788 75.743558 101.50465 75.879562 C 101.68958 76.094946 101.71689 76.404432 101.71689 78.27865 C 101.71689 79.852544 101.67612 80.463873 101.56519 80.555343 C 101.4544 80.646687 99.897162 79.855177 95.786547 77.618494 C 92.691695 75.934517 89.798084 74.322054 89.356208 74.035161 C 88.237976 73.309129 86.572288 71.613949 85.970791 70.589848 C 84.735227 68.486216 84.492773 66.920814 84.490973 61.02279 C 84.489624 56.509161 84.567553 55.491251 84.987067 54.544274 C 85.411949 53.585175 86.079781 53.09116 87.024828 53.053388 z " /><path
       sodipodi:nodetypes="ccccc"
       style="fill:#000000;stroke-width:0.145656;fill-opacity:1"
       d="m 137.09796,74.157891 c 6.05635,-10.912415 5.09406,-23.157944 -0.005,-32.308451 0.0661,-0.172078 5.58747,-3.22302 8.36595,-4.856124 8.55209,15.635569 6.0978,31.535434 0.0237,42.011289 -3.3985,-1.904384 -5.18731,-2.963989 -8.38469,-4.846714 z"
       id="path2726-5" /><path
       style="fill:#000000;stroke-width:0.145656;fill-opacity:1"
       d="m 71.140044,37.07571 8.40735,4.712747 c -5.874929,11.775992 -5.324008,20.701456 -0.04792,32.354621 l -8.371139,4.787202 c -8.419546,-15.141151 -6.03161,-31.190269 0.01172,-41.85457 z"
       id="path4" /><path
       id="path2724-0"
       style="fill:#000000;stroke-width:0.145656;fill-opacity:1"
       d="M 136.34449 42.315107 C 136.34449 42.315107 118.06477 52.710942 108.6915 58.167321 C 108.6915 82.257199 108.62122 83.323537 108.67392 90.027349 C 118.73718 84.373468 127.22646 79.601758 136.30803 74.206384 C 136.35343 43.674752 136.23166 63.683585 136.34449 42.315107 z M 124.51637 55.419925 C 125.06948 55.39566 125.3917 55.847956 126.40634 57.776045 C 126.99563 58.895839 128.70028 62.118851 130.19475 64.938806 C 131.68922 67.758759 132.89424 70.156185 132.87314 70.265629 C 132.85201 70.375075 132.2137 70.816486 131.45452 71.246749 L 130.07431 72.02865 L 129.86337 71.768233 C 129.74733 71.625188 129.25964 70.797755 128.78004 69.92904 C 128.30045 69.060328 127.86956 68.349613 127.82236 68.349613 C 127.77512 68.349613 125.99021 69.317086 123.85621 70.499353 L 119.97665 72.649093 L 118.88486 75.795577 L 117.79306 78.942062 L 117.06519 79.379562 C 115.5127 80.312115 114.47483 80.83057 114.40113 80.711593 C 114.35967 80.644638 114.95938 78.80371 115.73381 76.619796 C 116.50823 74.435883 118.34577 69.243017 119.81715 65.080082 C 121.28853 60.91715 122.60681 57.267639 122.74618 56.970706 C 123.07069 56.279322 123.79115 55.559704 124.26246 55.456383 C 124.35362 55.436403 124.43737 55.423425 124.51637 55.419925 z M 123.96363 61.361983 C 123.90619 61.343619 123.38276 62.722736 122.80022 64.427087 C 121.97259 66.848402 121.78663 67.508879 121.95061 67.44727 C 122.36579 67.291257 125.97731 65.307178 126.04501 65.19792 C 126.1203 65.076339 124.13454 61.416663 123.96363 61.361983 z " /><path
       sodipodi:nodetypes="ccccc"
       style="fill:#000000;stroke-width:0.145656;fill-opacity:1"
       d="M 71.54497,36.373141 C 78.008532,24.689768 92.353934,15.300406 107.96511,15.333507 v 9.721409 c -13.346037,0.474197 -22.57752,7.232666 -28.075314,16.14514 -3.17834,-1.835279 -4.729128,-2.745729 -8.344826,-4.826915 z"
       id="path2722-4" /><path
       id="path2802-6"
       d="m 79.84262,74.736858 c 6.156581,10.230863 17.014762,16.09574 28.14456,16.232936 l 0.009,9.697066 C 93.383031,100.75633 79.13786,92.696653 71.488086,79.555911 Z"
       style="fill:#000000;stroke-width:0.145656;fill-opacity:1"
       sodipodi:nodetypes="ccccc" /><path
       id="path5"
       style="fill:#000000;stroke-width:0.145656;fill-opacity:1"
       d="M 108.32756 25.781251 L 80.730556 41.645836 L 108.35881 57.563805 L 135.96884 41.715497 L 108.32756 25.781251 z M 95.661547 36.138023 C 97.317406 36.136408 97.576069 36.162193 97.729255 36.347658 C 97.825528 36.46422 98.855506 38.480876 100.01832 40.828778 C 101.18114 43.176681 102.16155 45.097857 102.19735 45.096357 C 102.23317 45.095674 103.13618 43.421567 104.20386 41.376304 C 105.27155 39.331057 106.27939 37.498268 106.44345 37.303388 C 107.34491 36.232606 109.30021 36.26486 110.11467 37.363934 C 110.28046 37.587657 111.24772 39.378195 112.26441 41.343101 C 113.28111 43.308008 114.15918 44.964069 114.21558 45.022789 C 114.27263 45.082176 115.29731 43.174196 116.52483 40.72331 C 117.73853 38.300057 118.79318 36.277438 118.86858 36.228518 C 118.94402 36.179588 119.89473 36.139523 120.98121 36.138023 C 122.57328 36.136523 122.96978 36.169252 123.02288 36.307294 C 123.0591 36.401504 121.56906 39.493861 119.71233 43.179039 C 116.59758 49.361104 116.29903 49.905356 115.84514 50.219404 C 114.93101 50.851896 113.40954 50.781021 112.60426 50.068362 C 112.33449 49.82962 111.60506 48.541866 110.27483 45.955732 C 109.20973 43.88506 108.3004 42.191409 108.254 42.191409 C 108.20754 42.191409 107.3096 43.839955 106.25855 45.85482 C 105.20749 47.869684 104.2659 49.643829 104.1661 49.797529 C 104.06636 49.951227 103.76308 50.189898 103.49163 50.328128 C 102.86106 50.64922 101.69229 50.73155 101.06584 50.498701 C 100.1928 50.17422 99.944855 49.79615 97.992927 45.824221 C 94.364803 38.441421 93.412034 36.365575 93.599047 36.247398 C 93.692778 36.18817 94.620879 36.139523 95.661547 36.138023 z " /><path
       style="fill:#000000;stroke-width:0.145656;fill-opacity:1"
       d="m 108.69287,100.66686 c -0.025,-3.707692 -0.044,-6.39939 -0.0188,-9.697119 13.16138,0.0036 24.05596,-8.847922 28.06899,-16.196138 3.61566,2.082867 4.96708,2.867202 8.38789,4.837128 -11.79817,20.213101 -33.4113,21.056129 -36.43805,21.056129 z"
       id="path2720-5"
       sodipodi:nodetypes="ccccc" /><path
       style="font-size:10.6667px;font-family:Neuropolitical;-inkscape-font-specification:Neuropolitical;text-align:center;text-anchor:middle;stroke-width:1.3;stroke-linejoin:round;fill:#000000;fill-opacity:1"
       d="m 25.245096,115.96865 c 0.192001,0.42667 0.512002,0.69333 1.024003,0.69333 0.469335,0 0.778669,-0.288 0.960003,-0.69333 0.469335,-1.09867 2.485341,-5.63202 2.97601,-6.74136 h -1.770673 l -2.208007,5.25869 -2.080006,-4.76802 c -0.202667,-0.48 -0.469335,-0.65067 -0.992003,-0.65067 -0.522669,0 -0.768003,0.17067 -0.981337,0.65067 l -2.16534,4.76802 -2.13334,-5.25869 h -1.802672 l 2.826675,6.74136 c 0.170667,0.416 0.448002,0.69333 0.97067,0.69333 0.512002,0 0.832003,-0.27733 1.03467,-0.69333 l 2.22934,-4.69335 z m 10.816028,0.53333 c 2.154674,0 2.784009,-0.66133 2.784009,-2.496 v -2.28268 c 0,-1.83467 -0.629335,-2.49601 -2.784009,-2.49601 h -2.762675 c -2.144007,0 -2.773342,0.66134 -2.773342,2.49601 v 2.28268 c 0,1.83467 0.629335,2.496 2.773342,2.496 z m 1.16267,-2.56 c 0,0.94933 -0.277334,1.17333 -1.22667,1.17333 h -2.624008 c -1.024004,0 -1.237338,-0.224 -1.237338,-1.17333 v -2.14401 c 0,-0.90667 0.213334,-1.17334 1.237338,-1.17334 h 2.624008 c 0.949336,0 1.22667,0.26667 1.22667,1.17334 z m 11.477377,2.56 -4.266681,-2.464 h 1.280004 c 1.984007,0 2.890676,-0.43734 2.890676,-2.12268 v -0.50133 c 0,-1.74934 -0.832002,-2.18668 -2.869342,-2.18668 H 40.03981 v 7.27469 h 1.610672 v -2.64534 l 4.256013,2.64534 z m -1.717339,-4.60801 c 0,0.78933 -0.309335,0.91734 -1.354671,0.91734 h -3.978679 v -2.21868 h 3.978679 c 1.06667,0 1.354671,0.128 1.354671,0.90667 z m 9.845372,4.60801 v -1.38667 H 52.50919 c -1.024003,0 -1.301337,-0.33067 -1.301337,-1.17333 v -4.71469 h -1.610672 v 4.77869 c 0,1.83467 0.629336,2.496 2.773342,2.496 z m 6.602686,0 c 2.16534,0 2.794675,-0.66133 2.794675,-2.496 v -2.28268 c 0,-1.83467 -0.629335,-2.49601 -2.794675,-2.49601 h -5.760018 v 7.27469 z m 1.173337,-2.54934 c 0,0.91734 -0.362668,1.16267 -1.237337,1.16267 h -4.07468 v -4.49068 h 4.07468 c 0.960003,0 1.237337,0.27734 1.237337,1.17334 z m 14.826715,2.54934 v -1.38667 h -4.960015 c -1.00267,0 -1.248004,-0.26666 -1.248004,-1.17333 v -2.13334 c 0,-0.89601 0.245334,-1.18401 1.237337,-1.18401 h 4.970682 v -1.39734 h -5.045349 c -2.144007,0 -2.773342,0.66134 -2.773342,2.49601 v 2.28268 c 0,1.83467 0.629335,2.496 2.773342,2.496 z m 6.517355,0 c 2.154674,0 2.784009,-0.66133 2.784009,-2.496 v -4.77869 h -1.610672 v 4.71469 c 0,0.90667 -0.330667,1.17333 -1.301337,1.17333 h -2.442674 c -0.97067,0 -1.301338,-0.26666 -1.301338,-1.16267 v -4.72535 H 80.44528 v 4.77869 c 0,1.83467 0.629335,2.496 2.773342,2.496 z m 3.989351,0 h 6.24002 c 1.653338,0 2.282673,-0.42666 2.282673,-1.57867 v -0.64 c 0,-1.07734 -0.362667,-1.408 -0.885336,-1.51467 0.458668,-0.128 0.789336,-0.43734 0.789336,-1.29067 v -0.59734 c 0,-1.216 -0.640002,-1.65334 -2.29334,-1.65334 h -6.133353 z m 6.208019,-3.10401 c 0.586669,0 0.800003,0.14934 0.800003,0.74667 v 0.448 c 0,0.44801 -0.245334,0.58667 -0.853336,0.58667 h -4.533348 v -1.78134 z M 95.944,110.54996 c 0.682669,0 0.90667,0.13867 0.90667,0.57601 v 0.45866 c 0,0.48001 -0.181334,0.64001 -0.746669,0.64001 h -4.544015 v -1.67468 z m 11.3707,5.95202 v -1.376 h -5.07735 c -0.94934,0 -1.16267,-0.23467 -1.16267,-1.10934 v -0.512 h 6.19735 v -1.29067 h -6.19735 v -0.49067 c 0,-0.84267 0.224,-1.12 1.16267,-1.12 h 1.792 v -1.37601 h -1.792 c -2.14401,0 -2.773345,0.66134 -2.773345,2.49601 v 2.28268 c 0,1.83467 0.629335,2.496 2.773345,2.496 z m 13.72803,0 h 1.87734 l -4.20268,-6.72002 c -0.256,-0.416 -0.56533,-0.71467 -1.216,-0.71467 -0.66134,0 -0.97067,0.29867 -1.22667,0.71467 l -4.22401,6.72002 h 1.86667 l 1.03467,-1.67467 h 5.03468 z m -3.57334,-5.79201 1.76001,2.86934 h -3.52002 z m 11.56271,5.79201 c 1.62134,0 2.21867,-0.53333 2.21867,-1.888 v -0.576 c 0,-1.31201 -0.59733,-1.84534 -2.21867,-1.84534 h -3.40268 c -0.52267,0 -0.71467,-0.17067 -0.71467,-0.62934 v -0.23467 c 0,-0.576 0.23467,-0.72533 0.72534,-0.72533 h 2.112 v -1.37601 h -2.26134 c -1.46134,0 -2.05867,0.55467 -2.05867,2.04801 v 0.36267 c 0,1.248 0.42667,1.84534 2.05867,1.84534 h 3.46668 c 0.56534,0 0.81067,0.17066 0.81067,0.62933 v 0.39467 c 0,0.49067 -0.24533,0.61867 -0.82134,0.61867 h -5.52535 v 1.376 z m 8.62935,0 c 1.62134,0 2.21868,-0.53333 2.21868,-1.888 v -0.576 c 0,-1.31201 -0.59734,-1.84534 -2.21868,-1.84534 h -3.40267 c -0.52267,0 -0.71467,-0.17067 -0.71467,-0.62934 v -0.23467 c 0,-0.576 0.23466,-0.72533 0.72533,-0.72533 h 2.11201 v -1.37601 h -2.26134 c -1.46134,0 -2.05867,0.55467 -2.05867,2.04801 v 0.36267 c 0,1.248 0.42666,1.84534 2.05867,1.84534 h 3.46668 c 0.56533,0 0.81067,0.17066 0.81067,0.62933 v 0.39467 c 0,0.49067 -0.24534,0.61867 -0.82134,0.61867 h -5.52535 v 1.376 z m 8.7147,0 c 2.15467,0 2.78401,-0.66133 2.78401,-2.496 v -2.28268 c 0,-1.83467 -0.62934,-2.49601 -2.78401,-2.49601 h -2.76267 c -2.14401,0 -2.77335,0.66134 -2.77335,2.49601 v 2.28268 c 0,1.83467 0.62934,2.496 2.77335,2.496 z m 1.16267,-2.56 c 0,0.94933 -0.27733,1.17333 -1.22667,1.17333 h -2.62401 c -1.024,0 -1.23733,-0.224 -1.23733,-1.17333 v -2.14401 c 0,-0.90667 0.21333,-1.17334 1.23733,-1.17334 h 2.62401 c 0.94934,0 1.22667,0.26667 1.22667,1.17334 z m 10.59204,2.56 v -1.38667 h -4.96001 c -1.00267,0 -1.24801,-0.26666 -1.24801,-1.17333 v -2.13334 c 0,-0.89601 0.24534,-1.18401 1.23734,-1.18401 h 4.97068 v -1.39734 h -5.04535 c -2.144,0 -2.77334,0.66134 -2.77334,2.49601 v 2.28268 c 0,1.83467 0.62934,2.496 2.77334,2.496 z m 2.67735,0 v -7.27469 h -1.62134 v 7.27469 z m 9.72804,0 h 1.87734 l -4.20268,-6.72002 c -0.256,-0.416 -0.56534,-0.71467 -1.216,-0.71467 -0.66134,0 -0.97067,0.29867 -1.22668,0.71467 l -4.22401,6.72002 h 1.86667 l 1.03467,-1.67467 h 5.03469 z m -3.57334,-5.79201 1.76,2.86934 h -3.52001 z m 8.86402,5.79201 v -5.87735 h 3.05068 v -1.39734 h -7.73336 v 1.39734 h 3.05068 v 5.87735 z m 5.52535,0 v -7.27469 h -1.62134 v 7.27469 z m 6.76269,0 c 2.15468,0 2.78401,-0.66133 2.78401,-2.496 v -2.28268 c 0,-1.83467 -0.62933,-2.49601 -2.78401,-2.49601 h -2.76267 c -2.14401,0 -2.77334,0.66134 -2.77334,2.49601 v 2.28268 c 0,1.83467 0.62933,2.496 2.77334,2.496 z m 1.16267,-2.56 c 0,0.94933 -0.27733,1.17333 -1.22667,1.17333 h -2.624 c -1.02401,0 -1.23734,-0.224 -1.23734,-1.17333 v -2.14401 c 0,-0.90667 0.21333,-1.17334 1.23734,-1.17334 h 2.624 c 0.94934,0 1.22667,0.26667 1.22667,1.17334 z m 10.50671,2.72 c 0.48,0 0.81066,-0.192 0.81066,-0.672 v -6.76269 h -1.536 v 5.25869 l -5.34402,-5.15202 c -0.16,-0.16 -0.39467,-0.26667 -0.75733,-0.26667 -0.512,0 -0.86401,0.21334 -0.86401,0.67201 v 6.76268 h 1.50401 v -5.17335 l 5.30135,4.99202 c 0.256,0.24533 0.544,0.34133 0.88534,0.34133 z"
       id="text1"
       aria-label="WORLD CUBE ASSOCIATION" /><g
       id="g4"
       transform="matrix(0.29104798,0,0,0.29104798,157.56819,-6.422328)"><g
         id="g2"
         transform="matrix(0.12458447,0,0,0.12458447,-46.754768,344.21344)"><g
           id="g3"
           transform="translate(-93.696521,-2082.5864)"><circle
             cx="87.887909"
             cy="2073.0198"
             r="88.5"
             fill="none"
             stroke="#000000"
             stroke-width="20"
             id="circle1" /><path
             d="m 82.487909,2065.0198 c 5.500001,0 9.500001,-1.1 11.900001,-3.2 2.4,-2 3.7,-5.4 3.7,-10.2 0,-4.7 -1.3,-8 -3.7,-10.1 -2.4,-2 -6.4,-3 -11.900001,-3 h -11.2 v 26.5 h 11.2 m -11.2,18.3 v 39 H 44.687911 v -103.1 h 40.599998 c 13.600001,0 23.500001,2.3 29.800001,6.9 6.4,4.5 9.5,11.7 9.5,21.6 0,6.8 -1.6,12.4 -4.9,16.8 -3.3,4.3 -8.2,7.6 -14.9,9.6 3.7,0.9 6.9,2.8 9.8,5.7 2.9,2.9 5.8,7.3 8.7,13.3 l 14.5,29.2 h -28.3 l -12.6,-25.6 c -2.5,-5.1 -5.1,-8.7 -7.7,-10.5 -2.600001,-1.9 -6.100001,-2.9 -10.400001,-2.9 h -7.5"
             id="path1" /></g></g></g></g></svg>
