<?xml version="1.0" encoding="UTF-8" standalone="no"?>
<svg
   width="265"
   height="265"
   viewBox="0 0 265 265"
   fill="none"
   version="1.1"
   id="svg14"
   sodipodi:docname="WCA Logo.svg"
   inkscape:version="1.4.2 (f4327f4, 2025-05-13)"
   inkscape:export-filename="WCA Logo.png"
   inkscape:export-xdpi="741.91699"
   inkscape:export-ydpi="741.91699"
   xml:space="preserve"
   xmlns:inkscape="http://www.inkscape.org/namespaces/inkscape"
   xmlns:sodipodi="http://sodipodi.sourceforge.net/DTD/sodipodi-0.dtd"
   xmlns="http://www.w3.org/2000/svg"
   xmlns:svg="http://www.w3.org/2000/svg"><defs
     id="defs14"><style
       id="style1">
      .cls-1 {
        fill: #c62535;
      }

      .cls-2 {
        fill: #029347;
      }

      .cls-3 {
        fill: #ffd313;
      }

      .cls-4 {
        fill: #fff;
      }

      .cls-5 {
        fill: #ff5800;
      }

      .cls-6 {
        fill: #0051ba;
      }

      .cls-7 {
        fill: #eee;
      }
    </style></defs><sodipodi:namedview
     id="namedview14"
     pagecolor="#ffffff"
     bordercolor="#000000"
     borderopacity="0.25"
     inkscape:showpageshadow="2"
     inkscape:pageopacity="0.0"
     inkscape:pagecheckerboard="0"
     inkscape:deskcolor="#d1d1d1"
     inkscape:zoom="2.8284272"
     inkscape:cx="79.903064"
     inkscape:cy="156.09382"
     inkscape:window-width="2560"
     inkscape:window-height="1369"
     inkscape:window-x="-8"
     inkscape:window-y="1432"
     inkscape:window-maximized="1"
     inkscape:current-layer="svg14" /><path
     style="baseline-shift:baseline;display:inline;overflow:visible;vector-effect:none;fill:#ffffff;stroke-miterlimit:10;enable-background:accumulate;stop-color:#000000;stop-opacity:1;opacity:1"
     d="m 242.80469,231.2207 c -6.16372,0 -11.18946,5.02486 -11.18946,11.18946 0,6.16459 5.02589,11.1875 11.18946,11.1875 6.16444,0 11.1875,-5.02291 11.1875,-11.1875 0,-6.1646 -5.02291,-11.18946 -11.1875,-11.18946 z m 0,2.5 c 4.8134,0 8.6875,3.87605 8.6875,8.68946 0,4.8134 -3.87394,8.6875 -8.6875,8.6875 -4.81244,0 -8.68946,-3.8741 -8.68946,-8.6875 0,-4.81341 3.87717,-8.68946 8.68946,-8.68946 z"
     id="path13" /><path
     d="m 242.172,241.506 c 0.632,0 1.084,-0.09 1.355,-0.361 0.271,-0.181 0.452,-0.633 0.452,-1.175 0,-0.542 -0.181,-0.903 -0.452,-1.174 -0.271,-0.181 -0.723,-0.362 -1.355,-0.362 h -1.265 v 3.072 m 0,6.505 h -2.981 v -11.564 h 4.607 c 1.536,0 2.621,0.271 3.343,0.813 0.723,0.542 1.085,1.355 1.085,2.439 0,1.084 -0.181,1.355 -0.543,1.897 -0.361,0.452 -0.903,0.814 -1.716,1.085 0.452,0.09 0.813,0.271 1.084,0.632 0.271,0.362 0.632,0.813 0.994,1.536 l 1.626,3.253 h -3.162 l -1.446,-2.892 c -0.271,-0.542 -0.542,-0.993 -0.903,-1.174 -0.271,-0.181 -0.723,-0.361 -1.175,-0.361 h -0.813"
     fill="#000000"
     id="path14"
     sodipodi:nodetypes="ccscscccccscsccccccscsc"
     style="fill:#ffffff" /><g
     id="g1"
     transform="translate(303.67508,-111.5)"
     style="fill:#ffffff"><path
       class="cls-3"
       d="m -170.05721,141.73513 c 0,-10.36 0,-14.42 0,-30.24 54.64,-0.09 94.51,33.29 113.09,65.54 -23.4,13.62 -25.97,15.1 -25.97,15.1 -17.16,-29.36 -49.86,-50.05 -87.12,-50.4 z"
       id="path23"
       style="fill:#ffffff" /><path
       id="path24"
       class="cls-3"
       d="m -258.19729,195.02443 v 99.57031 c 0,0 57.18024,33.07023 85.99024,49.24023 l 0.0898,-99.09961 z m 20.875,33.78515 c 1.76039,-0.0705 3.83063,0.37141 6.23438,1.31641 2.77,1.09 37.9507,20.60828 38.7207,21.48828 0.57,0.66 0.65039,1.61039 0.65039,7.40039 -0.01,3.66 -0.15961,6.89141 -0.34961,7.19141 -0.45,0.72 0.54945,1.22992 -18.56055,-9.33008 -21.83,-12.06 -21.57984,-11.9418 -23.08984,-10.8418 -0.73,0.53 -0.75109,0.95047 -0.62109,13.48047 0.14,14.6 0.15125,14.67125 3.03125,17.53125 2.36,2.35 4.0389,3.35008 21.8789,13.08008 9.02,4.91 16.69078,9.26922 17.05078,9.69922 0.5796,0.66954 0.66005,1.62994 0.66016,7.44922 v 0.004 0.006 c -2.1e-4,4.891 -0.13098,6.79055 -0.4707,7.07032 -0.34,0.27999 -5.17946,-2.18868 -17.93946,-9.13868 -9.6,-5.23 -18.58093,-10.24062 -19.96093,-11.14062 -3.47,-2.26 -8.63977,-7.53071 -10.50977,-10.7207 -3.83,-6.55 -4.58984,-11.41977 -4.58984,-29.75977 -0.01,-14.04 0.24101,-17.21039 1.54101,-20.15039 1.31875,-2.98125 3.39024,-4.51729 6.32422,-4.63477 z"
       style="fill:#ffffff" /><path
       class="cls-5"
       d="m -81.86721,294.46513 c 18.8,-33.94 15.82,-72.04 -0.02,-100.5 0.21,-0.53 17.35,-10.02 25.97,-15.1 26.55,48.63 18.93,98.09 0.07,130.67 -10.56,-5.92 -16.11,-9.22 -26.04,-15.07 v 0 z"
       id="path25"
       style="fill:#ffffff" /><path
       class="cls-1"
       d="m -286.64721,179.12513 26.1,14.66 c -18.24,36.63 -16.53,64.4 -0.14,100.64 l -25.99,14.89 c -26.14,-47.09 -18.73,-97.02 0.04,-130.19 z"
       id="path26"
       style="fill:#ffffff" /><path
       id="path27"
       class="cls-1"
       d="m -84.19729,195.42482 c 0,0 -56.75937,32.34054 -85.85937,49.31054 h 0.01 c 0,74.93 -0.22054,78.24961 -0.0605,99.09961 31.25,-17.59 57.60078,-32.41898 85.80078,-49.20898 0.14,-94.97 -0.24063,-32.73117 0.10937,-99.20117 z m -36.73047,40.75976 -0.0293,0.01 c 1.72,-0.09 2.71914,1.33031 5.86914,7.32031 1.83,3.49 7.11976,13.51125 11.75976,22.28125 4.64,8.78 8.38032,16.22836 8.32032,16.56836 -0.07,0.34 -2.06016,1.71078 -4.41016,3.05078 l -4.2793,2.43946 -0.65039,-0.8086 c -0.35,-0.44 -1.86937,-3.0207 -3.35937,-5.7207 -1.49,-2.71 -2.84047,-4.91992 -2.98047,-4.91992 -0.14,0 -5.68055,2.99968 -12.31055,6.67968 l -12.03906,6.68946 -3.39063,9.79101 -3.38867,9.78907 -2.26172,1.36132 c -4.81,2.91 -8.02976,4.51844 -8.25976,4.14844 -0.12,-0.21 1.74062,-5.92851 4.14062,-12.72852 2.4,-6.79999 8.10969,-22.95039 12.67969,-35.90039 4.56,-12.94 8.65984,-24.3007 9.08984,-25.2207 1.01,-2.15 3.24094,-4.38898 4.71094,-4.70898 0.28,-0.06 0.54906,-0.1211 0.78906,-0.1211 z m -1.72851,18.49024 c -0.18,-0.06 -1.80133,4.23125 -3.61133,9.53125 -2.57,7.53 -3.13891,9.58843 -2.62891,9.39844 1.28,-0.49001 12.49899,-6.66 12.70899,-7 0.24,-0.38 -5.92899,-11.75969 -6.45899,-11.92969 z"
       style="fill:#ffffff" /><path
       class="cls-2"
       d="m -285.38721,176.94513 c 20.06,-36.34 64.6,-65.55 113.07,-65.45 v 30.24 c -41.44,1.48 -70.1,22.5 -87.16,50.22 -9.87,-5.71 -14.68,-8.54 -25.91,-15.01 z"
       id="path28"
       style="fill:#ffffff" /><path
       class="cls-7"
       d="m -259.62721,296.26513 c 19.11,31.82 52.83,50.06 87.38,50.49 l 0.12,29.74 c -45.36,0.28 -89.69,-24.37 -113.44,-65.25 l 25.94,-14.99 v 0 z"
       id="path29"
       style="fill:#ffffff" /><path
       id="path30"
       class="cls-6"
       d="m -171.18752,143.99513 -85.67969,49.34961 h -0.01 l 85.77933,49.50977 85.73047,-49.28907 z m -39.33985,32.21094 c 5.14,-0.01 5.93993,0.0684 6.41993,0.64844 0.3,0.35999 3.49937,6.6314 7.10937,13.9414 3.6,7.29 6.65172,13.26953 6.76172,13.26953 0.11,0 2.91851,-5.21031 6.22852,-11.57031 3.30999,-6.36 6.44117,-12.05992 6.95117,-12.66992 2.8,-3.33 8.87039,-3.23055 11.40039,0.18945 0.51,0.7 3.50992,6.27086 6.66992,12.38086 3.16,6.11 5.88859,11.25945 6.05859,11.43945 0.18,0.19 3.35992,-5.74914 7.16993,-13.36914 3.77,-7.53 7.05125,-13.83047 7.28124,-13.98047 0.23,-0.15 3.1786,-0.27929 6.5586,-0.27929 4.95,0 6.17984,0.0993 6.33984,0.52929 0.11,0.29 -4.50929,9.90914 -10.27929,21.36915 -9.66,19.23 -10.59,20.92039 -12,21.90039 -2.84,1.97 -7.56055,1.74929 -10.06055,-0.47071 -0.84,-0.74 -3.09852,-4.73906 -7.22852,-12.78906 -3.3,-6.44 -6.13148,-11.71094 -6.27148,-11.71094 -0.14,0 -2.92945,5.14039 -6.18945,11.40039 -3.27,6.28 -6.19,11.79149 -6.5,12.27149 -0.31,0.47 -1.24985,1.21843 -2.08985,1.64844 l -0.0195,-0.0195 c -1.96,1 -5.58125,1.2593 -7.53125,0.5293 -2.71,-1.01 -3.47906,-2.17906 -9.53906,-14.53906 -11.27,-22.95 -14.22063,-29.4093 -13.64063,-29.7793 0.29,-0.19 3.17039,-0.33984 6.40039,-0.33984 z"
       style="fill:#ffffff" /><path
       class="cls-6"
       d="m -170.17721,376.50513 c -0.08,-11.53 -0.02,-19.48 0.06,-29.74 40.87,0 74.69,-27.52 87.15,-50.38 11.23,6.48 15.42,8.92 26.05,15.05 -36.63,62.87 -103.86,65.07 -113.26,65.07 z"
       id="path31"
       style="fill:#ffffff" /></g></svg>
