<?xml version="1.0" encoding="UTF-8" standalone="no"?>
<svg
   id="Layer_2"
   data-name="Layer 2"
   viewBox="0 0 781.22 265.01"
   version="1.1"
   sodipodi:docname="WCA Logo Lockup.svg"
   inkscape:version="1.4.2 (f4327f4, 2025-05-13)"
   inkscape:export-filename="WCA Logo Lockup.png"
   inkscape:export-xdpi="96"
   inkscape:export-ydpi="96"
   xmlns:inkscape="http://www.inkscape.org/namespaces/inkscape"
   xmlns:sodipodi="http://sodipodi.sourceforge.net/DTD/sodipodi-0.dtd"
   xmlns="http://www.w3.org/2000/svg"
   xmlns:svg="http://www.w3.org/2000/svg">
  <sodipodi:namedview
     id="namedview35"
     pagecolor="#ffffff"
     bordercolor="#000000"
     borderopacity="0.25"
     inkscape:showpageshadow="2"
     inkscape:pageopacity="0.0"
     inkscape:pagecheckerboard="0"
     inkscape:deskcolor="#d1d1d1"
     inkscape:zoom="1.0933988"
     inkscape:cx="600.87865"
     inkscape:cy="-30.638409"
     inkscape:window-width="2560"
     inkscape:window-height="1369"
     inkscape:window-x="-8"
     inkscape:window-y="1432"
     inkscape:window-maximized="1"
     inkscape:current-layer="g35" />
  <defs
     id="defs1">
    <style
       id="style1">
      .cls-1 {
        fill: #c62535;
      }

      .cls-2 {
        fill: #029347;
      }

      .cls-3 {
        fill: #ffd313;
      }

      .cls-4 {
        fill: #fff;
      }

      .cls-5 {
        fill: #ff5800;
      }

      .cls-6 {
        fill: #0051ba;
      }

      .cls-7 {
        fill: #eee;
      }
    </style>
  </defs>
  <g
     id="Layer_1-2"
     data-name="Layer 1">
    <g
       id="g35">
      <g
         id="g23"
         style="fill:#ffffff">
        <g
           id="g20"
           style="fill:#ffffff">
          <path
             d="M329.03,121.02l-14.32-53.62h13.63l6.66,31.79h.31l7.2-31.79h10.34l7.2,31.79h.31l6.74-31.79h13.25l-14.25,53.62h-11.41l-6.97-31.17h-.31l-6.97,31.17h-11.41Z"
             id="path1"
             style="fill:#ffffff" />
          <path
             d="M405.93,122.17c-4.65,0-8.77-1.2-12.37-3.6-3.6-2.4-6.4-5.72-8.39-9.96-1.99-4.24-2.99-9.04-2.99-14.4s1-10.16,2.99-14.4c1.99-4.24,4.79-7.56,8.39-9.96,3.6-2.4,7.72-3.6,12.37-3.6s8.69,1.2,12.29,3.6c3.6,2.4,6.4,5.73,8.39,10,1.99,4.26,2.99,9.05,2.99,14.36s-.99,10.1-2.99,14.36c-1.99,4.26-4.79,7.6-8.39,10-3.6,2.4-7.7,3.6-12.29,3.6ZM405.93,110.6c2.09,0,3.97-.69,5.63-2.07,1.66-1.38,2.95-3.32,3.87-5.82.92-2.5,1.38-5.34,1.38-8.5s-.46-6-1.38-8.5c-.92-2.5-2.21-4.44-3.87-5.82-1.66-1.38-3.54-2.07-5.63-2.07s-4.05.69-5.71,2.07c-1.66,1.38-2.95,3.31-3.87,5.78-.92,2.48-1.38,5.32-1.38,8.54s.46,6.06,1.38,8.54c.92,2.48,2.21,4.4,3.87,5.78,1.66,1.38,3.56,2.07,5.71,2.07Z"
             id="path2"
             style="fill:#ffffff" />
          <path
             d="M466.07,100.92c2.01-1.42,3.63-3.26,4.85-5.52,1.5-2.78,2.26-5.96,2.26-9.54s-.76-6.9-2.26-9.69c-1.51-2.78-3.61-4.93-6.32-6.47-2.71-1.53-5.92-2.29-9.65-2.29h-17.77v53.61h12.56v-16.85h5.12l6.91,16.85h13.25l-8.95-20.1ZM449.74,78.36h4.44c1.23,0,2.31.29,3.26.88.94.59,1.68,1.43,2.22,2.53.54,1.09.8,2.44.8,4.02s-.26,2.87-.8,4.02c-.54,1.15-1.28,2-2.22,2.56-.95.57-2.03.85-3.26.85h-4.44v-14.86Z"
             id="path3"
             style="fill:#ffffff" />
          <path
             d="M481.68,121.02v-53.62h12.71v41.44h17.85v12.18h-30.56Z"
             id="path4"
             style="fill:#ffffff" />
          <path
             d="M518.36,121.02v-53.62h16.39c4.55,0,8.63,1.19,12.26,3.56,3.63,2.37,6.43,5.6,8.43,9.69,1.99,4.09,2.99,8.6,2.99,13.56s-1,9.47-2.99,13.56c-1.99,4.09-4.8,7.31-8.43,9.69-3.63,2.37-7.71,3.56-12.26,3.56h-16.39ZM534.75,109.84c2.15,0,4.06-.62,5.75-1.88,1.69-1.25,2.97-3.05,3.87-5.4.89-2.35,1.34-5.13,1.34-8.35s-.45-6-1.34-8.35c-.89-2.35-2.18-4.15-3.87-5.4-1.69-1.25-3.6-1.88-5.75-1.88h-3.68v31.25h3.68Z"
             id="path5"
             style="fill:#ffffff" />
          <path
             d="M602,122.17c-4.65,0-8.77-1.2-12.37-3.6-3.6-2.4-6.4-5.72-8.39-9.96-1.99-4.24-2.99-9.04-2.99-14.4s.99-10.16,2.99-14.4c1.99-4.24,4.77-7.56,8.35-9.96,3.57-2.4,7.71-3.6,12.41-3.6,4.24,0,7.9.98,10.99,2.95,3.09,1.97,5.76,4.61,8,7.93l-8.35,6.51c-1.58-1.94-3.13-3.41-4.63-4.4-1.51-1-3.33-1.49-5.48-1.49s-4.24.69-5.97,2.07c-1.74,1.38-3.09,3.33-4.06,5.86-.97,2.53-1.45,5.37-1.45,8.54s.49,6,1.45,8.5c.97,2.5,2.34,4.44,4.1,5.82,1.76,1.38,3.74,2.07,5.94,2.07s3.93-.51,5.51-1.53c1.58-1.02,3.19-2.53,4.83-4.52l8.43,6.59c-2.4,3.37-5.16,6.05-8.27,8.04-3.12,1.99-6.79,2.99-11.03,2.99Z"
             id="path6"
             style="fill:#ffffff" />
          <path
             d="M645.58,122.17c-3.73,0-7.07-.86-10.03-2.57-2.96-1.71-5.27-4.08-6.93-7.12-1.66-3.04-2.49-6.5-2.49-10.38v-34.7h12.72v34.62c0,1.68.28,3.15.84,4.4.56,1.25,1.37,2.22,2.41,2.91,1.05.69,2.21,1.03,3.49,1.03,1.38,0,2.58-.34,3.6-1.03,1.02-.69,1.83-1.65,2.41-2.87.59-1.23.88-2.71.88-4.44v-34.62h12.72v34.7c0,3.88-.83,7.34-2.49,10.38-1.66,3.04-3.98,5.41-6.97,7.12s-6.37,2.57-10.15,2.57Z"
             id="path7"
             style="fill:#ffffff" />
          <path
             d="M674.38,121.02v-53.62h17.16c3.32,0,6.27.61,8.85,1.84,2.58,1.23,4.58,2.92,6.01,5.09,1.43,2.17,2.15,4.58,2.15,7.24,0,1.84-.32,3.52-.96,5.06-.64,1.53-1.49,2.8-2.57,3.79-1.07,1-2.3,1.75-3.68,2.26,2.04.72,3.75,1.72,5.13,3.03,1.38,1.3,2.41,2.83,3.1,4.6.69,1.76,1.03,3.61,1.03,5.55,0,2.86-.75,5.44-2.26,7.74-1.51,2.3-3.66,4.11-6.47,5.44-2.81,1.33-6.13,1.99-9.96,1.99h-17.54ZM691.46,89.08c1.02,0,1.93-.23,2.72-.69.79-.46,1.42-1.15,1.88-2.07s.69-2.02.69-3.29c0-1.89-.49-3.36-1.45-4.4-.97-1.05-2.25-1.57-3.83-1.57h-4.52v12.02h4.52ZM691.84,111.37c1.23,0,2.31-.26,3.25-.77.95-.51,1.67-1.28,2.18-2.3.51-1.02.77-2.25.77-3.68s-.26-2.65-.77-3.68c-.51-1.02-1.24-1.81-2.18-2.37-.95-.56-2.03-.84-3.25-.84h-4.9v13.63h4.9Z"
             id="path8"
             style="fill:#ffffff" />
          <path
             d="M717.81,121.02v-53.62h32.17v11.11h-19.45v10.19h14.63v10.19h-14.63v11.03h20.22v11.11h-32.94Z"
             id="path9"
             style="fill:#ffffff" />
          <path
             d="M314.32,197.61l15.7-53.62h14.09l15.62,53.62h-13.33l-2.76-11.41h-13.48l-2.76,11.41h-13.1ZM332.24,176.47h9.27l-4.44-18.69h-.23l-4.6,18.69Z"
             id="path10"
             style="fill:#ffffff" />
          <path
             d="M378.05,198.76c-2.25,0-4.43-.33-6.55-1-2.12-.66-4.07-1.65-5.86-2.95-1.79-1.3-3.37-2.92-4.75-4.86l7.58-7.51c1.33,1.58,2.74,2.81,4.25,3.68,1.51.87,3.13,1.3,4.86,1.3,1.02,0,1.94-.2,2.76-.61s1.45-.96,1.91-1.65c.46-.69.69-1.47.69-2.34,0-1.07-.32-2.03-.96-2.87-.64-.84-1.47-1.62-2.49-2.34-1.02-.71-2.3-1.51-3.83-2.37-2.6-1.63-4.76-3.1-6.47-4.4-1.71-1.3-3.18-3.03-4.4-5.17s-1.84-4.72-1.84-7.74.69-5.59,2.07-7.89c1.38-2.3,3.33-4.07,5.86-5.32,2.53-1.25,5.5-1.88,8.92-1.88,2.25,0,4.34.31,6.28.92,1.94.61,3.66,1.47,5.17,2.57,1.51,1.1,2.82,2.36,3.95,3.79l-7.89,7.66c-.61-.82-1.25-1.48-1.91-1.99-.66-.51-1.41-.93-2.22-1.26-.82-.33-1.71-.5-2.68-.5-.87,0-1.66.18-2.37.54-.72.36-1.26.84-1.65,1.46-.38.61-.57,1.3-.57,2.07,0,1.07.31,2.03.92,2.87.61.84,1.43,1.63,2.45,2.37,1.02.74,2.27,1.52,3.75,2.34,2.65,1.58,4.84,3.03,6.55,4.33,1.71,1.3,3.19,3.04,4.44,5.21,1.25,2.17,1.88,4.69,1.88,7.54,0,3.17-.79,5.96-2.37,8.39-1.58,2.43-3.73,4.3-6.43,5.63-2.71,1.33-5.72,1.99-9.04,1.99Z"
             id="path11"
             style="fill:#ffffff" />
          <path
             d="M416.34,198.76c-2.25,0-4.43-.33-6.55-1-2.12-.66-4.07-1.65-5.86-2.95-1.79-1.3-3.37-2.92-4.75-4.86l7.58-7.51c1.33,1.58,2.74,2.81,4.25,3.68,1.51.87,3.13,1.3,4.86,1.3,1.02,0,1.94-.2,2.76-.61s1.45-.96,1.91-1.65c.46-.69.69-1.47.69-2.34,0-1.07-.32-2.03-.96-2.87-.64-.84-1.47-1.62-2.49-2.34-1.02-.71-2.3-1.51-3.83-2.37-2.6-1.63-4.76-3.1-6.47-4.4-1.71-1.3-3.18-3.03-4.4-5.17s-1.84-4.72-1.84-7.74.69-5.59,2.07-7.89c1.38-2.3,3.33-4.07,5.86-5.32,2.53-1.25,5.5-1.88,8.92-1.88,2.25,0,4.34.31,6.28.92,1.94.61,3.66,1.47,5.17,2.57,1.51,1.1,2.82,2.36,3.95,3.79l-7.89,7.66c-.61-.82-1.25-1.48-1.91-1.99-.66-.51-1.41-.93-2.22-1.26-.82-.33-1.71-.5-2.68-.5-.87,0-1.66.18-2.37.54-.72.36-1.26.84-1.65,1.46-.38.61-.57,1.3-.57,2.07,0,1.07.31,2.03.92,2.87.61.84,1.43,1.63,2.45,2.37,1.02.74,2.27,1.52,3.75,2.34,2.65,1.58,4.84,3.03,6.55,4.33,1.71,1.3,3.19,3.04,4.44,5.21,1.25,2.17,1.88,4.69,1.88,7.54,0,3.17-.79,5.96-2.37,8.39-1.58,2.43-3.73,4.3-6.43,5.63-2.71,1.33-5.72,1.99-9.04,1.99Z"
             id="path12"
             style="fill:#ffffff" />
          <path
             d="M462.6,198.76c-4.65,0-8.77-1.2-12.37-3.6-3.6-2.4-6.4-5.72-8.39-9.96-1.99-4.24-2.99-9.04-2.99-14.4s.99-10.16,2.99-14.4c1.99-4.24,4.79-7.56,8.39-9.96,3.6-2.4,7.72-3.6,12.37-3.6s8.69,1.2,12.29,3.6c3.6,2.4,6.4,5.73,8.39,10,1.99,4.26,2.99,9.05,2.99,14.36s-1,10.1-2.99,14.36c-1.99,4.26-4.79,7.6-8.39,10-3.6,2.4-7.7,3.6-12.29,3.6ZM462.6,187.19c2.09,0,3.97-.69,5.63-2.07,1.66-1.38,2.95-3.32,3.87-5.82.92-2.5,1.38-5.34,1.38-8.5s-.46-6-1.38-8.5c-.92-2.5-2.21-4.44-3.87-5.82-1.66-1.38-3.54-2.07-5.63-2.07s-4.05.69-5.71,2.07c-1.66,1.38-2.95,3.31-3.87,5.78-.92,2.48-1.38,5.32-1.38,8.54s.46,6.06,1.38,8.54c.92,2.48,2.21,4.4,3.87,5.78,1.66,1.38,3.56,2.07,5.71,2.07Z"
             id="path13"
             style="fill:#ffffff" />
          <path
             d="M515.22,198.76c-4.65,0-8.77-1.2-12.37-3.6-3.6-2.4-6.4-5.72-8.39-9.96-1.99-4.24-2.99-9.04-2.99-14.4s.99-10.16,2.99-14.4c1.99-4.24,4.77-7.56,8.35-9.96,3.57-2.4,7.71-3.6,12.41-3.6,4.24,0,7.9.98,10.99,2.95,3.09,1.97,5.76,4.61,8,7.93l-8.35,6.51c-1.58-1.94-3.13-3.41-4.63-4.4-1.51-1-3.33-1.49-5.48-1.49s-4.24.69-5.97,2.07c-1.74,1.38-3.09,3.33-4.06,5.86-.97,2.53-1.45,5.37-1.45,8.54s.49,6,1.45,8.5c.97,2.5,2.34,4.44,4.1,5.82,1.76,1.38,3.74,2.07,5.94,2.07s3.93-.51,5.51-1.53c1.58-1.02,3.19-2.53,4.83-4.52l8.43,6.59c-2.4,3.37-5.16,6.05-8.27,8.04-3.12,1.99-6.79,2.99-11.03,2.99Z"
             id="path14"
             style="fill:#ffffff" />
          <path
             d="M540.12,197.61v-53.62h12.71v53.62h-12.71Z"
             id="path15"
             style="fill:#ffffff" />
          <path
             d="M557.66,197.61l15.7-53.62h14.09l15.63,53.62h-13.33l-2.76-11.41h-13.48l-2.76,11.41h-13.1ZM575.58,176.47h9.27l-4.44-18.69h-.23l-4.59,18.69Z"
             id="path16"
             style="fill:#ffffff" />
          <path
             d="M612.42,197.61v-41.82h-11.34v-11.8h35.54v11.8h-11.41v41.82h-12.79Z"
             id="path17"
             style="fill:#ffffff" />
          <path
             d="M642.75,197.61v-53.62h12.71v53.62h-12.71Z"
             id="path18"
             style="fill:#ffffff" />
          <path
             d="M686.71,198.76c-4.65,0-8.77-1.2-12.37-3.6-3.6-2.4-6.4-5.72-8.39-9.96-1.99-4.24-2.99-9.04-2.99-14.4s1-10.16,2.99-14.4c1.99-4.24,4.79-7.56,8.39-9.96,3.6-2.4,7.72-3.6,12.37-3.6s8.69,1.2,12.29,3.6c3.6,2.4,6.4,5.73,8.39,10,1.99,4.26,2.99,9.05,2.99,14.36s-.99,10.1-2.99,14.36c-1.99,4.26-4.79,7.6-8.39,10-3.6,2.4-7.7,3.6-12.29,3.6ZM686.71,187.19c2.09,0,3.97-.69,5.63-2.07,1.66-1.38,2.95-3.32,3.87-5.82.92-2.5,1.38-5.34,1.38-8.5s-.46-6-1.38-8.5c-.92-2.5-2.21-4.44-3.87-5.82-1.66-1.38-3.54-2.07-5.63-2.07s-4.05.69-5.71,2.07c-1.66,1.38-2.95,3.31-3.87,5.78-.92,2.48-1.38,5.32-1.38,8.54s.46,6.06,1.38,8.54c.92,2.48,2.21,4.4,3.87,5.78,1.66,1.38,3.56,2.07,5.71,2.07Z"
             id="path19"
             style="fill:#ffffff" />
          <path
             d="M717.96,197.61v-53.62h10.65l18.23,30.56h.23v-30.56h12.18v53.62h-10.65l-18.23-30.56h-.31v30.56h-12.1Z"
             id="path20"
             style="fill:#ffffff" />
        </g>
        <g
           id="g22"
           style="fill:#ffffff">
          <path
             d="M773.74,158.76c-4.13,0-7.49-3.36-7.49-7.49s3.36-7.49,7.49-7.49,7.49,3.36,7.49,7.49-3.36,7.49-7.49,7.49ZM773.74,145.44c-3.21,0-5.83,2.61-5.83,5.83s2.61,5.83,5.83,5.83,5.83-2.61,5.83-5.83-2.61-5.83-5.83-5.83Z"
             id="path21"
             style="fill:#ffffff" />
          <path
             d="M773.33,150.67c.42,0,.71-.08.89-.24.18-.15.28-.4.28-.77s-.1-.6-.28-.76c-.18-.15-.48-.22-.89-.22h-.85v1.99h.85ZM772.49,152.05v2.93h-2v-7.75h3.05c1.02,0,1.77.18,2.24.52.48.34.71.88.71,1.62,0,.51-.12.93-.37,1.26-.25.33-.62.57-1.12.72.28.07.52.21.74.43.22.22.43.55.65,1l1.09,2.2h-2.13l-.95-1.93c-.19-.39-.39-.65-.58-.79-.19-.14-.46-.22-.78-.22h-.56,0Z"
             id="path22"
             style="fill:#ffffff" />
        </g>
      </g>
      <path
         class="cls-3"
         d="m 133.56,30.24 c 0,-10.36 0,-14.42 0,-30.24 54.64,-0.09 94.51,33.29 113.09,65.54 -23.4,13.62 -25.97,15.1 -25.97,15.1 -17.16,-29.36 -49.86,-50.05 -87.12,-50.4 z"
         id="path23"
         style="fill:#ffffff" />
      <path
         id="path24"
         class="cls-3"
         d="M 45.419922 83.529297 L 45.419922 183.09961 C 45.419922 183.09961 102.60016 216.16984 131.41016 232.33984 L 131.5 133.24023 L 45.419922 83.529297 z M 66.294922 117.31445 C 68.055312 117.24396 70.125547 117.68586 72.529297 118.63086 C 75.299297 119.72086 110.48 139.23914 111.25 140.11914 C 111.82 140.77914 111.90039 141.72953 111.90039 147.51953 C 111.89039 151.17953 111.74078 154.41094 111.55078 154.71094 C 111.10078 155.43094 112.10023 155.94086 92.990234 145.38086 C 71.160234 133.32086 71.410391 133.43906 69.900391 134.53906 C 69.170391 135.06906 69.149297 135.48953 69.279297 148.01953 C 69.419297 162.61953 69.430547 162.69078 72.310547 165.55078 C 74.670547 167.90078 76.349453 168.90086 94.189453 178.63086 C 103.20945 183.54086 110.88023 187.90008 111.24023 188.33008 C 111.81983 188.99962 111.90028 189.96002 111.90039 195.7793 L 111.90039 195.7832 L 111.90039 195.78906 C 111.90018 200.68006 111.76941 202.57961 111.42969 202.85938 C 111.08969 203.13937 106.25023 200.6707 93.490234 193.7207 C 83.890234 188.4907 74.909297 183.48008 73.529297 182.58008 C 70.059297 180.32008 64.889531 175.04937 63.019531 171.85938 C 59.189531 165.30938 58.429688 160.43961 58.429688 142.09961 C 58.419688 128.05961 58.670703 124.88922 59.970703 121.94922 C 61.289453 118.96797 63.360937 117.43193 66.294922 117.31445 z "
         style="fill:#ffffff" />
      <path
         class="cls-5"
         d="m 221.75,182.97 c 18.8,-33.94 15.82,-72.04 -0.02,-100.5 0.21,-0.53 17.35,-10.02 25.97,-15.1 26.55,48.63 18.93,98.09 0.07,130.67 -10.56,-5.92 -16.11,-9.22 -26.04,-15.07 v 0 z"
         id="path25"
         style="fill:#ffffff" />
      <path
         class="cls-1"
         d="m 16.97,67.63 26.1,14.66 c -18.24,36.63 -16.53,64.4 -0.14,100.64 L 16.94,197.82 C -9.2,150.73 -1.79,100.8 16.98,67.63 Z"
         id="path26"
         style="fill:#ffffff" />
      <path
         id="path27"
         class="cls-1"
         d="M 219.41992 83.929688 C 219.41992 83.929688 162.66055 116.27023 133.56055 133.24023 L 133.57031 133.24023 C 133.57031 208.17023 133.34977 211.48984 133.50977 232.33984 C 164.75977 214.74984 191.11055 199.92086 219.31055 183.13086 C 219.45055 88.160859 219.06992 150.39969 219.41992 83.929688 z M 182.68945 124.68945 L 182.66016 124.69922 C 184.38016 124.60922 185.3793 126.02953 188.5293 132.01953 C 190.3593 135.50953 195.64906 145.53078 200.28906 154.30078 C 204.92906 163.08078 208.66938 170.52914 208.60938 170.86914 C 208.53937 171.20914 206.54922 172.57992 204.19922 173.91992 L 199.91992 176.35938 L 199.26953 175.55078 C 198.91953 175.11078 197.40016 172.53008 195.91016 169.83008 C 194.42016 167.12008 193.06969 164.91016 192.92969 164.91016 C 192.78969 164.91016 187.24914 167.90984 180.61914 171.58984 L 168.58008 178.2793 L 165.18945 188.07031 L 161.80078 197.85938 L 159.53906 199.2207 C 154.72906 202.1307 151.5093 203.73914 151.2793 203.36914 C 151.1593 203.15914 153.01992 197.44063 155.41992 190.64062 C 157.81992 183.84063 163.52961 167.69023 168.09961 154.74023 C 172.65961 141.80023 176.75945 130.43953 177.18945 129.51953 C 178.19945 127.36953 180.43039 125.13055 181.90039 124.81055 C 182.18039 124.75055 182.44945 124.68945 182.68945 124.68945 z M 180.96094 143.17969 C 180.78094 143.11969 179.15961 147.41094 177.34961 152.71094 C 174.77961 160.24094 174.2107 162.29937 174.7207 162.10938 C 176.0007 161.61937 187.21969 155.44938 187.42969 155.10938 C 187.66969 154.72938 181.5007 143.34969 180.9707 143.17969 L 180.96094 143.17969 z "
         style="fill:#ffffff" />
      <path
         class="cls-2"
         d="M 18.23,65.45 C 38.29,29.11 82.83,-0.1 131.3,0 V 30.24 C 89.86,31.72 61.2,52.74 44.14,80.46 34.27,74.75 29.46,71.92 18.23,65.45 Z"
         id="path28"
         style="fill:#ffffff" />
      <path
         class="cls-7"
         d="m 43.99,184.77 c 19.11,31.82 52.83,50.06 87.38,50.49 L 131.49,265 C 86.13,265.28 41.8,240.63 18.05,199.75 l 25.94,-14.99 v 0 z"
         id="path29"
         style="fill:#ffffff" />
      <path
         id="path30"
         class="cls-6"
         d="M 132.42969 32.5 L 46.75 81.849609 L 46.740234 81.849609 L 132.51953 131.35938 L 218.25 82.070312 L 132.42969 32.5 z M 93.089844 64.710938 C 98.229844 64.700937 99.029766 64.779375 99.509766 65.359375 C 99.809766 65.719375 103.00914 71.990781 106.61914 79.300781 C 110.21914 86.590781 113.27086 92.570312 113.38086 92.570312 C 113.49086 92.570312 116.29937 87.36 119.60938 81 C 122.91937 74.64 126.05055 68.940078 126.56055 68.330078 C 129.36055 65.000078 135.43094 65.099531 137.96094 68.519531 C 138.47094 69.219531 141.47086 74.790391 144.63086 80.900391 C 147.79086 87.010391 150.51945 92.159844 150.68945 92.339844 C 150.86945 92.529844 154.04937 86.590703 157.85938 78.970703 C 161.62938 71.440703 164.91063 65.140234 165.14062 64.990234 C 165.37062 64.840234 168.31922 64.710938 171.69922 64.710938 C 176.64922 64.710938 177.87906 64.810234 178.03906 65.240234 C 178.14906 65.530234 173.52977 75.149375 167.75977 86.609375 C 158.09977 105.83938 157.16977 107.52977 155.75977 108.50977 C 152.91977 110.47977 148.19922 110.25906 145.69922 108.03906 C 144.85922 107.29906 142.6007 103.3 138.4707 95.25 C 135.1707 88.81 132.33922 83.539062 132.19922 83.539062 C 132.05922 83.539062 129.26977 88.679453 126.00977 94.939453 C 122.73977 101.21945 119.81977 106.73094 119.50977 107.21094 C 119.19977 107.68094 118.25992 108.42937 117.41992 108.85938 L 117.40039 108.83984 C 115.44039 109.83984 111.81914 110.09914 109.86914 109.36914 C 107.15914 108.35914 106.39008 107.19008 100.33008 94.830078 C 89.060078 71.880078 86.109453 65.420781 86.689453 65.050781 C 86.979453 64.860781 89.859844 64.710938 93.089844 64.710938 z "
         style="fill:#ffffff" />
      <path
         class="cls-6"
         d="m 133.44,265.01 c -0.08,-11.53 -0.02,-19.48 0.06,-29.74 40.87,0 74.69,-27.52 87.15,-50.38 11.23,6.48 15.42,8.92 26.05,15.05 -36.63,62.87 -103.86,65.07 -113.26,65.07 z"
         id="path31"
         style="fill:#ffffff" />
    </g>
  </g>
</svg>
