<?xml version="1.0" encoding="UTF-8" standalone="no"?>
<!-- Created with Inkscape (http://www.inkscape.org/) -->

<svg
   xmlns:dc="http://purl.org/dc/elements/1.1/"
   xmlns:cc="http://creativecommons.org/ns#"
   xmlns:rdf="http://www.w3.org/1999/02/22-rdf-syntax-ns#"
   xmlns:svg="http://www.w3.org/2000/svg"
   xmlns="http://www.w3.org/2000/svg"
   version="1.0"
   width="292.72525"
   height="293.19345"
   id="svg2">
  <defs
     id="defs4" />
  <metadata
     id="metadata7">
    <rdf:RDF>
      <cc:Work
         rdf:about="">
        <dc:format>image/svg+xml</dc:format>
        <dc:type
           rdf:resource="http://purl.org/dc/dcmitype/StillImage" />
        <dc:title></dc:title>
      </cc:Work>
    </rdf:RDF>
  </metadata>
  <g
     transform="translate(-440.9061,488.30753)"
     id="layer1">
    <g
       transform="matrix(0.499989,0,0,0.499989,301.618,-244.854)"
       id="g3312">
      <path
         d="m 571.26982,-486.6847 c -161.98402,0 -292.6875,131.0294 -292.6875,293.0135 0,161.9839 130.07148,292.2493 292.0555,292.2493 161.98403,0 293.18498,-129.7603 293.18498,-291.7442 0,-161.9841 -130.32341,-293.5632 -292.30744,-293.5632 l -0.24554,0.045 0,-4e-4 0,0 0,0 0,0 0,0 z m -0.0223,66.5479 c 125.18216,0 226.14998,101.2834 226.14998,226.4656 0,125.182 -100.96782,226.5287 -226.14998,226.5287 -125.18214,0 -226.78125,-101.3467 -226.78125,-226.5287 0,-125.1822 101.59911,-226.4656 226.78125,-226.4656 l 0,0 z"
         id="path3273"
         style="fill:#eeeeec;fill-opacity:1;stroke:none" />
      <path
         d="m 379.05952,-304.5234 c 0,0 192.20092,-110.6113 192.20092,-110.6113 0,0 191.47848,110.716 191.47848,110.716 L 762.41241,-82.5423 570.73597,28.3219 378.80699,-82.5424 l 0.25253,-221.981 0,0 z"
         id="rect2804"
         style="fill:#eeeeec;fill-opacity:1;stroke:none" />
      <path
         d="m 472.98795,-28.0612 -94.03974,-54.3527 -0.21125,-109.3022 c -0.11609,-60.1163 0.0711,-109.5624 0.41609,-109.8803 0.45465,-0.419 157.67227,89.7658 186.86521,107.1915 l 3.0899,1.8444 0,109.4637 c 0,87.0364 -0.21309,109.4561 -1.04028,109.426 -0.57215,-0.022 -43.35815,-24.4964 -95.08002,-54.3904 l 9e-5,0 0,0 0,0 z m 52.84536,-26.306 c 0,-12.8794 -0.18785,-15.0047 -1.45637,-16.4848 -0.80099,-0.9346 -17.74687,-10.5804 -37.65751,-21.4352 -39.42884,-21.4957 -43.11734,-23.7008 -48.34577,-28.9025 -6.35668,-6.3241 -6.38498,-6.4874 -6.709,-38.716 -0.27837,-27.6876 -0.23649,-28.6061 1.36101,-29.7755 3.33671,-2.4428 2.77429,-2.7068 51.01484,23.9423 42.21421,23.3199 40.0044,22.2086 41.00746,20.6232 0.4179,-0.6605 0.7656,-7.8068 0.77262,-15.8805 0.0123,-12.806 -0.17306,-14.891 -1.44365,-16.3366 -1.69762,-1.9317 -79.42814,-45.0687 -85.54321,-47.4727 -14.15961,-5.5667 -23.08701,-3.2054 -27.74994,7.3399 -2.87751,6.5075 -3.41206,13.5011 -3.4028,44.5182 0.0123,40.5305 1.67261,51.2887 10.14752,65.7446 4.12576,7.0375 15.55061,18.6858 23.22072,23.675 3.0309,1.9715 22.87912,13.0527 44.10716,24.6248 28.1953,15.3702 38.87673,20.8086 39.63666,20.1809 0.76092,-0.6286 1.04026,-4.8295 1.04026,-15.6451 l 0,0 0,0 0,0 z M 761.2232,-316.3149 c -15.00636,-23.1743 -32.86328,-42.2194 -55.21635,-58.8908 -35.35999,-26.3721 -77.9656,-41.8143 -122.33494,-44.3397 l -9.98652,-0.5685 -0.21772,-33.1027 c -0.18261,-27.7819 -0.0308,-33.1749 0.94978,-33.5508 1.8405,-0.7063 26.38902,1.204 39.21396,3.0515 17.14401,2.4696 32.14504,6.0774 49.93264,12.009 17.90299,5.97 28.37776,10.4017 44.40814,18.7883 38.15806,19.9633 71.47331,48.4035 97.94071,83.609 7.5964,10.1042 18.0119,26.1193 17.6592,27.1532 -0.239,0.7005 -56.19161,33.1558 -57.10447,33.1234 -0.29778,-0.01 -2.65807,-3.2874 -5.24453,-7.2819 l 10e-5,0 0,0 z"
         id="path2730"
         style="fill:#ddda45" />
      <path
         d="m 797.1339,-65.2003 c -14.8758,-8.6434 -27.3701,-16.215 -27.76516,-16.8258 -0.47503,-0.7345 0.82856,-4.1999 3.84836,-10.2307 31.9468,-63.8001 31.9618,-139.1599 0.041,-202.9098 -2.4894,-4.9714 -4.35769,-9.4779 -4.15183,-10.0142 0.45369,-1.1825 54.36493,-32.3136 56.19253,-32.4485 3.79,-0.2799 21.4051,40.0086 28.059,64.1751 7.7557,28.1685 10.6703,49.9031 10.6878,79.7019 0.018,29.6612 -2.8999,51.4164 -10.6878,79.7019 -6.4493,23.424 -24.0145,63.9125 -27.9425,64.4092 -0.6789,0.086 -13.4055,-6.9158 -28.2812,-15.5591 l 10e-5,0 0,0 -3e-4,0 z"
         id="path2726"
         style="fill:#e7762a" />
      <path
         d="m 573.2693,-82.9918 0,-109.3591 8.53015,-4.9748 c 46.12023,-26.8973 180.67044,-104.1863 180.92751,-103.9292 0.18261,0.1825 0.3517,49.3057 0.37581,109.1627 0.0354,89.5275 -0.15243,109.0172 -1.06304,109.881 -0.60883,0.5776 -38.93099,22.8655 -85.16025,49.5288 -46.2293,26.6633 -88.16292,50.8572 -93.18586,53.7642 -5.02296,2.9071 -9.4233,5.2856 -9.77848,5.2856 -0.35524,0 -0.64584,-49.2116 -0.64584,-109.3592 l 0,0 z m 57.8386,36.1909 4.99325,-3.005 7.48994,-21.6244 7.48987,-21.6245 26.61348,-14.7718 c 14.63741,-8.1244 26.87858,-14.7717 27.20257,-14.7717 0.32395,0 3.28055,4.8844 6.57015,10.8541 3.28963,5.9697 6.63229,11.6583 7.42828,12.6413 l 1.44723,1.7872 9.46808,-5.3757 c 5.20736,-2.9567 9.58642,-5.9912 9.73134,-6.7433 0.14473,-0.7521 -8.12365,-17.2226 -18.37445,-36.601 -10.25077,-19.3784 -21.94483,-41.5295 -25.98685,-49.2246 -7.95376,-15.1424 -9.69987,-17.0351 -14.7018,-15.9364 -3.23279,0.71 -8.17517,5.6546 -10.40105,10.4057 -0.95594,2.0405 -9.99552,27.1158 -20.08792,55.723 -10.0924,28.6072 -22.69592,64.2922 -28.00783,79.2998 -5.31191,15.0076 -9.42534,27.6631 -9.14102,28.1232 0.50533,0.8176 7.61795,-2.7475 18.26673,-9.1559 l 0,0 0,0 0,0 z m 39.33889,-102.7525 c 3.99568,-11.7121 7.58728,-21.1914 7.98129,-21.0652 1.17232,0.3758 14.79402,25.5243 14.27761,26.3598 -0.46401,0.7508 -25.23653,14.3861 -28.08432,15.4582 -1.12476,0.4234 0.14873,-4.1138 5.82542,-20.7528 l 0,0 z M 309.66304,-62.055 c -13.60387,-27.3665 -22.31747,-54.0227 -27.20993,-83.2395 -2.8037,-16.7431 -3.78625,-29.5233 -3.78625,-49.2488 0,-38.5961 7.00259,-74.6305 21.35562,-109.893 3.65676,-8.9839 14.69161,-31.7941 16.03244,-33.1408 0.54361,-0.5459 54.24245,29.5853 56.96316,31.9629 0.40017,0.3497 -1.33578,4.69 -3.85772,9.6451 -11.86779,23.3179 -19.6705,49.3288 -23.17354,77.2505 -1.50345,11.9835 -1.28749,40.1818 0.40365,52.7096 3.69889,27.4005 11.60673,53.0428 23.31033,75.5872 2.99441,5.768 3.58636,7.5393 2.78085,8.3209 -1.75131,1.6995 -54.5506,31.9049 -55.76992,31.9049 -0.65358,0 -3.70896,-5.1405 -7.04869,-11.859 l 0,0 0,0 0,0 z"
         id="path2724"
         style="fill:#e02826" />
      <path
         d="m 348.17729,-324.8134 c -15.07588,-8.6957 -27.9026,-16.3022 -28.50383,-16.9035 -0.90269,-0.9026 -0.13734,-2.6004 4.39302,-9.7458 39.89536,-62.9226 104.27736,-109.0481 177.07622,-126.8636 20.39435,-4.9909 39.64581,-7.6563 58.81123,-8.1424 l 8.73821,-0.2216 0,33.2884 0,33.2884 -9.98653,0.5768 c -40.47177,2.3373 -78.82645,15.0843 -112.09723,37.255 -14.83246,9.8839 -23.267,16.7606 -35.22773,28.7213 -11.6366,11.6366 -18.70253,20.2476 -28.01799,34.1444 -3.68186,5.4926 -6.93737,10.0825 -7.23444,10.1998 -0.29716,0.1172 -12.87501,-6.9014 -27.95093,-15.5971 l 0,-10e-5 0,0 0,0 z"
         id="path2722"
         style="fill:#3d9c46" />
      <path
         d="m 347.01646,-62.8538 c 14.9233,-8.5612 27.72765,-15.5957 28.45415,-15.6325 0.87361,-0.044 3.22294,2.8175 6.93586,8.4482 39.27912,59.5667 104.53512,97.2596 175.70452,101.4904 5.5501,0.3298 10.387,0.965 10.7485,1.4115 0.7972,0.9841 0.8019,63.2382 0,64.8884 -1.6526,3.4222 -45.3511,-1.467 -69.6068,-7.7878 -28.2725,-7.3676 -48.5525,-15.7108 -74.3678,-30.595 -25.69634,-14.815 -43.07794,-28.2196 -63.67996,-49.1069 -17.06112,-17.2972 -43.34259,-52.7534 -41.80875,-56.4035 0.26497,-0.6309 12.69201,-8.1516 27.61518,-16.7127 l -5e-5,1e-4 0,0 0.005,-2e-4 z"
         id="path2802"
         style="fill:#eeeeec" />
      <path
         d="m 573.684,98.65 c -0.23896,-0.6229 -0.33655,-15.737 -0.21648,-33.5869 l 0.21802,-32.4542 9.98653,-0.5767 c 40.43916,-2.3355 78.86429,-15.1092 112.12595,-37.274 14.71856,-9.8081 23.18857,-16.7212 35.18438,-28.7171 11.67503,-11.6751 18.77554,-20.3199 28.03268,-34.1296 3.68183,-5.4926 6.94892,-10.0864 7.26028,-10.2084 0.68356,-0.2679 54.86384,30.9442 56.42484,32.5051 0.9081,0.9081 0.1844,2.5369 -4.2,9.4518 -27.8321,43.8967 -68.75766,80.9389 -115.06742,104.149 -38.04495,19.068 -75.16707,28.7923 -119.9602,31.424 -7.50342,0.441 -9.43978,0.3256 -9.78843,-0.583 l -1.5e-4,0 0,0 0,0 z m -97.97919,-349.6665 c -51.60075,-29.8386 -93.81965,-54.6265 -93.81977,-55.0842 -3.4e-4,-1.202 187.20659,-109.0195 189.29399,-109.0195 2.33141,0 190.46056,108.6494 189.59581,109.4965 -1.88069,1.8425 -188.52612,108.9515 -189.78184,108.9089 -0.80779,-0.028 -43.68743,-24.4631 -95.28819,-54.3017 l 0,0 z m 62.30097,4.5774 c 1.8619,-0.9499 3.94505,-2.5913 4.62923,-3.6475 0.68418,-1.0562 7.14246,-13.2489 14.35183,-27.0948 7.20928,-13.8459 13.36854,-25.1743 13.6872,-25.1743 0.31862,0 6.55669,11.6423 13.86239,25.8717 9.12423,17.7716 14.12647,26.6196 15.97682,28.2602 5.52355,4.8973 15.957,5.3847 22.22718,1.0383 3.11324,-2.1581 5.16527,-5.9004 26.52975,-48.3828 12.73554,-25.3241 22.95226,-46.5735 22.70384,-47.2209 -0.36402,-0.9486 -3.08097,-1.1746 -14.00121,-1.1643 -7.45227,0.01 -13.9729,0.2879 -14.49036,0.6242 -0.5175,0.3362 -7.75215,14.2361 -16.07706,30.8884 -8.41977,16.8422 -15.44834,29.9516 -15.83964,29.5435 -0.38693,-0.4035 -6.40913,-11.7812 -13.38277,-25.2838 -6.97365,-13.5026 -13.60973,-25.8081 -14.74692,-27.3455 -5.58649,-7.5527 -18.99772,-7.7743 -25.18097,-0.416 -1.12534,1.3392 -8.03801,13.9343 -15.36147,27.989 -7.32343,14.0548 -13.51638,25.5579 -13.76209,25.5626 -0.24574,0.01 -6.97247,-13.1925 -14.9484,-29.327 -7.97589,-16.1345 -15.04195,-29.9908 -15.7023,-30.7918 -1.05072,-1.2745 -2.82116,-1.4547 -14.17894,-1.4436 -7.13809,0.01 -13.50438,0.3458 -14.1473,0.7528 -1.28275,0.8121 5.24946,15.0776 30.1353,65.8113 13.38856,27.2946 15.09224,29.8906 21.0805,32.1204 4.29691,1.6001 12.31022,1.0364 16.63539,-1.1701 l 0,0 0,0 z"
         id="path2720"
         style="fill:#304a96" />
    </g>
  </g>
</svg>
