<?xml version="1.0" encoding="UTF-8" standalone="no"?>
<!-- Created with Inkscape (http://www.inkscape.org/) -->

<svg
   xmlns:dc="http://purl.org/dc/elements/1.1/"
   xmlns:cc="http://creativecommons.org/ns#"
   xmlns:rdf="http://www.w3.org/1999/02/22-rdf-syntax-ns#"
   xmlns:svg="http://www.w3.org/2000/svg"
   xmlns="http://www.w3.org/2000/svg"
   xmlns:sodipodi="http://sodipodi.sourceforge.net/DTD/sodipodi-0.dtd"
   xmlns:inkscape="http://www.inkscape.org/namespaces/inkscape"
   width="134.87354mm"
   height="159.49619mm"
   viewBox="0 0 477.89835 565.14396"
   id="svg5165"
   version="1.1"
   inkscape:version="0.91 r13725"
   sodipodi:docname="cubingUSA_4.svg"
   inkscape:export-filename="/home/shelley/Documents/cubingUSA logos/cubingUSA_logo_final.png"
   inkscape:export-xdpi="72"
   inkscape:export-ydpi="72">
  <defs
     id="defs5167">
    <inkscape:path-effect
       effect="bend_path"
       id="path-effect5193"
       is_visible="true"
       bendpath="m 314.99608,276.92789 113.46843,0"
       prop_scale="1"
       scale_y_rel="false"
       vertical="false" />
    <inkscape:path-effect
       effect="construct_grid"
       id="path-effect5191"
       is_visible="true"
       nr_x="5"
       nr_y="5" />
    <inkscape:path-effect
       effect="envelope"
       id="path-effect5189"
       is_visible="true"
       yy="true"
       xx="true"
       bendpath1="m 166.66683,201.35774 c 139.8073,-48.11713 276.66768,-47.11882 410.76083,0"
       bendpath2="m 577.42766,201.35774 0,151.32143"
       bendpath3="m 166.66683,352.67917 c 110.9232,18.70522 156.16284,84.67055 410.76083,0"
       bendpath4="m 166.66683,201.35774 0,151.32143"
       bendpath1-nodetypes="cc"
       bendpath3-nodetypes="cc" />
    <clipPath
       clipPathUnits="userSpaceOnUse"
       id="clipPath4208">
      <path
         style="fill:#ffffff;fill-opacity:1;stroke:#000080;stroke-width:5.05049944;stroke-linecap:round;stroke-linejoin:miter;stroke-miterlimit:4;stroke-dasharray:none;stroke-dashoffset:0;stroke-opacity:1"
         d="M 634.21389,566.10614 440.49033,790.57724 247.08805,565.35947 247.40929,265.44216 441.13284,174.36132 634.53515,266.18881 Z"
         id="path4210"
         inkscape:connector-curvature="0"
         sodipodi:nodetypes="ccccccc" />
    </clipPath>
  </defs>
  <sodipodi:namedview
     id="base"
     pagecolor="#ffffff"
     bordercolor="#666666"
     borderopacity="1.0"
     inkscape:pageopacity="0.0"
     inkscape:pageshadow="2"
     inkscape:zoom="0.90653199"
     inkscape:cx="10.613854"
     inkscape:cy="230.84898"
     inkscape:document-units="px"
     inkscape:current-layer="layer1"
     showgrid="false"
     inkscape:window-width="1276"
     inkscape:window-height="1409"
     inkscape:window-x="0"
     inkscape:window-y="27"
     inkscape:window-maximized="0"
     fit-margin-top="1"
     fit-margin-left="1"
     fit-margin-right="1"
     fit-margin-bottom="1">
    <inkscape:grid
       type="xygrid"
       id="grid5532"
       originx="-91.509173"
       originy="-401.86522" />
  </sodipodi:namedview>
  <metadata
     id="metadata5170">
    <rdf:RDF>
      <cc:Work
         rdf:about="">
        <dc:format>image/svg+xml</dc:format>
        <dc:type
           rdf:resource="http://purl.org/dc/dcmitype/StillImage" />
        <dc:title></dc:title>
      </cc:Work>
    </rdf:RDF>
  </metadata>
  <g
     inkscape:label="Layer 1"
     inkscape:groupmode="layer"
     id="layer1"
     transform="translate(-91.509179,-85.353007)">
    <g
       id="g6932">
      <path
         style="fill:#ffffff;fill-opacity:1;stroke:#000080;stroke-width:5.23899984;stroke-linecap:round;stroke-linejoin:miter;stroke-miterlimit:4;stroke-dasharray:none;stroke-dashoffset:0;stroke-opacity:1"
         d="M 562.85605,442.47725 330.07186,643.48902 97.673704,441.80862 98.059724,173.23548 330.84392,91.673447 563.24208,173.90409 Z"
         id="path5215"
         inkscape:connector-curvature="0"
         sodipodi:nodetypes="ccccccc" />
      <path
         sodipodi:nodetypes="ccccccc"
         inkscape:connector-curvature="0"
         id="path5175"
         d="M 552.75178,438.67174 329.62615,630.50832 106.87054,438.03363 l 0.37,-256.31412 223.12563,-77.83912 222.75563,78.47722 z"
         style="fill:#ffffff;fill-opacity:1;stroke:#000080;stroke-width:5.01075697;stroke-linecap:round;stroke-linejoin:miter;stroke-miterlimit:4;stroke-dasharray:none;stroke-dashoffset:0;stroke-opacity:1" />
      <path
         sodipodi:nodetypes="cccccc"
         inkscape:connector-curvature="0"
         id="rect5217"
         d="m 105.85674,179.95586 224.33967,-79.4876 225.11894,80.11895 -0.11687,100.28604 -449.63475,0.28605 z"
         style="fill:#000080;fill-opacity:1;stroke:none;stroke-width:5;stroke-linecap:round;stroke-linejoin:miter;stroke-miterlimit:4;stroke-dasharray:none;stroke-dashoffset:0;stroke-opacity:1" />
      <g
         mask="none"
         transform="matrix(1.1517734,0,0,0.85461594,-177.71891,-61.678162)"
         id="g5386"
         clip-path="url(#clipPath4208)">
        <path
           inkscape:connector-curvature="0"
           id="rect5258"
           d="m 309.98613,622.00741 37.3188,0 0,235.21325 -37.3188,0 z"
           style="fill:#ff0000;fill-opacity:1;stroke:none;stroke-width:5;stroke-linecap:round;stroke-linejoin:miter;stroke-miterlimit:4;stroke-dasharray:none;stroke-dashoffset:0;stroke-opacity:1" />
        <path
           inkscape:connector-curvature="0"
           id="rect5260"
           d="m 384.7638,622.00741 37.31879,0 0,235.21325 -37.31879,0 z"
           style="fill:#ff0000;fill-opacity:1;stroke:none;stroke-width:5;stroke-linecap:round;stroke-linejoin:miter;stroke-miterlimit:4;stroke-dasharray:none;stroke-dashoffset:0;stroke-opacity:1" />
        <path
           inkscape:connector-curvature="0"
           id="rect5262"
           d="m 459.54145,622.00741 37.31879,0 0,235.21325 -37.31879,0 z"
           style="fill:#ff0000;fill-opacity:1;stroke:none;stroke-width:5;stroke-linecap:round;stroke-linejoin:miter;stroke-miterlimit:4;stroke-dasharray:none;stroke-dashoffset:0;stroke-opacity:1" />
        <path
           inkscape:connector-curvature="0"
           id="rect5264"
           d="m 534.31907,622.00741 37.31879,0 0,235.21325 -37.31879,0 z"
           style="fill:#ff0000;fill-opacity:1;stroke:none;stroke-width:5;stroke-linecap:round;stroke-linejoin:miter;stroke-miterlimit:4;stroke-dasharray:none;stroke-dashoffset:0;stroke-opacity:1" />
      </g>
      <g
         transform="matrix(5.4391399,0,0,1.9687079,-1692.3319,-43.177685)"
         id="g5457">
        <path
           id="rect5413"
           d="m 317.89481,-209.25946 12.61614,0 c 0.554,0 1,0.446 1,1 l 0,12.61614 c 0,0.554 -0.446,1 -1,1 l -12.61614,0 c -0.554,0 -1,-0.446 -1,-1 l 0,-12.61614 c 0,-0.554 0.446,-1 1,-1 z"
           style="fill:#ffffff;fill-opacity:1;stroke:none;stroke-width:5;stroke-linecap:round;stroke-linejoin:miter;stroke-miterlimit:4;stroke-dasharray:none;stroke-dashoffset:0;stroke-opacity:1"
           transform="matrix(0.70710678,0.70710678,-0.70710678,0.70710678,0,0)"
           inkscape:connector-curvature="0" />
        <path
           id="rect5415"
           d="m 337.89481,-209.25946 12.61614,0 c 0.554,0 1,0.446 1,1 l 0,12.61614 c 0,0.554 -0.446,1 -1,1 l -12.61614,0 c -0.554,0 -1,-0.446 -1,-1 l 0,-12.61614 c 0,-0.554 0.446,-1 1,-1 z"
           style="fill:#ffffff;fill-opacity:1;stroke:none;stroke-width:5;stroke-linecap:round;stroke-linejoin:miter;stroke-miterlimit:4;stroke-dasharray:none;stroke-dashoffset:0;stroke-opacity:1"
           transform="matrix(0.70710678,0.70710678,-0.70710678,0.70710678,0,0)"
           inkscape:connector-curvature="0" />
        <path
           id="rect5417"
           d="m 357.89481,-209.25946 12.61614,0 c 0.554,0 1,0.446 1,1 l 0,12.61614 c 0,0.554 -0.446,1 -1,1 l -12.61614,0 c -0.554,0 -1,-0.446 -1,-1 l 0,-12.61614 c 0,-0.554 0.446,-1 1,-1 z"
           style="fill:#ffffff;fill-opacity:1;stroke:none;stroke-width:5;stroke-linecap:round;stroke-linejoin:miter;stroke-miterlimit:4;stroke-dasharray:none;stroke-dashoffset:0;stroke-opacity:1"
           transform="matrix(0.70710678,0.70710678,-0.70710678,0.70710678,0,0)"
           inkscape:connector-curvature="0" />
        <path
           id="rect5419"
           d="m 317.89481,-189.25946 12.61614,0 c 0.554,0 1,0.446 1,1 l 0,12.61614 c 0,0.554 -0.446,1 -1,1 l -12.61614,0 c -0.554,0 -1,-0.446 -1,-1 l 0,-12.61614 c 0,-0.554 0.446,-1 1,-1 z"
           style="fill:#ffffff;fill-opacity:1;stroke:none;stroke-width:5;stroke-linecap:round;stroke-linejoin:miter;stroke-miterlimit:4;stroke-dasharray:none;stroke-dashoffset:0;stroke-opacity:1"
           transform="matrix(0.70710678,0.70710678,-0.70710678,0.70710678,0,0)"
           inkscape:connector-curvature="0" />
        <path
           id="rect5421"
           d="m 337.89481,-189.25946 12.61614,0 c 0.554,0 1,0.446 1,1 l 0,12.61614 c 0,0.554 -0.446,1 -1,1 l -12.61614,0 c -0.554,0 -1,-0.446 -1,-1 l 0,-12.61614 c 0,-0.554 0.446,-1 1,-1 z"
           style="fill:#ffffff;fill-opacity:1;stroke:none;stroke-width:5;stroke-linecap:round;stroke-linejoin:miter;stroke-miterlimit:4;stroke-dasharray:none;stroke-dashoffset:0;stroke-opacity:1"
           transform="matrix(0.70710678,0.70710678,-0.70710678,0.70710678,0,0)"
           inkscape:connector-curvature="0" />
        <path
           id="rect5425"
           d="m 317.89481,-169.25946 12.61614,0 c 0.554,0 1,0.446 1,1 l 0,12.61614 c 0,0.554 -0.446,1 -1,1 l -12.61614,0 c -0.554,0 -1,-0.446 -1,-1 l 0,-12.61614 c 0,-0.554 0.446,-1 1,-1 z"
           style="fill:#ffffff;fill-opacity:1;stroke:none;stroke-width:5;stroke-linecap:round;stroke-linejoin:miter;stroke-miterlimit:4;stroke-dasharray:none;stroke-dashoffset:0;stroke-opacity:1"
           transform="matrix(0.70710678,0.70710678,-0.70710678,0.70710678,0,0)"
           inkscape:connector-curvature="0" />
      </g>
      <g
         id="text5198"
         style="font-style:normal;font-variant:normal;font-weight:normal;font-stretch:normal;font-size:131.19741821px;line-height:125%;font-family:'Bebas Neue';-inkscape-font-specification:'Bebas Neue';letter-spacing:0.28426108px;word-spacing:5.88201761px;fill:#ffffff;fill-opacity:1;stroke:none;stroke-width:3;stroke-linecap:butt;stroke-linejoin:miter;stroke-miterlimit:4;stroke-dasharray:none;stroke-opacity:1"
         transform="matrix(1.4279392,0,0,0.61822367,-33.324438,58.902266)">
        <path
           inkscape:connector-curvature="0"
           id="path5203"
           style="font-style:normal;font-variant:normal;font-weight:normal;font-stretch:normal;font-family:'Bebas Neue';-inkscape-font-specification:'Bebas Neue';fill:#ffffff;stroke:none;stroke-width:3;stroke-miterlimit:4;stroke-dasharray:none;stroke-opacity:1"
           d="m 143.28049,308.36639 0,13.11974 c 0,6.55987 -2.88634,8.92143 -7.47825,8.92143 -4.59191,0 -7.47825,-2.36156 -7.47825,-8.92143 l 0,-49.59262 c 0,-6.55987 2.88634,-9.05262 7.47825,-9.05262 4.59191,0 7.47825,2.49275 7.47825,9.05262 l 0,9.83981 13.64453,0 0,-8.92143 c 0,-14.69411 -7.34705,-23.09074 -21.51637,-23.09074 -14.16933,0 -21.51638,8.39663 -21.51638,23.09074 l 0,47.75586 c 0,14.69411 7.34705,23.09075 21.51638,23.09075 14.16932,0 21.51637,-8.39664 21.51637,-23.09075 l 0,-12.20136 -13.64453,0 z" />
        <path
           inkscape:connector-curvature="0"
           id="path5205"
           style="font-style:normal;font-variant:normal;font-weight:normal;font-stretch:normal;font-family:'Bebas Neue';-inkscape-font-specification:'Bebas Neue';fill:#ffffff;stroke:none;stroke-width:3;stroke-miterlimit:4;stroke-dasharray:none;stroke-opacity:1"
           d="m 165.43782,250.77072 0,69.92823 c 0,14.69411 7.34705,23.09074 21.51638,23.09074 14.16932,0 21.51637,-8.39663 21.51637,-23.09074 l 0,-69.92823 -13.64453,0 0,70.84661 c 0,6.55987 -2.88634,8.92142 -7.47825,8.92142 -4.59191,0 -7.47826,-2.36155 -7.47826,-8.92142 l 0,-70.84661 -14.43171,0 z" />
        <path
           inkscape:connector-curvature="0"
           id="path5207"
           style="font-style:normal;font-variant:normal;font-weight:normal;font-stretch:normal;font-family:'Bebas Neue';-inkscape-font-specification:'Bebas Neue';fill:#ffffff;stroke:none;stroke-width:3;stroke-miterlimit:4;stroke-dasharray:none;stroke-opacity:1"
           d="m 240.43081,250.77072 -21.77877,0 0,91.8382 22.69715,0 c 14.43172,0 21.90997,-7.60945 21.90997,-21.77877 l 0,-7.47826 c 0,-9.70861 -3.01754,-16.66207 -10.75819,-19.67961 6.42868,-3.01754 9.31502,-9.05262 9.31502,-18.49884 l 0,-3.27993 c 0,-14.16932 -6.42867,-21.12279 -21.38518,-21.12279 z m -0.91838,50.51101 c 6.55987,0 9.31502,2.62395 9.31502,11.15178 l 0,8.00304 c 0,6.82227 -2.62395,9.05263 -7.47826,9.05263 l -8.26543,0 0,-28.20745 6.42867,0 z m 0.52479,-37.39126 c 5.1167,0 7.34706,2.88634 7.34706,9.44621 l 0,5.1167 c 0,7.34706 -3.27994,9.70861 -8.65903,9.70861 l -5.64149,0 0,-24.27152 6.95346,0 z" />
        <path
           inkscape:connector-curvature="0"
           id="path5209"
           style="font-style:normal;font-variant:normal;font-weight:normal;font-stretch:normal;font-family:'Bebas Neue';-inkscape-font-specification:'Bebas Neue';fill:#ffffff;stroke:none;stroke-width:3;stroke-miterlimit:4;stroke-dasharray:none;stroke-opacity:1"
           d="m 272.23525,342.60892 14.43171,0 0,-91.8382 -14.43171,0 0,91.8382 z" />
        <path
           inkscape:connector-curvature="0"
           id="path5211"
           style="font-style:normal;font-variant:normal;font-weight:normal;font-stretch:normal;font-family:'Bebas Neue';-inkscape-font-specification:'Bebas Neue';fill:#ffffff;stroke:none;stroke-width:3;stroke-miterlimit:4;stroke-dasharray:none;stroke-opacity:1"
           d="m 328.20667,342.60892 14.82531,0 0,-91.8382 -12.85735,0 0,54.97172 -14.82531,-54.97172 -18.10524,0 0,91.8382 12.98854,0 0,-66.51709 17.97405,66.51709 z" />
        <path
           inkscape:connector-curvature="0"
           id="path5213"
           style="font-style:normal;font-variant:normal;font-weight:normal;font-stretch:normal;font-family:'Bebas Neue';-inkscape-font-specification:'Bebas Neue';fill:#ffffff;stroke:none;stroke-width:3;stroke-miterlimit:4;stroke-dasharray:none;stroke-opacity:1"
           d="m 375.42475,304.56167 6.55987,0 0,16.92446 c 0,6.55987 -2.88634,8.92143 -7.47825,8.92143 -4.59191,0 -7.47825,-2.36156 -7.47825,-8.92143 l 0,-49.59262 c 0,-6.55987 2.88634,-9.05262 7.47825,-9.05262 4.59191,0 7.47825,2.49275 7.47825,9.05262 l 0,9.83981 13.64453,0 0,-8.92143 c 0,-14.69411 -7.34705,-23.09074 -21.51637,-23.09074 -14.16932,0 -21.51638,8.39663 -21.51638,23.09074 l 0,47.75586 c 0,14.69411 7.34706,23.09075 21.51638,23.09075 14.16932,0 21.51637,-8.39664 21.51637,-23.09075 l 0,-29.12583 -20.2044,0 0,13.11975 z" />
      </g>
      <g
         transform="matrix(0.95797886,0,0,0.92745183,9.0167102,21.549237)"
         id="g4659">
        <g
           transform="translate(-41.589328,42.952212)"
           id="text5402"
           style="font-style:normal;font-variant:normal;font-weight:normal;font-stretch:normal;font-size:60px;line-height:125%;font-family:'Bebas Neue';-inkscape-font-specification:'Bebas Neue';letter-spacing:0.13px;word-spacing:2.69000006px;fill:#ff0000;fill-opacity:1;stroke:#000080;stroke-width:25;stroke-linecap:butt;stroke-linejoin:miter;stroke-miterlimit:4;stroke-dasharray:none;stroke-opacity:1">
          <path
             inkscape:connector-curvature="0"
             id="path5409"
             style="font-style:normal;font-variant:normal;font-weight:800;font-stretch:normal;font-size:180px;font-family:'Coda Caption';-inkscape-font-specification:'Coda Caption Ultra-Bold';fill:#ff0000;stroke:#000080;stroke-width:25;stroke-miterlimit:4;stroke-dasharray:none;stroke-opacity:1"
             d="m 361.29368,304.1431 q 0,3.23125 3.13027,5.1498 3.23125,1.91856 8.38105,3.43321 5.25079,1.41367 11.91524,2.82734 6.66445,1.41367 13.53085,3.63515 6.96738,2.12051 13.63184,5.55371 6.66445,3.33223 11.81425,8.78496 5.25077,5.35175 8.38105,13.22792 3.23125,7.87617 3.23125,18.98359 0,7.97715 -0.40391,15.24745 -0.4039,7.27032 -2.22149,13.53086 -1.81757,6.15956 -5.65468,11.2084 -3.8371,5.04882 -10.80449,8.68397 -6.8664,3.53418 -17.36796,5.45273 -10.50156,1.91857 -25.64803,1.91857 -13.42989,0 -23.52754,-1.41368 -9.99667,-1.31269 -17.16601,-4.14004 -7.16933,-2.82734 -11.81425,-7.16933 -4.54395,-4.44297 -7.2703,-10.40059 -2.6254,-5.9576 -3.63517,-13.63182 -1.00976,-7.67422 -1.00976,-17.06504 l 52.50779,0 0,26.15292 23.83046,0 0,-29.88905 q 0,-2.92832 -3.23125,-4.84687 -3.13027,-1.91855 -8.38104,-3.4332 -5.1498,-1.61562 -11.81427,-3.13027 -6.66444,-1.51465 -13.63182,-3.63516 -6.8664,-2.12051 -13.53085,-5.14981 -6.66445,-3.02928 -11.91524,-7.47225 -5.1498,-4.54395 -8.38105,-10.80449 -3.13027,-6.36153 -3.13027,-15.14648 0,-10.90547 1.11075,-19.38749 1.11074,-8.58301 3.8371,-14.94453 2.72637,-6.36152 7.37129,-10.70351 4.64492,-4.44297 11.6123,-7.16934 7.06835,-2.72636 16.66112,-3.93808 9.69375,-1.21172 22.51777,-1.21172 18.37773,0 30.19198,2.42344 11.91523,2.42343 18.78164,8.07812 6.8664,5.65468 9.49178,14.84355 2.6254,9.18887 2.6254,22.51777 l -50.18534,0 0,-20.19531 -23.83046,0 0,23.2246 z" />
          <g
             id="g4449"
             transform="translate(4.4345792e-4,0)"
             style="stroke:#000080;stroke-width:25;stroke-miterlimit:4;stroke-dasharray:none;stroke-opacity:1">
            <path
               d="m 220.52661,374.77853 20.74219,0 0,-119.35546 43.68164,0 0,107.57812 q 0,3.51563 -0.43945,7.55859 -0.43946,4.04297 -2.19727,8.08594 -1.75781,3.95508 -5.27344,7.64649 -3.51562,3.6914 -9.58007,6.5039 -6.06446,2.8125 -15.11719,4.48242 -9.05274,1.75782 -21.97266,1.75782 -12.74414,0 -21.70898,-1.75782 -8.96485,-1.66992 -14.94141,-4.48242 -5.88867,-2.8125 -9.31641,-6.5039 -3.33984,-3.69141 -5.09765,-7.64649 -1.66992,-4.04297 -2.10938,-8.08594 -0.35156,-4.04296 -0.35156,-7.55859 l 0,-107.57812 43.68164,0 0,119.35546 z"
               style="font-style:normal;font-variant:normal;font-weight:800;font-stretch:normal;font-size:180px;font-family:'Coda Caption';-inkscape-font-specification:'Coda Caption Ultra-Bold';fill:#ff0000;stroke:#000080;stroke-width:25;stroke-miterlimit:4;stroke-dasharray:none;stroke-opacity:1"
               id="path5407"
               inkscape:connector-curvature="0" />
            <path
               d="m 503.70654,361.0676 -3.60351,34.54101 -45.26367,0 22.5,-140.18554 75.41015,0 22.5,140.18554 -45.43945,0 -3.42774,-34.54101 -22.67578,0 z m 2.28516,-15.73243 18.10547,0 -9.14063,-69.3457 -8.96484,69.3457 z"
               style="font-style:normal;font-variant:normal;font-weight:800;font-stretch:normal;font-size:180px;font-family:'Coda Caption';-inkscape-font-specification:'Coda Caption Ultra-Bold';fill:#ff0000;stroke:#000080;stroke-width:25;stroke-miterlimit:4;stroke-dasharray:none;stroke-opacity:1"
               id="path5411"
               inkscape:connector-curvature="0" />
          </g>
        </g>
        <g
           style="font-style:normal;font-variant:normal;font-weight:normal;font-stretch:normal;font-size:60px;line-height:125%;font-family:'Bebas Neue';-inkscape-font-specification:'Bebas Neue';letter-spacing:0.13px;word-spacing:2.69000006px;fill:#ff0000;fill-opacity:1;stroke:#ffffff;stroke-width:10;stroke-linecap:butt;stroke-linejoin:miter;stroke-miterlimit:4;stroke-dasharray:none;stroke-opacity:1"
           id="g4505"
           transform="translate(-41.589328,42.952212)">
          <path
             d="m 361.29368,304.1431 q 0,3.23125 3.13027,5.1498 3.23125,1.91856 8.38105,3.43321 5.25079,1.41367 11.91524,2.82734 6.66445,1.41367 13.53085,3.63515 6.96738,2.12051 13.63184,5.55371 6.66445,3.33223 11.81425,8.78496 5.25077,5.35175 8.38105,13.22792 3.23125,7.87617 3.23125,18.98359 0,7.97715 -0.40391,15.24745 -0.4039,7.27032 -2.22149,13.53086 -1.81757,6.15956 -5.65468,11.2084 -3.8371,5.04882 -10.80449,8.68397 -6.8664,3.53418 -17.36796,5.45273 -10.50156,1.91857 -25.64803,1.91857 -13.42989,0 -23.52754,-1.41368 -9.99667,-1.31269 -17.16601,-4.14004 -7.16933,-2.82734 -11.81425,-7.16933 -4.54395,-4.44297 -7.2703,-10.40059 -2.6254,-5.9576 -3.63517,-13.63182 -1.00976,-7.67422 -1.00976,-17.06504 l 52.50779,0 0,26.15292 23.83046,0 0,-29.88905 q 0,-2.92832 -3.23125,-4.84687 -3.13027,-1.91855 -8.38104,-3.4332 -5.1498,-1.61562 -11.81427,-3.13027 -6.66444,-1.51465 -13.63182,-3.63516 -6.8664,-2.12051 -13.53085,-5.14981 -6.66445,-3.02928 -11.91524,-7.47225 -5.1498,-4.54395 -8.38105,-10.80449 -3.13027,-6.36153 -3.13027,-15.14648 0,-10.90547 1.11075,-19.38749 1.11074,-8.58301 3.8371,-14.94453 2.72637,-6.36152 7.37129,-10.70351 4.64492,-4.44297 11.6123,-7.16934 7.06835,-2.72636 16.66112,-3.93808 9.69375,-1.21172 22.51777,-1.21172 18.37773,0 30.19198,2.42344 11.91523,2.42343 18.78164,8.07812 6.8664,5.65468 9.49178,14.84355 2.6254,9.18887 2.6254,22.51777 l -50.18534,0 0,-20.19531 -23.83046,0 0,23.2246 z"
             style="font-style:normal;font-variant:normal;font-weight:800;font-stretch:normal;font-size:180px;font-family:'Coda Caption';-inkscape-font-specification:'Coda Caption Ultra-Bold';fill:#ff0000;stroke:#ffffff;stroke-width:10;stroke-miterlimit:4;stroke-dasharray:none;stroke-opacity:1"
             id="path4507"
             inkscape:connector-curvature="0" />
          <g
             transform="translate(4.4345792e-4,0)"
             id="g4509"
             style="stroke:#ffffff;stroke-width:10;stroke-miterlimit:4;stroke-dasharray:none;stroke-opacity:1">
            <path
               inkscape:connector-curvature="0"
               id="path4511"
               style="font-style:normal;font-variant:normal;font-weight:800;font-stretch:normal;font-size:180px;font-family:'Coda Caption';-inkscape-font-specification:'Coda Caption Ultra-Bold';fill:#ff0000;stroke:#ffffff;stroke-width:10;stroke-miterlimit:4;stroke-dasharray:none;stroke-opacity:1"
               d="m 220.52661,374.77853 20.74219,0 0,-119.35546 43.68164,0 0,107.57812 q 0,3.51563 -0.43945,7.55859 -0.43946,4.04297 -2.19727,8.08594 -1.75781,3.95508 -5.27344,7.64649 -3.51562,3.6914 -9.58007,6.5039 -6.06446,2.8125 -15.11719,4.48242 -9.05274,1.75782 -21.97266,1.75782 -12.74414,0 -21.70898,-1.75782 -8.96485,-1.66992 -14.94141,-4.48242 -5.88867,-2.8125 -9.31641,-6.5039 -3.33984,-3.69141 -5.09765,-7.64649 -1.66992,-4.04297 -2.10938,-8.08594 -0.35156,-4.04296 -0.35156,-7.55859 l 0,-107.57812 43.68164,0 0,119.35546 z" />
            <path
               inkscape:connector-curvature="0"
               id="path4513"
               style="font-style:normal;font-variant:normal;font-weight:800;font-stretch:normal;font-size:180px;font-family:'Coda Caption';-inkscape-font-specification:'Coda Caption Ultra-Bold';fill:#ff0000;stroke:#ffffff;stroke-width:10;stroke-miterlimit:4;stroke-dasharray:none;stroke-opacity:1"
               d="m 503.70654,361.0676 -3.60351,34.54101 -45.26367,0 22.5,-140.18554 75.41015,0 22.5,140.18554 -45.43945,0 -3.42774,-34.54101 -22.67578,0 z m 2.28516,-15.73243 18.10547,0 -9.14063,-69.3457 -8.96484,69.3457 z" />
          </g>
        </g>
        <g
           transform="translate(-41.589328,42.952212)"
           id="g4515"
           style="font-style:normal;font-variant:normal;font-weight:normal;font-stretch:normal;font-size:60px;line-height:125%;font-family:'Bebas Neue';-inkscape-font-specification:'Bebas Neue';letter-spacing:0.13px;word-spacing:2.69000006px;fill:#ff0000;fill-opacity:1;stroke:none;stroke-width:1px;stroke-linecap:butt;stroke-linejoin:miter;stroke-opacity:1">
          <path
             inkscape:connector-curvature="0"
             id="path4517"
             style="font-style:normal;font-variant:normal;font-weight:800;font-stretch:normal;font-size:180px;font-family:'Coda Caption';-inkscape-font-specification:'Coda Caption Ultra-Bold';fill:#ff0000"
             d="m 361.29368,304.1431 q 0,3.23125 3.13027,5.1498 3.23125,1.91856 8.38105,3.43321 5.25079,1.41367 11.91524,2.82734 6.66445,1.41367 13.53085,3.63515 6.96738,2.12051 13.63184,5.55371 6.66445,3.33223 11.81425,8.78496 5.25077,5.35175 8.38105,13.22792 3.23125,7.87617 3.23125,18.98359 0,7.97715 -0.40391,15.24745 -0.4039,7.27032 -2.22149,13.53086 -1.81757,6.15956 -5.65468,11.2084 -3.8371,5.04882 -10.80449,8.68397 -6.8664,3.53418 -17.36796,5.45273 -10.50156,1.91857 -25.64803,1.91857 -13.42989,0 -23.52754,-1.41368 -9.99667,-1.31269 -17.16601,-4.14004 -7.16933,-2.82734 -11.81425,-7.16933 -4.54395,-4.44297 -7.2703,-10.40059 -2.6254,-5.9576 -3.63517,-13.63182 -1.00976,-7.67422 -1.00976,-17.06504 l 52.50779,0 0,26.15292 23.83046,0 0,-29.88905 q 0,-2.92832 -3.23125,-4.84687 -3.13027,-1.91855 -8.38104,-3.4332 -5.1498,-1.61562 -11.81427,-3.13027 -6.66444,-1.51465 -13.63182,-3.63516 -6.8664,-2.12051 -13.53085,-5.14981 -6.66445,-3.02928 -11.91524,-7.47225 -5.1498,-4.54395 -8.38105,-10.80449 -3.13027,-6.36153 -3.13027,-15.14648 0,-10.90547 1.11075,-19.38749 1.11074,-8.58301 3.8371,-14.94453 2.72637,-6.36152 7.37129,-10.70351 4.64492,-4.44297 11.6123,-7.16934 7.06835,-2.72636 16.66112,-3.93808 9.69375,-1.21172 22.51777,-1.21172 18.37773,0 30.19198,2.42344 11.91523,2.42343 18.78164,8.07812 6.8664,5.65468 9.49178,14.84355 2.6254,9.18887 2.6254,22.51777 l -50.18534,0 0,-20.19531 -23.83046,0 0,23.2246 z" />
          <g
             id="g4519"
             transform="translate(4.4345792e-4,0)">
            <path
               d="m 220.52661,374.77853 20.74219,0 0,-119.35546 43.68164,0 0,107.57812 q 0,3.51563 -0.43945,7.55859 -0.43946,4.04297 -2.19727,8.08594 -1.75781,3.95508 -5.27344,7.64649 -3.51562,3.6914 -9.58007,6.5039 -6.06446,2.8125 -15.11719,4.48242 -9.05274,1.75782 -21.97266,1.75782 -12.74414,0 -21.70898,-1.75782 -8.96485,-1.66992 -14.94141,-4.48242 -5.88867,-2.8125 -9.31641,-6.5039 -3.33984,-3.69141 -5.09765,-7.64649 -1.66992,-4.04297 -2.10938,-8.08594 -0.35156,-4.04296 -0.35156,-7.55859 l 0,-107.57812 43.68164,0 0,119.35546 z"
               style="font-style:normal;font-variant:normal;font-weight:800;font-stretch:normal;font-size:180px;font-family:'Coda Caption';-inkscape-font-specification:'Coda Caption Ultra-Bold';fill:#ff0000"
               id="path4521"
               inkscape:connector-curvature="0" />
            <path
               d="m 503.70654,361.0676 -3.60351,34.54101 -45.26367,0 22.5,-140.18554 75.41015,0 22.5,140.18554 -45.43945,0 -3.42774,-34.54101 -22.67578,0 z m 2.28516,-15.73243 18.10547,0 -9.14063,-69.3457 -8.96484,69.3457 z"
               style="font-style:normal;font-variant:normal;font-weight:800;font-stretch:normal;font-size:180px;font-family:'Coda Caption';-inkscape-font-specification:'Coda Caption Ultra-Bold';fill:#ff0000"
               id="path4523"
               inkscape:connector-curvature="0" />
          </g>
        </g>
      </g>
    </g>
  </g>
</svg>
