<?xml version="1.0" encoding="UTF-8" standalone="no"?>
<!-- Created with Inkscape (http://www.inkscape.org/) -->

<svg
   xmlns:dc="http://purl.org/dc/elements/1.1/"
   xmlns:cc="http://creativecommons.org/ns#"
   xmlns:rdf="http://www.w3.org/1999/02/22-rdf-syntax-ns#"
   xmlns:svg="http://www.w3.org/2000/svg"
   xmlns="http://www.w3.org/2000/svg"
   xmlns:sodipodi="http://sodipodi.sourceforge.net/DTD/sodipodi-0.dtd"
   xmlns:inkscape="http://www.inkscape.org/namespaces/inkscape"
   id="svg2"
   version="1.1"
   inkscape:version="0.47 r22583"
   width="500"
   height="500"
   sodipodi:docname="logo correct.svg">
  <metadata
     id="metadata8">
    <rdf:RDF>
      <cc:Work
         rdf:about="">
        <dc:format>image/svg+xml</dc:format>
        <dc:type
           rdf:resource="http://purl.org/dc/dcmitype/StillImage" />
        <dc:title />
      </cc:Work>
    </rdf:RDF>
  </metadata>
  <defs
     id="defs6">
    <inkscape:perspective
       sodipodi:type="inkscape:persp3d"
       inkscape:vp_x="0 : 0.5 : 1"
       inkscape:vp_y="0 : 1000 : 0"
       inkscape:vp_z="1 : 0.5 : 1"
       inkscape:persp3d-origin="0.5 : 0.33333333 : 1"
       id="perspective10" />
    <inkscape:perspective
       id="perspective2835"
       inkscape:persp3d-origin="0.5 : 0.33333333 : 1"
       inkscape:vp_z="1 : 0.5 : 1"
       inkscape:vp_y="0 : 1000 : 0"
       inkscape:vp_x="0 : 0.5 : 1"
       sodipodi:type="inkscape:persp3d" />
    <inkscape:perspective
       id="perspective2897"
       inkscape:persp3d-origin="0.5 : 0.33333333 : 1"
       inkscape:vp_z="1 : 0.5 : 1"
       inkscape:vp_y="0 : 1000 : 0"
       inkscape:vp_x="0 : 0.5 : 1"
       sodipodi:type="inkscape:persp3d" />
    <inkscape:perspective
       id="perspective2922"
       inkscape:persp3d-origin="0.5 : 0.33333333 : 1"
       inkscape:vp_z="1 : 0.5 : 1"
       inkscape:vp_y="0 : 1000 : 0"
       inkscape:vp_x="0 : 0.5 : 1"
       sodipodi:type="inkscape:persp3d" />
    <inkscape:perspective
       id="perspective2922-7"
       inkscape:persp3d-origin="0.5 : 0.33333333 : 1"
       inkscape:vp_z="1 : 0.5 : 1"
       inkscape:vp_y="0 : 1000 : 0"
       inkscape:vp_x="0 : 0.5 : 1"
       sodipodi:type="inkscape:persp3d" />
    <inkscape:perspective
       id="perspective2922-0"
       inkscape:persp3d-origin="0.5 : 0.33333333 : 1"
       inkscape:vp_z="1 : 0.5 : 1"
       inkscape:vp_y="0 : 1000 : 0"
       inkscape:vp_x="0 : 0.5 : 1"
       sodipodi:type="inkscape:persp3d" />
  </defs>
  <sodipodi:namedview
     pagecolor="#ffffff"
     bordercolor="#666666"
     borderopacity="1"
     objecttolerance="10"
     gridtolerance="10"
     guidetolerance="10"
     inkscape:pageopacity="0"
     inkscape:pageshadow="2"
     inkscape:window-width="1440"
     inkscape:window-height="829"
     id="namedview4"
     showgrid="false"
     inkscape:zoom="7.552"
     inkscape:cx="192.85207"
     inkscape:cy="337.43942"
     inkscape:window-x="0"
     inkscape:window-y="25"
     inkscape:window-maximized="1"
     inkscape:current-layer="layer4" />
  <g
     inkscape:groupmode="layer"
     id="layer4"
     inkscape:label="vecto contour"
     style="display:inline">
    <path
       style="fill:#000000;display:inline"
       d="m 256.22414,415.63881 c -14.15656,-0.50359 -16.39122,-0.82007 -19.3956,-2.74682 -3.18148,-2.04034 -3.55022,-2.07634 -5.84763,-0.57102 -1.34861,0.88364 -4.09559,1.78027 -6.1044,1.9925 -4.08215,0.43128 -25.74131,-0.96108 -52.15237,-3.35261 -26.7905,-2.4259 -26.98725,-2.63611 -29.37971,-31.39122 -3.93748,-47.32472 -3.99785,-53.43029 -0.56911,-57.56167 0.87396,-1.05305 1.29191,-1.68587 -0.81074,-3.85859 -2.10265,-2.17272 -2.74044,-1.96342 -2.74044,-4.07974 l 0,-39.5 c 0,-39.22199 0.0156,-39.52194 2.22346,-42.6171 0,0 2.11541,-1.8454 2.22346,-3.1171 0.12609,-1.48396 -1.94369,-4.02297 -1.94369,-4.02297 -2.14758,-4.44499 -2.04147,-7.91586 1.59718,-52.24283 2.56908,-31.29729 2.50034,-31.22666 33.12141,-34.03162 36.50669,-3.3441 50.42243,-3.95597 52.98819,-2.3573 2.64031,0.88017 3.32618,1.74492 4.47757,1.69752 1.15139,-0.0474 1.88796,-0.19558 3.1891,-0.82655 4.57153,-2.21689 14.83224,-3.65793 47.91456,-3.31547 30.90974,0.31997 32.35227,0.49531 36.6459,2.55055 3.15862,1.51195 2.26475,1.22298 4.44713,1.26483 2.18238,0.0418 3.15211,-1.57152 6.11573,-1.95419 5.51949,-0.32807 22.7918,0.29155 51.06495,2.86979 22.7625,2.07571 27.03511,3.5213 29.8579,10.10206 0.95611,2.22899 2.22032,12.58076 3.4806,28.50038 3.47814,43.93514 3.46688,43.47858 1.18116,47.89395 0,0 -2.11942,2.43604 -2.01579,3.89395 0.0902,1.26856 2.21559,3.10605 2.21559,3.10605 2.18349,3.06106 2.2197,3.66955 2.49961,42.00545 l 0.28401,38.89941 c -0.0717,1.27638 -0.89613,3.81071 -2.20297,4.68985 -1.71127,1.64665 -3.34888,2.56086 -1.9036,5.01134 0.26864,0.45548 1.4608,1.85445 2.07112,4.121 1.16924,4.34223 0.41456,20.16538 -2.56975,53.879 -1.85854,20.99582 -1.90008,21.16655 -6.07371,24.96447 -4.11126,3.74116 -6.64568,4.22199 -34.52344,6.54975 -31.16313,2.60208 -43.13267,2.81345 -46.601,0.8229 -2.82172,-1.61945 -3.14037,-1.60432 -6.86191,0.3257 -3.49209,1.81102 -6.32302,2.07407 -26.90277,2.49976 -12.65,0.26167 -30.2,0.21963 -39,-0.0934 l 0,-1e-5 z"
       id="path2824-4"
       sodipodi:nodetypes="csssssszzccscssczssszcssscsccccsssssssscc" />
  </g>
  <g
     inkscape:groupmode="layer"
     id="layer5"
     inkscape:label="vecto couleur"
     style="display:inline">
    <path
       style="fill:#000000;display:inline"
       d="m 314.90904,410.6872 c 3.83112,-1.46031 7.52634,-5.9085 8.63216,-10.39115 0.57343,-2.32452 1.33262,-17.50141 1.68707,-33.72641 0.59779,-27.36329 0.51233,-29.74737 -1.17983,-32.91519 -1.00337,-1.87836 -3.3993,-4.25123 -5.3243,-5.27306 -3.25566,-1.72816 -6.04808,-1.83879 -40,-1.5848 -36.27759,0.27139 -36.51965,0.28707 -39.72491,2.57328 -5.43593,3.87728 -5.73967,6.53127 -4.63424,40.49281 1.10063,33.81417 1.44352,35.47908 8.11704,39.41269 3.6512,2.15215 4.5483,2.20681 36.92701,2.25 18.2517,0.0243 34.2267,-0.35283 35.5,-0.83817 z m -89.88653,-1.99807 c 5.53661,-2.18975 5.80223,-4.51037 4.55669,-39.81036 -1.22403,-34.69036 -1.55188,-36.53293 -7.21821,-40.56772 -2.96243,-2.10943 -4.72461,-2.28268 -35.62672,-3.50262 -29.94753,-1.18226 -32.76487,-1.15179 -35.74185,0.38652 -7.30296,3.7737 -7.44813,5.04632 -4.71949,41.37469 2.04192,27.18571 2.69586,30.62546 6.58513,34.63817 4.53949,4.68356 5.0176,4.76209 50.86608,8.35414 11.93916,0.93539 17.27982,0.71652 21.29837,-0.87282 z m 149.70163,-0.64561 c 23.66638,-1.76249 27.73377,-2.60711 31.82714,-6.60913 3.99225,-3.90317 4.82234,-8.13355 6.64499,-33.86475 0.83762,-11.825 1.74123,-24.07876 2.00804,-27.23057 0.68565,-8.09961 -2.07104,-13.88283 -7.62661,-15.9998 -1.6889,-0.64356 -59.80939,0.97353 -65.53624,1.82341 -4.16595,0.61825 -10.1048,6.55561 -10.72696,10.72428 -0.81909,5.48821 -2.51231,63.26516 -1.92038,65.52868 0.30981,1.1847 0.93047,2.154 1.37926,2.154 0.44879,0 1.08194,0.83795 1.407,1.86212 0.32505,1.02416 2.04288,2.34713 3.81738,2.93993 3.45788,1.15515 7.02249,1.0329 38.72638,-1.32817 z M 318.3427,319.94635 c 1.88146,-0.8928 4.42447,-3.0303 5.65113,-4.75 2.21184,-3.10082 2.23031,-3.43721 2.23031,-40.62671 0,-37.1895 -0.0185,-37.52589 -2.23031,-40.62671 -4.45351,-6.24348 -5.35519,-6.37329 -44.26969,-6.37329 -38.9145,0 -39.81618,0.12981 -44.26969,6.37329 -2.21184,3.10082 -2.23031,3.43721 -2.23031,40.62671 0,37.12824 0.022,37.53083 2.21818,40.60969 4.45771,6.24929 5.10299,6.3424 44.13069,6.36754 30.57469,0.0197 35.81088,-0.19647 38.76969,-1.60052 z m -97.70337,-1.12826 c 6.93847,-3.55223 7.08481,-4.46619 7.08481,-44.24845 0,-39.74602 -0.0997,-40.36912 -7.07727,-44.24836 -3.21188,-1.78566 -5.02443,-1.86186 -29.42273,-1.23694 -35.56691,0.91099 -39.77842,1.4336 -43.57599,5.40741 -1.6471,1.72352 -3.42881,4.27542 -3.95937,5.67089 -0.54831,1.44217 -0.96464,16.68672 -0.96464,35.32206 l 0,32.78486 3.0334,4.18749 c 1.66837,2.30312 4.25587,4.7032 5.75,5.33352 2.90053,1.22362 23.59838,2.30479 49.7166,2.59697 13.50318,0.15106 16.53295,-0.0939 19.41519,-1.56945 z m 185.27457,-0.4499 c 2.02936,-0.59346 5.17936,-2.61591 7,-4.49433 l 3.31024,-3.4153 0,-35.2723 0,-35.2723 -2.84827,-3.73427 c -1.56654,-2.05385 -4.04154,-4.20225 -5.5,-4.77423 -1.45845,-0.57198 -16.63779,-1.52781 -33.73186,-2.12408 -45.65036,-1.59236 -42.41987,-5.0413 -42.41987,45.28826 0,39.77005 0.13426,40.61007 7.08481,44.3257 3.17006,1.69465 5.56844,1.77998 33.41519,1.18879 16.5,-0.3503 31.66039,-1.12247 33.68976,-1.71594 z M 204.25765,223.6829 c 13.2655,-0.59011 15.39729,-0.92779 18.12671,-2.87132 5.65297,-4.02526 5.98717,-5.89199 7.24716,-40.48016 1.27063,-34.88029 1.19949,-35.49606 -4.53469,-39.25324 -3.10231,-2.03271 -10.68761,-1.84642 -45.87269,1.12665 -29.47882,2.4909 -29.49059,2.50229 -31.89614,30.86481 -2.96921,35.00822 -3.15901,43.05397 -1.10559,46.86692 0.99346,1.84476 2.97527,3.83641 4.40402,4.42589 2.57034,1.06049 19.27395,0.84884 53.63122,-0.67955 z m 204.05161,0.7198 c 2.2455,-0.81198 3.81985,-2.40892 5.17576,-5.25 2.16423,-4.53481 2.04015,-9.06077 -1.28987,-47.04906 -2.38826,-27.24487 -2.65044,-27.49795 -30.97101,-29.89567 -44.22424,-3.74417 -46.49914,-3.61186 -50.54833,2.93988 -1.92999,3.12278 -1.95111,4.0079 -0.83639,35.06272 1.24635,34.7223 1.57697,36.57962 7.2278,40.60336 2.77606,1.97674 4.85889,2.28255 20.12671,2.95509 43.1315,1.89993 47.465,1.95366 51.11533,0.63368 z m -87.86021,-4.63329 c 5.43258,-3.87489 5.73737,-6.53186 4.65093,-40.54363 -0.91439,-28.62561 -1.0864,-30.45174 -3.18879,-33.85349 -4.60444,-7.45014 -3.7827,-7.30265 -40.68705,-7.30265 -37.45947,0 -38.97031,0.23136 -43.19442,6.61442 -2.59506,3.92141 -2.60111,3.98015 -3.62989,35.25383 -1.00036,30.40966 -0.97212,31.44002 0.96553,35.22881 3.80156,7.43337 4.05367,7.47323 45.35878,7.17047 36.28186,-0.26593 36.51927,-0.28128 39.72491,-2.56776 z"
       id="path2824-1"
       sodipodi:nodetypes="csssssssssccsssssssccssssssssssccssssssssccssssscccsscccccccsssssccsssssssccsssssssccsssssssc" />
    <path
       style="fill:#1aba21;fill-opacity:0;fill-rule:evenodd;stroke:#ffffff;stroke-width:0;stroke-miterlimit:4;stroke-opacity:1;stroke-dasharray:none"
       d="m 151.75004,224.49349 c -0.89458,-0.12947 -1.85465,-0.76909 -3.25235,-2.16679 -4.05705,-4.05704 -4.24448,-8.03605 -1.81817,-38.59785 1.90306,-23.97086 2.49204,-28.2065 4.49151,-32.30048 2.16305,-4.4289 5.19107,-6.1628 12.8968,-7.38495 9.79739,-1.55389 37.79186,-3.65653 49.43755,-3.71321 9.1408,-0.0445 9.61579,-0.0115 11.07409,0.76909 2.07079,1.10842 4.13893,3.48573 4.72952,5.43653 1.00558,3.32161 0.12775,46.62883 -1.22078,60.22643 -0.83195,8.38882 -2.10118,11.32842 -5.97124,13.82976 -3.32806,2.15103 -5.02079,2.36774 -25.27804,3.23611 -13.25745,0.56832 -42.75207,1.00356 -45.08889,0.66536 l 0,0 z"
       id="path3757" />
    <path
       style="fill:#1aba21;fill-opacity:1;fill-rule:evenodd;stroke:#1aba21;stroke-width:1.5;stroke-miterlimit:4;stroke-opacity:1;stroke-dasharray:none"
       d="m 151.75004,224.49349 c -0.89458,-0.12947 -1.85465,-0.76909 -3.25235,-2.16679 -4.05705,-4.05704 -4.24448,-8.03605 -1.81817,-38.59785 1.90306,-23.97086 2.49204,-28.2065 4.49151,-32.30048 2.16305,-4.4289 5.19107,-6.1628 12.8968,-7.38495 9.79739,-1.55389 37.79186,-3.65653 49.43755,-3.71321 9.1408,-0.0445 9.61579,-0.0115 11.07409,0.76909 2.07079,1.10842 4.13893,3.48573 4.72952,5.43653 1.00558,3.32161 0.12775,46.62883 -1.22078,60.22643 -0.83195,8.38882 -2.10118,11.32842 -5.97124,13.82976 -3.32806,2.15103 -5.02079,2.36774 -25.27804,3.23611 -13.25745,0.56832 -42.75207,1.00356 -45.08889,0.66536 l 0,0 z"
       id="path3763" />
    <path
       style="fill:#1aba21;fill-opacity:1;fill-rule:evenodd;stroke:#1aba21;stroke-width:1.5;stroke-miterlimit:4;stroke-opacity:1;stroke-dasharray:none"
       d="m 249.16291,410.86209 c -3.91809,-0.32095 -6.31256,-1.27062 -8.9968,-3.56823 -2.40968,-2.0626 -3.34378,-4.33598 -4.18065,-10.17472 -0.54322,-3.79001 -1.43932,-25.05218 -1.7325,-41.10791 -0.34786,-19.05018 0.22045,-22.6355 4.0906,-25.8068 2.65217,-2.17325 4.20208,-2.48664 14.11262,-2.85349 11.84495,-0.43846 58.30318,-0.43138 61.69639,0.009 3.29701,0.42829 5.08528,1.29818 7.37425,3.58715 3.95948,3.95948 4.16831,5.66013 3.60675,29.37079 -0.47683,20.13261 -1.01424,33.37281 -1.52779,37.63996 -0.45571,3.78654 -1.90803,6.82608 -4.50841,9.43553 -2.85875,2.86872 -3.63983,3.13194 -10.40631,3.5069 -7.08972,0.39286 -54.63738,0.36205 -59.52815,-0.0386 l 0,0 z"
       id="path3765" />
    <path
       style="fill:#ffffff;fill-opacity:1;fill-rule:evenodd;stroke:#ffffff;stroke-width:1.5;stroke-miterlimit:4;stroke-opacity:1;stroke-dasharray:none"
       d="m 250.39628,320.98027 c -6.25601,-0.37193 -9.56552,-1.08792 -11.55983,-2.5009 -2.0172,-1.42919 -4.27145,-4.76252 -4.75885,-7.03685 -0.55082,-2.5702 -0.89417,-56.09949 -0.42566,-66.3608 0.41625,-9.11687 0.65558,-9.93631 3.8496,-13.18111 3.76366,-3.8235 5.40318,-3.97767 42.2951,-3.9772 38.65514,4.9e-4 39.00299,0.0433 43.30831,5.32518 0.87636,1.07516 1.8069,2.59199 2.06785,3.37075 0.62223,1.85692 0.93568,68.77871 0.34302,73.23564 -0.46319,3.48331 -1.04982,4.71166 -3.2899,6.88877 -2.50513,2.43471 -4.48312,3.44981 -7.63693,3.91923 -3.4132,0.50804 -56.56519,0.77076 -64.19271,0.31729 l 0,0 z"
       id="path3767" />
    <path
       style="fill:#ffffff;fill-opacity:1;fill-rule:evenodd;stroke:#ffffff;stroke-width:1.5;stroke-miterlimit:4;stroke-opacity:1;stroke-dasharray:none"
       d="m 205.45305,409.51603 c -0.82396,-0.0829 -6.80703,-0.57121 -13.2957,-1.08501 -32.76826,-2.59471 -35.86107,-3.22658 -39.72603,-8.11612 -3.07045,-3.88441 -3.71059,-6.9082 -5.19863,-24.55638 -2.2333,-26.48716 -2.74751,-41.40753 -1.5553,-45.12856 0.56702,-1.76972 2.30279,-3.51744 4.87485,-4.90842 2.65313,-1.43481 5.30948,-1.61422 18.94623,-1.27965 22.6123,0.55479 46.40907,1.79603 49.43755,2.57866 2.17357,0.56171 5.24133,2.78183 6.52791,4.72421 2.13104,3.21727 2.70464,7.85059 3.60697,29.13532 0.79727,18.80676 0.90508,39.29503 0.22243,42.27248 -0.66618,2.90562 -2.15323,4.52197 -5.11394,5.55857 -1.95257,0.68364 -3.22913,0.79785 -9.73769,0.87126 -4.1198,0.0465 -8.16469,0.0166 -8.98865,-0.0664 l 0,0 z"
       id="path3769" />
    <path
       style="fill:#3535ff;fill-opacity:1;fill-rule:evenodd;stroke:#3535ff;stroke-width:1.5;stroke-miterlimit:4;stroke-opacity:1;stroke-dasharray:none"
       d="m 182.98144,319.8459 c -13.16901,-0.38718 -27.58116,-1.33653 -30.06288,-1.98028 -2.4885,-0.64551 -5.49626,-1.85327 -8.61187,-5.99515 -1.56184,-2.35066 -1.35778,-2.93542 -1.69991,-4.06637 l 0.26591,-28.3302 c 0.14626,-15.58161 0.41564,-30.74408 0.59863,-33.69437 0.38487,-6.20512 0.80582,-7.24072 4.45826,-10.96801 2.4769,-2.52766 4.84162,-3.41863 10.76799,-4.05708 9.81231,-1.0571 52.178,-2.22803 56.99883,-1.57537 5.42369,0.73428 9.17876,3.43404 10.27218,7.38532 1.19487,4.31786 1.3943,9.71802 1.39398,37.74602 -3.6e-4,32.51013 -0.34308,38.04997 -2.53935,41.04841 -1.00428,1.37108 -3.96678,3.28065 -6.20518,3.99975 -2.37288,0.7623 -18.69338,0.98548 -35.63659,0.48733 z"
       id="path3771"
       sodipodi:nodetypes="cscccssssssssc" />
    <path
       style="fill:#ffff00;fill-opacity:1;fill-rule:evenodd;stroke:#ffff00;stroke-width:1.5;stroke-miterlimit:4;stroke-opacity:1;stroke-dasharray:none"
       d="m 246.09706,221.71884 c -6.30643,-0.78071 -10.38723,-3.98477 -10.99779,-6.63942 -0.28025,-0.66141 -0.59555,-2.50173 -0.60903,-2.85342 l -0.32888,-7.33638 c -0.19326,-10.83573 1.04826,-47.83273 1.80005,-53.64084 0.17925,-1.38485 0.7466,-3.43681 1.26077,-4.55991 1.05643,-2.30755 3.58637,-5.23663 5.27911,-6.11198 3.58628,-1.85453 11.72233,-2.34292 38.98072,-2.3399 27.77841,0.003 33.87506,0.45049 36.72913,2.6955 1.5961,1.25549 4.54887,6.06944 4.99294,8.14007 0.521,2.42936 1.0476,11.0428 1.51198,24.73133 1.22879,36.22093 0.94837,40.58277 -2.85383,44.38923 -1.96622,1.96843 -3.45991,2.68092 -6.71823,3.20464 -3.29018,0.52883 -65.04891,0.81602 -69.04694,0.32108 l 0,0 z"
       id="path3773"
       sodipodi:nodetypes="ccccssssssssscc" />
    <path
       style="fill:#ffff00;fill-opacity:1;fill-rule:evenodd;stroke:#ffff00;stroke-width:1.5;stroke-miterlimit:4;stroke-opacity:1;stroke-dasharray:none"
       d="m 336.63636,409.41169 c -1.84146,-0.60618 -4.03785,-1.62441 -5.02153,-2.68823 -0.87895,-0.87819 -1.65047,-2.25757 -1.81885,-3.26787 l 0.047,-15.48259 c 0.0467,-15.37208 0.5344,-32.31091 1.29224,-44.88295 0.46331,-7.68592 0.95366,-9.25131 4.27528,-12.62643 3.03402,-3.08289 4.75551,-3.81759 8.67596,-4.23767 4.11346,-0.44077 30.94844,-1.3769 49.19441,-1.71612 13.33569,-0.24794 13.71023,-0.23514 15.18816,0.51884 2.19665,1.12065 3.8488,2.93796 5.13556,5.64899 1.60071,3.37247 1.66878,6.5525 0.4821,22.52461 -2.94793,39.67754 -3.3099,42.26799 -6.52406,46.68959 -2.26662,3.1181 -5.79416,4.83572 -12.09205,5.88784 -11.46997,1.91617 -55.74386,4.6493 -58.83426,3.63199 l 0,0 4e-5,0 z"
       id="path3775"
       sodipodi:nodetypes="ccccsssssssssccc" />
    <path
       style="fill:#ff0000;fill-opacity:1;fill-rule:evenodd;stroke:#ff0000;stroke-width:1.5;stroke-miterlimit:4;stroke-opacity:1;stroke-dasharray:none"
       d="m 343.55539,319.95362 c -3.95331,-0.41754 -8.05302,-2.73757 -9.38328,-5.31 -0.31482,-0.60879 -0.8238,-2.31622 -1.13107,-3.79429 -1.20479,-5.79539 -1.62706,-61.32476 -0.52312,-68.79139 0.90252,-6.10431 2.77869,-9.59304 6.05886,-11.26646 2.95654,-1.50832 6.0465,-1.91886 14.35919,-1.90782 11.49452,0.0153 46.72205,0.68459 52.42791,1.41864 2.98785,0.38439 5.06233,0.12913 8.67186,3.05874 1.57348,2.16153 1.81885,4.72032 2.00801,6.61702 l 0,35.27025 0,35.27024 c -0.072,2.47915 -1.47346,3.96115 -2.9291,5.40254 -3.43488,3.22981 -6.17737,2.08266 -9.47888,2.54017 -3.2135,0.44532 -17.92824,1.05918 -35.90599,1.49789 -16.47495,0.40204 -20.32382,0.40116 -24.17439,-0.006 l 0,1e-5 0,4.6e-4 z"
       id="path3777"
       sodipodi:nodetypes="csssssscccccssccc" />
    <path
       style="fill:#ff8000;fill-opacity:1;fill-rule:evenodd;stroke:#ff8000;stroke-width:1.5;stroke-miterlimit:4;stroke-opacity:1;stroke-dasharray:none"
       d="m 390.95045,224.96961 c -16.95961,-0.62033 -41.06707,-1.72504 -44.5687,-2.04233 -5.47808,-0.49638 -6.82337,-0.85951 -9.31738,-2.51493 -3.51434,-2.33269 -4.83327,-5.42614 -5.65667,-13.26732 -0.90712,-8.63834 -2.38057,-53.49044 -1.88687,-57.43639 0.33702,-2.69373 1.09071,-4.40849 2.83158,-6.4423 1.53082,-1.78842 3.115,-2.47543 7.1033,-3.08051 3.66204,-0.55558 8.77624,-0.34576 28.08681,1.15234 30.438,2.36136 34.59304,3.06424 38.32517,6.48319 3.74772,3.43324 4.63367,7.46401 6.59507,30.00522 2.28072,26.21102 2.64765,35.89996 1.49233,39.40587 -1.19377,3.62258 -3.70628,6.4142 -6.49194,7.21312 -1.39161,0.39911 -11.31687,0.71409 -16.5127,0.52404 l 0,0 z"
       id="path3779" />
  </g>
  <g
     inkscape:groupmode="layer"
     id="layer3"
     inkscape:label="vecto lettre"
     style="display:inline">
    <path
       style="fill:#000000;display:inline"
       d="m 273.23862,299.52646 c 2.44004,-7.27497 4.19593,-13.61637 3.90196,-14.09202 -0.29396,-0.47564 -2.30792,-0.8648 -4.47546,-0.8648 -2.16754,0 -3.93415,-0.1125 -3.9258,-0.25 0.008,-0.1375 0.61842,-2.275 1.35571,-4.75 1.33413,-4.4785 1.36415,-4.50141 6.28221,-4.79523 l 4.94169,-0.29524 3.84131,-11.70476 c 2.11273,-6.43762 4.05204,-12.26727 4.3096,-12.95477 0.36353,-0.9704 -3.47004,-1.25 -17.13871,-1.25 -16.83641,0 -17.60699,0.086 -17.60699,1.9652 0,1.08087 1.45073,3.6175 3.22385,5.63697 l 3.22385,3.67176 -3.86081,3.3374 c -2.12345,1.83558 -4.21598,3.11791 -4.65007,2.84962 -0.43409,-0.26828 -2.62246,-3.23303 -4.86304,-6.58832 -4.44885,-6.6622 -5.1485,-10.89366 -2.6122,-15.79834 2.87459,-5.55884 6.26871,-6.07429 39.99776,-6.07429 l 30.41887,0 -1.78017,5.25 -1.78018,5.25 -5.61856,0.2987 -5.61856,0.2987 -3.58796,11.49352 c -1.97337,6.32144 -3.83968,12.14952 -4.14735,12.9513 -0.44906,1.17022 0.54661,1.45778 5.04758,1.45778 3.08385,0 5.60699,0.14484 5.60699,0.32186 0,0.17702 -0.71001,2.40561 -1.57779,4.95242 l -1.57779,4.63055 -5.65827,0.29759 -5.65827,0.29758 -3.80143,11.68209 -3.80143,11.68208 -5.21251,1.71357 c -2.86688,0.94247 -5.75745,1.91443 -6.42349,2.15993 -0.69409,0.25584 0.68263,-5.19941 3.22546,-12.78085 z m -109.82753,10.87762 c -2.33965,-8.29799 -3.68695,-15.56394 -3.68695,-19.88366 l 0,-3.95078 -6.625,0 -6.625,0 0.55224,-2.75 c 1.53952,-7.66641 2.15303,-8.25 8.67301,-8.25 5.00907,0 6.02475,-0.28725 6.02475,-1.70388 0,-0.93714 2.04772,-5.91321 4.55048,-11.05794 7.94006,-16.32173 20.87293,-27.13485 33.55107,-28.05191 10.36753,-0.74992 16.50336,4.50303 17.57443,15.04565 0.74418,7.32495 -0.73896,14.43674 -7.40533,35.50908 l -5.77065,18.24099 -5.64143,0.009 -5.64142,0.009 2.39129,-7.75 c 1.31521,-4.2625 2.39135,-8.0875 2.39142,-8.5 8e-5,-0.41249 -6.07486,-0.74999 -13.49986,-0.74999 l -13.5,0 0,4.81763 c 0,2.64969 0.88941,8.16219 1.97646,12.25 2.47589,9.31041 2.50261,8.79973 -0.52056,9.94914 -6.95392,2.64387 -7.14587,2.57421 -8.76895,-3.18233 z m 40.59029,-41.33444 c 2.4782,-8.00749 3.42521,-19.94867 1.74283,-21.97582 -1.60521,-1.93415 -7.04789,-1.95722 -11.61435,-0.0492 -6.93828,2.89899 -18.91533,17.65397 -20.94461,25.80244 l -0.69168,2.7774 14.82545,-0.2774 14.82545,-0.27739 1.85691,-6 0,-3e-5 z m 135.04444,38.10409 c 0.29462,-0.76775 1.08899,-3.24275 1.76528,-5.5 l 1.22962,-4.10409 16.86315,0 16.86315,0 1.11808,-2.45393 c 1.03509,-2.27177 0.48012,-3.14893 -7.47662,-11.81701 -4.72709,-5.1497 -9.06487,-10.59973 -9.63952,-12.11118 -4.516,-11.87799 6.44816,-24.39041 27.81363,-31.7412 14.47386,-4.97974 23.53037,0.47998 20.93937,12.62332 -0.72085,3.37844 -13.1603,23.5 -14.52805,23.5 -0.81099,0 -8.22653,-5.48479 -8.24842,-6.10081 -0.0117,-0.33044 2.48324,-4.09148 5.54441,-8.35785 3.06116,-4.26637 5.97502,-8.83351 6.47524,-10.14919 0.81152,-2.13445 0.63535,-2.39215 -1.63527,-2.39215 -1.39962,0 -6.00098,1.42569 -10.22525,3.16819 -8.43358,3.47885 -16.18048,10.04798 -16.18048,13.72056 0,1.31115 3.55537,6.06498 9.09996,12.16741 7.28864,8.02194 9.19201,10.7548 9.56241,13.72967 0.60281,4.84154 -2.96709,11.9037 -7.56025,14.9561 -3.23575,2.15032 -4.32642,2.25807 -22.85699,2.25807 -16.24126,0 -19.37053,-0.23083 -18.92345,-1.39591 z"
       id="path2824-9"
       sodipodi:nodetypes="csssscccssscccssscccccccssscccccccscccccccssssscccccscccssccssccccccccccccsssssssssssssssc" />
  </g>
</svg>
