<svg id="Layer_1" data-name="Layer 1" xmlns="http://www.w3.org/2000/svg" viewBox="0 0 276.51 93.96"><defs><style>.cls-1{fill:#231f20;}.cls-2{fill:none;}.cls-3{fill:#ef4523;}.cls-4{fill:#718ec9;}.cls-5{fill:#71c163;}.cls-6{fill:#f57f20;}.cls-7{fill:#f6ed4f;}.cls-8{fill:#45a75d;}</style></defs><title>MYCA LOGO</title><polygon class="cls-1" points="53.92 1.11 72.17 1.11 72.17 66.11 57.17 66.11 57 24.46 41.67 59.95 30.67 59.95 15.17 24.74 15.17 66.11 0.17 66.11 0 0.83 18.25 0.83 36 39.67 53.92 1.11"/><polygon class="cls-1" points="110.44 29 126.04 0.83 142.79 0.83 118.79 44.5 118.79 65.83 110.44 65.83 102.08 65.83 102.08 44.5 78.08 0.83 94.83 0.83 110.44 29"/><path class="cls-1" d="M371.74,283a35.51,35.51,0,0,1-26.34,11.48c-19.28,0-34.92-15-34.92-33.42s15.63-33.42,34.92-33.42a35.52,35.52,0,0,1,26.19,11.31l-9.89,10.74c-4.26-4.41-9.64-7.33-15.36-7.33-11.46,0-19.15,8.37-19.15,18.69s7.94,18.7,19.15,18.69c5.77,0,11.93-3.49,15.45-7.42Z" transform="translate(-166.31 -227.61)"/><path class="cls-2" d="M453.21,284.5" transform="translate(-166.31 -227.61)"/><rect class="cls-1" x="9" y="75.03" width="259.33" height="2"/><path class="cls-3" d="M410,281.91H394.95l-6.5,11.62-11.25-7.25L410,228.53l32.81,57.75-11.25,7.25-6.5-11.62Zm0-27.29-7.27,13.33h14.54Z" transform="translate(-166.31 -227.61)"/><polygon class="cls-4" points="243.7 27 236.43 40.33 221.3 40.33 228.88 27 243.7 27"/><polygon class="cls-5" points="266.09 40.33 274.02 54.29 213.37 54.29 221.3 40.33 266.09 40.33"/><polygon class="cls-6" points="243.7 0.92 236.6 13.42 250.8 13.42 243.7 0.92"/><polygon class="cls-7" points="236.6 13.42 228.91 27 243.68 27 236.6 13.42"/><polyline class="cls-8" points="221.3 40.33 236.43 40.33 228.64 54.29 213.37 54.29"/><polygon class="cls-8" points="250.97 40.33 266.09 40.33 274.02 54.29 258.76 54.29 250.97 40.33"/><path class="cls-1" d="M176,312.47h3.16v1.64h-.54V320h.54v1.6h-2.85V320h.47v-3.34l-1.4,4.93h-1.19l-1.38-4.93V320h.57v1.6h-3.08V320H171v-5.84h-.67v-1.64h3.31l1.26,6.12Z" transform="translate(-166.31 -227.61)"/><path class="cls-1" d="M187.34,321.54H185V320h.33l1.36-5.86h-.39v-1.63h2.7v1.61h-.3l1.49,5.86h.33v1.58h-2.39V320h.39l-.12-.49h-1.27l-.13.49h.42Zm.69-3.29-.35-1.4-.36,1.4Z" transform="translate(-166.31 -227.61)"/><path class="cls-1" d="M198.63,320h1.7v-1.2H202v2.79h-5.86V320h.67v-5.88h-.66v-1.61h3.07v1.63h-.63Z" transform="translate(-166.31 -227.61)"/><path class="cls-1" d="M210.14,321.54h-2.38V320h.33l1.36-5.86H209v-1.63h2.7v1.61h-.3l1.49,5.86h.33v1.58h-2.39V320h.39l-.12-.49h-1.27l-.13.49h.42Zm.69-3.29-.35-1.4-.36,1.4Z" transform="translate(-166.31 -227.61)"/><path class="cls-1" d="M222.94,317.61V320h.57v1.58h-2.94V320h.55v-2.34l-1.43-3.53h-.38v-1.62h2.54v1.62h-.39l.57,1.42.55-1.4h-.4v-1.63h2.48v1.62h-.49Z" transform="translate(-166.31 -227.61)"/><path class="cls-1" d="M230.26,318.87H232V320h2.07v-2.19h-3l-.85-.83v-3.66l.83-.8H235l.93.92v1.74h-1.82v-1h-2v2h3l.83.83v3.71l-.86.85h-3.75l-1-1Z" transform="translate(-166.31 -227.61)"/><path class="cls-1" d="M244.7,320v1.58h-3.08V320h.66v-5.88h-.65v-1.61h3.07v1.63h-.64V320Z" transform="translate(-166.31 -227.61)"/><path class="cls-1" d="M252.9,321.54h-2.38V320h.33l1.36-5.86h-.39v-1.63h2.7v1.61h-.3l1.49,5.86H256v1.58h-2.39V320H254l-.12-.49h-1.27l-.13.49h.42Zm.69-3.29-.35-1.4-.36,1.4Z" transform="translate(-166.31 -227.61)"/><path class="cls-1" d="M274.32,318.36h1.77v2.36l-.82.82h-3.9l-.85-.85v-7.49l.75-.73h4l.82.81V315h-1.76v-.93h-2.06V320h2Z" transform="translate(-166.31 -227.61)"/><path class="cls-1" d="M286.07,321.57H283.4l-1-1v-6.51h-.49v-1.56h2.44v1.58H284V320h1.55v-5.86h-.44v-1.58h2.44v1.58H287v6.49Z" transform="translate(-166.31 -227.61)"/><path class="cls-1" d="M298.51,321.55h-5.23V320h.65v-5.9h-.69v-1.64h5.26l.91.81V316l-.65.78.65.67v3.08Zm-1-3.81h-1.82V320h1.82Zm0-3.64h-1.79v2h1.79Z" transform="translate(-166.31 -227.61)"/><path class="cls-1" d="M311.07,321.54h-5.91V320h.64v-5.88h-.69v-1.61h6v2.62h-1.74v-1h-1.75v2.09h1.36v1.59h-1.36V320h1.77v-1.2h1.72Z" transform="translate(-166.31 -227.61)"/><path class="cls-1" d="M328,321.54h-2.38V320h.33l1.36-5.86h-.39v-1.63h2.7v1.61h-.3l1.49,5.86h.33v1.58h-2.39V320h.39l-.12-.49h-1.27l-.13.49H328Zm.69-3.29-.35-1.4-.36,1.4Z" transform="translate(-166.31 -227.61)"/><path class="cls-1" d="M336.8,318.87h1.76V320h2.07v-2.19h-3l-.85-.83v-3.66l.83-.8h3.86l.93.92v1.74h-1.82v-1h-2v2h3l.83.83v3.71l-.86.85h-3.75l-1-1Z" transform="translate(-166.31 -227.61)"/><path class="cls-1" d="M348.09,318.87h1.76V320h2.07v-2.19h-3l-.85-.83v-3.66l.83-.8h3.86l.93.92v1.74h-1.82v-1h-2v2h3l.83.83v3.71l-.86.85h-3.75l-1-1Z" transform="translate(-166.31 -227.61)"/><path class="cls-1" d="M360.1,321.54l-.73-.73v-7.47l.86-.88H364l.85.84v7.39l-.83.84Zm3-7.45h-1.92V320h1.92Z" transform="translate(-166.31 -227.61)"/><path class="cls-1" d="M374.44,318.36h1.77v2.36l-.82.82h-3.9l-.85-.85v-7.49l.75-.73h4l.82.81V315h-1.76v-.93h-2.06V320h2Z" transform="translate(-166.31 -227.61)"/><path class="cls-1" d="M385.09,320v1.58H382V320h.66v-5.88H382v-1.61h3.07v1.63h-.64V320Z" transform="translate(-166.31 -227.61)"/><path class="cls-1" d="M393.29,321.54h-2.38V320h.33l1.36-5.86h-.39v-1.63h2.7v1.61h-.3l1.49,5.86h.33v1.58H394V320h.39l-.12-.49H393l-.13.49h.42Zm.69-3.29-.35-1.4-.36,1.4Z" transform="translate(-166.31 -227.61)"/><path class="cls-1" d="M406.56,321.54h-3V320h.6v-5.87h-.57v1.09H402.1v-2.66H408v2.66H406.5v-1.09h-.57V320h.63Z" transform="translate(-166.31 -227.61)"/><path class="cls-1" d="M416.89,320v1.58h-3.08V320h.66v-5.88h-.65v-1.61h3.07v1.63h-.64V320Z" transform="translate(-166.31 -227.61)"/><path class="cls-1" d="M423.42,321.54l-.73-.73v-7.47l.86-.88h3.73l.85.84v7.39l-.83.84Zm3-7.45h-1.92V320h1.92Z" transform="translate(-166.31 -227.61)"/><path class="cls-1" d="M437,321.55h-3v-1.64h.67v-5.85H434v-1.58h2.63l1.31,3.88V314h-.64v-1.55h3.1v1.58h-.64v5.85h.64v1.64h-2.45l-1.5-4.63v3H437Z" transform="translate(-166.31 -227.61)"/></svg>