<svg id="图层_1" data-name="图层 1" xmlns="http://www.w3.org/2000/svg" viewBox="0 0 566.93 566.93">
  <defs>
    <style>
      .cls-1,.cls-4{fill:#fff;}.cls-1,.cls-2,.cls-3{fill-rule:evenodd;}.cls-2{fill:#003283;}.cls-3{fill:#e41f20;}.cls-5{fill:#e9eae8;}.cls-6{fill:#d0ce4a;}.cls-7{fill:#d9732c;}.cls-8{fill:#cf2b27;}.cls-9{fill:#3c9245;}.cls-10{fill:#2f4789;}
    </style>
  </defs>
  <title>ChineseTaipei</title>
  <path class="cls-1"
        d="M520.16,261A127.3,127.3,0,0,0,403.37,134.07a127.35,127.35,0,0,0-239.78,0A127.3,127.3,0,0,0,92.47,358.64a127.38,127.38,0,0,0,191,139.26,127.42,127.42,0,0,0,191-139.26A127,127,0,0,0,520.16,261Z"/>
  <path class="cls-2"
        d="M520.16,261A127.3,127.3,0,0,0,403.37,134.07a127.35,127.35,0,0,0-239.78,0A127.3,127.3,0,0,0,92.47,358.64a127.38,127.38,0,0,0,191,139.26,127.42,127.42,0,0,0,191-139.26A127,127,0,0,0,520.16,261Zm-67.95,85.87A106.12,106.12,0,0,1,285.7,469.57,106.13,106.13,0,0,1,118.5,348.49a106.11,106.11,0,0,1,56.23-196.08c2.21,0,4.36,0,6.51.22a106.1,106.1,0,0,1,205.69,0c2.15-.18,4.34-.22,6.51-.22a106.1,106.1,0,0,1,58.77,194.44Z"/>
  <path class="cls-3"
        d="M485.28,261.23A97.16,97.16,0,0,0,388.09,164c-3.06,0-6.16.18-9.18.43a97.18,97.18,0,0,0-189.63,0c-3-.25-6.06-.43-9.12-.43A97.17,97.17,0,0,0,131.5,345.33,97.19,97.19,0,0,0,285.66,456.21a97.2,97.2,0,0,0,153.5-112.34,97,97,0,0,0,46.12-82.64Zm-62.62,76.52A85.33,85.33,0,0,1,285.3,438.59a85.35,85.35,0,0,1-138.17-99.67,85.34,85.34,0,0,1,53-161.61,85.32,85.32,0,0,1,169.65-.57,85.32,85.32,0,0,1,52.91,161Z"/>
  <path class="cls-2"
        d="M285.21,144a58.93,58.93,0,1,0,59,58.91A58.94,58.94,0,0,0,285.21,144Zm0,87.34a28.42,28.42,0,1,1,28.45-28.43A28.41,28.41,0,0,1,285.19,231.35Z"/>
  <path class="cls-1" d="M278.17,170.5H293l-7.06-22.56Z"/>
  <path class="cls-1" d="M262.88,178.38l12.83-7.4L258.3,154.91Z"/>
  <path class="cls-1" d="M253.58,192.85,261,180l-23.09-5.17Z"/>
  <path class="cls-1" d="M252.77,210V195.18l-22.57,7Z"/>
  <path class="cls-1" d="M260.65,225.27l-7.41-12.83-16,17.41Z"/>
  <path class="cls-1" d="M275.09,234.58l-12.81-7.41-5.21,23.09Z"/>
  <path class="cls-1" d="M292.25,235.4H277.44L284.51,258Z"/>
  <path class="cls-1" d="M307.56,227.52l-12.86,7.4,17.44,16Z"/>
  <path class="cls-1" d="M316.82,213.05l-7.39,12.83,23.11,5.17Z"/>
  <path class="cls-1" d="M317.65,195.91v14.81l22.6-7.05Z"/>
  <path class="cls-1" d="M309.81,180.63l7.4,12.83,16-17.41Z"/>
  <path class="cls-1" d="M295.34,171.32l12.83,7.4,5.16-23.08Z"/>
  <path class="cls-4" d="M356.27,350.11a72.81,72.81,0,1,1-72.81-72.8,72.81,72.81,0,0,1,72.81,72.8"/>
  <path class="cls-5"
        d="M283.45,280.66a60.28,60.28,0,1,0,.06,0Zm0,15.77a53.7,53.7,0,1,1-53.77,53.69,53.59,53.59,0,0,1,53.77-53.69"/>
  <polygon class="cls-5"
           points="237.89 323.84 283.45 297.62 328.85 323.87 328.77 376.47 283.33 402.75 237.83 376.47 237.89 323.84"/>
  <path class="cls-6"
        d="M260.15,389.39,237.86,376.5l-.05-25.91c0-14.26,0-26,.1-26s37.38,21.28,44.3,25.41l.73.44v25.95c0,20.63-.05,26-.24,25.94s-10.28-5.81-22.55-12.89m12.53-6.24c0-3,0-3.56-.34-3.91s-4.21-2.51-8.93-5.08c-9.35-5.1-10.22-5.62-11.46-6.85-1.51-1.5-1.52-1.54-1.59-9.18-.07-6.57-.06-6.78.32-7.06.79-.58.66-.64,12.09,5.67,10,5.53,9.49,5.27,9.73,4.89a22.58,22.58,0,0,0,.18-3.76c0-3,0-3.53-.34-3.87s-18.83-10.69-20.28-11.26c-3.36-1.32-5.48-.76-6.58,1.74-.68,1.54-.81,3.2-.81,10.56,0,9.6.4,12.15,2.41,15.58a22.18,22.18,0,0,0,5.5,5.62c.72.46,5.43,3.09,10.46,5.83,6.68,3.65,9.22,4.94,9.4,4.79s.24-1.15.24-3.71m55.81-62.1a52.84,52.84,0,0,0-13.09-14,53.62,53.62,0,0,0-29-10.52l-2.36-.13-.06-7.85c0-6.58,0-7.86.23-7.95a68.05,68.05,0,0,1,9.3.72,65.18,65.18,0,0,1,11.84,2.85,61.76,61.76,0,0,1,10.52,4.45,69.23,69.23,0,0,1,23.22,19.82c1.8,2.4,4.27,6.2,4.19,6.44s-13.32,7.86-13.54,7.85a11.5,11.5,0,0,1-1.24-1.72"/>
  <path class="cls-7"
        d="M337,380.58c-3.53-2.05-6.49-3.84-6.58-4s.2-1,.91-2.42a53.8,53.8,0,0,0,0-48.11,10.3,10.3,0,0,1-1-2.37c.1-.28,12.89-7.66,13.32-7.7.9-.06,5.07,9.49,6.65,15.22a71.55,71.55,0,0,1,0,37.79c-1.53,5.55-5.69,15.15-6.62,15.27-.16,0-3.18-1.64-6.71-3.69"/>
  <path class="cls-8"
        d="M283.93,376.36V350.44l2-1.18c10.94-6.38,42.83-24.7,42.89-24.64s.09,11.69.09,25.88c0,21.22,0,25.84-.25,26.05s-9.23,5.42-20.19,11.74L286.4,401a23.37,23.37,0,0,1-2.32,1.25c-.08,0-.15-11.67-.15-25.93m13.71,8.58,1.18-.71,1.78-5.13,1.78-5.12,6.31-3.5c3.47-1.93,6.37-3.51,6.45-3.51a20.82,20.82,0,0,1,1.55,2.58c.78,1.41,1.57,2.76,1.76,3l.34.43,2.25-1.28a9.14,9.14,0,0,0,2.31-1.6c0-.18-1.93-4.08-4.36-8.67l-6.16-11.67c-1.88-3.59-2.3-4-3.48-3.78a4.91,4.91,0,0,0-2.47,2.46c-.23.49-2.37,6.43-4.76,13.22s-5.38,15.24-6.64,18.8-2.24,6.55-2.17,6.66,1.81-.65,4.33-2.17M307,360.58a40.14,40.14,0,0,1,1.89-5,40.82,40.82,0,0,1,3.38,6.25c-.11.18-6,3.41-6.65,3.66-.27.1,0-1,1.38-4.92m-85.54,20.75A69,69,0,0,1,215,361.59a64.17,64.17,0,0,1-.9-11.67,67.82,67.82,0,0,1,5.07-26.06A81.7,81.7,0,0,1,223,316c.13-.13,12.86,7,13.5,7.57a6.92,6.92,0,0,1-.91,2.29,55.51,55.51,0,0,0-5.5,18.32,69.57,69.57,0,0,0,.1,12.49,54.72,54.72,0,0,0,5.53,17.92c.71,1.37.85,1.79.66,2-.42.41-12.94,7.57-13.23,7.57a11.6,11.6,0,0,1-1.67-2.81"/>
  <path class="cls-9"
        d="M230.56,319c-3.57-2.06-6.61-3.86-6.75-4s0-.61,1-2.31a69.65,69.65,0,0,1,42-30.07,64.25,64.25,0,0,1,13.94-1.93l2.07-.06v15.79l-2.36.14a53.14,53.14,0,0,0-26.58,8.83,47.13,47.13,0,0,0-8.35,6.81,47.62,47.62,0,0,0-6.64,8.09c-.88,1.3-1.65,2.39-1.72,2.42s-3.05-1.64-6.63-3.7"/>
  <path class="cls-5"
        d="M230.29,381.14c3.54-2,6.57-3.7,6.74-3.71s.77.67,1.65,2a53.78,53.78,0,0,0,41.65,24.07,9.72,9.72,0,0,1,2.55.33c.19.23.19,15,0,15.38-.39.81-10.75-.35-16.5-1.84a71.87,71.87,0,0,1-32.73-18.9c-4-4.1-10.27-12.5-9.91-13.37.06-.15,3-1.93,6.55-4Z"/>
  <path class="cls-10"
        d="M284,419.43c-.06-.15-.08-3.74,0-8l0-7.69,2.36-.14A53.31,53.31,0,0,0,313,394.8a48.84,48.84,0,0,0,8.34-6.81A47.84,47.84,0,0,0,328,379.9a25.37,25.37,0,0,1,1.73-2.42c.16-.07,13,7.33,13.37,7.7.22.22,0,.6-1,2.24a69.73,69.73,0,0,1-55.72,32.14c-1.78.11-2.24.08-2.32-.13m-23.23-82.9c-12.24-7.08-22.24-12.95-22.24-13.06,0-.29,44.38-25.85,44.87-25.85s45.16,25.76,44.95,26c-.44.44-44.7,25.83-45,25.82S273,343.6,260.8,336.53m14.77,1.08a3.42,3.42,0,0,0,1.1-.86c.16-.25,1.69-3.14,3.4-6.43s3.17-6,3.24-6,1.56,2.76,3.29,6.13c2.16,4.21,3.35,6.31,3.79,6.7a4.64,4.64,0,0,0,5.27.25c.74-.51,1.22-1.4,6.29-11.47,3-6,5.44-11.05,5.38-11.2s-.73-.28-3.32-.28a24.44,24.44,0,0,0-3.44.15c-.12.08-1.83,3.38-3.81,7.33a67.18,67.18,0,0,1-3.75,7c-.09-.1-1.52-2.79-3.18-6s-3.22-6.12-3.49-6.49a4,4,0,0,0-6-.1c-.27.32-1.91,3.31-3.64,6.64s-3.21,6.06-3.27,6.06-1.65-3.13-3.54-6.95-3.57-7.11-3.72-7.3-.67-.35-3.36-.35a20.48,20.48,0,0,0-3.36.18c-.3.2,1.25,3.58,7.15,15.61,3.17,6.47,3.58,7.08,5,7.61a5.93,5.93,0,0,0,3.95-.28"/>
</svg>
