<?xml version="1.0" encoding="UTF-8" standalone="no"?>
<svg
  id="图层_1"
  data-name="图层 1"
  viewBox="0 0 640 480.00001"
  version="1.1"
  sodipodi:docname="ChineseTaipei_4x3.svg"
  width="640"
  height="480"
  inkscape:version="1.2.2 (b0a84865, 2022-12-01)"
  xmlns:inkscape="http://www.inkscape.org/namespaces/inkscape"
  xmlns:sodipodi="http://sodipodi.sourceforge.net/DTD/sodipodi-0.dtd"
  xmlns="http://www.w3.org/2000/svg"
  xmlns:svg="http://www.w3.org/2000/svg"
  xmlns:rdf="http://www.w3.org/1999/02/22-rdf-syntax-ns#"
  xmlns:cc="http://creativecommons.org/ns#"
  xmlns:dc="http://purl.org/dc/elements/1.1/">
  <sodipodi:namedview
    id="namedview59"
    pagecolor="#ffffff"
    bordercolor="#000000"
    borderopacity="0.25"
    inkscape:showpageshadow="2"
    inkscape:pageopacity="0.0"
    inkscape:pagecheckerboard="0"
    inkscape:deskcolor="#d1d1d1"
    showgrid="false"
    inkscape:zoom="1.0310062"
    inkscape:cx="297.2824"
    inkscape:cy="220.65823"
    inkscape:window-width="1920"
    inkscape:window-height="1027"
    inkscape:window-x="584"
    inkscape:window-y="25"
    inkscape:window-maximized="0"
    inkscape:current-layer="图层_1" />
  <defs
    id="defs4">
    <style
      id="style2">.cls-1,.cls-4{fill:#fff;}.cls-1,.cls-2,.cls-3{fill-rule:evenodd;}.cls-2{fill:#003283;}.cls-3{fill:#e41f20;}.cls-5{fill:#e9eae8;}.cls-6{fill:#d0ce4a;}.cls-7{fill:#d9732c;}.cls-8{fill:#cf2b27;}.cls-9{fill:#3c9245;}.cls-10{fill:#2f4789;}</style>
  </defs>
  <title
    id="title6">ChineseTaipei</title>
  <g
    id="g751"
    transform="matrix(1.0265294,0,0,1.0265294,77.028546,7.9202053e-6)">
    <path
      class="cls-1"
      d="m 473.38428,211.3334 a 127.3,127.3 0 0 0 -116.79,-126.929999 127.35,127.35 0 0 0 -239.78,0 127.3,127.3 0 0 0 -71.120002,224.569999 127.38,127.38 0 0 0 191.000002,139.26 127.42,127.42 0 0 0 191,-139.26 127,127 0 0 0 45.69,-97.64 z"
      id="path8" />
    <path
      class="cls-2"
      d="m 473.38428,211.3334 a 127.3,127.3 0 0 0 -116.79,-126.929999 127.35,127.35 0 0 0 -239.78,0 127.3,127.3 0 0 0 -71.120002,224.569999 127.38,127.38 0 0 0 191.000002,139.26 127.42,127.42 0 0 0 191,-139.26 127,127 0 0 0 45.69,-97.64 z m -67.95,85.87 a 106.12,106.12 0 0 1 -166.51,122.7 106.13,106.13 0 0 1 -167.200002,-121.08 106.11,106.11 0 0 1 56.230002,-196.08 c 2.21,0 4.36,0 6.51,0.22 a 106.1,106.1 0 0 1 205.69,0 c 2.15,-0.18 4.34,-0.22 6.51,-0.22 a 106.1,106.1 0 0 1 58.77,194.44 z"
      id="path10" />
    <path
      class="cls-3"
      d="m 438.50428,211.5634 a 97.16,97.16 0 0 0 -97.19,-97.23 c -3.06,0 -6.16,0.18 -9.18,0.43 a 97.18,97.18 0 0 0 -189.63,0 c -3,-0.25 -6.06,-0.43 -9.12,-0.43 a 97.17,97.17 0 0 0 -48.660002,181.33 97.19,97.19 0 0 0 154.160002,110.88 97.2,97.2 0 0 0 153.5,-112.34 97,97 0 0 0 46.12,-82.64 z m -62.62,76.52 a 85.33,85.33 0 0 1 -137.36,100.84 85.35,85.35 0 0 1 -138.17,-99.67 85.34,85.34 0 0 1 53,-161.61 85.32,85.32 0 0 1 169.65,-0.57 85.32,85.32 0 0 1 52.91,161 z"
      id="path12" />
    <path
      class="cls-2"
      d="m 238.43428,94.333401 a 58.93,58.93 0 1 0 59,58.909999 58.94,58.94 0 0 0 -59,-58.909999 z m 0,87.339999 a 28.42,28.42 0 1 1 28.45,-28.43 28.41,28.41 0 0 1 -28.47,28.44 z"
      id="path14" />
    <path
      class="cls-1"
      d="m 231.39428,120.8334 h 14.83 l -7.06,-22.559999 z"
      id="path16" />
    <path
      class="cls-1"
      d="m 216.10428,128.7134 12.83,-7.4 -17.41,-16.07 z"
      id="path18" />
    <path
      class="cls-1"
      d="m 206.80428,143.1834 7.42,-12.85 -23.09,-5.17 z"
      id="path20" />
    <path
      class="cls-1"
      d="m 205.99428,160.3334 v -14.82 l -22.57,7 z"
      id="path22" />
    <path
      class="cls-1"
      d="m 213.87428,175.6034 -7.41,-12.83 -16,17.41 z"
      id="path24" />
    <path
      class="cls-1"
      d="m 228.31428,184.9134 -12.81,-7.41 -5.21,23.09 z"
      id="path26" />
    <path
      class="cls-1"
      d="m 245.47428,185.7334 h -14.81 l 7.07,22.6 z"
      id="path28" />
    <path
      class="cls-1"
      d="m 260.78428,177.8534 -12.86,7.4 17.44,16 z"
      id="path30" />
    <path
      class="cls-1"
      d="m 270.04428,163.3834 -7.39,12.83 23.11,5.17 z"
      id="path32" />
    <path
      class="cls-1"
      d="m 270.87428,146.2434 v 14.81 l 22.6,-7.05 z"
      id="path34" />
    <path
      class="cls-1"
      d="m 263.03428,130.9634 7.4,12.83 16,-17.41 z"
      id="path36" />
    <path
      class="cls-1"
      d="m 248.56428,121.6534 12.83,7.4 5.16,-23.08 z"
      id="path38" />
    <path
      class="cls-4"
      d="m 309.49428,300.4434 a 72.81,72.81 0 1 1 -72.81,-72.8 72.81,72.81 0 0 1 72.81,72.8"
      id="path40" />
    <path
      class="cls-5"
      d="m 236.67428,230.9934 a 60.28,60.28 0 1 0 0.06,0 z m 0,15.77 a 53.7,53.7 0 1 1 -53.77,53.69 53.59,53.59 0 0 1 53.77,-53.69"
      id="path42" />
    <polygon
      class="cls-5"
      points="328.77,376.47 283.33,402.75 237.83,376.47 237.89,323.84 283.45,297.62 328.85,323.87 "
      id="polygon44"
      transform="translate(-46.775722,-49.666599)" />
    <path
      class="cls-6"
      d="m 213.37428,339.7234 -22.29,-12.89 -0.05,-25.91 c 0,-14.26 0,-26 0.1,-26 0.1,0 37.38,21.28 44.3,25.41 l 0.73,0.44 v 25.95 c 0,20.63 -0.05,26 -0.24,25.94 -0.19,-0.06 -10.28,-5.81 -22.55,-12.89 m 12.53,-6.24 c 0,-3 0,-3.56 -0.34,-3.91 -0.34,-0.35 -4.21,-2.51 -8.93,-5.08 -9.35,-5.1 -10.22,-5.62 -11.46,-6.85 -1.51,-1.5 -1.52,-1.54 -1.59,-9.18 -0.07,-6.57 -0.06,-6.78 0.32,-7.06 0.79,-0.58 0.66,-0.64 12.09,5.67 10,5.53 9.49,5.27 9.73,4.89 a 22.58,22.58 0 0 0 0.18,-3.76 c 0,-3 0,-3.53 -0.34,-3.87 -0.34,-0.34 -18.83,-10.69 -20.28,-11.26 -3.36,-1.32 -5.48,-0.76 -6.58,1.74 -0.68,1.54 -0.81,3.2 -0.81,10.56 0,9.6 0.4,12.15 2.41,15.58 a 22.18,22.18 0 0 0 5.5,5.62 c 0.72,0.46 5.43,3.09 10.46,5.83 6.68,3.65 9.22,4.94 9.4,4.79 0.18,-0.15 0.24,-1.15 0.24,-3.71 m 55.81,-62.1 a 52.84,52.84 0 0 0 -13.09,-14 53.62,53.62 0 0 0 -29,-10.52 l -2.36,-0.13 -0.06,-7.85 c 0,-6.58 0,-7.86 0.23,-7.95 a 68.05,68.05 0 0 1 9.3,0.72 65.18,65.18 0 0 1 11.84,2.85 61.76,61.76 0 0 1 10.52,4.45 69.23,69.23 0 0 1 23.22,19.82 c 1.8,2.4 4.27,6.2 4.19,6.44 -0.08,0.24 -13.32,7.86 -13.54,7.85 a 11.5,11.5 0 0 1 -1.24,-1.72"
      id="path46" />
    <path
      class="cls-7"
      d="m 290.22428,330.9134 c -3.53,-2.05 -6.49,-3.84 -6.58,-4 -0.09,-0.16 0.2,-1 0.91,-2.42 a 53.8,53.8 0 0 0 0,-48.11 10.3,10.3 0 0 1 -1,-2.37 c 0.1,-0.28 12.89,-7.66 13.32,-7.7 0.9,-0.06 5.07,9.49 6.65,15.22 a 71.55,71.55 0 0 1 0,37.79 c -1.53,5.55 -5.69,15.15 -6.62,15.27 -0.16,0 -3.18,-1.64 -6.71,-3.69"
      id="path48" />
    <path
      class="cls-8"
      d="m 237.15428,326.6934 v -25.92 l 2,-1.18 c 10.94,-6.38 42.83,-24.7 42.89,-24.64 0.06,0.06 0.09,11.69 0.09,25.88 0,21.22 0,25.84 -0.25,26.05 -0.25,0.21 -9.23,5.42 -20.19,11.74 l -22.07,12.71 a 23.37,23.37 0 0 1 -2.32,1.25 c -0.08,0 -0.15,-11.67 -0.15,-25.93 m 13.71,8.58 1.18,-0.71 1.78,-5.13 1.78,-5.12 6.31,-3.5 c 3.47,-1.93 6.37,-3.51 6.45,-3.51 a 20.82,20.82 0 0 1 1.55,2.58 c 0.78,1.41 1.57,2.76 1.76,3 l 0.34,0.43 2.25,-1.28 a 9.14,9.14 0 0 0 2.31,-1.6 c 0,-0.18 -1.93,-4.08 -4.36,-8.67 l -6.16,-11.67 c -1.88,-3.59 -2.3,-4 -3.48,-3.78 a 4.91,4.91 0 0 0 -2.47,2.46 c -0.23,0.49 -2.37,6.43 -4.76,13.22 -2.39,6.79 -5.38,15.24 -6.64,18.8 -1.26,3.56 -2.24,6.55 -2.17,6.66 0.07,0.11 1.81,-0.65 4.33,-2.17 m 9.36,-24.33 a 40.14,40.14 0 0 1 1.89,-5 40.82,40.82 0 0 1 3.38,6.25 c -0.11,0.18 -6,3.41 -6.65,3.66 -0.27,0.1 0,-1 1.38,-4.92 m -85.54,20.75 a 69,69 0 0 1 -6.46,-19.73 64.17,64.17 0 0 1 -0.9,-11.67 67.82,67.82 0 0 1 5.07,-26.06 81.7,81.7 0 0 1 3.83,-7.86 c 0.13,-0.13 12.86,7 13.5,7.57 a 6.92,6.92 0 0 1 -0.91,2.29 55.51,55.51 0 0 0 -5.5,18.32 69.57,69.57 0 0 0 0.1,12.49 54.72,54.72 0 0 0 5.53,17.92 c 0.71,1.37 0.85,1.79 0.66,2 -0.42,0.41 -12.94,7.57 -13.23,7.57 a 11.6,11.6 0 0 1 -1.67,-2.81"
      id="path50" />
    <path
      class="cls-9"
      d="m 183.78428,269.3334 c -3.57,-2.06 -6.61,-3.86 -6.75,-4 -0.14,-0.14 0,-0.61 1,-2.31 a 69.65,69.65 0 0 1 42,-30.07 64.25,64.25 0 0 1 13.94,-1.93 l 2.07,-0.06 v 15.79 l -2.36,0.14 a 53.14,53.14 0 0 0 -26.58,8.83 47.13,47.13 0 0 0 -8.35,6.81 47.62,47.62 0 0 0 -6.64,8.09 c -0.88,1.3 -1.65,2.39 -1.72,2.42 -0.07,0.03 -3.05,-1.64 -6.63,-3.7"
      id="path52" />
    <path
      class="cls-5"
      d="m 183.51428,331.4734 c 3.54,-2 6.57,-3.7 6.74,-3.71 0.17,-0.01 0.77,0.67 1.65,2 a 53.78,53.78 0 0 0 41.65,24.07 9.72,9.72 0 0 1 2.55,0.33 c 0.19,0.23 0.19,15 0,15.38 -0.39,0.81 -10.75,-0.35 -16.5,-1.84 a 71.87,71.87 0 0 1 -32.73,-18.9 c -4,-4.1 -10.27,-12.5 -9.91,-13.37 0.06,-0.15 3,-1.93 6.55,-4 z"
      id="path54" />
    <path
      class="cls-10"
      d="m 237.22428,369.7634 c -0.06,-0.15 -0.08,-3.74 0,-8 v -7.69 l 2.36,-0.14 a 53.31,53.31 0 0 0 26.64,-8.8 48.84,48.84 0 0 0 8.34,-6.81 47.84,47.84 0 0 0 6.66,-8.09 25.37,25.37 0 0 1 1.73,-2.42 c 0.16,-0.07 13,7.33 13.37,7.7 0.22,0.22 0,0.6 -1,2.24 a 69.73,69.73 0 0 1 -55.72,32.14 c -1.78,0.11 -2.24,0.08 -2.32,-0.13 m -23.23,-82.9 c -12.24,-7.08 -22.24,-12.95 -22.24,-13.06 0,-0.29 44.38,-25.85 44.87,-25.85 0.49,0 45.16,25.76 44.95,26 -0.44,0.44 -44.7,25.83 -45,25.82 -0.3,-0.01 -10.41,-5.84 -22.61,-12.91 m 14.77,1.08 a 3.42,3.42 0 0 0 1.1,-0.86 c 0.16,-0.25 1.69,-3.14 3.4,-6.43 1.71,-3.29 3.17,-6 3.24,-6 0.07,0 1.56,2.76 3.29,6.13 2.16,4.21 3.35,6.31 3.79,6.7 a 4.64,4.64 0 0 0 5.27,0.25 c 0.74,-0.51 1.22,-1.4 6.29,-11.47 3,-6 5.44,-11.05 5.38,-11.2 -0.06,-0.15 -0.73,-0.28 -3.32,-0.28 a 24.44,24.44 0 0 0 -3.44,0.15 c -0.12,0.08 -1.83,3.38 -3.81,7.33 a 67.18,67.18 0 0 1 -3.75,7 c -0.09,-0.1 -1.52,-2.79 -3.18,-6 -1.66,-3.21 -3.22,-6.12 -3.49,-6.49 a 4,4 0 0 0 -6,-0.1 c -0.27,0.32 -1.91,3.31 -3.64,6.64 -1.73,3.33 -3.21,6.06 -3.27,6.06 -0.06,0 -1.65,-3.13 -3.54,-6.95 -1.89,-3.82 -3.57,-7.11 -3.72,-7.3 -0.15,-0.19 -0.67,-0.35 -3.36,-0.35 a 20.48,20.48 0 0 0 -3.36,0.18 c -0.3,0.2 1.25,3.58 7.15,15.61 3.17,6.47 3.58,7.08 5,7.61 a 5.93,5.93 0 0 0 3.95,-0.28"
      id="path56" />
  </g>
  <metadata
    id="metadata633">
    <rdf:RDF>
      <cc:Work
        rdf:about="">
        <dc:title>ChineseTaipei</dc:title>
      </cc:Work>
    </rdf:RDF>
  </metadata>
</svg>
