<?xml version="1.0" encoding="UTF-8" standalone="no"?>
<!-- Created with Inkscape (http://www.inkscape.org/) -->

<svg
   xmlns:dc="http://purl.org/dc/elements/1.1/"
   xmlns:cc="http://creativecommons.org/ns#"
   xmlns:rdf="http://www.w3.org/1999/02/22-rdf-syntax-ns#"
   xmlns:svg="http://www.w3.org/2000/svg"
   xmlns="http://www.w3.org/2000/svg"
   xmlns:sodipodi="http://sodipodi.sourceforge.net/DTD/sodipodi-0.dtd"
   xmlns:inkscape="http://www.inkscape.org/namespaces/inkscape"
   version="1.0"
   width="88.646927"
   height="88.774887"
   viewbox="0 0 80 80"
   id="svg2"
   inkscape:version="0.48.5 r10040"
   sodipodi:docname="wca_logo.svg">
  <sodipodi:namedview
     pagecolor="#ffffff"
     bordercolor="#666666"
     borderopacity="1"
     objecttolerance="10"
     gridtolerance="10"
     guidetolerance="10"
     inkscape:pageopacity="0"
     inkscape:pageshadow="2"
     inkscape:window-width="2560"
     inkscape:window-height="1391"
     id="namedview15"
     showgrid="false"
     inkscape:zoom="11.313708"
     inkscape:cx="53.88865"
     inkscape:cy="45.050828"
     inkscape:window-x="0"
     inkscape:window-y="0"
     inkscape:window-maximized="1"
     inkscape:current-layer="svg2"
     fit-margin-top="0"
     fit-margin-left="0"
     fit-margin-right="0"
     fit-margin-bottom="0">
    <inkscape:grid
       empspacing="5"
       visible="true"
       enabled="true"
       snapvisiblegridlinesonly="true"
       type="xygrid"
       id="grid2992" />
  </sodipodi:namedview>
  <defs
     id="defs4" />
  <metadata
     id="metadata7">
    <rdf:RDF>
      <cc:Work
         rdf:about="">
        <dc:format>image/svg+xml</dc:format>
        <dc:type
           rdf:resource="http://purl.org/dc/dcmitype/StillImage" />
        <dc:title />
      </cc:Work>
    </rdf:RDF>
  </metadata>
  <path
     d="m 44.317426,4.3553099 c -22.134133,0 -39.99397,17.9043721 -39.99397,40.0385161 0,22.134117 17.773478,39.934093 39.907611,39.934093 22.134135,0 40.061948,-17.730957 40.061948,-39.865074 0,-22.134144 -17.807903,-40.1136294 -39.942037,-40.1136294 l -0.03355,0.00615 0,-5.47e-5 0,0 0,0 0,0 0,0 z m -0.003,9.0933671 c 17.105382,0 30.902022,13.839761 30.902022,30.945149 0,17.105361 -13.79664,30.953772 -30.902022,30.953772 -17.105379,0 -30.988281,-13.848411 -30.988281,-30.953772 0,-17.105388 13.882902,-30.945149 30.988281,-30.945149 l 0,0 z"
     id="path3273"
     style="fill:#eeeeec;fill-opacity:1;stroke:none"
     inkscape:connector-curvature="0" />
  <path
     d="m 18.053056,29.246546 c 0,0 26.263089,-15.114363 26.263089,-15.114363 0,0 26.164372,15.128669 26.164372,15.128669 l -0.04462,30.318064 -26.191422,15.14892 -26.22593,-15.148934 0.03451,-30.332356 0,0 z"
     id="rect2804"
     style="fill:#eeeeec;fill-opacity:1;stroke:none"
     inkscape:connector-curvature="0" />
  <path
     d="M 30.887805,67.023427 18.037846,59.596461 18.00898,44.660979 c -0.01586,-8.214528 0.0097,-14.971037 0.05686,-15.014476 0.06212,-0.05725 21.544958,12.265951 25.533996,14.647067 l 0.422217,0.252027 0,14.95755 c 0,11.892995 -0.02912,14.956511 -0.142148,14.952398 -0.07818,-0.003 -5.924628,-3.347284 -12.992108,-7.432118 l 1.2e-5,0 0,0 0,0 z m 7.220998,-3.594555 c 0,-1.759892 -0.02567,-2.050301 -0.199004,-2.252548 -0.109451,-0.127707 -2.425002,-1.445747 -5.14567,-2.92899 -5.387712,-2.937257 -5.891723,-3.23857 -6.606156,-3.949351 -0.868602,-0.86415 -0.872469,-0.886464 -0.916744,-5.290306 -0.03804,-3.783343 -0.03232,-3.90885 0.185973,-4.068642 0.455942,-0.333793 0.37909,-0.369867 6.970869,3.27157 5.768315,3.186523 5.466358,3.034671 5.60342,2.818035 0.0571,-0.09025 0.104615,-1.066751 0.105574,-2.169973 0.0017,-1.749863 -0.02365,-2.034765 -0.197266,-2.232298 -0.23197,-0.263955 -10.853373,-6.158364 -11.688961,-6.486856 -1.934824,-0.760656 -3.154699,-0.437998 -3.79186,1.002953 -0.393195,0.88921 -0.466238,1.844843 -0.464972,6.083142 0.0017,5.538246 0.228552,7.008289 1.386597,8.9836 0.56376,0.961632 2.124896,2.553301 3.17297,3.235045 0.414154,0.269394 3.126293,1.783572 6.026976,3.36483 3.852716,2.100244 5.312269,2.843368 5.416109,2.757597 0.103975,-0.08589 0.142145,-0.659922 0.142145,-2.137808 l 0,0 0,0 0,0 z m 32.1646,-35.793563 C 68.222875,24.468682 65.782835,21.866284 62.728424,19.588239 57.896696,15.984651 52.074898,13.874568 46.012097,13.529488 l -1.364598,-0.07768 -0.02975,-4.5232834 c -0.02495,-3.796228 -0.0042,-4.5331487 0.129782,-4.5845131 0.251493,-0.096512 3.605899,0.1645193 5.358349,0.4169689 2.342625,0.3374559 4.392425,0.8304398 6.822993,1.640957 2.446335,0.8157642 3.877648,1.4213291 6.068102,2.5673071 5.214068,2.7278635 9.766394,6.6140445 13.383004,11.4246625 1.038002,1.380677 2.461217,3.569044 2.413022,3.71032 -0.03266,0.09572 -7.678242,4.530539 -7.802979,4.526111 -0.04069,-0.0014 -0.363209,-0.449203 -0.716633,-0.995027 l 1.4e-5,0 0,0 z"
     id="path2730"
     style="fill:#ddda45"
     inkscape:connector-curvature="0" />
  <path
     d="m 75.180382,61.948595 c -2.032688,-1.181068 -3.739958,-2.215682 -3.793941,-2.299144 -0.06491,-0.100365 0.113218,-0.573891 0.525855,-1.397963 4.365337,-8.717896 4.367386,-19.015355 0.0056,-27.726392 -0.340162,-0.679312 -0.595452,-1.295098 -0.567323,-1.36838 0.06199,-0.161581 7.428638,-4.415457 7.678368,-4.43389 0.517881,-0.03825 2.924877,5.466932 3.834092,8.769137 1.05977,3.849055 1.458032,6.818956 1.460423,10.890781 0.0025,4.053023 -0.396253,7.025739 -1.460423,10.890781 -0.881257,3.200748 -3.281435,8.733255 -3.818173,8.801126 -0.09277,0.01175 -1.83178,-0.945002 -3.864454,-2.126056 l 1.4e-5,0 0,0 -4.1e-5,0 z"
     id="path2726"
     style="fill:#e7762a"
     inkscape:connector-curvature="0" />
  <path
     d="m 44.590643,59.517494 0,-14.943257 1.165593,-0.679776 c 6.30205,-3.675353 24.687519,-14.236426 24.722646,-14.201294 0.02495,0.02494 0.04806,6.737324 0.05135,14.91642 0.0048,12.233389 -0.02083,14.896539 -0.145257,15.014572 -0.08319,0.07892 -5.319684,3.124431 -11.636632,6.767809 -6.316953,3.643379 -12.046928,6.949328 -12.733282,7.346552 -0.686357,0.397238 -1.287637,0.722245 -1.33617,0.722245 -0.04854,0 -0.08825,-6.724466 -0.08825,-14.943271 l 0,0 z m 7.903294,4.945267 0.682297,-0.410615 1.023455,-2.954843 1.023445,-2.954857 3.636571,-2.018476 c 2.000113,-1.11015 3.672794,-2.018464 3.717066,-2.018464 0.04426,0 0.448267,0.667424 0.897771,1.483147 0.449508,0.815724 0.906262,1.593036 1.015029,1.727357 l 0.197755,0.24421 1.293756,-0.734556 c 0.711554,-0.404016 1.309926,-0.818662 1.329729,-0.921431 0.01978,-0.10277 -1.110048,-2.353364 -2.510757,-5.001305 -1.400706,-2.647941 -2.998628,-5.674754 -3.550946,-6.726243 -1.086833,-2.069117 -1.325428,-2.327743 -2.008912,-2.177612 -0.441741,0.09702 -1.117087,0.772667 -1.42124,1.421876 -0.130623,0.278822 -1.365827,3.705209 -2.744892,7.614209 -1.379065,3.909001 -3.10126,8.785139 -3.8271,10.835837 -0.72584,2.050697 -1.287916,3.779994 -1.249065,3.842864 0.06905,0.11172 1.040947,-0.375429 2.496038,-1.251098 l 0,0 0,0 0,0 z m 5.37542,-14.040505 c 0.545986,-1.600388 1.036756,-2.895676 1.090595,-2.878432 0.16019,0.05135 2.021513,3.487741 1.950949,3.601907 -0.0634,0.102592 -3.448419,1.965773 -3.837552,2.112269 -0.153692,0.05785 0.02032,-0.562126 0.796008,-2.835744 l 0,0 z M 8.5704478,62.378381 C 6.7115615,58.638915 5.520901,54.996507 4.852376,51.004209 4.4692674,48.716366 4.3350079,46.970029 4.3350079,44.274659 c 0,-5.273923 0.9568614,-10.197805 2.9181159,-15.016211 0.499674,-1.227596 2.0075193,-4.344471 2.1907356,-4.52849 0.074281,-0.07459 7.4119016,4.042652 7.7836696,4.367537 0.05468,0.04778 -0.182526,0.64086 -0.527134,1.317944 -1.621661,3.18625 -2.687854,6.740481 -3.166523,10.555812 -0.205438,1.637472 -0.175928,5.490599 0.05516,7.202447 0.505431,3.744112 1.585989,7.247976 3.185215,10.328532 0.409168,0.788162 0.490055,1.030199 0.379987,1.137 -0.239306,0.232227 -7.4540089,4.359611 -7.6206215,4.359611 -0.089308,0 -0.5068069,-0.702418 -0.9631607,-1.62046 l 0,0 0,0 0,0 z"
     id="path2724"
     style="fill:#e02826"
     inkscape:connector-curvature="0" />
  <path
     d="M 13.833186,26.474041 C 11.773159,25.285826 10.020465,24.246444 9.9383109,24.16428 9.8149638,24.040945 9.9195442,23.808951 10.53859,22.832575 15.990049,14.234584 24.787459,7.9318145 34.734981,5.4974345 37.521745,4.8154584 40.15234,4.4512476 42.771179,4.384825 l 1.194023,-0.03028 0,4.5486578 0,4.5486575 -1.364599,0.07882 c -5.530221,0.319377 -10.771156,2.061178 -15.317406,5.090669 -2.026765,1.350575 -3.179294,2.290234 -4.813655,3.924591 -1.590071,1.590071 -2.555587,2.766712 -3.828489,4.665625 -0.503103,0.750531 -0.947949,1.377713 -0.988542,1.393741 -0.0406,0.01601 -1.759292,-0.943034 -3.819325,-2.131249 l 0,-1.3e-5 0,0 0,0 z"
     id="path2722"
     style="fill:#3d9c46"
     inkscape:connector-curvature="0" />
  <path
     d="m 13.674566,62.26923 c 2.039178,-1.169836 3.788815,-2.131058 3.888087,-2.136086 0.119373,-0.006 0.440395,0.384994 0.947743,1.154395 5.367253,8.139428 14.28409,13.289934 24.008956,13.868047 0.758388,0.04506 1.419321,0.131861 1.468717,0.192873 0.108933,0.134471 0.109575,8.641116 0,8.866606 -0.225817,0.467623 -6.196952,-0.200457 -9.511346,-1.064156 -3.863266,-1.006738 -6.634405,-2.146785 -10.161909,-4.180621 -3.511249,-2.02438 -5.886339,-3.856037 -8.70148,-6.71016 -2.331298,-2.363557 -5.9225017,-7.208432 -5.7129117,-7.707196 0.036206,-0.08621 1.7342857,-1.113866 3.7734467,-2.283689 l -7e-6,1.4e-5 0,0 6.83e-4,-2.7e-5 z"
     id="path2802"
     style="fill:#eeeeec"
     inkscape:connector-curvature="0" />
  <path
     d="m 44.647309,84.337744 c -0.03265,-0.08512 -0.04599,-2.150366 -0.02958,-4.589446 l 0.02979,-4.43467 1.364598,-0.0788 c 5.525766,-0.319132 10.776327,-2.064581 15.321331,-5.093266 2.011202,-1.340217 3.168577,-2.284851 4.807732,-3.924018 1.595322,-1.595331 2.565563,-2.776591 3.830495,-4.663602 0.5031,-0.750531 0.949528,-1.378246 0.992074,-1.394916 0.0934,-0.03661 7.49681,4.228337 7.710112,4.441624 0.124086,0.124087 0.0252,0.346652 -0.573905,1.291532 -3.803087,5.998217 -9.395317,11.059809 -15.723264,14.231328 -5.198612,2.605527 -10.271124,3.934293 -16.391834,4.293899 -1.025296,0.06026 -1.289888,0.04449 -1.337529,-0.07966 l -2.1e-5,0 0,0 0,0 z M 31.259048,36.557939 c -7.05093,-4.077264 -12.819886,-7.46438 -12.819902,-7.526922 -4.7e-5,-0.164246 25.580644,-14.896853 25.865874,-14.896853 0.318573,0 26.02528,14.846281 25.907117,14.962033 -0.256985,0.251766 -25.76095,14.887561 -25.932536,14.88174 -0.11038,-0.0038 -5.969623,-3.342734 -13.020553,-7.419998 l 0,0 z m 8.513049,0.625474 c 0.254417,-0.129798 0.539067,-0.354086 0.632556,-0.498409 0.09349,-0.144323 0.975974,-1.810382 1.961091,-3.70234 0.985104,-1.891958 1.82673,-3.439915 1.870273,-3.439915 0.04354,0 0.895931,1.59085 1.894211,3.535211 1.246771,2.428381 1.930296,3.637406 2.183135,3.861584 0.75476,0.669187 2.180428,0.735787 3.03721,0.141878 0.425405,-0.294891 0.705803,-0.806254 3.625129,-6.611216 1.740234,-3.460385 3.136287,-6.363986 3.102342,-6.452449 -0.04974,-0.129621 -0.420996,-0.160502 -1.91318,-0.159095 -1.018308,0.0014 -1.909312,0.03934 -1.98002,0.08529 -0.07071,0.04594 -1.059284,1.945277 -2.196833,4.220713 -1.15051,2.301384 -2.110922,4.092704 -2.16439,4.036939 -0.05287,-0.05513 -0.875769,-1.609829 -1.828675,-3.454877 -0.952907,-1.845049 -1.859687,-3.526521 -2.015077,-3.736597 -0.76336,-1.032031 -2.595923,-1.062311 -3.440827,-0.05684 -0.15377,0.182994 -1.098345,1.904038 -2.099051,3.824527 -1.000702,1.920503 -1.846931,3.492332 -1.880506,3.492974 -0.03358,0.0014 -0.952746,-1.802675 -2.042608,-4.007356 -1.089857,-2.204682 -2.055392,-4.098061 -2.145624,-4.207513 -0.143575,-0.174152 -0.385495,-0.198776 -1.937466,-0.197259 -0.975377,0.0014 -1.845292,0.04725 -1.933143,0.102866 -0.17528,0.110968 0.717307,2.060262 4.117806,8.992714 1.829465,3.729642 2.062263,4.084369 2.880522,4.389058 0.587147,0.218644 1.682117,0.141618 2.273125,-0.159887 l 0,0 0,0 z"
     id="path2720"
     style="fill:#304a96"
     inkscape:connector-curvature="0" />
  <g
     transform="matrix(0.13664393,0,0,0.13664393,66.256416,70.85782)"
     id="g3834">
    <path
       transform="matrix(7.3182905,0,0,7.3182905,-484.8837,-518.55811)"
       inkscape:connector-curvature="0"
       id="path3852"
       d="m 17.987029,59.606732 0.04419,-30.361397 26.339728,-15.158602 26.074562,15.114408 0,30.405591 -26.118757,15.114408 z"
       style="fill:none;stroke:#000000;stroke-width:0.5;stroke-linecap:butt;stroke-linejoin:miter;stroke-miterlimit:4;stroke-opacity:1;stroke-dasharray:none" />
  </g>
  <path
     sodipodi:type="arc"
     style="opacity:1;fill:none;fill-opacity:1;stroke-width:0.51508108;stroke-miterlimit:4;stroke-dasharray:none;stroke-dashoffset:0;stroke:#000000;stroke-opacity:1"
     id="path2995"
     sodipodi:cx="46.357559"
     sodipodi:cy="44.830853"
     sodipodi:rx="41.357559"
     sodipodi:ry="41.055965"
     d="m 87.715118,44.830853 a 41.357559,41.055965 0 1 1 -82.715118,0 41.357559,41.055965 0 1 1 82.715118,0 z"
     transform="matrix(0.96717506,0,0,0.97427985,-0.51240905,0.709651)" />
  <path
     transform="matrix(0.74173947,0,0,0.74718823,9.9382348,10.890362)"
     d="m 87.715118,44.830853 a 41.357559,41.055965 0 1 1 -82.715118,0 41.357559,41.055965 0 1 1 82.715118,0 z"
     sodipodi:ry="41.055965"
     sodipodi:rx="41.357559"
     sodipodi:cy="44.830853"
     sodipodi:cx="46.357559"
     id="path3765"
     style="fill:none;stroke:#000000;stroke-width:0.67162878;stroke-miterlimit:4;stroke-opacity:1;stroke-dasharray:none;stroke-dashoffset:0"
     sodipodi:type="arc" />
  <path
     style="fill:none;stroke:#000000;stroke-width:0.25;stroke-linecap:butt;stroke-linejoin:miter;stroke-opacity:1;stroke-miterlimit:4;stroke-dasharray:none"
     d="M 24.34375 39.75 C 23.457994 39.785468 22.835731 40.255656 22.4375 41.15625 C 22.04431 42.04546 21.96749 42.980451 21.96875 47.21875 C 21.97075 52.756996 22.1857 54.243439 23.34375 56.21875 C 23.90751 57.180382 25.48318 58.755756 26.53125 59.4375 C 26.9454 59.706894 29.66181 61.231242 32.5625 62.8125 C 36.41521 64.912744 37.86491 65.648271 37.96875 65.5625 C 38.07273 65.47661 38.09375 64.915386 38.09375 63.4375 C 38.09375 61.677608 38.07955 61.389747 37.90625 61.1875 C 37.7968 61.059793 35.47066 59.733243 32.75 58.25 C 27.36228 55.312743 26.87068 55.023281 26.15625 54.3125 C 25.28765 53.44835 25.29427 53.403842 25.25 49 C 25.212 45.216657 25.21923 45.097292 25.4375 44.9375 C 25.89344 44.603707 25.81447 44.577313 32.40625 48.21875 C 38.17456 51.405273 37.86294 51.247886 38 51.03125 C 38.0571 50.941 38.09279 49.946972 38.09375 48.84375 C 38.09575 47.093887 38.07991 46.822533 37.90625 46.625 C 37.67428 46.361045 27.05433 40.453492 26.21875 40.125 C 25.493189 39.839754 24.875203 39.728719 24.34375 39.75 z "
     id="path3248" />
  <path
     style="fill:none;stroke:#000000;stroke-width:0.25;stroke-linecap:butt;stroke-linejoin:miter;stroke-opacity:1;stroke-miterlimit:4;stroke-dasharray:none"
     d="M 59.46875 41.96875 C 59.394692 41.972005 59.335436 41.981234 59.25 42 C 58.808259 42.09702 58.116653 42.757041 57.8125 43.40625 C 57.681877 43.685072 56.441565 47.12225 55.0625 51.03125 C 53.683435 54.940251 51.97584 59.824302 51.25 61.875 C 50.52416 63.925697 49.961149 65.65588 50 65.71875 C 50.06905 65.83047 51.044909 65.344419 52.5 64.46875 L 53.1875 64.0625 L 54.1875 61.09375 L 55.21875 58.15625 L 58.875 56.125 C 60.875113 55.01485 62.518228 54.09375 62.5625 54.09375 C 62.60676 54.09375 63.019246 54.778027 63.46875 55.59375 C 63.918258 56.409474 64.391233 57.178179 64.5 57.3125 L 64.6875 57.5625 L 65.96875 56.8125 C 66.680304 56.408484 67.292697 56.009019 67.3125 55.90625 C 67.33228 55.80348 66.213209 53.554191 64.8125 50.90625 C 63.411794 48.258309 61.802318 45.238989 61.25 44.1875 C 60.299021 42.377023 59.987159 41.945965 59.46875 41.96875 z M 58.96875 47.53125 C 59.12894 47.5826 60.976814 51.042084 60.90625 51.15625 C 60.84285 51.258842 57.451633 53.103504 57.0625 53.25 C 56.908808 53.30785 57.099312 52.711118 57.875 50.4375 C 58.420986 48.837112 58.914911 47.514006 58.96875 47.53125 z "
     id="path4069" />
  <path
     style="fill:none;stroke:#000000;stroke-width:0.25;stroke-linecap:butt;stroke-linejoin:miter;stroke-opacity:1;stroke-miterlimit:4;stroke-dasharray:none"
     d="M 32.4375 23.84375 C 31.462123 23.84515 30.587851 23.913134 30.5 23.96875 C 30.32472 24.079718 31.224501 26.036298 34.625 32.96875 C 36.454465 36.698392 36.681741 37.039061 37.5 37.34375 C 38.087147 37.562394 39.190242 37.489005 39.78125 37.1875 C 40.035667 37.057702 40.312761 36.831823 40.40625 36.6875 C 40.49974 36.543177 41.389883 34.860708 42.375 32.96875 C 43.360104 31.076792 44.206457 29.53125 44.25 29.53125 C 44.29354 29.53125 45.12672 31.118139 46.125 33.0625 C 47.371771 35.490881 48.059661 36.713322 48.3125 36.9375 C 49.06726 37.606687 50.486968 37.687659 51.34375 37.09375 C 51.769155 36.798859 52.049424 36.273712 54.96875 30.46875 C 56.708984 27.008365 58.096445 24.119713 58.0625 24.03125 C 58.01276 23.901629 57.648434 23.842343 56.15625 23.84375 C 55.137942 23.84515 54.258208 23.89155 54.1875 23.9375 C 54.11679 23.98344 53.137549 25.880814 52 28.15625 C 50.84949 30.457634 49.865968 32.243265 49.8125 32.1875 C 49.75963 32.13237 48.952906 30.595048 48 28.75 C 47.047093 26.904951 46.12414 25.210076 45.96875 25 C 45.20539 23.967969 43.376154 23.963279 42.53125 24.96875 C 42.37748 25.151744 41.438206 26.860761 40.4375 28.78125 C 39.436798 30.701753 38.596075 32.280608 38.5625 32.28125 C 38.52892 32.28265 37.621112 30.454681 36.53125 28.25 C 35.441393 26.045318 34.465232 24.171952 34.375 24.0625 C 34.231425 23.888348 33.989471 23.842233 32.4375 23.84375 z "
     id="path4072" />
</svg>
