<?xml version="1.0" encoding="UTF-8"?>
<svg width="1024px" height="1024px" viewBox="0 0 1024 1024" version="1.1" xmlns="http://www.w3.org/2000/svg" xmlns:xlink="http://www.w3.org/1999/xlink">
    <!-- Generator: Sketch 59.1 (86144) - https://sketch.com -->
    <title>WCA Logo 2020</title>
    <desc>Created with Sketch.</desc>
    <g id="Page-1" stroke="none" stroke-width="1" fill="none" fill-rule="evenodd">
        <g id="WCA-Logo-2020-(with-padding)" transform="translate(-128.000000, -128.000000)" stroke="#000000">
            <g id="Ring">
                <g id="Sections" stroke-width="4">
                    <path d="M642,130.00387 L642,254.005061 C779.919374,254.710548 904.898788,328.346894 973.335095,445.239404 L1080.74139,383.22748 C990.281952,228.278502 824.698124,130.711043 642,130.00387 Z" id="Yellow" fill="#DDDA45"></path>
                    <path d="M1082.74518,386.6907 L975.338292,448.701681 C1008.36701,506.473998 1026,571.953283 1026,640 C1026,708.046717 1008.36701,773.526003 975.338291,831.298319 L1082.74518,893.309315 C1126.58981,816.843153 1150,730.131293 1150,640 C1150,549.868712 1126.58982,463.156858 1082.74518,386.6907 Z" id="Orange" fill="#E7762A"></path>
                    <path d="M973.335112,834.760567 C904.898808,951.653094 779.919386,1025.28945 642,1025.99489 L642,1149.99613 C824.698522,1149.28896 990.282656,1051.72107 1080.74195,896.771555 L973.335112,834.760567 Z" id="Blue" fill="#304A96"></path>
                    <path d="M638,1025.99489 C500.080626,1025.28945 375.101212,951.653106 306.664905,834.760596 L199.258608,896.77252 C289.718048,1051.7215 455.301876,1149.28896 638,1149.99613 L638,1025.99494 Z" id="White" fill="#EEEEEC"></path>
                    <path d="M197.254816,386.6907 C153.410182,463.156858 130,549.868712 130,640 C130,730.131684 153.410388,816.843901 197.255387,893.310296 L304.661717,831.298335 C271.632996,773.526014 254,708.046723 254,640 C254,571.953283 271.632993,506.473998 304.661709,448.701682 L197.254816,386.6907 Z" id="Red" fill="#E02826"></path>
                    <path d="M638,130.00387 C455.301876,130.711043 289.718048,228.278502 199.258608,383.22748 L306.664905,445.239404 C375.101212,328.346894 500.080626,254.710548 638,254.005114 L638,130.00387 Z" id="Green" fill="#3D9C46"></path>
                </g>
                <path d="M640,134 C360.543917,134 134,360.543917 134,640 C134,919.456083 360.543917,1146 640,1146 C919.456083,1146 1146,919.456083 1146,640 C1146,360.543917 919.456083,134 640,134 Z M640,250 C855.391052,250 1030,424.608948 1030,640 C1030,855.391052 855.391052,1030 640,1030 C424.608948,1030 250,855.391052 250,640 C250,424.608948 424.608948,250 640,250 Z" id="Outline" stroke-width="12"></path>
            </g>
            <g id="Hexagon" transform="translate(226.642397, 163.001667)">
                <path d="M743.91056,288.706762 L415.779552,478.153025 L415.779552,857.292563 L743.911355,667.845302 L743.91056,288.706762 Z" id="Red" stroke-width="4" fill="#E02826"></path>
                <path d="M82.8038476,288.218195 L82.8038476,667.845299 L411.779163,857.779287 L411.779562,478.153022 L82.8038476,288.218195 Z M413.638642,860.513225 L413.498669,860.755666 L413.215988,860.755666 L412.354689,859.269635 L412.776246,859.025301 L413.638642,860.513225 Z" id="Yellow" stroke-width="4" fill="#DDDA45"></path>
                <path d="M413.3576,95.3093993 L85.0160469,284.87634 L413.77991,474.688578 L742.120205,285.120578 L413.3576,95.3093993 Z M745.7716,284.999816 L745.841532,285.120942 L745.772129,285.241151 L743.911042,285.238704 L743.911359,284.997371 L745.7716,284.999816 Z" id="Blue" stroke-width="4" fill="#304A96"></path>
                <path d="M269.04791,226.663951 C257.180355,226.681422 246.542959,227.508593 245.474063,228.185281 C243.341406,229.535445 254.289173,253.34144 295.663542,337.689599 C317.922911,383.068699 320.688211,387.213669 330.644088,390.920865 C337.787992,393.581138 351.20951,392.688203 358.400391,389.019748 C361.49592,387.440477 364.867363,384.692174 366.004858,382.936175 C367.142364,381.180176 377.972864,360.709329 389.958927,337.689599 C401.944832,314.669869 412.242533,295.865033 412.772327,295.865033 C413.302084,295.865033 423.439507,315.172944 435.585726,338.830269 C450.755372,368.376736 459.12503,383.250355 462.201359,385.977961 C471.384635,394.120058 488.65843,395.105256 499.083022,387.879078 C504.258987,384.291096 507.669061,377.901556 543.188927,307.271733 C564.362609,265.168722 581.24405,230.02207 580.831037,228.945728 C580.225843,227.36861 575.793035,226.647269 557.637414,226.663951 C545.247511,226.681422 534.543659,227.245978 533.683344,227.805058 C532.823005,228.364017 520.908437,251.449644 507.067712,279.135207 C493.069288,307.136483 481.102632,328.862517 480.452079,328.184016 C479.808802,327.513241 469.993273,308.808419 458.399126,286.35945 C446.804967,263.910469 435.575263,243.288676 433.68461,240.732651 C424.396697,228.175779 402.140115,228.118715 391.860044,240.352428 C389.989102,242.578942 378.560817,263.372803 366.385081,286.739673 C354.209393,310.106715 343.980193,329.316875 343.571681,329.324686 C343.163109,329.34172 332.117676,307.100553 318.857165,280.275877 C305.596716,253.451188 293.719622,230.65767 292.621756,229.325951 C290.874858,227.207018 287.930968,226.64593 269.04791,226.663951 Z" id="W" stroke-width="8" fill="#FFFFFF"></path>
                <path d="M170.570068,420.198061 C159.792945,420.629605 152.22178,426.350451 147.376445,437.30811 C142.592445,448.127259 141.657765,459.503431 141.672912,511.071436 C141.69743,578.456086 144.312758,596.541855 158.402922,620.575753 C165.262272,632.276071 184.43368,651.443877 197.185701,659.738756 C202.224725,663.016512 235.275683,681.563477 270.568803,700.802875 C317.44529,726.356851 335.084002,735.306116 336.347438,734.262528 C337.612578,733.217491 337.870147,726.388997 337.870147,708.407342 C337.870147,686.994478 337.695558,683.492031 335.586992,681.031262 C334.255297,679.477432 305.952811,663.337104 272.850143,645.290269 C207.296965,609.552233 201.315596,606.030307 192.623021,597.38213 C182.054638,586.867891 182.135184,586.326356 181.596545,532.744165 C181.134193,486.711677 181.222162,485.259345 183.877885,483.315133 C189.425373,479.253824 188.464534,478.932685 268.667686,523.238582 C338.851559,562.009474 335.060033,560.094523 336.727662,557.458681 C337.422406,556.360596 337.856651,544.266112 337.870147,530.843048 C337.892666,509.552209 337.699938,506.250605 335.586992,503.847192 C332.764579,500.635613 203.550092,428.757551 193.383468,424.760741 C184.555461,421.290111 177.036335,419.939132 170.570068,420.198061 Z" id="C" stroke-width="8" fill="#FFFFFF"></path>
                <path d="M597.941086,447.193917 C604.248645,446.916688 608.043115,452.161434 619.613816,474.189773 C626.33395,486.983394 645.91668,523.719902 662.959275,555.937788 C680.001907,588.155674 693.617807,615.523102 693.377141,616.77352 C693.136195,618.023926 685.68512,622.884275 677.027538,627.799996 L677.027538,627.799996 L661.438382,636.925356 L659.157042,633.88357 C657.872017,632.296638 652.408788,623.432035 647.085862,613.832717 L646.609672,612.971287 C641.140491,603.046266 636.121713,594.720567 635.583196,594.720567 C635.044532,594.720567 615.052511,605.927726 590.716843,619.435083 L590.716843,619.435083 L546.230714,644.1496 L533.683344,679.890592 L521.516198,716.011808 L513.151285,720.954711 C495.446979,731.609104 483.57356,737.522958 482.733419,736.163644 C482.260713,735.398696 489.11095,714.347306 497.942352,689.396175 C506.773753,664.445032 527.550312,605.020069 544.329597,557.458681 C561.108883,509.897306 576.199941,468.076658 577.78925,464.68419 C581.489924,456.785169 589.904796,448.754597 595.279523,447.57414 C596.319035,447.345811 597.040012,447.233521 597.941086,447.193917 Z M591.857513,514.873669 C591.202446,514.663859 585.192788,530.762283 578.549697,550.234438 C569.111787,577.897881 566.793897,585.158407 568.66389,584.454537 C573.398528,582.672099 614.659962,560.227826 615.431359,558.979575 C616.289922,557.5905 593.806568,515.498452 591.857513,514.873669 Z" id="A" stroke-width="8" fill="#FFFFFF"></path>
                <path d="M413.357603,93 L745.911358,285 L745.911358,669 L413.357603,861 L80.8038476,669 L80.8038476,285 L413.357603,93 Z" id="Outline" stroke-width="12" stroke-linejoin="round"></path>
            </g>
        </g>
    </g>
</svg>