<?xml version="1.0" encoding="UTF-8"?>
<svg id="Layer_2" data-name="Layer 2" xmlns="http://www.w3.org/2000/svg" viewBox="0 0 781.22 265.01">
  <defs>
    <style>
      .cls-1 {
        fill: #c62535;
      }

      .cls-2 {
        fill: #029347;
      }

      .cls-3 {
        fill: #ffd313;
      }

      .cls-4 {
        fill: #fff;
      }

      .cls-5 {
        fill: #ff5800;
      }

      .cls-6 {
        fill: #0051ba;
      }

      .cls-7 {
        fill: #eee;
      }
    </style>
  </defs>
  <g id="Layer_1-2" data-name="Layer 1">
    <g>
      <g>
        <g>
          <path d="M329.03,121.02l-14.32-53.62h13.63l6.66,31.79h.31l7.2-31.79h10.34l7.2,31.79h.31l6.74-31.79h13.25l-14.25,53.62h-11.41l-6.97-31.17h-.31l-6.97,31.17h-11.41Z"/>
          <path d="M405.93,122.17c-4.65,0-8.77-1.2-12.37-3.6-3.6-2.4-6.4-5.72-8.39-9.96-1.99-4.24-2.99-9.04-2.99-14.4s1-10.16,2.99-14.4c1.99-4.24,4.79-7.56,8.39-9.96,3.6-2.4,7.72-3.6,12.37-3.6s8.69,1.2,12.29,3.6c3.6,2.4,6.4,5.73,8.39,10,1.99,4.26,2.99,9.05,2.99,14.36s-.99,10.1-2.99,14.36c-1.99,4.26-4.79,7.6-8.39,10-3.6,2.4-7.7,3.6-12.29,3.6ZM405.93,110.6c2.09,0,3.97-.69,5.63-2.07,1.66-1.38,2.95-3.32,3.87-5.82.92-2.5,1.38-5.34,1.38-8.5s-.46-6-1.38-8.5c-.92-2.5-2.21-4.44-3.87-5.82-1.66-1.38-3.54-2.07-5.63-2.07s-4.05.69-5.71,2.07c-1.66,1.38-2.95,3.31-3.87,5.78-.92,2.48-1.38,5.32-1.38,8.54s.46,6.06,1.38,8.54c.92,2.48,2.21,4.4,3.87,5.78,1.66,1.38,3.56,2.07,5.71,2.07Z"/>
          <path d="M466.07,100.92c2.01-1.42,3.63-3.26,4.85-5.52,1.5-2.78,2.26-5.96,2.26-9.54s-.76-6.9-2.26-9.69c-1.51-2.78-3.61-4.93-6.32-6.47-2.71-1.53-5.92-2.29-9.65-2.29h-17.77v53.61h12.56v-16.85h5.12l6.91,16.85h13.25l-8.95-20.1ZM449.74,78.36h4.44c1.23,0,2.31.29,3.26.88.94.59,1.68,1.43,2.22,2.53.54,1.09.8,2.44.8,4.02s-.26,2.87-.8,4.02c-.54,1.15-1.28,2-2.22,2.56-.95.57-2.03.85-3.26.85h-4.44v-14.86Z"/>
          <path d="M481.68,121.02v-53.62h12.71v41.44h17.85v12.18h-30.56Z"/>
          <path d="M518.36,121.02v-53.62h16.39c4.55,0,8.63,1.19,12.26,3.56,3.63,2.37,6.43,5.6,8.43,9.69,1.99,4.09,2.99,8.6,2.99,13.56s-1,9.47-2.99,13.56c-1.99,4.09-4.8,7.31-8.43,9.69-3.63,2.37-7.71,3.56-12.26,3.56h-16.39ZM534.75,109.84c2.15,0,4.06-.62,5.75-1.88,1.69-1.25,2.97-3.05,3.87-5.4.89-2.35,1.34-5.13,1.34-8.35s-.45-6-1.34-8.35c-.89-2.35-2.18-4.15-3.87-5.4-1.69-1.25-3.6-1.88-5.75-1.88h-3.68v31.25h3.68Z"/>
          <path d="M602,122.17c-4.65,0-8.77-1.2-12.37-3.6-3.6-2.4-6.4-5.72-8.39-9.96-1.99-4.24-2.99-9.04-2.99-14.4s.99-10.16,2.99-14.4c1.99-4.24,4.77-7.56,8.35-9.96,3.57-2.4,7.71-3.6,12.41-3.6,4.24,0,7.9.98,10.99,2.95,3.09,1.97,5.76,4.61,8,7.93l-8.35,6.51c-1.58-1.94-3.13-3.41-4.63-4.4-1.51-1-3.33-1.49-5.48-1.49s-4.24.69-5.97,2.07c-1.74,1.38-3.09,3.33-4.06,5.86-.97,2.53-1.45,5.37-1.45,8.54s.49,6,1.45,8.5c.97,2.5,2.34,4.44,4.1,5.82,1.76,1.38,3.74,2.07,5.94,2.07s3.93-.51,5.51-1.53c1.58-1.02,3.19-2.53,4.83-4.52l8.43,6.59c-2.4,3.37-5.16,6.05-8.27,8.04-3.12,1.99-6.79,2.99-11.03,2.99Z"/>
          <path d="M645.58,122.17c-3.73,0-7.07-.86-10.03-2.57-2.96-1.71-5.27-4.08-6.93-7.12-1.66-3.04-2.49-6.5-2.49-10.38v-34.7h12.72v34.62c0,1.68.28,3.15.84,4.4.56,1.25,1.37,2.22,2.41,2.91,1.05.69,2.21,1.03,3.49,1.03,1.38,0,2.58-.34,3.6-1.03,1.02-.69,1.83-1.65,2.41-2.87.59-1.23.88-2.71.88-4.44v-34.62h12.72v34.7c0,3.88-.83,7.34-2.49,10.38-1.66,3.04-3.98,5.41-6.97,7.12s-6.37,2.57-10.15,2.57Z"/>
          <path d="M674.38,121.02v-53.62h17.16c3.32,0,6.27.61,8.85,1.84,2.58,1.23,4.58,2.92,6.01,5.09,1.43,2.17,2.15,4.58,2.15,7.24,0,1.84-.32,3.52-.96,5.06-.64,1.53-1.49,2.8-2.57,3.79-1.07,1-2.3,1.75-3.68,2.26,2.04.72,3.75,1.72,5.13,3.03,1.38,1.3,2.41,2.83,3.1,4.6.69,1.76,1.03,3.61,1.03,5.55,0,2.86-.75,5.44-2.26,7.74-1.51,2.3-3.66,4.11-6.47,5.44-2.81,1.33-6.13,1.99-9.96,1.99h-17.54ZM691.46,89.08c1.02,0,1.93-.23,2.72-.69.79-.46,1.42-1.15,1.88-2.07s.69-2.02.69-3.29c0-1.89-.49-3.36-1.45-4.4-.97-1.05-2.25-1.57-3.83-1.57h-4.52v12.02h4.52ZM691.84,111.37c1.23,0,2.31-.26,3.25-.77.95-.51,1.67-1.28,2.18-2.3.51-1.02.77-2.25.77-3.68s-.26-2.65-.77-3.68c-.51-1.02-1.24-1.81-2.18-2.37-.95-.56-2.03-.84-3.25-.84h-4.9v13.63h4.9Z"/>
          <path d="M717.81,121.02v-53.62h32.17v11.11h-19.45v10.19h14.63v10.19h-14.63v11.03h20.22v11.11h-32.94Z"/>
          <path d="M314.32,197.61l15.7-53.62h14.09l15.62,53.62h-13.33l-2.76-11.41h-13.48l-2.76,11.41h-13.1ZM332.24,176.47h9.27l-4.44-18.69h-.23l-4.6,18.69Z"/>
          <path d="M378.05,198.76c-2.25,0-4.43-.33-6.55-1-2.12-.66-4.07-1.65-5.86-2.95-1.79-1.3-3.37-2.92-4.75-4.86l7.58-7.51c1.33,1.58,2.74,2.81,4.25,3.68,1.51.87,3.13,1.3,4.86,1.3,1.02,0,1.94-.2,2.76-.61s1.45-.96,1.91-1.65c.46-.69.69-1.47.69-2.34,0-1.07-.32-2.03-.96-2.87-.64-.84-1.47-1.62-2.49-2.34-1.02-.71-2.3-1.51-3.83-2.37-2.6-1.63-4.76-3.1-6.47-4.4-1.71-1.3-3.18-3.03-4.4-5.17s-1.84-4.72-1.84-7.74.69-5.59,2.07-7.89c1.38-2.3,3.33-4.07,5.86-5.32,2.53-1.25,5.5-1.88,8.92-1.88,2.25,0,4.34.31,6.28.92,1.94.61,3.66,1.47,5.17,2.57,1.51,1.1,2.82,2.36,3.95,3.79l-7.89,7.66c-.61-.82-1.25-1.48-1.91-1.99-.66-.51-1.41-.93-2.22-1.26-.82-.33-1.71-.5-2.68-.5-.87,0-1.66.18-2.37.54-.72.36-1.26.84-1.65,1.46-.38.61-.57,1.3-.57,2.07,0,1.07.31,2.03.92,2.87.61.84,1.43,1.63,2.45,2.37,1.02.74,2.27,1.52,3.75,2.34,2.65,1.58,4.84,3.03,6.55,4.33,1.71,1.3,3.19,3.04,4.44,5.21,1.25,2.17,1.88,4.69,1.88,7.54,0,3.17-.79,5.96-2.37,8.39-1.58,2.43-3.73,4.3-6.43,5.63-2.71,1.33-5.72,1.99-9.04,1.99Z"/>
          <path d="M416.34,198.76c-2.25,0-4.43-.33-6.55-1-2.12-.66-4.07-1.65-5.86-2.95-1.79-1.3-3.37-2.92-4.75-4.86l7.58-7.51c1.33,1.58,2.74,2.81,4.25,3.68,1.51.87,3.13,1.3,4.86,1.3,1.02,0,1.94-.2,2.76-.61s1.45-.96,1.91-1.65c.46-.69.69-1.47.69-2.34,0-1.07-.32-2.03-.96-2.87-.64-.84-1.47-1.62-2.49-2.34-1.02-.71-2.3-1.51-3.83-2.37-2.6-1.63-4.76-3.1-6.47-4.4-1.71-1.3-3.18-3.03-4.4-5.17s-1.84-4.72-1.84-7.74.69-5.59,2.07-7.89c1.38-2.3,3.33-4.07,5.86-5.32,2.53-1.25,5.5-1.88,8.92-1.88,2.25,0,4.34.31,6.28.92,1.94.61,3.66,1.47,5.17,2.57,1.51,1.1,2.82,2.36,3.95,3.79l-7.89,7.66c-.61-.82-1.25-1.48-1.91-1.99-.66-.51-1.41-.93-2.22-1.26-.82-.33-1.71-.5-2.68-.5-.87,0-1.66.18-2.37.54-.72.36-1.26.84-1.65,1.46-.38.61-.57,1.3-.57,2.07,0,1.07.31,2.03.92,2.87.61.84,1.43,1.63,2.45,2.37,1.02.74,2.27,1.52,3.75,2.34,2.65,1.58,4.84,3.03,6.55,4.33,1.71,1.3,3.19,3.04,4.44,5.21,1.25,2.17,1.88,4.69,1.88,7.54,0,3.17-.79,5.96-2.37,8.39-1.58,2.43-3.73,4.3-6.43,5.63-2.71,1.33-5.72,1.99-9.04,1.99Z"/>
          <path d="M462.6,198.76c-4.65,0-8.77-1.2-12.37-3.6-3.6-2.4-6.4-5.72-8.39-9.96-1.99-4.24-2.99-9.04-2.99-14.4s.99-10.16,2.99-14.4c1.99-4.24,4.79-7.56,8.39-9.96,3.6-2.4,7.72-3.6,12.37-3.6s8.69,1.2,12.29,3.6c3.6,2.4,6.4,5.73,8.39,10,1.99,4.26,2.99,9.05,2.99,14.36s-1,10.1-2.99,14.36c-1.99,4.26-4.79,7.6-8.39,10-3.6,2.4-7.7,3.6-12.29,3.6ZM462.6,187.19c2.09,0,3.97-.69,5.63-2.07,1.66-1.38,2.95-3.32,3.87-5.82.92-2.5,1.38-5.34,1.38-8.5s-.46-6-1.38-8.5c-.92-2.5-2.21-4.44-3.87-5.82-1.66-1.38-3.54-2.07-5.63-2.07s-4.05.69-5.71,2.07c-1.66,1.38-2.95,3.31-3.87,5.78-.92,2.48-1.38,5.32-1.38,8.54s.46,6.06,1.38,8.54c.92,2.48,2.21,4.4,3.87,5.78,1.66,1.38,3.56,2.07,5.71,2.07Z"/>
          <path d="M515.22,198.76c-4.65,0-8.77-1.2-12.37-3.6-3.6-2.4-6.4-5.72-8.39-9.96-1.99-4.24-2.99-9.04-2.99-14.4s.99-10.16,2.99-14.4c1.99-4.24,4.77-7.56,8.35-9.96,3.57-2.4,7.71-3.6,12.41-3.6,4.24,0,7.9.98,10.99,2.95,3.09,1.97,5.76,4.61,8,7.93l-8.35,6.51c-1.58-1.94-3.13-3.41-4.63-4.4-1.51-1-3.33-1.49-5.48-1.49s-4.24.69-5.97,2.07c-1.74,1.38-3.09,3.33-4.06,5.86-.97,2.53-1.45,5.37-1.45,8.54s.49,6,1.45,8.5c.97,2.5,2.34,4.44,4.1,5.82,1.76,1.38,3.74,2.07,5.94,2.07s3.93-.51,5.51-1.53c1.58-1.02,3.19-2.53,4.83-4.52l8.43,6.59c-2.4,3.37-5.16,6.05-8.27,8.04-3.12,1.99-6.79,2.99-11.03,2.99Z"/>
          <path d="M540.12,197.61v-53.62h12.71v53.62h-12.71Z"/>
          <path d="M557.66,197.61l15.7-53.62h14.09l15.63,53.62h-13.33l-2.76-11.41h-13.48l-2.76,11.41h-13.1ZM575.58,176.47h9.27l-4.44-18.69h-.23l-4.59,18.69Z"/>
          <path d="M612.42,197.61v-41.82h-11.34v-11.8h35.54v11.8h-11.41v41.82h-12.79Z"/>
          <path d="M642.75,197.61v-53.62h12.71v53.62h-12.71Z"/>
          <path d="M686.71,198.76c-4.65,0-8.77-1.2-12.37-3.6-3.6-2.4-6.4-5.72-8.39-9.96-1.99-4.24-2.99-9.04-2.99-14.4s1-10.16,2.99-14.4c1.99-4.24,4.79-7.56,8.39-9.96,3.6-2.4,7.72-3.6,12.37-3.6s8.69,1.2,12.29,3.6c3.6,2.4,6.4,5.73,8.39,10,1.99,4.26,2.99,9.05,2.99,14.36s-.99,10.1-2.99,14.36c-1.99,4.26-4.79,7.6-8.39,10-3.6,2.4-7.7,3.6-12.29,3.6ZM686.71,187.19c2.09,0,3.97-.69,5.63-2.07,1.66-1.38,2.95-3.32,3.87-5.82.92-2.5,1.38-5.34,1.38-8.5s-.46-6-1.38-8.5c-.92-2.5-2.21-4.44-3.87-5.82-1.66-1.38-3.54-2.07-5.63-2.07s-4.05.69-5.71,2.07c-1.66,1.38-2.95,3.31-3.87,5.78-.92,2.48-1.38,5.32-1.38,8.54s.46,6.06,1.38,8.54c.92,2.48,2.21,4.4,3.87,5.78,1.66,1.38,3.56,2.07,5.71,2.07Z"/>
          <path d="M717.96,197.61v-53.62h10.65l18.23,30.56h.23v-30.56h12.18v53.62h-10.65l-18.23-30.56h-.31v30.56h-12.1Z"/>
        </g>
        <g>
          <path d="M773.74,158.76c-4.13,0-7.49-3.36-7.49-7.49s3.36-7.49,7.49-7.49,7.49,3.36,7.49,7.49-3.36,7.49-7.49,7.49ZM773.74,145.44c-3.21,0-5.83,2.61-5.83,5.83s2.61,5.83,5.83,5.83,5.83-2.61,5.83-5.83-2.61-5.83-5.83-5.83Z"/>
          <path d="M773.33,150.67c.42,0,.71-.08.89-.24.18-.15.28-.4.28-.77s-.1-.6-.28-.76c-.18-.15-.48-.22-.89-.22h-.85v1.99h.85ZM772.49,152.05v2.93h-2v-7.75h3.05c1.02,0,1.77.18,2.24.52.48.34.71.88.71,1.62,0,.51-.12.93-.37,1.26-.25.33-.62.57-1.12.72.28.07.52.21.74.43.22.22.43.55.65,1l1.09,2.2h-2.13l-.95-1.93c-.19-.39-.39-.65-.58-.79-.19-.14-.46-.22-.78-.22h-.56,0Z"/>
        </g>
      </g>
      <g>
        <path class="cls-3" d="M133.56,30.24c0-10.36,0-14.42,0-30.24,54.64-.09,94.51,33.29,113.09,65.54-23.4,13.62-25.97,15.1-25.97,15.1-17.16-29.36-49.86-50.05-87.12-50.4Z"/>
        <path class="cls-3" d="M45.42,183.1v-99.57l86.08,49.71-.09,99.1c-28.81-16.17-85.99-49.24-85.99-49.24Z"/>
        <path class="cls-5" d="M221.75,182.97c18.8-33.94,15.82-72.04-.02-100.5.21-.53,17.35-10.02,25.97-15.1,26.55,48.63,18.93,98.09.07,130.67-10.56-5.92-16.11-9.22-26.04-15.07h0Z"/>
        <path class="cls-1" d="M16.97,67.63l26.1,14.66c-18.24,36.63-16.53,64.4-.14,100.64l-25.99,14.89c-26.14-47.09-18.73-97.02.04-130.19Z"/>
        <path class="cls-1" d="M133.56,133.24c29.1-16.97,85.86-49.31,85.86-49.31-.35,66.47.03,4.23-.11,99.2-28.2,16.79-54.55,31.62-85.8,49.21-.16-20.85.06-24.17.06-99.1h0Z"/>
        <path class="cls-2" d="M18.23,65.45C38.29,29.11,82.83-.1,131.3,0v30.24c-41.44,1.48-70.1,22.5-87.16,50.22-9.87-5.71-14.68-8.54-25.91-15.01Z"/>
        <path class="cls-7" d="M43.99,184.77c19.11,31.82,52.83,50.06,87.38,50.49l.12,29.74c-45.36.28-89.69-24.37-113.44-65.25l25.94-14.99h0Z"/>
        <path class="cls-6" d="M46.75,81.85l85.68-49.35,85.82,49.57-85.73,49.29-85.78-49.51Z"/>
        <path class="cls-6" d="M133.44,265.01c-.08-11.53-.02-19.48.06-29.74,40.87,0,74.69-27.52,87.15-50.38,11.23,6.48,15.42,8.92,26.05,15.05-36.63,62.87-103.86,65.07-113.26,65.07Z"/>
        <path class="cls-4" d="M111.9,195.79c0-5.83-.08-6.79-.66-7.46-.36-.43-8.03-4.79-17.05-9.7-17.84-9.73-19.52-10.73-21.88-13.08-2.88-2.86-2.89-2.93-3.03-17.53-.13-12.53-.11-12.95.62-13.48,1.51-1.1,1.26-1.22,23.09,10.84,19.11,10.56,18.11,10.05,18.56,9.33.19-.3.34-3.53.35-7.19,0-5.79-.08-6.74-.65-7.4-.77-.88-35.95-20.4-38.72-21.49-6.41-2.52-10.45-1.45-12.56,3.32-1.3,2.94-1.55,6.11-1.54,20.15,0,18.34.76,23.21,4.59,29.76,1.87,3.19,7.04,8.46,10.51,10.72,1.38.9,10.36,5.91,19.96,11.14,12.76,6.95,17.6,9.42,17.94,9.14.34-.28.47-2.18.47-7.08h0Z"/>
        <path class="cls-4" d="M117.42,108.86c.84-.43,1.78-1.18,2.09-1.65.31-.48,3.23-5.99,6.5-12.27,3.26-6.26,6.05-11.4,6.19-11.4s2.97,5.27,6.27,11.71c4.13,8.05,6.39,12.05,7.23,12.79,2.5,2.22,7.22,2.44,10.06.47,1.41-.98,2.34-2.67,12-21.9,5.77-11.46,10.39-21.08,10.28-21.37-.16-.43-1.39-.53-6.34-.53-3.38,0-6.33.13-6.56.28s-3.51,6.45-7.28,13.98c-3.81,7.62-6.99,13.56-7.17,13.37-.17-.18-2.9-5.33-6.06-11.44-3.16-6.11-6.16-11.68-6.67-12.38-2.53-3.42-8.6-3.52-11.4-.19-.51.61-3.64,6.31-6.95,12.67-3.31,6.36-6.12,11.57-6.23,11.57s-3.16-5.98-6.76-13.27c-3.61-7.31-6.81-13.58-7.11-13.94-.48-.58-1.28-.66-6.42-.65-3.23,0-6.11.15-6.4.34-.58.37,2.37,6.83,13.64,29.78,6.06,12.36,6.83,13.53,9.54,14.54,1.95.73,5.57.47,7.53-.53h0Z"/>
        <path class="cls-4" d="M182.69,124.69c-.24,0-.51.06-.79.12-1.47.32-3.7,2.56-4.71,4.71-.43.92-4.53,12.28-9.09,25.22-4.57,12.95-10.28,29.1-12.68,35.9-2.4,6.8-4.26,12.52-4.14,12.73.23.37,3.45-1.24,8.26-4.15l2.26-1.36,3.39-9.79,3.39-9.79,12.04-6.69c6.63-3.68,12.17-6.68,12.31-6.68s1.49,2.21,2.98,4.92c1.49,2.7,3.01,5.28,3.36,5.72l.65.81,4.28-2.44c2.35-1.34,4.34-2.71,4.41-3.05.06-.34-3.68-7.79-8.32-16.57-4.64-8.77-9.93-18.79-11.76-22.28-3.15-5.99-4.15-7.41-5.87-7.32h0ZM180.97,143.18c.53.17,6.7,11.55,6.46,11.93-.21.34-11.43,6.51-12.71,7-.51.19.06-1.87,2.63-9.4,1.81-5.3,3.43-9.59,3.61-9.53Z"/>
      </g>
    </g>
  </g>
</svg>