<?xml version="1.0" encoding="UTF-8" standalone="no"?>
<svg
   width="265"
   height="265"
   viewBox="0 0 265 265"
   fill="none"
   version="1.1"
   id="svg14"
   sodipodi:docname="WCA Logo.svg"
   inkscape:version="1.4.2 (f4327f4, 2025-05-13)"
   inkscape:export-filename="WCA Logo.png"
   inkscape:export-xdpi="741.91699"
   inkscape:export-ydpi="741.91699"
   xmlns:inkscape="http://www.inkscape.org/namespaces/inkscape"
   xmlns:sodipodi="http://sodipodi.sourceforge.net/DTD/sodipodi-0.dtd"
   xmlns="http://www.w3.org/2000/svg"
   xmlns:svg="http://www.w3.org/2000/svg">
  <defs
     id="defs14" />
  <sodipodi:namedview
     id="namedview14"
     pagecolor="#ffffff"
     bordercolor="#000000"
     borderopacity="0.25"
     inkscape:showpageshadow="2"
     inkscape:pageopacity="0.0"
     inkscape:pagecheckerboard="0"
     inkscape:deskcolor="#d1d1d1"
     inkscape:zoom="1.4142136"
     inkscape:cx="-190.56528"
     inkscape:cy="282.48916"
     inkscape:window-width="2560"
     inkscape:window-height="1369"
     inkscape:window-x="-8"
     inkscape:window-y="1432"
     inkscape:window-maximized="1"
     inkscape:current-layer="svg14" />
  <path
     d="M133.752 30.1771V0.000183228C188.323 -0.0901669 228.077 33.249 246.599 65.4137C223.198 78.9662 220.669 80.5022 220.669 80.5022C203.502 51.2287 170.886 30.5385 133.752 30.1771Z"
     fill="#FFD313"
     id="path1" />
  <path
     d="M45.7507 182.688V83.3032L131.674 132.905V231.839C102.852 215.666 45.7507 182.688 45.7507 182.688Z"
     fill="#FFD313"
     id="path2" />
  <path
     d="M221.753 182.598C240.546 148.717 237.564 110.679 221.753 82.3092C221.934 81.7671 239.1 72.2803 247.683 67.2207C274.156 115.739 266.567 165.16 247.683 197.596C237.112 191.723 231.601 188.38 221.663 182.507L221.753 182.598Z"
     fill="#FF5800"
     id="path3" />
  <path
     d="M17.3809 67.4917L43.4017 82.1284C25.2413 118.72 26.8676 146.367 43.221 182.598L17.2905 197.415C-8.82069 150.433 -1.41198 100.56 17.2905 67.4917H17.3809Z"
     fill="#C62535"
     id="path4" />
  <path
     d="M133.752 132.996C162.754 116.1 219.404 83.7549 219.404 83.7549C219.042 150.072 219.404 88.0013 219.313 182.779C191.214 199.493 164.832 214.311 133.661 231.929C133.481 211.149 133.661 207.806 133.661 132.996H133.752Z"
     fill="#C62535"
     id="path5" />
  <path
     d="M18.6458 65.3234C38.7035 29.0026 83.1558 -0.0901403 131.493 0.000209873V30.1772C90.1127 31.6228 61.5621 52.6743 44.4859 80.3215C34.6377 74.6294 29.8492 71.8286 18.6458 65.3234Z"
     fill="#029347"
     id="path6" />
  <path
     d="M44.3052 184.405C63.3691 216.208 97.0697 234.368 131.493 234.82V264.455C86.3181 264.726 42.1368 240.151 18.3748 199.313L44.3052 184.314V184.405Z"
     fill="#EEEEEE"
     id="path7" />
  <path
     d="M47.106 81.6764L132.577 32.4355L218.229 81.8571L132.668 131.098L47.0156 81.6764H47.106Z"
     fill="#0051BA"
     id="path8" />
  <path
     d="M133.662 264.455V234.73C174.41 234.73 208.2 207.263 220.669 184.495C231.872 191 236.028 193.44 246.69 199.493C210.098 262.196 143.058 264.455 133.662 264.455Z"
     fill="#0051BA"
     id="path9" />
  <path
     d="M112.158 195.428C112.158 189.645 112.158 188.651 111.526 188.019C111.164 187.567 103.485 183.23 94.5399 178.351C76.7409 168.684 75.0243 167.6 72.6752 165.251C70.7477 163.323 69.7237 157.481 69.6032 147.723C69.5129 135.254 69.5129 134.803 70.2357 134.261C71.7717 133.176 71.5006 132.996 93.275 145.103C112.339 155.674 111.345 155.131 111.797 154.409C111.977 154.138 112.158 150.885 112.158 147.271C112.158 141.489 112.158 140.585 111.526 139.862C110.803 138.959 75.6567 119.534 72.8559 118.449C66.441 115.919 62.4656 117.004 60.2972 121.792C59.0323 124.774 58.7612 127.936 58.7612 141.94C58.7612 160.281 59.484 165.07 63.3691 171.666C65.2664 174.828 70.4164 180.068 73.8497 182.327C75.205 183.23 84.1496 188.2 93.8171 193.44C106.556 200.397 111.345 202.836 111.706 202.565C112.068 202.294 112.158 200.397 112.158 195.518V195.428Z"
     fill="white"
     id="path10" />
  <path
     d="M117.67 108.601C118.483 108.149 119.477 107.427 119.748 106.975C120.019 106.523 123 101.012 126.253 94.7776C129.506 88.5434 132.306 83.3934 132.397 83.3934C132.487 83.3934 135.378 88.6337 138.631 95.0486C142.787 103.09 145.046 107.065 145.859 107.788C148.389 109.956 153.087 110.227 155.888 108.24C157.333 107.246 158.237 105.529 167.904 86.375C173.687 74.9005 178.295 65.3234 178.204 65.0524C178.024 64.6006 176.849 64.5103 171.88 64.5103C168.537 64.5103 165.555 64.6006 165.375 64.7813C165.103 64.962 161.851 71.1962 158.147 78.6952C154.352 86.2846 151.19 92.2477 151.009 92.067C150.828 91.8863 148.118 86.7364 144.955 80.6829C141.793 74.5391 138.812 69.0278 138.269 68.305C135.74 64.8717 129.686 64.7813 126.885 68.1243C126.343 68.7567 123.271 74.4488 119.928 80.7733C116.585 87.0978 113.785 92.3381 113.694 92.3381C113.604 92.3381 110.532 86.375 106.918 79.0566C103.304 71.7383 100.142 65.5041 99.7803 65.1427C99.3286 64.6006 98.5154 64.5103 93.3655 64.5103C90.1129 64.5103 87.2217 64.691 86.9506 64.8717C86.4085 65.2331 89.2997 71.6479 100.593 94.5968C106.647 106.884 107.37 108.059 110.08 109.143C111.978 109.866 115.682 109.595 117.579 108.601H117.67Z"
     fill="white"
     id="path11" />
  <path
     d="M182.812 124.413C182.541 124.413 182.27 124.413 181.999 124.503C180.553 124.864 178.295 127.033 177.301 129.201C176.849 130.105 172.783 141.489 168.266 154.409C163.748 167.329 158.056 183.411 155.617 190.188C153.177 196.964 151.37 202.656 151.461 202.927C151.732 203.288 154.894 201.662 159.682 198.771L161.941 197.416L165.284 187.658L168.627 177.9L180.644 171.214C187.239 167.51 192.751 164.528 192.931 164.528C193.112 164.528 194.377 166.696 195.913 169.407C197.358 172.117 198.894 174.647 199.256 175.099L199.888 175.912L204.135 173.473C206.484 172.117 208.471 170.762 208.562 170.401C208.562 170.039 204.857 162.631 200.25 153.867C195.642 145.103 190.311 135.074 188.504 131.641C185.342 125.678 184.348 124.232 182.631 124.322L182.812 124.413ZM181.095 142.844C181.637 143.025 187.781 154.409 187.51 154.77C187.33 155.132 176.126 161.275 174.861 161.727C174.319 161.908 174.861 159.83 177.481 152.331C179.288 147 180.915 142.754 181.095 142.844Z"
     fill="white"
     id="path12" />
  <path
     style="baseline-shift:baseline;display:inline;overflow:visible;vector-effect:none;fill:#000000;stroke-miterlimit:10;enable-background:accumulate;stop-color:#000000;stop-opacity:1;opacity:1"
     d="m 242.80469,231.2207 c -6.16372,0 -11.18946,5.02486 -11.18946,11.18946 0,6.16459 5.02589,11.1875 11.18946,11.1875 6.16444,0 11.1875,-5.02291 11.1875,-11.1875 0,-6.1646 -5.02291,-11.18946 -11.1875,-11.18946 z m 0,2.5 c 4.8134,0 8.6875,3.87605 8.6875,8.68946 0,4.8134 -3.87394,8.6875 -8.6875,8.6875 -4.81244,0 -8.68946,-3.8741 -8.68946,-8.6875 0,-4.81341 3.87717,-8.68946 8.68946,-8.68946 z"
     id="path13" />
  <path
     d="m 242.172,241.506 c 0.632,0 1.084,-0.09 1.355,-0.361 0.271,-0.181 0.452,-0.633 0.452,-1.175 0,-0.542 -0.181,-0.903 -0.452,-1.174 -0.271,-0.181 -0.723,-0.362 -1.355,-0.362 h -1.265 v 3.072 m 0,6.505 h -2.981 v -11.564 h 4.607 c 1.536,0 2.621,0.271 3.343,0.813 0.723,0.542 1.085,1.355 1.085,2.439 0,1.084 -0.181,1.355 -0.543,1.897 -0.361,0.452 -0.903,0.814 -1.716,1.085 0.452,0.09 0.813,0.271 1.084,0.632 0.271,0.362 0.632,0.813 0.994,1.536 l 1.626,3.253 h -3.162 l -1.446,-2.892 c -0.271,-0.542 -0.542,-0.993 -0.903,-1.174 -0.271,-0.181 -0.723,-0.361 -1.175,-0.361 h -0.813"
     fill="#000000"
     id="path14"
     sodipodi:nodetypes="ccscscccccscsccccccscsc" />
</svg>
