<?xml version="1.0" encoding="UTF-8" standalone="no"?>
<!-- Created with Inkscape (http://www.inkscape.org/) -->
<svg
   xmlns:dc="http://purl.org/dc/elements/1.1/"
   xmlns:cc="http://creativecommons.org/ns#"
   xmlns:rdf="http://www.w3.org/1999/02/22-rdf-syntax-ns#"
   xmlns:svg="http://www.w3.org/2000/svg"
   xmlns="http://www.w3.org/2000/svg"
   xmlns:sodipodi="http://sodipodi.sourceforge.net/DTD/sodipodi-0.dtd"
   xmlns:inkscape="http://www.inkscape.org/namespaces/inkscape"
   width="650.13538"
   height="349.49762"
   id="svg2"
   sodipodi:version="0.32"
   inkscape:version="0.46+devel"
   sodipodi:docname="WCAlogo.svg"
   inkscape:output_extension="org.inkscape.output.svg.inkscape"
   version="1.0">
  <defs
     id="defs4">
    <inkscape:perspective
       sodipodi:type="inkscape:persp3d"
       inkscape:vp_x="0 : 526.18109 : 1"
       inkscape:vp_y="0 : 1000 : 0"
       inkscape:vp_z="744.09448 : 526.18109 : 1"
       inkscape:persp3d-origin="372.04724 : 350.78739 : 1"
       id="perspective10" />
    <inkscape:perspective
       id="perspective2708"
       inkscape:persp3d-origin="0.5 : 0.33333333 : 1"
       inkscape:vp_z="1 : 0.5 : 1"
       inkscape:vp_y="0 : 1000 : 0"
       inkscape:vp_x="0 : 0.5 : 1"
       sodipodi:type="inkscape:persp3d" />
  </defs>
  <sodipodi:namedview
     id="base"
     pagecolor="#ffffff"
     bordercolor="#666666"
     borderopacity="1.0"
     gridtolerance="10000"
     guidetolerance="10"
     objecttolerance="10"
     inkscape:pageopacity="0.0"
     inkscape:pageshadow="2"
     inkscape:zoom="0.49497475"
     inkscape:cx="880.50941"
     inkscape:cy="-106.135"
     inkscape:document-units="px"
     inkscape:current-layer="layer1"
     showgrid="false"
     showguides="true"
     inkscape:guide-bbox="true"
     inkscape:window-width="1280"
     inkscape:window-height="951"
     inkscape:window-x="0"
     inkscape:window-y="25" />
  <metadata
     id="metadata7">
    <rdf:RDF>
      <cc:Work
         rdf:about="">
        <dc:format>image/svg+xml</dc:format>
        <dc:type
           rdf:resource="http://purl.org/dc/dcmitype/StillImage" />
      </cc:Work>
    </rdf:RDF>
  </metadata>
  <g
     inkscape:label="Layer 1"
     inkscape:groupmode="layer"
     id="layer1"
     transform="translate(-263.70617,488.30889)">
    <g
       id="g3312"
       transform="matrix(0.49998915,0,0,0.49998915,301.61776,-244.85439)">
      <g
         transform="translate(-230.31478,1179.8582)"
         id="g3279">
        <path
           sodipodi:nodetypes="cssscccccccccccc"
           style="opacity:1;fill:#eeeeec;fill-opacity:1;stroke:none"
           d="m 801.58482,-1666.5447 c -161.98402,0 -292.6875,131.0294 -292.6875,293.0135 0,161.9839 130.07148,292.2493 292.0555,292.2493 161.98403,0 293.18498,-129.7603 293.18498,-291.7442 0,-161.9841 -130.32341,-293.5632 -292.30744,-293.5632 l -0.24554,0.045 0,-4e-4 0,0 0,0 0,0 z m -0.0223,66.5479 c 125.18216,0 226.14998,101.2834 226.14998,226.4656 0,125.182 -100.96782,226.5287 -226.14998,226.5287 -125.18214,0 -226.78125,-101.3467 -226.78125,-226.5287 0,-125.1822 101.59911,-226.4656 226.78125,-226.4656 l 0,0 z"
           id="path3273" />
        <path
           style="opacity:1;fill:#eeeeec;fill-opacity:1;stroke:none"
           d="m 609.37452,-1484.3834 c 0,0 192.20092,-110.6113 192.20092,-110.6113 0,0 191.47848,110.716 191.47848,110.716 l -0.32651,221.8764 -191.67644,110.8642 -191.92898,-110.8643 0.25253,-221.981 z"
           id="rect2804"
           sodipodi:nodetypes="ccccccc" />
        <path
           id="path2730"
           d="m 703.30295,-1207.9212 -94.03974,-54.3527 -0.21125,-109.3022 c -0.11609,-60.1163 0.0711,-109.5624 0.41609,-109.8803 0.45465,-0.419 157.67227,89.7658 186.86521,107.1915 l 3.0899,1.8444 0,109.4637 c 0,87.0364 -0.21309,109.4561 -1.04028,109.426 -0.57215,-0.022 -43.35815,-24.4964 -95.08002,-54.3904 l 9e-5,0 0,0 z m 52.84536,-26.306 c 0,-12.8794 -0.18785,-15.0047 -1.45637,-16.4848 -0.80099,-0.9346 -17.74687,-10.5804 -37.65751,-21.4352 -39.42884,-21.4957 -43.11734,-23.7008 -48.34577,-28.9025 -6.35668,-6.3241 -6.38498,-6.4874 -6.709,-38.716 -0.27837,-27.6876 -0.23649,-28.6061 1.36101,-29.7755 3.33671,-2.4428 2.77429,-2.7068 51.01484,23.9423 42.21421,23.3199 40.0044,22.2086 41.00746,20.6232 0.4179,-0.6605 0.7656,-7.8068 0.77262,-15.8805 0.0123,-12.806 -0.17306,-14.891 -1.44365,-16.3366 -1.69762,-1.9317 -79.42814,-45.0687 -85.54321,-47.4727 -14.15961,-5.5667 -23.08701,-3.2054 -27.74994,7.3399 -2.87751,6.5075 -3.41206,13.5011 -3.4028,44.5182 0.0123,40.5305 1.67261,51.2887 10.14752,65.7446 4.12576,7.0375 15.55061,18.6858 23.22072,23.675 3.0309,1.9715 22.87912,13.0527 44.10716,24.6248 28.1953,15.3702 38.87673,20.8086 39.63666,20.1809 0.76092,-0.6286 1.04026,-4.8295 1.04026,-15.6451 l 0,0 0,0 z m 235.38989,-261.9477 c -15.00636,-23.1743 -32.86328,-42.2194 -55.21635,-58.8908 -35.35999,-26.3721 -77.9656,-41.8143 -122.33494,-44.3397 l -9.98652,-0.5685 -0.21772,-33.1027 c -0.18261,-27.7819 -0.0308,-33.1749 0.94978,-33.5508 1.8405,-0.7063 26.38902,1.204 39.21396,3.0515 17.14401,2.4696 32.14504,6.0774 49.93264,12.009 17.90299,5.97 28.37776,10.4017 44.40814,18.7883 38.15806,19.9633 71.47331,48.4035 97.94071,83.609 7.5964,10.1042 18.0119,26.1193 17.6592,27.1532 -0.239,0.7005 -56.19161,33.1558 -57.10447,33.1234 -0.29778,-0.01 -2.65807,-3.2874 -5.24453,-7.2819 l 10e-5,0 0,0 z"
           style="fill:#ddda45"
           sodipodi:nodetypes="ccccscccssscsssssssssssscccsssscssccsssssssccc" />
        <path
           id="path2726"
           d="m 1027.4489,-1245.0603 c -14.8758,-8.6434 -27.3701,-16.215 -27.76516,-16.8258 -0.47503,-0.7345 0.82856,-4.1999 3.84836,-10.2307 31.9468,-63.8001 31.9618,-139.1599 0.041,-202.9098 -2.4894,-4.9714 -4.35769,-9.4779 -4.15183,-10.0142 0.45369,-1.1825 54.36493,-32.3136 56.19253,-32.4485 3.79,-0.2799 21.4051,40.0086 28.059,64.1751 7.7557,28.1685 10.6703,49.9031 10.6878,79.7019 0.018,29.6612 -2.8999,51.4164 -10.6878,79.7019 -6.4493,23.424 -24.0145,63.9125 -27.9425,64.4092 -0.6789,0.086 -13.4055,-6.9158 -28.2812,-15.5591 l 10e-5,0 0,0 z"
           style="fill:#e7762a"
           sodipodi:nodetypes="cssscsscccsss" />
        <path
           id="path2724"
           d="m 803.5843,-1262.8518 0,-109.3591 8.53015,-4.9748 c 46.12023,-26.8973 180.67044,-104.1863 180.92751,-103.9292 0.18261,0.1825 0.3517,49.3057 0.37581,109.1627 0.0354,89.5275 -0.15243,109.0172 -1.06304,109.881 -0.60883,0.5776 -38.93099,22.8655 -85.16025,49.5288 -46.2293,26.6633 -88.16292,50.8572 -93.18586,53.7642 -5.02296,2.9071 -9.4233,5.2856 -9.77848,5.2856 -0.35524,0 -0.64584,-49.2116 -0.64584,-109.3592 z m 57.8386,36.1909 4.99325,-3.005 7.48994,-21.6244 7.48987,-21.6245 26.61348,-14.7718 c 14.63741,-8.1244 26.87858,-14.7717 27.20257,-14.7717 0.32395,0 3.28055,4.8844 6.57015,10.8541 3.28963,5.9697 6.63229,11.6583 7.42828,12.6413 l 1.44723,1.7872 9.46808,-5.3757 c 5.20736,-2.9567 9.58642,-5.9912 9.73134,-6.7433 0.14473,-0.7521 -8.12365,-17.2226 -18.37445,-36.601 -10.25077,-19.3784 -21.94483,-41.5295 -25.98685,-49.2246 -7.95376,-15.1424 -9.69987,-17.0351 -14.7018,-15.9364 -3.23279,0.71 -8.17517,5.6546 -10.40105,10.4057 -0.95594,2.0405 -9.99552,27.1158 -20.08792,55.723 -10.0924,28.6072 -22.69592,64.2922 -28.00783,79.2998 -5.31191,15.0076 -9.42534,27.6631 -9.14102,28.1232 0.50533,0.8176 7.61795,-2.7475 18.26673,-9.1559 l 0,0 0,0 z m 39.33889,-102.7525 c 3.99568,-11.7121 7.58728,-21.1914 7.98129,-21.0652 1.17232,0.3758 14.79402,25.5243 14.27761,26.3598 -0.46401,0.7508 -25.23653,14.3861 -28.08432,15.4582 -1.12476,0.4234 0.14873,-4.1138 5.82542,-20.7528 z m -360.78375,87.4984 c -13.60387,-27.3665 -22.31747,-54.0227 -27.20993,-83.2395 -2.8037,-16.7431 -3.78625,-29.5233 -3.78625,-49.2488 0,-38.5961 7.00259,-74.6305 21.35562,-109.893 3.65676,-8.9839 14.69161,-31.7941 16.03244,-33.1408 0.54361,-0.5459 54.24245,29.5853 56.96316,31.9629 0.40017,0.3497 -1.33578,4.69 -3.85772,9.6451 -11.86779,23.3179 -19.6705,49.3288 -23.17354,77.2505 -1.50345,11.9835 -1.28749,40.1818 0.40365,52.7096 3.69889,27.4005 11.60673,53.0428 23.31033,75.5872 2.99441,5.768 3.58636,7.5393 2.78085,8.3209 -1.75131,1.6995 -54.5506,31.9049 -55.76992,31.9049 -0.65358,0 -3.70896,-5.1405 -7.04869,-11.859 l 0,0 0,0 z"
           style="fill:#e02826"
           sodipodi:nodetypes="ccscssssccccccsscccsssssssscccscsccscssssssssscccss" />
        <path
           id="path2722"
           d="m 578.49229,-1504.6734 c -15.07588,-8.6957 -27.9026,-16.3022 -28.50383,-16.9035 -0.90269,-0.9026 -0.13734,-2.6004 4.39302,-9.7458 39.89536,-62.9226 104.27736,-109.0481 177.07622,-126.8636 20.39435,-4.9909 39.64581,-7.6563 58.81123,-8.1424 l 8.73821,-0.2216 0,33.2884 0,33.2884 -9.98653,0.5768 c -40.47177,2.3373 -78.82645,15.0843 -112.09723,37.255 -14.83246,9.8839 -23.267,16.7606 -35.22773,28.7213 -11.6366,11.6366 -18.70253,20.2476 -28.01799,34.1444 -3.68186,5.4926 -6.93737,10.0825 -7.23444,10.1998 -0.29716,0.1172 -12.87501,-6.9014 -27.95093,-15.5971 l 0,-10e-5 0,0 z"
           style="fill:#3d9c46"
           sodipodi:nodetypes="cscccccssssccccc" />
        <path
           id="path2716"
           d="m 322.94366,-968.96017 c -0.22172,-0.5777 -0.30363,-11.90617 -0.18199,-25.17435 l 0.2211,-24.12398 24.55018,0 c 27.23654,0 29.7319,0.3942 34.5891,5.464 2.13461,2.2281 2.44689,3.2197 2.68139,8.5154 0.34566,7.80546 -1.20947,10.97885 -6.77046,13.81575 -3.44773,1.75886 -5.5727,2.12771 -14.56369,2.528 -8.56385,0.38126 -10.52697,0.69998 -10.52697,1.70922 0,0.72563 5.5052,4.43431 13.26111,8.93365 7.29356,4.2311 13.64125,8.07315 14.10596,8.53783 0.57169,0.57172 -1.77712,0.84489 -7.26449,0.84489 l -8.10936,0 -15.01232,-8.80059 c -8.25683,-4.84029 -15.54285,-8.59698 -16.19119,-8.34819 -0.90857,0.34862 -1.17885,2.3663 -1.17885,8.80056 l 0,8.34822 -4.60328,0 c -2.93858,0 -4.74902,-0.37987 -5.00633,-1.05041 z m 48.98625,-28.20153 c 2.5608,-1.34785 3.03885,-2.31799 3.05335,-6.1961 0.009,-2.4172 -0.49597,-3.8687 -1.73721,-4.9932 -1.58814,-1.4388 -3.43976,-1.61 -20.02507,-1.8522 -13.27527,-0.1937 -18.60245,0.01 -19.47143,0.7261 -0.78841,0.6544 -1.19628,2.6372 -1.19628,5.8161 0,8.01862 -1.45489,7.4561 19.28459,7.4561 12.16034,0 18.88246,-0.32013 20.09205,-0.9568 z m 467.43943,28.83665 c 0,-1.19212 33.64344,-48.81655 34.99755,-49.54125 2.36098,-1.2635 5.36977,-0.955 7.57095,0.7764 1.83656,1.4447 33.99487,47.48567 33.99487,48.67044 0,0.72391 -9.38663,0.60984 -10.4651,-0.12718 -0.49212,-0.33627 -2.44505,-2.91213 -4.33995,-5.72411 -5.65034,-8.38497 -3.8916,-7.78824 -22.91192,-7.77383 -9.23605,0.006 -17.28628,0.32565 -17.88941,0.70805 -0.6031,0.38246 -3.05668,3.46633 -5.45242,6.85302 l -4.35591,6.15769 -5.57433,0.24605 c -3.06588,0.13518 -5.57433,0.0246 -5.57433,-0.24543 z m 48.69799,-22.90871 c 0.75079,-1.21485 -8.78033,-14.95774 -10.37367,-14.95774 -1.5239,0 -10.02977,12.17504 -10.0294,14.35572 2.2e-4,1.30566 1.02834,1.45631 9.93763,1.45631 5.89869,0 10.15202,-0.34717 10.46544,-0.85429 z m 32.02642,19.28269 0,-4.17853 21.55174,-0.25929 c 19.81703,-0.23834 21.69257,-0.3868 23.30186,-1.84456 1.26425,-1.1452 1.75018,-2.58399 1.75018,-5.18211 0,-5.91651 -1.5357,-6.45729 -19.93567,-7.01943 -17.09164,-0.52221 -20.79505,-1.41462 -24.59065,-5.92551 -1.74692,-2.07604 -2.07746,-3.32606 -2.07746,-7.8557 0,-10.6704 4.15214,-13.6241 20.07425,-14.2799 l 9.8853,-0.4071 0,4.2753 0,4.2753 -6.44962,0.01 c -8.41529,0.01 -12.54289,1.1612 -13.54246,3.7903 -0.94649,2.4896 0.1438,5.7109 2.24386,6.62932 0.83603,0.36564 8.44828,0.90617 16.91602,1.20124 13.02411,0.45384 15.97288,0.80018 19.14085,2.24842 6.23932,2.85218 7.82965,5.22772 8.18283,12.22295 0.42286,8.37289 -1.05054,11.67709 -6.28223,14.08832 -3.74553,1.72625 -5.34772,1.85143 -27.07495,2.11475 l -23.09385,0.27992 0,-4.17854 z m 62.41577,0 0,-4.17853 21.55178,-0.25929 c 19.817,-0.23834 21.6926,-0.3868 23.3018,-1.84456 1.2643,-1.1452 1.7502,-2.58399 1.7502,-5.18211 0,-5.91651 -1.5357,-6.45729 -19.9357,-7.01943 -17.09158,-0.52221 -20.79499,-1.41462 -24.59063,-5.92551 -1.74688,-2.07604 -2.07745,-3.32606 -2.07745,-7.8557 0,-10.6704 4.15214,-13.6241 20.07428,-14.2799 l 9.8853,-0.4071 0,4.2753 0,4.2753 -6.4496,0.01 c -8.41534,0.01 -12.54294,1.1612 -13.54252,3.7903 -0.94648,2.4896 0.14381,5.7109 2.24387,6.62932 0.83603,0.36564 8.44835,0.90617 16.91605,1.20124 13.0241,0.45384 15.9728,0.80018 19.1408,2.24842 6.2393,2.85218 7.8297,5.22772 8.1829,12.22295 0.4228,8.37289 -1.0506,11.67709 -6.2823,14.08832 -3.7455,1.72625 -5.3477,1.85143 -27.0749,2.11475 l -23.09388,0.27992 0,-4.17854 z m 204.72368,3.62602 c 0,-1.19212 33.6435,-48.81655 34.9976,-49.54125 1.9691,-1.0538 4.4046,-1.0248 6.7818,0.081 1.6147,0.7509 34.784,47.82548 34.784,49.36608 0,0.7239 -9.3866,0.60984 -10.4651,-0.12718 -0.492,-0.33624 -2.4451,-2.91213 -4.3399,-5.72412 -5.6504,-8.38493 -3.8916,-7.78823 -22.9119,-7.77379 -9.2361,0.006 -17.2863,0.32562 -17.8895,0.70808 -0.6031,0.38243 -3.0567,3.46626 -5.4524,6.85296 l -4.3558,6.15769 -5.5744,0.24605 c -3.0659,0.13518 -5.5744,0.0246 -5.5744,-0.24543 z m 48.698,-22.90871 c 0.7508,-1.21485 -8.7803,-14.95774 -10.3737,-14.95774 -1.5238,0 -10.0298,12.17504 -10.0293,14.35572 2e-4,1.30566 1.0283,1.45631 9.9376,1.45631 5.8987,0 10.152,-0.34717 10.4654,-0.85429 z m 157.4502,22.80657 c -0.3257,-0.32571 -0.5922,-11.33207 -0.5922,-24.45861 0,-22.0645 0.1149,-23.9704 1.5219,-25.2437 1.7791,-1.6101 4.8062,-1.7367 7.3534,-0.3076 0.991,0.5559 10.4827,8.3134 21.093,17.2388 10.6102,8.92546 19.9108,16.22811 20.668,16.22811 1.2296,0 1.4009,-1.85094 1.6019,-17.30941 l 0.2251,-17.3094 4.7681,0.2491 4.7683,0.2492 0,24.40989 c 0,23.20286 -0.08,24.46831 -1.6155,25.5905 -0.8885,0.64929 -2.448,1.18055 -3.4655,1.18055 -1.204,0 -9.359,-6.39019 -23.3509,-18.29762 -11.8254,-10.06366 -21.8753,-18.17812 -22.333,-18.03212 -0.5032,0.1604 -0.9967,7.31251 -1.2483,18.08946 l -0.4161,17.82419 -4.193,0.24543 c -2.3062,0.13488 -4.4595,-0.0216 -4.7852,-0.34677 z m -1173.27927,-2.18727 c -0.9027,-1.02987 -4.78123,-8.61336 -8.61897,-16.85227 -3.87019,-8.3085 -7.46607,-14.97977 -8.07425,-14.97977 -0.6031,0 -4.46701,6.78037 -8.58645,15.06754 -4.11944,8.28713 -8.00385,15.68342 -8.63205,16.43615 -1.61946,1.94057 -7.23062,1.81441 -8.95659,-0.2014 -1.27438,-1.48836 -22.6809,-46.41999 -22.74378,-47.73849 -0.0154,-0.3433 2.23706,-0.6242 5.00766,-0.6242 l 5.03743,0 6.59146,13.9395 c 9.06089,19.16196 9.38968,19.76503 10.7744,19.76503 0.77086,0 3.88922,-5.67571 8.43642,-15.35523 3.96747,-8.4453 8.04552,-16.0289 9.0623,-16.8523 2.3503,-1.9031 6.01611,-1.9224 7.71255,-0.041 0.72209,0.801 4.70425,8.512 8.84918,17.1357 4.82311,10.0344 7.9173,15.55697 8.59455,15.33969 1.25929,-0.40405 2.03939,-1.8745 10.60657,-19.99229 l 6.59145,-13.9395 5.09352,0 c 4.55459,0 5.04243,0.1611 4.61079,1.5209 -1.39568,4.3975 -22.37737,47.1894 -23.58926,48.1102 -2.24751,1.70759 -5.9297,1.35734 -7.76693,-0.73872 z m 50.45149,1.30653 c -5.909,-1.32393 -9.74852,-3.16211 -12.02826,-5.75857 l -2.53543,-2.88768 0,-15.44658 c 0,-18.17414 0.29932,-19.07824 7.48335,-22.60654 4.56961,-2.2443 4.6413,-2.2512 23.30845,-2.2512 18.0791,0 18.8645,0.069 22.77904,1.9958 3.21892,1.5845 4.39039,2.7554 5.68516,5.6825 1.45572,3.2909 1.60125,5.2256 1.35506,18.01679 -0.23065,11.97687 -0.51685,14.69742 -1.74378,16.56748 -3.69796,5.63657 -10.25819,7.25787 -28.90772,7.14443 -7.5523,-0.0459 -14.48046,-0.25128 -15.39587,-0.45643 z m 30.55918,-8.62534 c 5.08859,-1.41323 5.64195,-2.96044 5.64195,-15.77497 0,-12.81466 -0.55336,-14.36186 -5.64195,-15.77506 -4.01194,-1.1142 -25.47989,-1.1149 -29.49084,0 -5.49433,1.526 -5.6455,1.9584 -5.6455,16.14964 0,13.98199 0.0884,14.24426 5.20644,15.45936 4.07149,0.96653 26.39662,0.9233 29.9299,-0.0579 z m 100.93002,8.03468 c -5.64109,-1.39746 -7.70478,-2.63464 -9.61183,-5.76224 -1.4859,-2.43694 -1.61702,-4.32215 -1.61988,-23.29028 l -0.003,-20.63879 4.7852,0.2498 4.78521,0.2494 0.22325,19.33978 0.22326,19.33975 2.2338,1.46552 c 1.91117,1.25384 4.9437,1.52556 20.99797,1.8816 l 18.76421,0.41612 0,3.74495 0,3.74493 -18.30864,0.14504 c -12.23086,0.097 -19.68994,-0.19709 -22.46968,-0.88567 z m 47.85211,-23.80897 0,-25.07544 25.6156,0.2624 c 25.44888,0.2605 25.64189,0.2759 29.65334,2.3427 6.73613,3.471 7.2515,5.1744 6.96955,23.03571 -0.27438,17.38781 -0.54457,18.14534 -7.80065,21.87973 -4.06958,2.09443 -4.20933,2.10573 -29.26349,2.36742 l -25.17435,0.26298 0,-25.07544 z m 49.66597,14.47457 2.34718,-1.75277 0.23034,-12.19975 c 0.13796,-7.30779 -0.1161,-12.84729 -0.63396,-13.81469 -1.42739,-2.6672 -6.2526,-3.3428 -23.9093,-3.3476 -15.78323,-0.01 -16.8762,0.095 -17.68448,1.605 -1.15345,2.1553 -1.133,27.95194 0.0246,30.11365 0.84871,1.58586 1.63861,1.64387 19.08221,1.40165 16.98974,-0.23588 18.35256,-0.36898 20.54405,-2.00549 z m 60.78288,9.5826 c -4.84673,-1.14126 -8.00389,-3.07644 -9.7851,-5.99772 -1.46176,-2.39734 -1.62482,-4.26297 -1.62762,-18.62046 -0.003,-15.80153 0.0185,-15.98013 2.07431,-18.42513 4.23815,-5.0367 6.76877,-5.4989 31.83516,-5.8145 l 22.67773,-0.2854 0,4.2206 0,4.2206 -20.41588,0 c -15.94529,0 -21.04786,0.2639 -23.30189,1.2058 l -2.88601,1.2059 0,13.75472 0,13.75476 2.24947,1.47556 c 1.97408,1.29492 4.82668,1.50736 23.30189,1.73552 l 21.05242,0.2599 0,4.10912 0,4.10909 -21.01331,-0.0834 c -11.55733,-0.0462 -22.42984,-0.41717 -24.16117,-0.82485 z m 62.77858,0.0564 c -4.99863,-1.0404 -8.50207,-3.26481 -10.50088,-6.66715 -1.57653,-2.68354 -1.69385,-4.26672 -1.69385,-22.85633 l 0,-19.97313 4.7852,-0.2494 4.78521,-0.2497 0,17.4637 c 0,9.60516 0.35776,18.40492 0.79507,19.55505 1.64076,4.31556 4.20871,5.06611 18.37158,5.36958 13.02146,0.27899 18.02469,-0.35515 21.22126,-2.68967 1.52465,-1.11351 1.66768,-2.51951 2.0548,-20.19816 l 0.41612,-19.0014 4.57716,0 4.57716,0 0.2482,17.4765 c 0.13641,9.61202 0.0185,19.08035 -0.26329,21.04069 -0.61884,4.31357 -4.36345,8.4258 -9.18598,10.08778 -3.94933,1.36104 -34.65934,2.04245 -40.18788,0.89171 z m 57.67152,-0.19862 c -0.22171,-0.57797 -0.30363,-11.71921 -0.18199,-24.75823 l 0.22141,-23.70736 25.38242,0 c 27.43393,0 27.8813,0.065 33.08971,4.8284 3.82523,3.4981 4.37487,13.44422 0.94633,17.12432 -1.87819,2.01596 -2.01343,3.6983 -0.40463,5.03349 0.64636,0.53644 1.60914,2.78425 2.13953,4.99516 1.93387,8.06123 -1.60464,13.72483 -10.16291,16.26635 -5.72356,1.69974 -50.38803,1.89045 -51.02984,0.21803 z m 47.30696,-8.15804 c 5.59953,-1.555 6.18495,-8.23543 0.91468,-10.43751 -3.69257,-1.54287 -36.09249,-1.6808 -37.61316,-0.16013 -1.04426,1.04426 -1.40661,9.96698 -0.44384,10.92972 0.91141,0.91141 33.72068,0.6181 37.14232,-0.33208 z m 0.95668,-20.73389 c 2.64555,-1.00582 4.18214,-4.16216 3.44881,-7.08396 -0.98181,-3.9119 -4.33358,-4.5837 -22.86699,-4.5837 -9.13159,0 -17.19525,0.2273 -17.91925,0.5052 -1.00533,0.3857 -1.31638,1.7294 -1.31638,5.6867 0,2.8499 0.24974,5.43136 0.55481,5.7365 0.88133,0.88135 35.72223,0.64298 38.099,-0.26052 z m 31.59783,28.77464 c -5.29112,-1.66774 -8.52329,-3.91953 -9.95416,-6.93488 -1.08127,-2.27863 -1.26721,-5.46954 -1.05371,-18.08461 l 0.25928,-15.31781 2.43011,-2.5344 c 3.99217,-4.1634 8.69768,-5.4766 19.62345,-5.4766 l 9.57044,0 0,3.7449 0,3.745 -9.30921,0.4471 c -11.56543,0.5554 -12.94907,1.417 -12.57415,7.8301 l 0.24574,4.20599 22.8858,0.41609 22.88574,0.41609 0.25374,3.95306 0.25374,3.95297 -22.03108,0 c -12.11707,0 -22.62347,0.22725 -23.3475,0.50514 -2.10089,0.80619 -1.78987,7.96225 0.43365,9.97658 1.5974,1.44711 3.61084,1.62158 23.09384,2.00143 l 21.34379,0.41612 0,3.74495 0,3.74492 -20.80523,0.15951 c -15.04272,0.11548 -21.74667,-0.13703 -24.20422,-0.91168 z m 298.83365,0.6023 c -5.909,-1.32393 -9.7485,-3.16212 -12.0283,-5.75857 l -2.5354,-2.88768 0,-15.44659 c 0,-18.17426 0.2993,-19.07826 7.4833,-22.60656 4.5697,-2.2443 4.6413,-2.2512 23.3084,-2.2512 18.0792,0 18.8646,0.069 22.7791,1.9958 3.2189,1.5845 4.3904,2.7554 5.6852,5.6825 1.4557,3.2909 1.6012,5.2255 1.355,18.01681 -0.2306,11.97687 -0.5169,14.69743 -1.7437,16.56749 -3.698,5.63657 -10.2583,7.25787 -28.9077,7.14443 -7.5524,-0.0459 -14.4805,-0.25128 -15.3959,-0.45643 z m 30.5591,-8.62534 c 5.0887,-1.41323 5.642,-2.96045 5.642,-15.77497 0,-12.81469 -0.5533,-14.36189 -5.642,-15.77509 -4.0119,-1.1142 -25.4798,-1.1149 -29.4908,0 -5.4944,1.5259 -5.6455,1.9583 -5.6455,16.14966 0,13.98199 0.088,14.24427 5.2065,15.45937 4.0714,0.96653 26.3966,0.92329 29.9298,-0.0579 z m 32.8698,8.28288 c -4.8467,-1.14126 -8.0038,-3.07645 -9.7851,-5.99772 -1.4616,-2.39735 -1.6248,-4.26297 -1.6276,-18.62046 0,-15.80166 0.018,-15.98016 2.0743,-18.42516 4.2382,-5.0367 6.7688,-5.4989 31.8352,-5.8145 l 22.6777,-0.2855 0,4.2206 0,4.2207 -20.4159,0 c -15.9452,0 -21.0478,0.2639 -23.3019,1.2058 l -2.886,1.2059 0,13.75475 0,13.75476 2.2495,1.47555 c 1.9741,1.29492 4.8267,1.50737 23.3019,1.73552 l 21.0524,0.25991 0,4.10912 0,4.10909 -21.0133,-0.0834 c -11.5573,-0.0462 -22.4298,-0.41717 -24.1612,-0.82485 z m 51,-24.47401 0,-25.46553 4.7852,0.2497 4.7852,0.2495 0,24.96637 0,24.9663 -4.7852,0.24974 -4.7852,0.24974 0,-25.46548 z m 97.9234,24.82762 c -0.3051,-0.30517 -0.5548,-9.44019 -0.5548,-20.30013 0,-17.23742 -0.1672,-19.80952 -1.3164,-20.25052 -0.724,-0.2777 -5.7797,-0.5051 -11.2348,-0.5051 l -9.9185,0 0,-4.1611 0,-4.161 27.879,0 27.8791,0 0,4.161 0,4.1611 -10.6523,0 c -7.1755,0 -10.9783,0.326 -11.6509,0.9987 -0.7208,0.7207 -0.9987,6.5097 -0.9987,20.80524 l 0,19.80659 -4.4384,0 c -2.4412,0 -4.6882,-0.24974 -4.9933,-0.55478 z m 37.7269,-24.82762 0,-25.46553 4.7851,0.2497 4.7853,0.2495 0,24.96637 0,24.9663 -4.7853,0.24974 -4.7851,0.24974 0,-25.46548 z m 31.2078,24.81647 c -5.9089,-1.32393 -9.7485,-3.16212 -12.0282,-5.75857 l -2.5354,-2.88768 0,-15.44659 c 0,-18.17426 0.2992,-19.07826 7.4833,-22.60656 4.5697,-2.2443 4.6413,-2.2512 23.3085,-2.2512 18.079,0 18.8645,0.069 22.779,1.9958 3.219,1.5845 4.3904,2.7554 5.6852,5.6825 1.4557,3.2909 1.6012,5.2255 1.355,18.01681 -0.2305,11.97687 -0.5169,14.69743 -1.7437,16.56749 -3.698,5.63657 -10.2583,7.25787 -28.9078,7.14443 -7.5523,-0.0459 -14.4804,-0.25128 -15.3959,-0.45643 z m 30.5592,-8.62534 c 5.0886,-1.41323 5.642,-2.96045 5.642,-15.77497 0,-12.81469 -0.5534,-14.36189 -5.642,-15.77509 -4.0119,-1.1142 -25.4798,-1.1149 -29.4909,0 -5.4943,1.5259 -5.6454,1.9583 -5.6454,16.14966 0,13.98199 0.088,14.24427 5.2065,15.45937 4.0714,0.96653 26.3966,0.92329 29.9298,-0.0579 z"
           style="fill:#060606" />
        <path
           sodipodi:nodetypes="cssscsscccsss"
           style="fill:#eeeeec"
           d="m 577.33146,-1242.7138 c 14.9233,-8.5612 27.72765,-15.5957 28.45415,-15.6325 0.87361,-0.044 3.22294,2.8175 6.93586,8.4482 39.27912,59.5667 104.53512,97.2596 175.70452,101.4904 5.5501,0.3298 10.387,0.965 10.7485,1.4115 0.7972,0.9841 0.8019,63.2382 0,64.8884 -1.6526,3.4222 -45.3511,-1.467 -69.6068,-7.7878 -28.2725,-7.3676 -48.5525,-15.7108 -74.3678,-30.595 -25.69634,-14.815 -43.07794,-28.2196 -63.67996,-49.1069 -17.06112,-17.2972 -43.34259,-52.7534 -41.80875,-56.4035 0.26497,-0.6309 12.69201,-8.1516 27.61518,-16.7127 l -5e-5,10e-5 0,0 z"
           id="path2802" />
        <path
           id="path2720"
           d="m 803.999,-1081.21 c -0.23896,-0.6229 -0.33655,-15.737 -0.21648,-33.5869 l 0.21802,-32.4542 9.98653,-0.5767 c 40.43916,-2.3355 78.86429,-15.1092 112.12595,-37.274 14.71856,-9.8081 23.18857,-16.7212 35.18438,-28.7171 11.67503,-11.6751 18.77554,-20.3199 28.03268,-34.1296 3.68183,-5.4926 6.94892,-10.0864 7.26028,-10.2084 0.68356,-0.2679 54.86384,30.9442 56.42484,32.5051 0.9081,0.9081 0.1844,2.5369 -4.2,9.4518 -27.8321,43.8967 -68.75766,80.9389 -115.06742,104.149 -38.04495,19.068 -75.16707,28.7923 -119.9602,31.424 -7.50342,0.441 -9.43978,0.3256 -9.78843,-0.583 l -1.5e-4,0 0,0 z m -97.97919,-349.6665 c -51.60075,-29.8386 -93.81965,-54.6265 -93.81977,-55.0842 -3.4e-4,-1.202 187.20659,-109.0195 189.29399,-109.0195 2.33141,0 190.46056,108.6494 189.59581,109.4965 -1.88069,1.8425 -188.52612,108.9515 -189.78184,108.9089 -0.80779,-0.028 -43.68743,-24.4631 -95.28819,-54.3017 l 0,0 z m 62.30097,4.5774 c 1.8619,-0.9499 3.94505,-2.5913 4.62923,-3.6475 0.68418,-1.0562 7.14246,-13.2489 14.35183,-27.0948 7.20928,-13.8459 13.36854,-25.1743 13.6872,-25.1743 0.31862,0 6.55669,11.6423 13.86239,25.8717 9.12423,17.7716 14.12647,26.6196 15.97682,28.2602 5.52355,4.8973 15.957,5.3847 22.22718,1.0383 3.11324,-2.1581 5.16527,-5.9004 26.52975,-48.3828 12.73554,-25.3241 22.95226,-46.5735 22.70384,-47.2209 -0.36402,-0.9486 -3.08097,-1.1746 -14.00121,-1.1643 -7.45227,0.01 -13.9729,0.2879 -14.49036,0.6242 -0.5175,0.3362 -7.75215,14.2361 -16.07706,30.8884 -8.41977,16.8422 -15.44834,29.9516 -15.83964,29.5435 -0.38693,-0.4035 -6.40913,-11.7812 -13.38277,-25.2838 -6.97365,-13.5026 -13.60973,-25.8081 -14.74692,-27.3455 -5.58649,-7.5527 -18.99772,-7.7743 -25.18097,-0.416 -1.12534,1.3392 -8.03801,13.9343 -15.36147,27.989 -7.32343,14.0548 -13.51638,25.5579 -13.76209,25.5626 -0.24574,0.01 -6.97247,-13.1925 -14.9484,-29.327 -7.97589,-16.1345 -15.04195,-29.9908 -15.7023,-30.7918 -1.05072,-1.2745 -2.82116,-1.4547 -14.17894,-1.4436 -7.13809,0.01 -13.50438,0.3458 -14.1473,0.7528 -1.28275,0.8121 5.24946,15.0776 30.1353,65.8113 13.38856,27.2946 15.09224,29.8906 21.0805,32.1204 4.29691,1.6001 12.31022,1.0364 16.63539,-1.1701 l 0,0 z"
           style="fill:#304a96"
           sodipodi:nodetypes="ccccssssssssccccsssccccssssssssssssssssssssssccc" />
      </g>
    </g>
  </g>
</svg>
