<?xml version="1.0" encoding="UTF-8" standalone="no"?>
<!-- Created with Inkscape (http://www.inkscape.org/) -->

<svg
   width="292.72525"
   height="293.19345"
   id="svg2"
   sodipodi:version="0.32"
   inkscape:version="1.3.2 (091e20e, 2023-11-25)"
   sodipodi:docname="WCAlogo_monochrome_white.svg"
   inkscape:output_extension="org.inkscape.output.svg.inkscape"
   version="1.0"
   xml:space="preserve"
   inkscape:export-filename="apple-touch-icon.png"
   inkscape:export-xdpi="83.955856"
   inkscape:export-ydpi="83.955856"
   xmlns:inkscape="http://www.inkscape.org/namespaces/inkscape"
   xmlns:sodipodi="http://sodipodi.sourceforge.net/DTD/sodipodi-0.dtd"
   xmlns="http://www.w3.org/2000/svg"
   xmlns:svg="http://www.w3.org/2000/svg"
   xmlns:rdf="http://www.w3.org/1999/02/22-rdf-syntax-ns#"
   xmlns:cc="http://creativecommons.org/ns#"
   xmlns:dc="http://purl.org/dc/elements/1.1/"><defs
     id="defs4"><inkscape:perspective
       sodipodi:type="inkscape:persp3d"
       inkscape:vp_x="0 : 526.18109 : 1"
       inkscape:vp_y="0 : 1000 : 0"
       inkscape:vp_z="744.09448 : 526.18109 : 1"
       inkscape:persp3d-origin="372.04724 : 350.78739 : 1"
       id="perspective10" /><inkscape:perspective
       id="perspective2708"
       inkscape:persp3d-origin="0.5 : 0.33333333 : 1"
       inkscape:vp_z="1 : 0.5 : 1"
       inkscape:vp_y="0 : 1000 : 0"
       inkscape:vp_x="0 : 0.5 : 1"
       sodipodi:type="inkscape:persp3d" /></defs><sodipodi:namedview
     id="base"
     pagecolor="#ffffff"
     bordercolor="#666666"
     borderopacity="1.0"
     gridtolerance="10000"
     guidetolerance="10"
     objecttolerance="10"
     inkscape:pageopacity="0.0"
     inkscape:pageshadow="2"
     inkscape:zoom="2.4103463"
     inkscape:cx="116.99564"
     inkscape:cy="159.72809"
     inkscape:document-units="px"
     inkscape:current-layer="g3312"
     showgrid="false"
     showguides="true"
     inkscape:guide-bbox="true"
     inkscape:window-width="1800"
     inkscape:window-height="1097"
     inkscape:window-x="0"
     inkscape:window-y="44"
     inkscape:showpageshadow="2"
     inkscape:pagecheckerboard="true"
     inkscape:deskcolor="#d1d1d1"
     inkscape:window-maximized="0" /><metadata
     id="metadata7"><rdf:RDF><cc:Work
         rdf:about=""><dc:format>image/svg+xml</dc:format><dc:type
           rdf:resource="http://purl.org/dc/dcmitype/StillImage" /></cc:Work></rdf:RDF></metadata><g
     inkscape:label="Layer 1"
     inkscape:groupmode="layer"
     id="layer1"
     transform="translate(-440.9061,488.30753)"><g
       id="g3312"
       transform="matrix(0.499989,0,0,0.499989,301.618,-244.854)"><path
         style="fill:#ffffff;fill-opacity:1"
         d="m 573.68539,-420.1139 c -0.024,-22.87397 -0.026,-31.86369 -5.7e-4,-66.80447 120.72052,-0.20391 208.79981,73.54821 249.85002,144.7927 -51.70988,30.08713 -57.38751,33.35974 -57.38751,33.35974 -37.92855,-64.86818 -110.15284,-110.57228 -192.46194,-111.34797 z"
         id="path8"
         sodipodi:nodetypes="ccccc" /><path
         id="path2730"
         style="fill:#ffffff;fill-opacity:1"
         d="M 378.96735 -302.37856 L 378.94782 -82.412779 C 378.94782 -82.412779 505.27189 -9.3449585 568.90512 26.366958 L 569.10825 -192.55973 L 378.96735 -302.37856 z M 425.06211 -227.70894 C 428.95144 -227.86468 433.5221 -226.89405 438.83195 -224.80654 C 444.94701 -222.40254 522.67918 -179.26453 524.3768 -177.33284 C 525.64739 -175.88724 525.83444 -173.80253 525.82214 -160.99654 C 525.81512 -152.92285 525.46659 -145.77778 525.04869 -145.11728 C 524.04563 -143.53189 526.25414 -142.41895 484.03997 -165.73883 C 435.79947 -192.3879 436.36384 -192.12356 433.02713 -189.68076 C 431.42963 -188.51137 431.38545 -187.59424 431.66382 -159.90667 C 431.98784 -127.6781 432.01823 -127.51507 438.37491 -121.19098 C 443.60333 -115.98928 447.29092 -113.78368 486.71972 -92.287997 C 506.63034 -81.433207 523.57581 -71.78853 524.3768 -70.853931 C 525.64532 -69.373833 525.83386 -67.244674 525.83386 -54.365287 C 525.83386 -43.549698 525.5557 -39.349011 524.79478 -38.720412 C 524.03485 -38.092712 513.35246 -43.534265 485.15719 -58.90445 C 463.92917 -70.476538 444.08164 -81.554587 441.05075 -83.526085 C 433.38064 -88.51528 421.95334 -100.16489 417.82758 -107.20239 C 409.35268 -121.65827 407.69513 -132.41556 407.68283 -172.94602 C 407.67357 -203.96309 408.20774 -210.95904 411.08524 -217.46653 C 413.99957 -224.05734 418.57991 -227.44938 425.06211 -227.70894 z " /><path
         sodipodi:nodetypes="ccccc"
         style="fill:#ffffff;fill-opacity:1"
         d="m 768.51842,-82.684194 c 41.54138,-74.988706 34.9409,-159.138396 -0.0341,-222.019506 0.45369,-1.1825 38.32522,-22.14818 57.38318,-33.37066 58.66,107.44561 41.82569,216.70743 0.16275,288.696156 -23.31082,-13.08668 -35.58051,-20.368143 -57.51178,-33.30599 z"
         id="path2726" /><path
         style="fill:#ffffff;fill-opacity:1"
         d="m 316.10392,-337.50816 57.66718,32.38539 c -40.29696,80.9231 -36.51812,142.25774 -0.32872,222.33678 l -57.41881,32.897031 c -57.75083,-104.048031 -41.37164,-214.335501 0.0804,-287.619201 z"
         id="path4" /><path
         id="path2724"
         style="fill:#ffffff;fill-opacity:1"
         d="M 763.35081 -301.50354 C 763.35081 -301.50354 637.96731 -230.06309 573.67476 -192.56755 C 573.67476 -27.025016 573.19239 -19.700777 573.55366 26.366958 C 642.57898 -12.485787 700.80904 -45.273966 763.1008 -82.350278 C 763.41142 -292.15972 762.57688 -154.66211 763.35081 -301.50354 z M 682.22012 -211.44687 C 686.01396 -211.61361 688.2218 -208.50859 695.18134 -195.25901 C 699.22334 -187.56393 710.91553 -165.41363 721.16628 -146.03527 C 731.41706 -126.65691 739.68642 -110.18499 739.54169 -109.43291 C 739.39677 -108.68081 735.01835 -105.64727 729.81101 -102.69057 L 720.34205 -97.315451 L 718.8967 -99.104553 C 718.10071 -100.08755 714.75648 -105.77576 711.46685 -111.74546 C 708.17727 -117.71514 705.22033 -122.59726 704.8964 -122.59726 C 704.57241 -122.59726 692.33006 -115.95178 677.69267 -107.8274 L 651.08271 -93.053638 L 643.59036 -71.432069 L 636.10191 -49.806593 L 631.10962 -46.802621 C 620.46086 -40.394233 613.34501 -36.828571 612.83968 -37.646169 C 612.55536 -38.106269 616.6686 -50.760312 621.98051 -65.767882 C 627.2924 -80.775452 639.89656 -116.45936 649.98894 -145.0665 C 660.08132 -173.67364 669.12328 -198.7499 670.07922 -200.79038 C 672.3051 -205.54148 677.2451 -210.48686 680.47789 -211.19686 C 681.10313 -211.3342 681.67814 -211.42305 682.22012 -211.44687 z M 678.42706 -170.61784 C 678.03305 -170.74404 674.44208 -161.26696 670.44642 -149.55488 C 664.76973 -132.91592 663.49731 -128.37712 664.62207 -128.80052 C 667.46986 -129.87262 692.24071 -143.50709 692.70472 -144.25789 C 693.22113 -145.09339 679.59938 -170.24206 678.42706 -170.61784 z " /><path
         sodipodi:nodetypes="ccccc"
         style="fill:#ffffff;fill-opacity:1"
         d="m 318.88136,-342.33612 c 44.33447,-80.28663 142.73158,-144.80912 249.81078,-144.58165 v 66.80427 c -91.5423,3.25862 -154.86232,49.70195 -192.57246,110.94732 -21.80068,-12.61181 -32.43774,-18.8683 -57.23832,-33.16994 z"
         id="path2722" /><path
         id="path2802"
         d="M 375.79609,-78.705606 C 418.02494,-8.400441 492.50271,31.902242 568.84357,32.845032 l 0.0601,66.636998 C 468.67166,100.09685 370.96205,44.711786 318.49119,-45.589701 Z"
         style="fill:#ffffff;fill-opacity:1"
         sodipodi:nodetypes="ccccc" /><path
         id="path5"
         style="fill:#ffffff;fill-opacity:1"
         d="M 571.17861 -415.11932 L 381.88538 -306.10129 L 571.38955 -196.71608 L 760.77653 -305.62472 L 571.17861 -415.11932 z M 484.3017 -343.95369 C 495.65947 -343.96479 497.43098 -343.78284 498.4817 -342.50835 C 499.14205 -341.70735 506.20538 -327.85309 514.18126 -311.71861 C 522.15718 -295.58412 528.88507 -282.37984 529.13081 -282.38984 C 529.37652 -282.39454 535.56941 -293.89811 542.89283 -307.9529 C 550.21628 -322.00758 557.13111 -334.6026 558.25645 -335.94179 C 564.43969 -343.30009 577.85021 -343.08042 583.43669 -335.52772 C 584.57388 -333.99032 591.20947 -321.68205 598.18311 -308.17946 C 605.15674 -294.67688 611.17929 -283.30116 611.56622 -282.89766 C 611.95752 -282.48956 618.98665 -295.59909 627.40641 -312.44128 C 635.73131 -329.09356 642.96348 -342.99248 643.48098 -343.32868 C 643.99844 -343.66498 650.52123 -343.94369 657.97349 -343.95369 C 668.89372 -343.96399 671.60978 -343.7382 671.9738 -342.7896 C 672.22222 -342.1422 662.0057 -320.89389 649.27017 -295.56981 C 627.90571 -253.08746 625.85548 -249.34403 622.74224 -247.18594 C 616.47207 -242.83954 606.03874 -243.32773 600.51519 -248.22502 C 598.66484 -249.86562 593.6625 -258.71187 584.53828 -276.48346 C 577.23259 -290.71284 570.99331 -302.35512 570.67469 -302.35512 C 570.35603 -302.35512 564.19616 -291.02858 556.98689 -277.18269 C 549.77753 -263.3368 543.31919 -251.14454 542.63501 -250.08834 C 541.95083 -249.03214 539.8679 -247.38972 538.006 -246.43983 C 533.68084 -244.23333 525.66583 -243.66783 521.36892 -245.26792 C 515.38067 -247.49772 513.67888 -250.09515 500.29033 -277.38973 C 475.40452 -328.12337 468.8702 -342.38767 470.15295 -343.19977 C 470.79587 -343.60677 477.16362 -343.94369 484.3017 -343.95369 z " /><path
         style="fill:#ffffff;fill-opacity:1"
         d="m 573.684,99.48203 c -0.17174,-25.478794 -0.30174,-43.975796 -0.12918,-66.637364 90.2757,0.02478 165.00317,-60.801773 192.52912,-111.297767 24.80027,14.313198 34.06987,19.70304 57.53369,33.240121 C 742.69236,93.688841 594.44484,99.48203 573.684,99.48203 Z"
         id="path2720"
         sodipodi:nodetypes="ccccc" /><g
         id="g1"
         transform="matrix(2.000044,0,0,2.000044,910.09622,-636.42109)"
         style="stroke:#ffffff;stroke-opacity:1"><g
           id="g2"
           transform="matrix(0.12458447,0,0,0.12458447,-46.754768,344.21344)"
           style="stroke:#ffffff;stroke-opacity:1"><g
             id="g3"
             transform="translate(-93.696521,-2082.5864)"
             style="stroke:#ffffff;stroke-opacity:1"><circle
               cx="87.887909"
               cy="2073.0198"
               r="88.5"
               fill="none"
               stroke="#000000"
               stroke-width="20"
               id="circle1"
               style="stroke:#ffffff;stroke-opacity:1" /><path
               d="m 82.487909,2065.0198 c 5.500001,0 9.500001,-1.1 11.900001,-3.2 2.4,-2 3.7,-5.4 3.7,-10.2 0,-4.7 -1.3,-8 -3.7,-10.1 -2.4,-2 -6.4,-3 -11.900001,-3 h -11.2 v 26.5 h 11.2 m -11.2,18.3 v 39 H 44.687911 v -103.1 h 40.599998 c 13.600001,0 23.500001,2.3 29.800001,6.9 6.4,4.5 9.5,11.7 9.5,21.6 0,6.8 -1.6,12.4 -4.9,16.8 -3.3,4.3 -8.2,7.6 -14.9,9.6 3.7,0.9 6.9,2.8 9.8,5.7 2.9,2.9 5.8,7.3 8.7,13.3 l 14.5,29.2 h -28.3 l -12.6,-25.6 c -2.5,-5.1 -5.1,-8.7 -7.7,-10.5 -2.600001,-1.9 -6.100001,-2.9 -10.400001,-2.9 h -7.5"
               id="path1"
               style="stroke:#ffffff;stroke-opacity:1;stroke-width:1.00333533;stroke-dasharray:none;fill:#ffffff;fill-opacity:1" /></g></g></g></g></g></svg>
