<?xml version="1.0" encoding="UTF-8" standalone="no"?>
<!-- Created with Inkscape (http://www.inkscape.org/) -->

<svg
   xmlns:dc="http://purl.org/dc/elements/1.1/"
   xmlns:cc="http://creativecommons.org/ns#"
   xmlns:rdf="http://www.w3.org/1999/02/22-rdf-syntax-ns#"
   xmlns:svg="http://www.w3.org/2000/svg"
   xmlns="http://www.w3.org/2000/svg"
   xmlns:sodipodi="http://sodipodi.sourceforge.net/DTD/sodipodi-0.dtd"
   xmlns:inkscape="http://www.inkscape.org/namespaces/inkscape"
   version="1.0"
   width="88.646927"
   height="88.774887"
   viewbox="0 0 80 80"
   id="svg2"
   inkscape:version="0.48.2 r9819"
   sodipodi:docname="wca_logo.svg">
  <sodipodi:namedview
     pagecolor="#ffffff"
     bordercolor="#666666"
     borderopacity="1"
     objecttolerance="10"
     gridtolerance="10"
     guidetolerance="10"
     inkscape:pageopacity="0"
     inkscape:pageshadow="2"
     inkscape:window-width="1794"
     inkscape:window-height="738"
     id="namedview15"
     showgrid="false"
     inkscape:zoom="5.0550099"
     inkscape:cx="42.141122"
     inkscape:cy="51.968164"
     inkscape:window-x="257"
     inkscape:window-y="374"
     inkscape:window-maximized="0"
     inkscape:current-layer="svg2"
     fit-margin-top="0"
     fit-margin-left="0"
     fit-margin-right="0"
     fit-margin-bottom="0">
    <inkscape:grid
       empspacing="5"
       visible="true"
       enabled="true"
       snapvisiblegridlinesonly="true"
       type="xygrid"
       id="grid2992" />
  </sodipodi:namedview>
  <defs
     id="defs4">
    <filter
       inkscape:collect="always"
       id="filter3906">
      <feGaussianBlur
         inkscape:collect="always"
         stdDeviation="0.80939175"
         id="feGaussianBlur3908" />
    </filter>
  </defs>
  <metadata
     id="metadata7">
    <rdf:RDF>
      <cc:Work
         rdf:about="">
        <dc:format>image/svg+xml</dc:format>
        <dc:type
           rdf:resource="http://purl.org/dc/dcmitype/StillImage" />
        <dc:title />
      </cc:Work>
    </rdf:RDF>
  </metadata>
  <path
     sodipodi:type="inkscape:offset"
     inkscape:radius="0.43422124"
     inkscape:original="M 43.96875 4.34375 L 42.78125 4.375 C 41.93226 4.396533 41.075132 4.4776932 40.21875 4.5625 C 40.16566 4.56788 40.115528 4.58816 40.0625 4.59375 C 39.453509 4.65677 38.836023 4.7169106 38.21875 4.8125 C 37.584494 4.910719 36.959277 5.0231219 36.3125 5.15625 C 36.29281 5.1603 36.2697 5.15217 36.25 5.15625 C 36.18802 5.168919 36.124374 5.174546 36.0625 5.1875 C 35.625471 5.28017 35.194386 5.39125 34.75 5.5 C 34.603487 5.53589 34.458368 5.587503 34.3125 5.625 C 33.677661 5.7881327 33.030815 5.9619912 32.40625 6.15625 C 31.954605 6.2967255 31.508253 6.4373702 31.0625 6.59375 C 30.893404 6.653056 30.730541 6.7197464 30.5625 6.78125 C 29.949107 7.0058224 29.350806 7.2459305 28.75 7.5 C 28.7413 7.50369 28.72747 7.4963 28.71875 7.5 C 28.69709 7.50916 28.67789 7.522052 28.65625 7.53125 C 28.28013 7.6913908 27.902034 7.8598041 27.53125 8.03125 C 27.339645 8.119849 27.158691 8.2209717 26.96875 8.3125 C 26.465303 8.5548843 25.961306 8.7995974 25.46875 9.0625 C 25.271359 9.1679906 25.070386 9.2663098 24.875 9.375 C 24.427947 9.623334 23.999579 9.8912891 23.5625 10.15625 C 23.015645 10.487758 22.467754 10.830671 21.9375 11.1875 C 20.868541 11.906844 19.838523 12.682567 18.84375 13.5 C 18.35402 13.902425 17.876376 14.324966 17.40625 14.75 C 16.935935 15.175206 16.480872 15.615436 16.03125 16.0625 C 13.966826 18.11518 12.096167 20.375577 10.53125 22.84375 C 10.283873 23.23392 10.195104 23.432001 10.09375 23.625 C 10.04915 23.70994 9.9589229 23.816937 9.9375 23.875 C 9.7680346 24.159312 9.6313156 24.461168 9.46875 24.75 C 9.46727 24.750072 9.438084 24.71816 9.4375 24.71875 C 9.345892 24.81076 8.9310726 25.638079 8.46875 26.59375 C 8.435606 26.66226 8.408443 26.711619 8.375 26.78125 C 8.0498184 27.446107 7.7575934 28.127475 7.46875 28.8125 C 7.414218 28.938785 7.2917919 29.147326 7.25 29.25 C 7.0649856 29.704543 6.917178 30.168374 6.75 30.625 C 6.5272363 31.233451 6.3162598 31.855751 6.125 32.46875 C 5.728043 33.74102 5.3875 35.014203 5.125 36.3125 C 5.105807 36.40743 5.080979 36.498659 5.0625 36.59375 C 4.9526405 37.153252 4.8676332 37.713598 4.78125 38.28125 C 4.77189 38.34424 4.759054 38.405678 4.75 38.46875 C 4.5689175 39.730196 4.4349895 41.014941 4.375 42.3125 C 4.374473 42.32279 4.3755193 42.33346 4.375 42.34375 C 4.3745316 42.35405 4.3754608 42.3647 4.375 42.375 C 4.341562 43.04781 4.3125 43.725029 4.3125 44.40625 C 4.3125 44.993236 4.350251 45.575612 4.375 46.15625 C 4.38391 46.365272 4.394177 46.573094 4.40625 46.78125 C 4.434707 47.372535 4.475873 47.942041 4.53125 48.5 C 4.559713 48.786782 4.588556 49.085711 4.625 49.375 C 4.671289 49.751745 4.724646 50.126652 4.78125 50.5 C 4.807797 50.670048 4.814318 50.824236 4.84375 51 C 4.925634 51.488994 5.0271812 51.989433 5.125 52.46875 C 5.2268371 52.967756 5.349048 53.447165 5.46875 53.9375 C 5.5753171 54.376283 5.6916722 54.817128 5.8125 55.25 C 5.82408 55.29116 5.832035 55.33388 5.84375 55.375 C 5.931788 55.686532 6.0296858 56.004168 6.125 56.3125 C 6.3181587 56.929849 6.5245248 57.544723 6.75 58.15625 C 6.9252959 58.631682 7.1169794 59.11972 7.3125 59.59375 C 7.5011979 60.054992 7.7010348 60.516462 7.90625 60.96875 C 8.1002251 61.396265 8.2915894 61.830809 8.5 62.25 C 8.520749 62.29206 8.541582 62.33292 8.5625 62.375 C 8.598874 62.44817 8.620516 62.492313 8.65625 62.5625 C 9.0709696 63.378507 9.5320901 64.155434 10 64.9375 C 10.03592 64.99754 10.05752 65.065165 10.09375 65.125 C 10.10929 65.15554 10.13881 65.18616 10.15625 65.21875 C 10.367176 65.612905 10.692522 66.130315 11.125 66.75 C 11.338592 67.056049 11.56362 67.382988 11.8125 67.71875 C 13.44504 69.99208 15.309673 72.090847 17.375 73.96875 C 17.46466 74.05075 17.566753 74.138383 17.65625 74.21875 C 18.257456 74.755189 18.866683 75.281707 19.5 75.78125 C 19.686553 75.927271 19.8726 76.07642 20.0625 76.21875 C 20.14642 76.28251 20.22806 76.343142 20.3125 76.40625 C 20.456667 76.51227 20.603211 76.614256 20.75 76.71875 C 23.358936 78.614461 26.211767 80.18211 29.25 81.40625 C 29.26249 81.41145 29.26875 81.43236 29.28125 81.4375 C 29.675754 81.595981 30.068023 81.760092 30.46875 81.90625 C 30.989041 82.098052 31.515505 82.263659 32.0625 82.4375 C 32.779906 82.665505 33.484045 82.874413 34.21875 83.0625 C 34.30824 83.08628 34.378084 83.13262 34.46875 83.15625 C 34.976025 83.288441 35.554631 83.411594 36.15625 83.53125 C 36.65929 83.631299 37.18842 83.725541 37.71875 83.8125 C 38.061441 83.86816 38.404364 83.921808 38.75 83.96875 C 40.9995 84.29223 43.134642 84.460311 43.78125 84.3125 C 43.927552 84.3141 44.072061 84.3125 44.21875 84.3125 C 44.365439 84.3125 44.509935 84.3141 44.65625 84.3125 C 44.65647 84.313262 44.656028 84.34317 44.65625 84.34375 C 44.70389 84.4679 44.974704 84.46651 46 84.40625 C 52.12071 84.046644 57.176388 82.730527 62.375 80.125 C 67.800642 77.405709 72.663836 73.272287 76.34375 68.375 C 76.733066 67.856892 77.107191 67.347547 77.46875 66.8125 C 77.675542 66.506482 77.896442 66.217443 78.09375 65.90625 C 78.31451 65.558078 78.401208 65.370733 78.5 65.1875 C 78.55137 65.10336 78.605487 65.022056 78.65625 64.9375 C 78.66185 64.925 78.65145 64.91788 78.65625 64.90625 C 78.868359 64.552389 79.079959 64.20469 79.28125 63.84375 C 79.28825 63.83123 79.30553 63.82503 79.3125 63.8125 C 79.35929 63.74785 79.415372 63.616759 79.46875 63.53125 C 79.872373 62.884664 80.448884 61.695648 81.03125 60.3125 C 81.07041 60.21948 81.11712 60.125651 81.15625 60.03125 C 81.440446 59.361646 81.720783 58.688044 81.96875 58 C 82.32608 57.030162 82.654686 56.081437 82.875 55.28125 C 83.739607 52.141017 84.122212 49.551379 84.25 46.53125 C 84.27949 45.834162 84.31297 45.135061 84.3125 44.375 C 84.3101 40.303175 83.93477 37.349055 82.875 33.5 C 82.048695 30.498918 79.976925 25.700501 79.21875 24.875 C 79.19482 24.84894 79.1775 24.79916 79.15625 24.78125 C 79.029256 24.554834 78.912471 24.317412 78.78125 24.09375 C 78.81259 24.00187 78.202662 23.069554 77.5 22.03125 C 77.122253 21.473064 76.73792 20.888981 76.375 20.40625 C 75.220216 18.870219 73.961663 17.43367 72.625 16.09375 C 72.177115 15.644773 71.716969 15.207067 71.25 14.78125 C 70.298719 13.913802 69.307499 13.080226 68.28125 12.3125 C 67.254468 11.544376 66.189897 10.819698 65.09375 10.15625 C 65.02939 10.11695 64.970851 10.0702 64.90625 10.03125 C 64.720332 9.9201718 64.531545 9.826749 64.34375 9.71875 C 63.899715 9.4608042 63.45472 9.209809 63 8.96875 C 62.532556 8.7241977 62.103044 8.5151263 61.6875 8.3125 C 61.2047 8.0770783 60.744305 7.8563636 60.28125 7.65625 C 60.167759 7.6072038 60.051828 7.5477809 59.9375 7.5 C 58.963146 7.0860976 57.950012 6.7429602 56.9375 6.40625 C 56.42202 6.2348272 55.899674 6.0569503 55.375 5.90625 C 55.302315 5.8853729 55.229107 5.8642242 55.15625 5.84375 C 54.875996 5.7624747 54.618846 5.6982207 54.34375 5.625 C 54.059968 5.5517262 53.786223 5.4733961 53.5 5.40625 C 53.149873 5.322043 52.788085 5.229308 52.4375 5.15625 C 52.23301 5.1142681 52.018135 5.07009 51.8125 5.03125 C 51.365162 4.9462426 50.900155 4.883141 50.4375 4.8125 C 50.321417 4.7947757 50.211221 4.7669217 50.09375 4.75 C 49.655637 4.6868876 49.127343 4.6209644 48.5625 4.5625 C 48.52101 4.55821 48.47924 4.56674 48.4375 4.5625 C 46.774176 4.3937196 44.934002 4.2731381 44.75 4.34375 C 44.614213 4.34239 44.479867 4.34375 44.34375 4.34375 L 44.3125 4.34375 C 44.197324 4.34375 44.083693 4.3427823 43.96875 4.34375 z M 43.96875 13.4375 C 44.083571 13.4362 44.197383 13.4375 44.3125 13.4375 C 44.427617 13.4375 44.541436 13.4362 44.65625 13.4375 C 44.802786 13.4391 44.947719 13.46513 45.09375 13.46875 L 46 13.53125 C 52.062801 13.87633 57.887022 15.990162 62.71875 19.59375 C 64.245956 20.732772 65.626873 21.950066 66.875 23.28125 C 67.811096 24.279638 68.693218 25.332756 69.5 26.46875 C 69.647761 26.676769 69.794799 26.881946 69.9375 27.09375 C 70.056246 27.269622 70.165047 27.445547 70.28125 27.625 C 70.29377 27.64433 70.30007 27.63718 70.3125 27.65625 C 70.727706 28.302523 71.132752 28.94684 71.5 29.625 C 71.602827 29.873021 71.736169 30.191594 71.90625 30.53125 C 76.268036 39.242287 76.271587 49.532104 71.90625 58.25 C 71.713484 58.634971 71.58954 58.926588 71.5 59.15625 C 71.4937 59.1724 71.47453 59.20338 71.46875 59.21875 C 71.241524 59.636184 70.995582 60.032023 70.75 60.4375 C 70.69993 60.52017 70.644571 60.605338 70.59375 60.6875 C 70.408274 60.941669 70.282259 61.094803 69.96875 61.5625 C 68.703818 63.449511 67.751572 64.623419 66.15625 66.21875 C 64.517095 67.857917 63.354952 68.816033 61.34375 70.15625 C 56.798746 73.184935 51.525766 74.930868 46 75.25 L 44.65625 75.3125 L 44.65625 75.34375 C 44.541304 75.34505 44.427749 75.34375 44.3125 75.34375 C 44.207728 75.34375 44.104528 75.34475 44 75.34375 C 43.98955 75.343646 43.9792 75.343864 43.96875 75.34375 C 43.8835 75.28316 43.265331 75.199866 42.53125 75.15625 C 32.806384 74.578137 23.867253 69.420678 18.5 61.28125 C 18.119489 60.704199 17.85193 60.331001 17.6875 60.1875 C 17.67654 60.1779 17.66622 60.1951 17.65625 60.1875 C 17.483212 59.896902 17.319932 59.609145 17.15625 59.3125 C 17.14459 59.2776 17.07963 59.198553 17.0625 59.15625 C 16.995033 58.989585 16.944418 58.814304 16.78125 58.5 C 15.182024 55.419444 14.099181 51.931612 13.59375 48.1875 C 13.371941 46.544392 13.320871 42.954521 13.5 41.21875 C 13.5086 41.13374 13.52192 41.053549 13.53125 40.96875 C 14.009919 37.153419 15.065839 33.5925 16.6875 30.40625 C 16.840112 30.106399 16.968039 29.851836 17.0625 29.625 C 17.08058 29.59178 17.1068 29.5644 17.125 29.53125 C 17.1315 29.51494 17.1189 29.51556 17.125 29.5 C 17.295208 29.190588 17.47587 28.896592 17.65625 28.59375 C 17.65835 28.592927 17.71458 28.53523 17.71875 28.53125 C 17.75483 28.47105 17.77602 28.403678 17.8125 28.34375 C 17.95317 28.16771 18.24017 27.839459 18.65625 27.21875 C 19.929152 25.319837 20.878679 24.121321 22.46875 22.53125 C 24.103111 20.896893 25.254485 19.975575 27.28125 18.625 C 31.8275 15.595509 37.063529 13.850627 42.59375 13.53125 L 43.5 13.46875 C 43.656418 13.46475 43.811766 13.43921 43.96875 13.4375 z M 44.3125 14.125 C 44.02727 14.125 18.437453 28.867004 18.4375 29.03125 L 18.0625 29.25 L 18.0625 29.6875 C 18.01566 29.77782 17.9842 36.470641 18 44.65625 L 18.03125 59.59375 L 30.875 67.03125 C 35.46454 69.683894 38.841805 71.621656 41.15625 72.9375 L 44.25 74.71875 L 44.6875 74.46875 C 44.73603 74.46875 45.313643 74.147238 46 73.75 C 46.686354 73.352776 52.433047 70.049629 58.75 66.40625 C 65.066948 62.762872 70.29181 59.70392 70.375 59.625 L 70.4375 59.59375 L 70.4375 59.15625 C 70.51444 58.169604 70.53523 54.773998 70.53125 44.625 C 70.52795 36.445904 70.4937 29.71244 70.46875 29.6875 L 70.46875 29.25 L 70.21875 29.09375 C 70.336913 28.977998 44.631073 14.125 44.3125 14.125 z "
     style="opacity:0.78017241000000004;fill:#000000;fill-opacity:1;stroke:none;filter:url(#filter3906)"
     id="path3825"
     d="m 45.1875,3.875 c -0.117591,-0.0021 -0.226364,0.027461 -0.3125,0.03125 -0.03782,0.00166 -0.09172,-0.00185 -0.125,0 -0.141554,-0.00142 -0.273025,0 -0.40625,0 l -0.03125,0 c -0.112744,0 -0.223961,-0.00101 -0.34375,0 l -1.1875,0.03125 c -0.869231,0.022046 -1.736129,0.1025705 -2.59375,0.1875 -0.134708,0.013651 -0.183736,0.034147 -0.15625,0.03125 -0.607233,0.062838 -1.241668,0.1206738 -1.875,0.21875 -0.64112,0.099282 -1.283873,0.209212 -1.9375,0.34375 0.158307,-0.032562 0.135409,-0.040988 -0.0625,0 -0.02955,0.00604 -0.09186,0.011226 -0.1875,0.03125 -0.449227,0.095256 -0.871448,0.2358159 -1.3125,0.34375 -0.175597,0.043014 -0.317429,0.094134 -0.4375,0.125 -0.638004,0.1639461 -1.301906,0.3335609 -1.9375,0.53125 -0.452658,0.1407906 -0.920547,0.2780679 -1.375,0.4375 -0.182863,0.064134 -0.342062,0.1296942 -0.5,0.1875 -0.621623,0.2275857 -1.206837,0.4626266 -1.8125,0.71875 -0.01863,0.00587 -0.0096,-0.00919 -0.03125,0 -0.07149,0.030234 -0.09019,0.043021 -0.0625,0.03125 -0.380575,0.1620375 -0.781722,0.3268228 -1.15625,0.5 -0.211318,0.097714 -0.388075,0.1971984 -0.5625,0.28125 C 26.276935,8.1490522 25.75236,8.4193645 25.25,8.6875 25.06175,8.7881055 24.864963,8.8838959 24.65625,9 c -0.460031,0.2555429 -0.878848,0.5183667 -1.3125,0.78125 -0.550422,0.333671 -1.117958,0.669012 -1.65625,1.03125 -1.08173,0.727938 -2.120742,1.518523 -3.125,2.34375 -0.497921,0.409156 -0.965039,0.854105 -1.4375,1.28125 -0.477554,0.43175 -0.953817,0.862641 -1.40625,1.3125 -2.084444,2.072586 -3.977986,4.375918 -5.5625,6.875 -0.2578105,0.406626 -0.344484,0.635378 -0.4375,0.8125 -0.00116,0.0022 -0.030249,0.01579 -0.0625,0.0625 -0.02332,0.03378 -0.062344,0.09418 -0.09375,0.15625 -0.012028,0.02377 -0.01761,0.02553 -0.03125,0.0625 -0.1466719,0.254035 -0.2539915,0.494072 -0.375,0.71875 L 9.125,24.40625 c -0.1368549,0.137455 -0.1238935,0.198827 -0.1875,0.3125 -0.063607,0.113673 -0.1308946,0.234655 -0.21875,0.40625 -0.1757108,0.34319 -0.4243089,0.801803 -0.65625,1.28125 -0.028247,0.05839 -0.055252,0.107344 -0.09375,0.1875 l 0.03125,0 c -0.3273529,0.669296 -0.6514594,1.353167 -0.9375,2.03125 -0.00364,0.0086 0.00364,0.02263 0,0.03125 -0.03673,0.07731 -0.1468868,0.260947 -0.21875,0.4375 -0.1934566,0.475284 -0.3370518,0.929927 -0.5,1.375 -0.2251951,0.615092 -0.431585,1.255093 -0.625,1.875 -0.4004586,1.283493 -0.7652213,2.559251 -1.03125,3.875 -0.015487,0.0766 -0.040048,0.165715 -0.0625,0.28125 -0.1122609,0.571732 -0.1948866,1.151228 -0.28125,1.71875 -0.00691,0.04651 -0.019629,0.106549 -0.03125,0.1875 -0.1826959,1.272686 -0.3142442,2.560867 -0.375,3.875 -0.00281,0.05492 -0.00172,0.06537 0,0.03125 -0.00227,0.0499 -0.0013,0.06034 0,0.03125 -0.033536,0.67478 -0.0625,1.368929 -0.0625,2.0625 0,0.605603 0.038025,1.20704 0.0625,1.78125 0.00899,0.210967 0.019034,0.414372 0.03125,0.625 0.02878,0.597997 0.068844,1.15294 0.125,1.71875 0.028382,0.285961 0.056221,0.608346 0.09375,0.90625 0.046962,0.382225 0.09925,0.749042 0.15625,1.125 0.022048,0.141232 0.027962,0.293744 0.0625,0.5 0.083572,0.499073 0.1833637,1.020352 0.28125,1.5 0.1045513,0.512306 0.255982,0.981217 0.375,1.46875 l -0.03125,0 c 0.1079326,0.444405 0.253055,0.906875 0.375,1.34375 0.00441,0.01566 0.012014,0.05748 0.03125,0.125 0.089942,0.318268 0.1858618,0.628928 0.28125,0.9375 0.1949419,0.623048 0.3965921,1.255519 0.625,1.875 0.1774728,0.481336 0.365066,0.958831 0.5625,1.4375 0.1909465,0.466738 0.3864417,0.949349 0.59375,1.40625 0.1926294,0.424549 0.4105059,0.849823 0.625,1.28125 0.022405,0.04542 0.042862,0.0855 0.0625,0.125 0.035947,0.07231 0.056779,0.114884 0.09375,0.1875 0.4231837,0.832661 0.8753202,1.623315 1.34375,2.40625 0.00134,0.0022 0.042705,0.06541 0.09375,0.15625 0.012627,0.02482 -0.00973,0.01415 0,0.03125 0.038904,0.06841 0.082781,0.131649 0.0625,0.09375 0.223981,0.41855 0.561094,0.933605 1,1.5625 0.212448,0.30441 0.432884,0.625249 0.6875,0.96875 1.650057,2.297722 3.536775,4.413777 5.625,6.3125 0.0971,0.08881 0.197142,0.174472 0.28125,0.25 0.604622,0.539487 1.200261,1.086184 1.84375,1.59375 0.183883,0.143931 0.396269,0.289488 0.59375,0.4375 0.08635,0.06561 0.166235,0.124897 0.25,0.1875 0.150237,0.110484 0.293199,0.209777 0.4375,0.3125 2.627517,1.909212 5.506945,3.484089 8.5625,4.71875 0.02097,0.01261 3.56e-4,0.01839 0.03125,0.03125 0.02091,0.01194 0.003,0.01963 0.03125,0.03125 0.390677,0.156944 0.774172,0.317996 1.1875,0.46875 0.533376,0.196626 1.078788,0.357658 1.625,0.53125 0.71306,0.226624 1.421961,0.436264 2.15625,0.625 0.0098,0.0025 0.02141,-0.0025 0.03125,0 0.02018,0.01025 0.06554,0.05382 0.21875,0.09375 0.521561,0.135914 1.113466,0.285865 1.71875,0.40625 0.50901,0.101236 1.059496,0.193648 1.59375,0.28125 0.344356,0.05593 0.679849,0.108525 1.03125,0.15625 1.13342,0.162987 2.246147,0.27875 3.15625,0.34375 0.868098,0.062 1.480487,0.08887 1.9375,0 0.02211,-0.0043 0.07255,0.0048 0.09375,0 0.117856,3.75e-4 0.230975,0 0.34375,0 0.102523,0 0.205919,1.29e-4 0.3125,0 0.02543,0.01357 0.03941,0.05463 0.0625,0.0625 0.121517,0.04139 0.223033,0.05793 0.34375,0.0625 0.241433,0.0091 0.579062,-0.001 1.09375,-0.03125 6.168659,-0.362423 11.284186,-1.713939 16.53125,-4.34375 5.490299,-2.751696 10.405205,-6.924639 14.125,-11.875 0.391162,-0.520565 0.788466,-1.018241 1.15625,-1.5625 0.19749,-0.292253 0.414319,-0.605216 0.625,-0.9375 0.23095,-0.364243 0.315771,-0.550936 0.40625,-0.71875 0.04552,-0.07456 0.09861,-0.153995 0.15625,-0.25 a 0.43426466,0.43426466 0 0 0 0,-0.03125 0.43426466,0.43426466 0 0 0 0.03125,0 c 0.01128,-0.02517 -0.0053,-0.03545 0,-0.0625 0.172838,-0.287928 0.329721,-0.575822 0.5,-0.875 -0.0044,0.0034 0.02795,-0.0506 0.0625,-0.09375 0.0072,-0.01281 0.02408,-0.0184 0.03125,-0.03125 0.01337,-0.01847 0.01986,-0.01397 0.03125,-0.03125 0.08545,-0.129605 0.138461,-0.252753 0.15625,-0.28125 0.431894,-0.691875 1.006149,-1.885669 1.59375,-3.28125 0.03176,-0.07545 0.07804,-0.167952 0.125,-0.28125 0.284991,-0.671478 0.559789,-1.330043 0.8125,-2.03125 0.359233,-0.975003 0.67992,-1.927963 0.90625,-2.75 0.872123,-3.167529 1.277358,-5.797521 1.40625,-8.84375 0.02942,-0.695471 0.06298,-1.414523 0.0625,-2.1875 -0.0024,-4.098385 -0.400851,-7.121421 -1.46875,-11 -0.422085,-1.532983 -1.152838,-3.495139 -1.875,-5.1875 -0.361081,-0.846181 -0.710865,-1.624227 -1.03125,-2.25 -0.311685,-0.608782 -0.555397,-1.023301 -0.8125,-1.3125 0.01136,0.02043 0.01465,0.01873 -0.03125,-0.03125 -0.0014,-0.0036 0.002,-0.02682 0,-0.03125 -0.104395,-0.186124 -0.224178,-0.38236 -0.34375,-0.59375 -0.0061,-0.02529 -0.02472,-0.044 -0.03125,-0.0625 -0.0049,-0.0085 0.005,-0.02276 0,-0.03125 -0.003,-0.0076 0.003,-0.02395 0,-0.03125 -0.02573,-0.06208 -0.05772,-0.121634 -0.09375,-0.1875 -0.07206,-0.131733 -0.160536,-0.277591 -0.28125,-0.46875 -0.241428,-0.382319 -0.553793,-0.885435 -0.90625,-1.40625 -0.375566,-0.554963 -0.780717,-1.125492 -1.15625,-1.625 -1.167704,-1.553216 -2.431242,-3.021702 -3.78125,-4.375 -0.45325,-0.454355 -0.934751,-0.882553 -1.40625,-1.3125 -0.959911,-0.875317 -1.96042,-1.722301 -3,-2.5 C 67.494087,11.19286 66.421932,10.452739 65.3125,9.78125 65.27891,9.7607391 65.22184,9.7146378 65.125,9.65625 64.920002,9.5337726 64.735085,9.4430021 64.5625,9.34375 64.1153,9.0839658 63.680096,8.8383218 63.21875,8.59375 a 0.43426466,0.43426466 0 0 0 -0.03125,0 C 62.71332,8.3456735 62.290359,8.140036 61.875,7.9375 61.390553,7.7012754 60.942323,7.4546589 60.46875,7.25 60.373651,7.2089021 60.2299,7.1506507 60.09375,7.09375 59.099187,6.671263 58.076532,6.3372155 57.0625,6 56.549021,5.8292427 56.038315,5.6546183 55.5,5.5 55.427744,5.4792462 55.356149,5.4585479 55.28125,5.4375 54.991551,5.3534857 54.739867,5.2909116 54.46875,5.21875 a 0.43426466,0.43426466 0 0 0 -0.03125,0 c -0.2767,-0.071445 -0.544357,-0.1797643 -0.84375,-0.25 -0.345778,-0.083161 -0.69848,-0.1741423 -1.0625,-0.25 -0.204405,-0.041964 -0.414566,-0.085254 -0.625,-0.125 C 51.443411,4.5057969 50.957881,4.4449121 50.5,4.375 50.410485,4.3613323 50.302348,4.3335454 50.15625,4.3125 49.711615,4.248448 49.164263,4.1840513 48.59375,4.125 c -0.12972,-0.013413 -0.170492,-0.00462 -0.125,0 C 47.63142,4.0400347 46.761197,3.9803914 46.0625,3.9375 45.713152,3.9160543 45.422683,3.879205 45.1875,3.875 z m -1.375,10 c -0.01461,0.0077 -0.01569,0.02297 -0.03125,0.03125 -0.207474,0.110344 -0.510314,0.266386 -0.875,0.46875 -0.729372,0.404728 -1.748513,0.994811 -2.96875,1.6875 -2.440474,1.385378 -5.657848,3.209138 -8.875,5.0625 -3.217152,1.853362 -6.438927,3.719064 -8.84375,5.125 -1.202412,0.702968 -2.203579,1.298496 -2.90625,1.71875 -0.351336,0.210127 -0.620448,0.380159 -0.8125,0.5 -0.09603,0.05992 -0.161856,0.117819 -0.21875,0.15625 -0.01991,0.01345 -0.04467,0.01817 -0.0625,0.03125 -0.0076,0.0056 -0.02317,-0.0063 -0.03125,0 -0.01346,0.01047 -0.03785,0.03825 -0.0625,0.0625 0.02435,-0.04527 0.02317,-0.07381 0.03125,-0.09375 0.0058,-0.01424 0.0312,-0.06242 0.03125,-0.0625 0.135969,-0.16768 0.435953,-0.485397 0.84375,-1.09375 1.264344,-1.886146 2.175955,-3.050955 3.75,-4.625 1.619955,-1.619951 2.735917,-2.501626 4.75,-3.84375 4.482247,-2.986841 9.638661,-4.716212 15.09375,-5.03125 l 0.875,-0.0625 c 0.01303,-3.33e-4 0.0186,4.95e-4 0.03125,0 0.114679,-0.0045 0.197033,-0.02395 0.28125,-0.03125 z m 1.0625,0.03125 c 0.06131,0.006 0.109169,-0.0032 0.1875,0 0.01306,5.28e-4 0.01771,-3.36e-4 0.03125,0 l 0.875,0.0625 c 5.978112,0.34026 11.73709,2.416488 16.5,5.96875 1.508911,1.125378 2.864586,2.345291 4.09375,3.65625 0.924984,0.986536 1.80013,2.007539 2.59375,3.125 0.148455,0.208996 0.268172,0.420058 0.40625,0.625 0.112432,0.16652 0.224386,0.346915 0.34375,0.53125 0.0083,0.01274 0.01846,0.01717 0.03125,0.03125 0.165848,0.258144 0.309311,0.523652 0.46875,0.78125 -0.0558,-0.0389 -0.125126,-0.09697 -0.21875,-0.15625 -0.187247,-0.118555 -0.465025,-0.290566 -0.8125,-0.5 -0.69495,-0.418868 -1.675111,-0.982688 -2.875,-1.6875 -2.399778,-1.409624 -5.617324,-3.292004 -8.84375,-5.15625 -3.226426,-1.864246 -6.48316,-3.729891 -8.9375,-5.125 -1.22717,-0.697555 -2.264244,-1.279694 -3,-1.6875 C 45.350872,14.171097 45.085566,14.017614 44.875,13.90625 z M 17.625,29.5 l 0,0.09375 c -0.0045,0.0187 0.0016,0.02127 0,0.03125 l 0,0.0625 c -0.0024,0.0265 0.0016,0.03117 0,0.0625 -0.0031,0.06265 0.0027,0.14431 0,0.25 -0.0054,0.21138 -0.02659,0.52119 -0.03125,0.90625 -0.0093,0.77012 -0.02538,1.864249 -0.03125,3.21875 -0.01175,2.709003 -0.0079,6.437661 0,10.53125 l 0.03125,14.53125 c -0.0025,-0.0045 -0.02876,0.0045 -0.03125,0 -0.02399,-0.0718 -0.01653,-0.07101 -0.03125,-0.09375 -0.01682,-0.02599 -0.0518,-0.07789 -0.0625,-0.09375 -0.05608,-0.138529 -0.135834,-0.347195 -0.3125,-0.6875 -1.574404,-3.032741 -2.625786,-6.489442 -3.125,-10.1875 -0.211774,-1.568769 -0.265738,-5.208422 -0.09375,-6.875 0.0068,-0.06755 0.02026,-0.118874 0.03125,-0.21875 0.473005,-3.770182 1.496848,-7.299897 3.09375,-10.4375 0.141398,-0.277817 0.275347,-0.518359 0.375,-0.75 0.0083,-0.0193 0.02328,-0.04336 0.03125,-0.0625 0.01155,-0.01742 0.01036,0.0068 0.03125,-0.03125 a 0.43426466,0.43426466 0 0 0 0,-0.03125 c 0.0067,-0.01211 0.02454,-0.01916 0.03125,-0.03125 0.0035,-0.0087 -0.0023,-0.02047 0,-0.03125 0.0287,-0.05144 0.06428,-0.105059 0.09375,-0.15625 z m 53.28125,0 c 0.05531,0.09712 0.133859,0.18311 0.1875,0.28125 0.01106,0.02023 0.02027,0.04222 0.03125,0.0625 0.100693,0.242252 0.240204,0.543402 0.40625,0.875 4.300536,8.588713 4.304048,18.748252 0,27.34375 -0.19327,0.385977 -0.344476,0.669186 -0.4375,0.90625 0.0064,-0.0119 0.01688,-0.01202 0,0.03125 -0.0063,0.01016 -0.01394,0.01647 -0.03125,0.0625 -0.05708,0.103515 -0.127826,0.209981 -0.1875,0.3125 l 0,-0.1875 0,-0.03125 c 0.08201,-1.065191 0.09772,-4.4034 0.09375,-14.53125 -0.0016,-4.090106 -0.01915,-7.821604 -0.03125,-10.53125 -0.006,-1.354823 0.0068,-2.455028 0,-3.21875 -0.0034,-0.381861 -0.02788,-0.670393 -0.03125,-0.875 -0.0017,-0.102303 0.0017,-0.193251 0,-0.25 -8.74e-4,-0.02837 0.0012,-0.04115 0,-0.0625 -6.2e-4,-0.01067 0.0019,-0.01412 0,-0.03125 -9.26e-4,-0.0086 0.0043,-0.04027 0,-0.0625 l 0,-0.09375 z m -0.4375,30.59375 c -0.02699,0.04441 -0.06661,0.08019 -0.09375,0.125 -0.03848,0.06353 -0.07865,0.144689 -0.125,0.21875 -0.0079,0.01267 -0.0233,0.0184 -0.03125,0.03125 -0.169131,0.230382 -0.318698,0.386804 -0.625,0.84375 -1.255188,1.872475 -2.168898,3.012639 -3.75,4.59375 -1.626415,1.626427 -2.754034,2.544936 -4.75,3.875 -4.480117,2.985446 -9.674369,4.716457 -15.125,5.03125 L 44.875,74.875 44.90625,74.84375 c 0.03476,-0.01527 0.05386,-0.01103 0.09375,-0.03125 0.07978,-0.04044 0.191989,-0.121174 0.3125,-0.1875 0.241022,-0.132651 0.561323,-0.300369 0.90625,-0.5 0.68014,-0.393628 6.43271,-3.700176 12.75,-7.34375 3.159151,-1.822079 6.049176,-3.488234 8.15625,-4.71875 1.053537,-0.615258 1.89862,-1.113268 2.5,-1.46875 0.30069,-0.177741 0.553625,-0.338008 0.71875,-0.4375 0.05081,-0.03061 0.08756,-0.03959 0.125,-0.0625 z m -52.25,0.125 12.4375,7.1875 c 4.590122,2.65298 7.965353,4.589581 10.28125,5.90625 l 2.59375,1.5 C 43.264178,74.778116 42.92702,74.740408 42.5625,74.71875 32.974611,74.14878 24.166682,69.056075 18.875,61.03125 18.601573,60.616593 18.407197,60.444087 18.21875,60.21875 z" />
  <g
     transform="matrix(0.27329388,0,0,0.27329388,-116.17348,137.77492)"
     id="layer1">
    <g
       transform="matrix(0.499989,0,0,0.499989,301.618,-244.854)"
       id="g3312">
      <path
         d="m 571.26982,-486.6847 c -161.98402,0 -292.6875,131.0294 -292.6875,293.0135 0,161.9839 130.07148,292.2493 292.0555,292.2493 161.98403,0 293.18498,-129.7603 293.18498,-291.7442 0,-161.9841 -130.32341,-293.5632 -292.30744,-293.5632 l -0.24554,0.045 0,-4e-4 0,0 0,0 0,0 0,0 z m -0.0223,66.5479 c 125.18216,0 226.14998,101.2834 226.14998,226.4656 0,125.182 -100.96782,226.5287 -226.14998,226.5287 -125.18214,0 -226.78125,-101.3467 -226.78125,-226.5287 0,-125.1822 101.59911,-226.4656 226.78125,-226.4656 l 0,0 z"
         id="path3273"
         style="fill:#eeeeec;fill-opacity:1;stroke:none"
         inkscape:connector-curvature="0" />
      <path
         d="m 379.05952,-304.5234 c 0,0 192.20092,-110.6113 192.20092,-110.6113 0,0 191.47848,110.716 191.47848,110.716 L 762.41241,-82.5423 570.73597,28.3219 378.80699,-82.5424 l 0.25253,-221.981 0,0 z"
         id="rect2804"
         style="fill:#eeeeec;fill-opacity:1;stroke:none"
         inkscape:connector-curvature="0" />
      <path
         d="m 472.98795,-28.0612 -94.03974,-54.3527 -0.21125,-109.3022 c -0.11609,-60.1163 0.0711,-109.5624 0.41609,-109.8803 0.45465,-0.419 157.67227,89.7658 186.86521,107.1915 l 3.0899,1.8444 0,109.4637 c 0,87.0364 -0.21309,109.4561 -1.04028,109.426 -0.57215,-0.022 -43.35815,-24.4964 -95.08002,-54.3904 l 9e-5,0 0,0 0,0 z m 52.84536,-26.306 c 0,-12.8794 -0.18785,-15.0047 -1.45637,-16.4848 -0.80099,-0.9346 -17.74687,-10.5804 -37.65751,-21.4352 -39.42884,-21.4957 -43.11734,-23.7008 -48.34577,-28.9025 -6.35668,-6.3241 -6.38498,-6.4874 -6.709,-38.716 -0.27837,-27.6876 -0.23649,-28.6061 1.36101,-29.7755 3.33671,-2.4428 2.77429,-2.7068 51.01484,23.9423 42.21421,23.3199 40.0044,22.2086 41.00746,20.6232 0.4179,-0.6605 0.7656,-7.8068 0.77262,-15.8805 0.0123,-12.806 -0.17306,-14.891 -1.44365,-16.3366 -1.69762,-1.9317 -79.42814,-45.0687 -85.54321,-47.4727 -14.15961,-5.5667 -23.08701,-3.2054 -27.74994,7.3399 -2.87751,6.5075 -3.41206,13.5011 -3.4028,44.5182 0.0123,40.5305 1.67261,51.2887 10.14752,65.7446 4.12576,7.0375 15.55061,18.6858 23.22072,23.675 3.0309,1.9715 22.87912,13.0527 44.10716,24.6248 28.1953,15.3702 38.87673,20.8086 39.63666,20.1809 0.76092,-0.6286 1.04026,-4.8295 1.04026,-15.6451 l 0,0 0,0 0,0 z M 761.2232,-316.3149 c -15.00636,-23.1743 -32.86328,-42.2194 -55.21635,-58.8908 -35.35999,-26.3721 -77.9656,-41.8143 -122.33494,-44.3397 l -9.98652,-0.5685 -0.21772,-33.1027 c -0.18261,-27.7819 -0.0308,-33.1749 0.94978,-33.5508 1.8405,-0.7063 26.38902,1.204 39.21396,3.0515 17.14401,2.4696 32.14504,6.0774 49.93264,12.009 17.90299,5.97 28.37776,10.4017 44.40814,18.7883 38.15806,19.9633 71.47331,48.4035 97.94071,83.609 7.5964,10.1042 18.0119,26.1193 17.6592,27.1532 -0.239,0.7005 -56.19161,33.1558 -57.10447,33.1234 -0.29778,-0.01 -2.65807,-3.2874 -5.24453,-7.2819 l 10e-5,0 0,0 z"
         id="path2730"
         style="fill:#ddda45"
         inkscape:connector-curvature="0" />
      <path
         d="m 797.1339,-65.2003 c -14.8758,-8.6434 -27.3701,-16.215 -27.76516,-16.8258 -0.47503,-0.7345 0.82856,-4.1999 3.84836,-10.2307 31.9468,-63.8001 31.9618,-139.1599 0.041,-202.9098 -2.4894,-4.9714 -4.35769,-9.4779 -4.15183,-10.0142 0.45369,-1.1825 54.36493,-32.3136 56.19253,-32.4485 3.79,-0.2799 21.4051,40.0086 28.059,64.1751 7.7557,28.1685 10.6703,49.9031 10.6878,79.7019 0.018,29.6612 -2.8999,51.4164 -10.6878,79.7019 -6.4493,23.424 -24.0145,63.9125 -27.9425,64.4092 -0.6789,0.086 -13.4055,-6.9158 -28.2812,-15.5591 l 10e-5,0 0,0 -3e-4,0 z"
         id="path2726"
         style="fill:#e7762a"
         inkscape:connector-curvature="0" />
      <path
         d="m 573.2693,-82.9918 0,-109.3591 8.53015,-4.9748 c 46.12023,-26.8973 180.67044,-104.1863 180.92751,-103.9292 0.18261,0.1825 0.3517,49.3057 0.37581,109.1627 0.0354,89.5275 -0.15243,109.0172 -1.06304,109.881 -0.60883,0.5776 -38.93099,22.8655 -85.16025,49.5288 -46.2293,26.6633 -88.16292,50.8572 -93.18586,53.7642 -5.02296,2.9071 -9.4233,5.2856 -9.77848,5.2856 -0.35524,0 -0.64584,-49.2116 -0.64584,-109.3592 l 0,0 z m 57.8386,36.1909 4.99325,-3.005 7.48994,-21.6244 7.48987,-21.6245 26.61348,-14.7718 c 14.63741,-8.1244 26.87858,-14.7717 27.20257,-14.7717 0.32395,0 3.28055,4.8844 6.57015,10.8541 3.28963,5.9697 6.63229,11.6583 7.42828,12.6413 l 1.44723,1.7872 9.46808,-5.3757 c 5.20736,-2.9567 9.58642,-5.9912 9.73134,-6.7433 0.14473,-0.7521 -8.12365,-17.2226 -18.37445,-36.601 -10.25077,-19.3784 -21.94483,-41.5295 -25.98685,-49.2246 -7.95376,-15.1424 -9.69987,-17.0351 -14.7018,-15.9364 -3.23279,0.71 -8.17517,5.6546 -10.40105,10.4057 -0.95594,2.0405 -9.99552,27.1158 -20.08792,55.723 -10.0924,28.6072 -22.69592,64.2922 -28.00783,79.2998 -5.31191,15.0076 -9.42534,27.6631 -9.14102,28.1232 0.50533,0.8176 7.61795,-2.7475 18.26673,-9.1559 l 0,0 0,0 0,0 z m 39.33889,-102.7525 c 3.99568,-11.7121 7.58728,-21.1914 7.98129,-21.0652 1.17232,0.3758 14.79402,25.5243 14.27761,26.3598 -0.46401,0.7508 -25.23653,14.3861 -28.08432,15.4582 -1.12476,0.4234 0.14873,-4.1138 5.82542,-20.7528 l 0,0 z M 309.66304,-62.055 c -13.60387,-27.3665 -22.31747,-54.0227 -27.20993,-83.2395 -2.8037,-16.7431 -3.78625,-29.5233 -3.78625,-49.2488 0,-38.5961 7.00259,-74.6305 21.35562,-109.893 3.65676,-8.9839 14.69161,-31.7941 16.03244,-33.1408 0.54361,-0.5459 54.24245,29.5853 56.96316,31.9629 0.40017,0.3497 -1.33578,4.69 -3.85772,9.6451 -11.86779,23.3179 -19.6705,49.3288 -23.17354,77.2505 -1.50345,11.9835 -1.28749,40.1818 0.40365,52.7096 3.69889,27.4005 11.60673,53.0428 23.31033,75.5872 2.99441,5.768 3.58636,7.5393 2.78085,8.3209 -1.75131,1.6995 -54.5506,31.9049 -55.76992,31.9049 -0.65358,0 -3.70896,-5.1405 -7.04869,-11.859 l 0,0 0,0 0,0 z"
         id="path2724"
         style="fill:#e02826"
         inkscape:connector-curvature="0" />
      <path
         d="m 348.17729,-324.8134 c -15.07588,-8.6957 -27.9026,-16.3022 -28.50383,-16.9035 -0.90269,-0.9026 -0.13734,-2.6004 4.39302,-9.7458 39.89536,-62.9226 104.27736,-109.0481 177.07622,-126.8636 20.39435,-4.9909 39.64581,-7.6563 58.81123,-8.1424 l 8.73821,-0.2216 0,33.2884 0,33.2884 -9.98653,0.5768 c -40.47177,2.3373 -78.82645,15.0843 -112.09723,37.255 -14.83246,9.8839 -23.267,16.7606 -35.22773,28.7213 -11.6366,11.6366 -18.70253,20.2476 -28.01799,34.1444 -3.68186,5.4926 -6.93737,10.0825 -7.23444,10.1998 -0.29716,0.1172 -12.87501,-6.9014 -27.95093,-15.5971 l 0,-10e-5 0,0 0,0 z"
         id="path2722"
         style="fill:#3d9c46"
         inkscape:connector-curvature="0" />
      <path
         d="m 347.01646,-62.8538 c 14.9233,-8.5612 27.72765,-15.5957 28.45415,-15.6325 0.87361,-0.044 3.22294,2.8175 6.93586,8.4482 39.27912,59.5667 104.53512,97.2596 175.70452,101.4904 5.5501,0.3298 10.387,0.965 10.7485,1.4115 0.7972,0.9841 0.8019,63.2382 0,64.8884 -1.6526,3.4222 -45.3511,-1.467 -69.6068,-7.7878 -28.2725,-7.3676 -48.5525,-15.7108 -74.3678,-30.595 -25.69634,-14.815 -43.07794,-28.2196 -63.67996,-49.1069 -17.06112,-17.2972 -43.34259,-52.7534 -41.80875,-56.4035 0.26497,-0.6309 12.69201,-8.1516 27.61518,-16.7127 l -5e-5,1e-4 0,0 0.005,-2e-4 z"
         id="path2802"
         style="fill:#eeeeec"
         inkscape:connector-curvature="0" />
      <path
         d="m 573.684,98.65 c -0.23896,-0.6229 -0.33655,-15.737 -0.21648,-33.5869 l 0.21802,-32.4542 9.98653,-0.5767 c 40.43916,-2.3355 78.86429,-15.1092 112.12595,-37.274 14.71856,-9.8081 23.18857,-16.7212 35.18438,-28.7171 11.67503,-11.6751 18.77554,-20.3199 28.03268,-34.1296 3.68183,-5.4926 6.94892,-10.0864 7.26028,-10.2084 0.68356,-0.2679 54.86384,30.9442 56.42484,32.5051 0.9081,0.9081 0.1844,2.5369 -4.2,9.4518 -27.8321,43.8967 -68.75766,80.9389 -115.06742,104.149 -38.04495,19.068 -75.16707,28.7923 -119.9602,31.424 -7.50342,0.441 -9.43978,0.3256 -9.78843,-0.583 l -1.5e-4,0 0,0 0,0 z m -97.97919,-349.6665 c -51.60075,-29.8386 -93.81965,-54.6265 -93.81977,-55.0842 -3.4e-4,-1.202 187.20659,-109.0195 189.29399,-109.0195 2.33141,0 190.46056,108.6494 189.59581,109.4965 -1.88069,1.8425 -188.52612,108.9515 -189.78184,108.9089 -0.80779,-0.028 -43.68743,-24.4631 -95.28819,-54.3017 l 0,0 z m 62.30097,4.5774 c 1.8619,-0.9499 3.94505,-2.5913 4.62923,-3.6475 0.68418,-1.0562 7.14246,-13.2489 14.35183,-27.0948 7.20928,-13.8459 13.36854,-25.1743 13.6872,-25.1743 0.31862,0 6.55669,11.6423 13.86239,25.8717 9.12423,17.7716 14.12647,26.6196 15.97682,28.2602 5.52355,4.8973 15.957,5.3847 22.22718,1.0383 3.11324,-2.1581 5.16527,-5.9004 26.52975,-48.3828 12.73554,-25.3241 22.95226,-46.5735 22.70384,-47.2209 -0.36402,-0.9486 -3.08097,-1.1746 -14.00121,-1.1643 -7.45227,0.01 -13.9729,0.2879 -14.49036,0.6242 -0.5175,0.3362 -7.75215,14.2361 -16.07706,30.8884 -8.41977,16.8422 -15.44834,29.9516 -15.83964,29.5435 -0.38693,-0.4035 -6.40913,-11.7812 -13.38277,-25.2838 -6.97365,-13.5026 -13.60973,-25.8081 -14.74692,-27.3455 -5.58649,-7.5527 -18.99772,-7.7743 -25.18097,-0.416 -1.12534,1.3392 -8.03801,13.9343 -15.36147,27.989 -7.32343,14.0548 -13.51638,25.5579 -13.76209,25.5626 -0.24574,0.01 -6.97247,-13.1925 -14.9484,-29.327 -7.97589,-16.1345 -15.04195,-29.9908 -15.7023,-30.7918 -1.05072,-1.2745 -2.82116,-1.4547 -14.17894,-1.4436 -7.13809,0.01 -13.50438,0.3458 -14.1473,0.7528 -1.28275,0.8121 5.24946,15.0776 30.1353,65.8113 13.38856,27.2946 15.09224,29.8906 21.0805,32.1204 4.29691,1.6001 12.31022,1.0364 16.63539,-1.1701 l 0,0 0,0 z"
         id="path2720"
         style="fill:#304a96"
         inkscape:connector-curvature="0" />
    </g>
  </g>
</svg>
