<?xml version="1.0" encoding="utf-8"?>
<!-- Generator: Adobe Illustrator 21.1.0, SVG Export Plug-In . SVG Version: 6.00 Build 0)  -->
<svg version="1.1" id="Layer_1" xmlns="http://www.w3.org/2000/svg" xmlns:xlink="http://www.w3.org/1999/xlink" x="0px" y="0px"
	 viewBox="0 0 3840 2358" style="enable-background:new 0 0 3840 2358;" xml:space="preserve">
<style type="text/css">
	.st0{fill:#E8762B;}
	.st1{fill:#3D9C47;}
	.st2{fill:#DDDA46;}
	.st3{fill:#E02A27;}
	.st4{fill:#314B97;}
</style>
<g>
	<g>
		<g>
			<path class="st0" d="M-482.5-238.3c-4.5-4.5-4.5-11.8,0-16.3l408.9-408.9c4.5-4.5,11.8-4.5,16.3,0l408.9,408.9
				c4.5,4.5,4.5,11.8,0,16.3L-57.3,170.6c-4.5,4.5-11.8,4.5-16.3,0L-482.5-238.3z"/>
		</g>
		<g>
			<path class="st1" d="M416.1-238.3c-4.5-4.5-4.5-11.8,0-16.3L825-663.4c4.5-4.5,11.8-4.5,16.3,0l408.9,408.9
				c4.5,4.5,4.5,11.8,0,16.3L841.3,170.6c-4.5,4.5-11.8,4.5-16.3,0L416.1-238.3z"/>
		</g>
		<g>
			<path class="st2" d="M-33.2,211c-4.5-4.5-4.5-11.8,0-16.3l408.9-408.9c4.5-4.5,11.8-4.5,16.3,0l408.9,408.9
				c4.5,4.5,4.5,11.8,0,16.3L392,619.9c-4.5,4.5-11.8,4.5-16.3,0L-33.2,211z"/>
		</g>
		<g>
			<path class="st3" d="M-482.5,660.3c-4.5-4.5-4.5-11.8,0-16.3l408.9-408.9c4.5-4.5,11.8-4.5,16.3,0l408.9,408.9
				c4.5,4.5,4.5,11.8,0,16.3l-408.9,408.9c-4.5,4.5-11.8,4.5-16.3,0L-482.5,660.3z"/>
		</g>
		<g>
			<path class="st2" d="M1314.7-238.3c-4.5-4.5-4.5-11.8,0-16.3l408.9-408.9c4.5-4.5,11.8-4.5,16.3,0l408.9,408.9
				c4.5,4.5,4.5,11.8,0,16.3l-408.9,408.9c-4.5,4.5-11.8,4.5-16.3,0L1314.7-238.3z"/>
		</g>
		<g>
			<path class="st0" d="M865.4,211c-4.5-4.5-4.5-11.8,0-16.3l408.9-408.9c4.5-4.5,11.8-4.5,16.3,0l408.9,408.9
				c4.5,4.5,4.5,11.8,0,16.3l-408.9,408.9c-4.5,4.5-11.8,4.5-16.3,0L865.4,211z"/>
		</g>
		<g>
			<path class="st4" d="M416.1,660.3c-4.5-4.5-4.5-11.8,0-16.3L825,235.2c4.5-4.5,11.8-4.5,16.3,0l408.9,408.9
				c4.5,4.5,4.5,11.8,0,16.3l-408.9,408.9c-4.5,4.5-11.8,4.5-16.3,0L416.1,660.3z"/>
		</g>
		<g>
			<path class="st0" d="M-33.2,1109.6c-4.5-4.5-4.5-11.8,0-16.3l408.9-408.9c4.5-4.5,11.8-4.5,16.3,0l408.9,408.9
				c4.5,4.5,4.5,11.8,0,16.3L392,1518.5c-4.5,4.5-11.8,4.5-16.3,0L-33.2,1109.6z"/>
		</g>
		<g>
			<path class="st4" d="M2213.3-238.3c-4.5-4.5-4.5-11.8,0-16.3l408.9-408.9c4.5-4.5,11.8-4.5,16.3,0l408.9,408.9
				c4.5,4.5,4.5,11.8,0,16.3l-408.9,408.9c-4.5,4.5-11.8,4.5-16.3,0L2213.3-238.3z"/>
		</g>
		<g>
			<path class="st3" d="M1764,211c-4.5-4.5-4.5-11.8,0-16.3l408.9-408.9c4.5-4.5,11.8-4.5,16.3,0l408.9,408.9
				c4.5,4.5,4.5,11.8,0,16.3l-408.9,408.9c-4.5,4.5-11.8,4.5-16.3,0L1764,211z"/>
		</g>
		<g>
			<path class="st1" d="M1314.7,660.3c-4.5-4.5-4.5-11.8,0-16.3l408.9-408.9c4.5-4.5,11.8-4.5,16.3,0l408.9,408.9
				c4.5,4.5,4.5,11.8,0,16.3l-408.9,408.9c-4.5,4.5-11.8,4.5-16.3,0L1314.7,660.3z"/>
		</g>
		<g>
			<path class="st3" d="M865.4,1109.6c-4.5-4.5-4.5-11.8,0-16.3l408.9-408.9c4.5-4.5,11.8-4.5,16.3,0l408.9,408.9
				c4.5,4.5,4.5,11.8,0,16.3l-408.9,408.9c-4.5,4.5-11.8,4.5-16.3,0L865.4,1109.6z"/>
		</g>
		<g>
			<path class="st3" d="M3111.9-238.3c-4.5-4.5-4.5-11.8,0-16.3l408.9-408.9c4.5-4.5,11.8-4.5,16.3,0l408.9,408.9
				c4.5,4.5,4.5,11.8,0,16.3l-408.9,408.9c-4.5,4.5-11.8,4.5-16.3,0L3111.9-238.3z"/>
		</g>
		<g>
			<path class="st1" d="M2662.6,211c-4.5-4.5-4.5-11.8,0-16.3l408.9-408.9c4.5-4.5,11.8-4.5,16.3,0l408.9,408.9
				c4.5,4.5,4.5,11.8,0,16.3l-408.9,408.9c-4.5,4.5-11.8,4.5-16.3,0L2662.6,211z"/>
		</g>
		<g>
			<path class="st0" d="M2213.3,660.3c-4.5-4.5-4.5-11.8,0-16.3l408.9-408.9c4.5-4.5,11.8-4.5,16.3,0l408.9,408.9
				c4.5,4.5,4.5,11.8,0,16.3l-408.9,408.9c-4.5,4.5-11.8,4.5-16.3,0L2213.3,660.3z"/>
		</g>
		<g>
			<path class="st2" d="M1764,1109.6c-4.5-4.5-4.5-11.8,0-16.3l408.9-408.9c4.5-4.5,11.8-4.5,16.3,0l408.9,408.9
				c4.5,4.5,4.5,11.8,0,16.3l-408.9,408.9c-4.5,4.5-11.8,4.5-16.3,0L1764,1109.6z"/>
		</g>
		<g>
			<path class="st4" d="M3561.2,211c-4.5-4.5-4.5-11.8,0-16.3l408.9-408.9c4.5-4.5,11.8-4.5,16.3,0l408.9,408.9
				c4.5,4.5,4.5,11.8,0,16.3l-408.9,408.9c-4.5,4.5-11.8,4.5-16.3,0L3561.2,211z"/>
		</g>
		<g>
			<path class="st2" d="M3111.9,660.3c-4.5-4.5-4.5-11.8,0-16.3l408.9-408.9c4.5-4.5,11.8-4.5,16.3,0l408.9,408.9
				c4.5,4.5,4.5,11.8,0,16.3l-408.9,408.9c-4.5,4.5-11.8,4.5-16.3,0L3111.9,660.3z"/>
		</g>
		<g>
			<path class="st4" d="M2662.6,1109.6c-4.5-4.5-4.5-11.8,0-16.3l408.9-408.9c4.5-4.5,11.8-4.5,16.3,0l408.9,408.9
				c4.5,4.5,4.5,11.8,0,16.3l-408.9,408.9c-4.5,4.5-11.8,4.5-16.3,0L2662.6,1109.6z"/>
		</g>
		<g>
			<path class="st1" d="M3561.2,1109.6c-4.5-4.5-4.5-11.8,0-16.3l408.9-408.9c4.5-4.5,11.8-4.5,16.3,0l408.9,408.9
				c4.5,4.5,4.5,11.8,0,16.3l-408.9,408.9c-4.5,4.5-11.8,4.5-16.3,0L3561.2,1109.6z"/>
		</g>
		<g>
			<path class="st1" d="M-482.5,1558.9c-4.5-4.5-4.5-11.8,0-16.3l408.9-408.9c4.5-4.5,11.8-4.5,16.3,0l408.9,408.9
				c4.5,4.5,4.5,11.8,0,16.3l-408.9,408.9c-4.5,4.5-11.8,4.5-16.3,0L-482.5,1558.9z"/>
		</g>
		<g>
			<path class="st2" d="M416.1,1558.9c-4.5-4.5-4.5-11.8,0-16.3L825,1133.7c4.5-4.5,11.8-4.5,16.3,0l408.9,408.9
				c4.5,4.5,4.5,11.8,0,16.3l-408.9,408.9c-4.5,4.5-11.8,4.5-16.3,0L416.1,1558.9z"/>
		</g>
		<g>
			<path class="st3" d="M-33.2,2008.2c-4.5-4.5-4.5-11.8,0-16.3L375.7,1583c4.5-4.5,11.8-4.5,16.3,0l408.9,408.9
				c4.5,4.5,4.5,11.8,0,16.3L392,2417.1c-4.5,4.5-11.8,4.5-16.3,0L-33.2,2008.2z"/>
		</g>
		<g>
			<path class="st4" d="M-482.5,2457.5c-4.5-4.5-4.5-11.8,0-16.3l408.9-408.9c4.5-4.5,11.8-4.5,16.3,0l408.9,408.9
				c4.5,4.5,4.5,11.8,0,16.3l-408.9,408.9c-4.5,4.5-11.8,4.5-16.3,0L-482.5,2457.5z"/>
		</g>
		<g>
			<path class="st4" d="M1314.7,1558.9c-4.5-4.5-4.5-11.8,0-16.3l408.9-408.9c4.5-4.5,11.8-4.5,16.3,0l408.9,408.9
				c4.5,4.5,4.5,11.8,0,16.3l-408.9,408.9c-4.5,4.5-11.8,4.5-16.3,0L1314.7,1558.9z"/>
		</g>
		<g>
			<path class="st0" d="M865.4,2008.2c-4.5-4.5-4.5-11.8,0-16.3l408.9-408.9c4.5-4.5,11.8-4.5,16.3,0l408.9,408.9
				c4.5,4.5,4.5,11.8,0,16.3l-408.9,408.9c-4.5,4.5-11.8,4.5-16.3,0L865.4,2008.2z"/>
		</g>
		<g>
			<path class="st1" d="M416.1,2457.5c-4.5-4.5-4.5-11.8,0-16.3L825,2032.3c4.5-4.5,11.8-4.5,16.3,0l408.9,408.9
				c4.5,4.5,4.5,11.8,0,16.3l-408.9,408.9c-4.5,4.5-11.8,4.5-16.3,0L416.1,2457.5z"/>
		</g>
		<g>
			<path class="st3" d="M2213.3,1558.9c-4.5-4.5-4.5-11.8,0-16.3l408.9-408.9c4.5-4.5,11.8-4.5,16.3,0l408.9,408.9
				c4.5,4.5,4.5,11.8,0,16.3l-408.9,408.9c-4.5,4.5-11.8,4.5-16.3,0L2213.3,1558.9z"/>
		</g>
		<g>
			<path class="st1" d="M1764,2008.2c-4.5-4.5-4.5-11.8,0-16.3l408.9-408.9c4.5-4.5,11.8-4.5,16.3,0l408.9,408.9
				c4.5,4.5,4.5,11.8,0,16.3l-408.9,408.9c-4.5,4.5-11.8,4.5-16.3,0L1764,2008.2z"/>
		</g>
		<g>
			<path class="st2" d="M1314.7,2457.5c-4.5-4.5-4.5-11.8,0-16.3l408.9-408.9c4.5-4.5,11.8-4.5,16.3,0l408.9,408.9
				c4.5,4.5,4.5,11.8,0,16.3l-408.9,408.9c-4.5,4.5-11.8,4.5-16.3,0L1314.7,2457.5z"/>
		</g>
		<g>
			<path class="st0" d="M3111.9,1558.9c-4.5-4.5-4.5-11.8,0-16.3l408.9-408.9c4.5-4.5,11.8-4.5,16.3,0l408.9,408.9
				c4.5,4.5,4.5,11.8,0,16.3l-408.9,408.9c-4.5,4.5-11.8,4.5-16.3,0L3111.9,1558.9z"/>
		</g>
		<g>
			<path class="st2" d="M2662.6,2008.2c-4.5-4.5-4.5-11.8,0-16.3l408.9-408.9c4.5-4.5,11.8-4.5,16.3,0l408.9,408.9
				c4.5,4.5,4.5,11.8,0,16.3l-408.9,408.9c-4.5,4.5-11.8,4.5-16.3,0L2662.6,2008.2z"/>
		</g>
		<g>
			<path class="st0" d="M2213.3,2457.5c-4.5-4.5-4.5-11.8,0-16.3l408.9-408.9c4.5-4.5,11.8-4.5,16.3,0l408.9,408.9
				c4.5,4.5,4.5,11.8,0,16.3l-408.9,408.9c-4.5,4.5-11.8,4.5-16.3,0L2213.3,2457.5z"/>
		</g>
		<g>
			<path class="st4" d="M3561.2,2008.2c-4.5-4.5-4.5-11.8,0-16.3l408.9-408.9c4.5-4.5,11.8-4.5,16.3,0l408.9,408.9
				c4.5,4.5,4.5,11.8,0,16.3l-408.9,408.9c-4.5,4.5-11.8,4.5-16.3,0L3561.2,2008.2z"/>
		</g>
		<g>
			<path class="st3" d="M3111.9,2457.5c-4.5-4.5-4.5-11.8,0-16.3l408.9-408.9c4.5-4.5,11.8-4.5,16.3,0l408.9,408.9
				c4.5,4.5,4.5,11.8,0,16.3l-408.9,408.9c-4.5,4.5-11.8,4.5-16.3,0L3111.9,2457.5z"/>
		</g>
	</g>
</g>
</svg>
